<?xml version="1.0" encoding="UTF-8"?>
<svg id="Layer_1" data-name="Layer 1" xmlns="http://www.w3.org/2000/svg" width="570.97609" height="103.85804" version="1.1" viewBox="0 0 570.97609 103.85804">
  <g id="Layer_1-2" data-name="Layer 1" focusable="false">
    <path d="M114.69446,83.53973c3.69983,0,6.87109-3.17128,6.87109-6.8711s-3.17128-6.8711-6.87109-6.8711-6.87109,3.17128-6.87109,6.8711h0c0,3.69982,3.17128,6.8711,6.87109,6.8711Z" fill="#fff" fill-opacity=".6" stroke-width="0"/>
    <path d="M187.10523,81.95409c-23.78456,6.34255-44.9264-14.79929-38.58384-38.58385,2.64273-11.09946,11.09947-19.5562,22.19893-22.19893,23.78456-6.34255,44.9264,14.79928,38.58384,38.58385-2.64273,11.09947-11.09946,19.5562-22.19893,22.19893h0ZM184.46251,35.44206c-8.98528-3.17127-18.49911,1.58564-21.67038,10.57092-1.0571,3.69982-1.0571,7.39964,0,11.09946,1.58563,4.75691,5.81401,8.98528,10.57091,10.57092,8.98528,3.17128,18.49911-1.58564,21.67037-10.57092,1.0571-3.69982,1.0571-7.39964,0-11.09946-1.58563-4.75691-5.814-8.98528-10.57092-10.57092h.00002ZM141.12175,76.14009V27.51387c0-5.28546-5.28546-8.98528-10.57092-6.34255-2.64273,1.05709-3.69983,3.69982-3.69983,6.34255v49.15476c0,2.64273,1.58563,5.28546,3.69983,6.34255,5.28546,2.64273,10.57092-1.58564,10.57092-6.34255v-.52854ZM45.98349,58.69808H15.32783c2.64273,6.8711,9.51383,11.09946,16.38492,11.09946h14.27074c3.69982,0,6.8711,3.17128,6.8711,6.8711s-3.17128,6.8711-6.8711,6.8711h-14.27074c-17.44201,0-31.71275-14.27074-31.71275-31.71275s14.79929-31.71275,32.2413-31.71275h14.27074c3.69982,0,6.8711,3.17128,6.8711,6.8711s-3.17128,6.8711-6.8711,6.8711h-14.27074c-7.39964,0-13.74219,4.22837-16.38492,11.09946h30.65566c3.69982,0,6.8711,3.17127,6.8711,6.8711s-3.17128,6.8711-6.8711,6.8711h-.52855ZM114.16591,20.11423c-9.51382,0-18.49911,4.22837-24.31311,11.62801-5.814-6.8711-14.79928-11.62801-24.31311-11.62801-3.69982,0-6.8711,2.64273-7.39964,5.814,0,3.69982,2.11418,7.39964,5.81401,7.39964h1.05709c8.45674,0,15.85638,5.814,17.44201,14.27074v4.22837h0v3.69982c-2.11418,7.92819-8.98528,13.74219-17.44201,13.74219-3.69982,0-6.34255,2.64273-6.8711,5.81401,0,3.69982,2.11418,6.8711,5.81401,7.39964h.52855c9.51383,0,18.49911-4.22837,24.84165-11.62801,3.69983,4.22837,7.92819,7.92819,13.74219,10.04237h0c-.52855-1.58564-1.0571-3.17128-1.0571-4.75691,0-3.17128,1.0571-6.34255,3.69983-8.45674h0c-4.75691-2.64273-7.92819-6.8711-8.98528-11.62801v-3.69982h0c0-2.11418,0-3.69982.52855-5.28546,2.11418-7.92819,8.98528-13.21365,17.44201-13.21365,3.69983,0,6.87109-3.17128,6.87109-6.8711v-1.05709c0-3.69982-3.69983-5.814-7.39964-5.814h0Z" fill="#fff" fill-opacity=".8" stroke-width="0"/>
  </g>
  <g>
    <path d="M268.47968,39.00742c6.15514-.00104,12.31028-.00195,18.46542-.00326,1.16336-.00025,1.42056-.33278,1.16238-1.44787-.49636-2.14378-.96762-4.29345-1.47607-6.43432-.12577-.52956.03659-.62956.54213-.62839,6.53234.01517,13.06474.00992,19.59712.00964.11912,0,.23836.00067.35735-.00398.71065-.02775.96752-.27287.97017-.98364.00817-2.1835.02404-4.36736-.00906-6.55039-.00895-.59001.13203-.76009.7515-.75758,6.47271.02623,12.94558.02268,19.41835.00355.52735-.00156.6553.13767.65477.65884-.01353,13.35919-.0121,26.71841.00412,40.07761.00064.52987-.19356.60163-.65448.60062-6.19482-.01353-12.38969-.0098-18.58454-.00803-1.15357.00033-1.31778.16116-1.32036,1.28738-.00491,2.1438-.01433,4.28769.00195,6.43136.00307.40391-.10203.55322-.52404.55185-3.83203-.01248-7.66413-.01146-11.49618-.00128-.37027.00099-.50928-.13368-.58959-.49115-1.38209-6.15161-2.77801-12.30012-4.1719-18.44909-.21472-.94721-.43894-1.89228-.65-2.84029-.10857-.48766-.36503-.79985-.8978-.75584-.54133.04472-.7329.40128-.72986.90343.00229.37713-.00237.75429-.00234,1.13143.00072,9.46859-.00262,18.93718.01419,28.40574.00091.51437-.15933.62015-.64151.61906-6.49265-.01469-12.98535-.00944-19.47803-.00815-.23789.00005-.47579.01008-.71368.01546,0-13.77758,0-27.55516,0-41.33274Z" fill="#16a701" stroke-width="0"/>
    <path d="M443.02647,81.65042c.01677-.25529.04814-.51057.04823-.76586.00429-12.66211.00896-25.32423-.00365-37.98633-.00049-.49977.12589-.64439.62746-.63161,1.34902.0344,2.69973.02553,4.04926.00295.41574-.00696.57446.12136.53266.53904-.02948.29467-.01844.59559-.00125.89231.04989.86111.70179,1.21659,1.45527.78919.20487-.1162.38862-.27362.57018-.42625,1.7657-1.48425,3.76072-2.21591,6.10686-2.249,3.07687-.04339,5.79336.73137,8.10491,2.80276,1.88751,1.69142,3.11309,3.81516,3.83668,6.19686,1.33924,4.40809,1.19581,8.78988-.74529,13.00446-1.60717,3.48954-4.16423,6.02002-8.05484,6.7673-2.61149.50159-5.2589.56185-7.69663-.85967-.53183-.31013-1.0306-.66643-1.5144-1.04653-.23304-.18307-.47053-.37308-.73436-.50191-.67723-.33067-1.23662-.01746-1.32384.73154-.03197.27441-.01241.55507-.01248.83289-.00119,3.96929-.00172,7.93857-.00241,11.90785h-5.24236ZM463.82251,57.42945c.04029-3.23563-.44054-5.32211-1.47888-7.26816-.87817-1.64585-2.12204-2.90922-3.91183-3.55427-1.0754-.38759-2.19972-.20941-3.30549-.24373-2.24309-.06962-4.02017.8951-5.17758,2.72619-2.81126,4.44752-2.85975,9.08428-.5085,13.7344.93634,1.85182,2.43497,3.11263,4.57549,3.42567.8672.12683,1.74431.03097,2.61618.06053,1.81573.06156,3.28753-.6805,4.45882-2.00091,1.99621-2.25029,2.68032-4.98008,2.7318-6.87973Z" fill="#17a703" stroke-width="0"/>
    <path d="M497.23725,70.45365c-1.24375-.14196-2.49158-.04175-3.73732-.05706-1.48379-.01824-1.4839-.00246-1.48406-1.48844-.00054-5.30054.00477-10.60109-.00497-15.90162-.00333-1.80966-.40361-3.50996-1.60675-4.92569-.86233-1.01468-1.96917-1.57966-3.32152-1.60248-.57571-.00971-1.15302.02115-1.72731-.00957-2.63255-.14082-4.40614,1.16877-5.65076,3.34712-.97717,1.71024-1.39849,3.57284-1.39967,5.53428-.00287,4.78438-.00937,9.56879.00809,14.35311.00191.52118-.10172.72304-.67544.70285-1.32881-.04678-2.66054-.02834-3.99069-.00951-.40678.00576-.54187-.10893-.54146-.53708.01171-12.64584.01214-25.2917.00074-37.93755-.00038-.4294.08145-.58699.54611-.57617,1.36942.03188,2.7406.03486,4.10988.00044.47304-.01189.54946.15982.5479.57743-.01421,3.81157-.01073,7.62322-.00823,11.43484.00025.3762-.01025.75906.05306,1.12698.09385.54528.49618.74931,1.01558.56546.28812-.10199.51412-.29503.72154-.51208,1.83086-1.9159,4.03612-2.86987,6.71843-2.7075,1.32209.08003,2.66299-.09281,3.95206.35191,2.85684.9856,4.58494,3.0721,5.67012,5.79346.30813.7727.47825,1.57464.5662,2.39555.02057.19189.04507.34761.23846.42742v19.65389Z" fill="#17a703" stroke-width="0"/>
    <path d="M353.37818,50.81303c.00023-6.31294.00563-12.6259-.01143-18.9388-.0012-.43968.13498-.52627.53374-.52296,2.02526.01685,4.05089.02177,6.07602-.00084.44537-.00497.6576.12388.82004.55529,2.62056,6.95984,5.25984,13.91263,7.89686,20.86626.89281,2.35426,1.79418,4.70527,2.68443,7.06049.18449.48809.41536.93465,1.00613.95053.63403.01704.86567-.46876,1.05442-.96636,2.30038-6.06418,4.59938-12.12887,6.89863-18.19347,1.23668-3.26192,2.4796-6.52151,3.70043-9.78936.13344-.3572.30306-.48769.68166-.48473,2.06499.01616,4.13028.0206,6.19517-.00061.44611-.00458.56643.12817.56604.57114-.01105,12.64573-.01037,25.29146-.00015,37.93719.00033.41911-.12435.54079-.53966.53389-1.38959-.02309-2.78044-.03129-4.1695.00471-.53153.01378-.65944-.15338-.65711-.67236.03655-8.11928.05191-16.23865.07161-24.35801.00053-.21831-.00064-.43679-.00879-.65491-.01886-.5043-.27914-.83376-.77278-.90911-.48429-.07393-.78015.20831-.94625.64167-.60307,1.57339-1.2055,3.14704-1.80767,4.72078-2.61485,6.83378-5.23649,13.66498-7.83122,20.50638-.21063.55534-.47537.76169-1.07058.72875-.97005-.05368-1.94584-.03621-2.91789-.00622-.44134.01362-.66135-.11584-.82491-.5508-2.81214-7.47844-5.64317-14.94978-8.47081-22.42239-.34393-.9089-.6863-1.81846-1.0403-2.72346-.26285-.67198-.70358-1.01891-1.15853-.88981-.637.18076-.65908.71237-.65779,1.24683.01971,8.15907.03882,16.31814.05703,24.47722.00191.85514-.00114.85526-.87504.85492-1.29071-.00051-2.58204-.02464-3.87181.00981-.51053.01364-.62159-.16017-.62042-.64289.01529-6.31291.01016-12.62586.0104-18.9388Z" fill="#17a703" stroke-width="0"/>
    <path d="M408.43689,41.84771c1.67899-.07038,3.33531.04521,4.9197.66155,3.46532,1.34802,5.78782,3.86149,7.07675,7.278,2.06047,5.46156,1.7715,10.80644-1.39836,15.78792-2.17848,3.42349-5.38959,5.2385-9.51571,5.2497-1.56473.00425-3.13617.09095-4.68237-.27138-3.08451-.72281-5.37878-2.53688-7.07543-5.15078-1.97649-3.04501-2.59718-6.43822-2.44883-10.00386.12172-2.92578.84447-5.68701,2.48582-8.14718,2.32786-3.48911,5.52942-5.429,9.80476-5.40418.27788.00161.55578.00021.83368.00021ZM408.56376,66.30835c.65944-.02345,1.44048.07173,2.19668-.15166,2.25367-.66578,3.63829-2.26612,4.5136-4.34089,1.25494-2.9746,1.35107-6.05993.60467-9.16504-.50823-2.11433-1.53359-3.94013-3.33614-5.26504-1.91049-1.40426-4.08883-1.19468-6.19014-.87678-2.14588.32465-3.48931,1.89397-4.4105,3.7513-1.74015,3.50855-1.77722,7.17406-.59847,10.82786,1.1617,3.60096,3.48898,5.22051,7.22029,5.22025Z" fill="#17a703" stroke-width="0"/>
    <path d="M425.58846,56.33011c0-4.44446.01044-8.88898-.01286-13.33332-.00301-.574.15082-.75108.72927-.73235,1.30853.04237,2.61951.02892,3.92902.00795.41004-.00657.56752.11395.53992.5348-.02846.43385-.03312.87642.01969,1.30685.08958.73021.57702.93848,1.17984.52633.17726-.12121.34581-.27075.47877-.43865,1.0217-1.2901,2.38605-1.86327,3.99496-1.90264,1.09098-.02669,2.18325-.00026,3.27429-.0253.40877-.00938.55965.12274.55139.54171-.02187,1.11063-.01827,2.22217-.00035,3.33296.00649.40243-.1176.55644-.54255.54239-.91194-.03014-1.82796.03337-2.73803-.01771-2.35231-.13202-3.91734,1.01813-4.98039,2.99402-.82137,1.52667-1.24891,3.16162-1.24795,4.9032.00275,5.0397-.00467,10.07942.01233,15.11907.00173.51536-.09487.73078-.67438.70972-1.30819-.04754-2.61973-.03895-3.92877-.00698-.48533.01185-.5934-.15161-.5918-.60963.01558-4.48409.00938-8.96826.00938-13.4524h-.0018Z" fill="#17a703" stroke-width="0"/>
  </g>
</svg>