<?xml version="1.0" encoding="UTF-8"?>
<svg id="Layer_1" data-name="Layer 1" xmlns="http://www.w3.org/2000/svg" version="1.1" viewBox="0 0 800 242.2">
  <defs>
    <style>
      .cls-1 {
        fill: #fff;
        stroke-width: 0px;
      }
    </style>
  </defs>
  <g id="Layer_1-2" data-name="Layer_1">
    <g id="_1705846844560" data-name=" 1705846844560">
      <g>
        <path class="cls-1" d="M249.1,197.2v-110.1h16.4l1.4,8.9h.9c4.6-6,12.7-10.4,23.6-10.4,20.2,0,36.6,16.4,36.6,40.9s-16.2,40.9-36.6,40.9-18.5-4.6-22.5-9.8h-.9v39.2h-19v.3h0ZM309,126.6c0-14.4-9.2-23.4-20.5-23.4s-20.5,8.9-20.5,23.4,9.2,23.4,20.5,23.4,20.5-8.9,20.5-23.4Z"/>
        <path class="cls-1" d="M337.6,126.6c0-23.9,17.3-40.9,40.1-40.9s40.1,17.3,40.1,40.9-17.3,40.9-40.1,40.9-40.1-17.3-40.1-40.9ZM398.7,126.6c0-14.1-9.2-23.4-21.1-23.4s-21.1,9.2-21.1,23.4,9.5,23.4,21.1,23.4,21.1-9.2,21.1-23.4Z"/>
        <polygon class="cls-1" points="431.5 166.1 431.5 56.8 450.6 56.8 450.6 166.1 431.5 166.1"/>
        <path class="cls-1" d="M521.5,87.1h20.2l-34.3,96c-3.5,9.5-8.1,14.1-20.5,14.1h-18.4v-17.6h15.6c2.9,0,4.3-1.4,5.2-3.7l1.7-5.2-32.3-83.6h20.2l20.5,54.8h3.2l18.5-54.8h.5Z"/>
        <path class="cls-1" d="M545.4,170.1h19.3c.9,5.2,6,12.1,18.2,12.1s19-7.2,19-18.2v-10.9h-.9c-4.3,4.6-12.1,8.6-21.9,8.6-20.2,0-36-15.6-36-38s15.6-38,36-38,18.2,4.3,23.1,10.1h.9l1.4-8.6h16.4v77c0,21.1-14.1,34.9-38,34.9s-37-17.6-37.5-28.8h0ZM601.6,123.7c0-12.4-8.6-21.1-19.9-21.1s-19.6,8.6-19.6,21.1,8.6,21.1,19.6,21.1c11,0,19.9-8.7,19.9-21.1Z"/>
        <path class="cls-1" d="M633.9,126.6c0-23.9,17.3-40.9,40.1-40.9s40.1,17.3,40.1,40.9-17.3,40.9-40.1,40.9-40.1-17.3-40.1-40.9ZM695,126.6c0-14.1-9.5-23.4-21.1-23.4s-21.1,9.2-21.1,23.4,9.5,23.4,21.1,23.4,21.1-9.2,21.1-23.4Z"/>
        <path class="cls-1" d="M727.3,166.1v-79h16.4l1.4,7.5h.9c3.2-3.5,10.9-8.9,22.8-8.9,18.2,0,31.1,13,31.1,33.2v47.6h-19v-45c0-10.1-7.2-17.6-17-17.6s-17.6,7.8-17.6,17.6v45h-19v-.3Z"/>
      </g>
      <path class="cls-1" d="M146.5,156.9l46.7-27.1c2.6-1.4,4-4,4-6.9v-54.2c0-2.9-1.4-5.5-4-6.9l-46.7-27.1c-2.6-1.4-5.5-1.4-8.1,0l-46.7,27.1c-2.6,1.4-4,4-4,6.9v96.6l-32.9,19-32.9-19v-37.8l32.9-19,21.6,12.4v-25.4l-17.6-10.1c-1.2-.6-2.6-1.2-4-1.2s-2.9.3-4,1.2L4,112.5c-2.6,1.4-4,4-4,6.9v54.2c0,2.9,1.4,5.5,4,6.9l46.7,27.1c2.6,1.4,5.5,1.4,8.1,0l46.7-27.1c2.6-1.4,4-4,4-6.9v-96.6l.6-.3,32.3-18.8,32.9,19v37.8l-32.9,19-21.6-12.4v25.4l17.6,10.1c2.6,1.4,5.5,1.4,8.1,0h0Z"/>
    </g>
  </g>
</svg>