<?xml version="1.0" encoding="UTF-8"?>
<svg id="Layer_1" data-name="Layer 1" xmlns="http://www.w3.org/2000/svg" version="1.1" viewBox="0 0 800 242.2">
  <defs>
    <style>
      .cls-1 {
        fill: #fff;
        stroke-width: 0px;
      }
    </style>
  </defs>
  <path class="cls-1" d="M291.6,92.9c-2.1-.7-6.6-1.2-11-1.2-13.4,0-27.7,10.8-27.7,24.2v63.8h-30.5v-113.9h29.4v11.5c6.8-8.5,19.3-13.9,33.1-13.9,3.5,0,6.9.3,10.3.9l-3.5,28.4Z"/>
  <path class="cls-1" d="M326.1,6c11,0,20,8.5,20,19.5s-8.9,19.5-20,19.5-20-8.5-20-19.5,8.9-19.5,20-19.5ZM341.4,179.8h-30.5v-113.9h30.5v113.9h0Z"/>
  <path class="cls-1" d="M431.6,63.6c-12.1-.2-23.9,3.9-33.3,11.5v-9.2h-29.4v170.2h30.5v-64.3c8.7,6.9,19.5,10.5,30.5,10.3,16.9,0,33.1-7.5,43.2-19.3,8.9-10.3,14.3-24.4,14.3-39.9,0-33.6-24.9-59.4-55.9-59.4ZM427.8,154.4c-19,0-31.4-13.1-31.4-31.4s12.5-31.4,31.4-31.4,29.3,14,29.3,31.4-13.1,31.4-29.3,31.4h0Z"/>
  <path class="cls-1" d="M672.7,179.8h-30.5V13.1h30.5v166.7h0Z"/>
  <path class="cls-1" d="M797.2,161.7c-11,13.2-29.1,20.4-46.7,20.4-34.1,0-59.6-23.5-59.6-59.2s21.6-59.4,55.4-59.4,53.8,26.5,53.8,58.2c0,2.9-.2,5.8-.7,8.7h-78.9c1.6,16,14.6,27,30.8,27s23.2-7.3,28.6-13.2l17.4,17.4ZM768.8,108.2c-.9-10.1-10.1-20-22.5-20s-23,9.6-24.4,20h47,0Z"/>
  <path class="cls-1" d="M568.2,63.6c-12.1-.2-23.9,3.9-33.3,11.5v-9.2h-29.4v170.2h30.5v-64.3c8.7,6.9,19.5,10.5,30.5,10.3,16.9,0,33.1-7.5,43.2-19.3,8.9-10.3,14.3-24.4,14.3-39.9,0-33.6-24.9-59.4-55.9-59.4ZM564.5,154.4c-19,0-31.4-13.1-31.4-31.4s12.5-31.4,31.4-31.4,29.3,14,29.3,31.4-13.1,31.4-29.3,31.4Z"/>
  <path class="cls-1" d="M159.4,138.3c-6.9-4-14.7-5.1-22.3-5.4-6.5-.2-16.1-4.4-16.1-16.1s7.1-15.8,16.1-16.1c7.7-.3,15.4-1.4,22.3-5.4,19.5-11.2,26.1-36.1,14.9-55.6-11.2-19.5-36.1-26.1-55.6-14.9-12.6,7.3-20.4,20.7-20.4,35.3,0,7.9,2.8,15.1,6.4,21.9,3,5.7,4.5,16.2-5.8,22.1-7.7,4.4-17.3,1.6-22.1-6-4-6.5-8.9-12.5-15.8-16.5-19.5-11.2-44.4-4.6-55.6,14.9-11.2,19.5-4.6,44.4,14.9,55.6,12.6,7.3,28.1,7.3,40.7,0,6.8-3.9,11.7-10,15.8-16.5,3.3-5.3,11.6-12.1,22.1-6,7.7,4.4,10,14.1,5.8,22.1-3.6,6.7-6.4,14-6.4,21.9,0,22.5,18.2,40.7,40.7,40.7s40.7-18.2,40.7-40.7c0-14.5-7.8-28-20.4-35.3Z"/>
</svg>