<?xml version="1.0" encoding="UTF-8"?>
<svg id="Layer_1" data-name="Layer 1" xmlns="http://www.w3.org/2000/svg" width="570.97609" height="103.85804" xmlns:xlink="http://www.w3.org/1999/xlink" version="1.1" viewBox="0 0 570.97609 103.85804">
  <defs>
    <linearGradient id="linear-gradient" x1="19.42358" y1="365.6517" x2="61.53566" y2="323.53963" gradientTransform="translate(0 -281.88983)" gradientUnits="userSpaceOnUse">
      <stop offset="0" stop-color="#b090f5"/>
      <stop offset="1" stop-color="#5fbfff"/>
    </linearGradient>
    <linearGradient id="linear-gradient-2" x1="-1.65579" y1="344.09337" x2="40.49654" y2="301.94362" gradientTransform="translate(0 -281.88983)" gradientUnits="userSpaceOnUse">
      <stop offset="0" stop-color="#68d7fa"/>
      <stop offset="1" stop-color="#4ee498"/>
    </linearGradient>
    <linearGradient id="linear-gradient-3" x1="291.10993" y1="73.66394" x2="326.29995" y2="38.47396" gradientTransform="translate(0 106.91649) scale(1 -1)" gradientUnits="userSpaceOnUse">
      <stop offset="0" stop-color="#11aae2"/>
      <stop offset="1" stop-color="#016197"/>
    </linearGradient>
  </defs>
  <g>
    <path d="M55.94887,37.06518l-1.32469-2.25977c-.35065-.62339-1.16885-.85715-1.79223-.5065-.11688.07792-.19481.11689-.27273.23377l-2.96108,2.96108c-.42858.46754-.5065,1.16885-.15585,1.67535,1.09092,1.63639,1.94808,3.42862,2.57147,5.29878h0c4.09097,12.19498-2.45458,25.40296-14.6106,29.49393-2.37666.8182-4.90916,1.20781-7.44167,1.20781-3.81824,0-7.55855-.93508-10.90925-2.68835l5.02605-5.02604c8.57155,3.23381,18.19507-1.09092,21.42888-9.66247,1.59743-4.28578,1.40262-9.00013-.58442-13.13007-.31169-.66235-1.12989-.93508-1.79223-.62339-.11688.07792-.27273.15584-.35065.27273l-3.00004,3.00004c-.31169.31169-.46754.77923-.35065,1.24678l.27273,1.09092c1.24677,5.3767-2.06497,10.71444-7.44167,12.00017-2.45458.58442-5.02605.19481-7.2079-1.05197l-1.3247-.74027c-.5065-.31169-1.16885-.19481-1.59743.19481l-12.27291,12.27291c-.5065.5065-.5065,1.36366,0,1.87015.03896.03896.07792.07793.11689.11688l1.79223,1.40262c5.22086,4.01304,11.61056,6.19489,18.19507,6.15593,16.51972-.03896,29.92251-13.44175,29.92251-29.96147-.03896-5.2598-1.40262-10.36377-3.93512-14.84436Z" fill="url(#linear-gradient)" stroke-width="0"/>
    <path d="M48.11759,28.14297c-5.22085-4.01305-11.61056-6.19489-18.19507-6.15593C13.4028,21.98703,0,35.42879,0,51.94851,0,57.1304,1.36366,62.23437,3.93512,66.75392l1.28573,2.25977c.35066.62339,1.16885.85716,1.83119.5065.11689-.03896.19481-.11688.27273-.19481l2.96108-2.96108c.42858-.46754.5065-1.16885.15585-1.67534-1.09093-1.63639-1.94808-3.42862-2.57147-5.29878h0c-4.09097-12.19498,2.45458-25.40297,14.6106-29.49393,2.37666-.8182,4.90916-1.20781,7.44167-1.20781,3.81824,0,7.55855.93508,10.90925,2.72731l-4.98708,4.94813c-8.57155-3.23381-18.19507,1.05196-21.42888,9.66247-.70131,1.87015-1.09093,3.89616-1.09093,5.8832,0,.27274.07792,1.5195.11689,1.75327.19481,1.90912.74027,3.77928,1.55846,5.49359.31169.66235,1.12989.93508,1.79223.62339.11689-.07793.27273-.15584.35066-.27274l3.00004-3.00005c.31169-.31169.46754-.77923.35066-1.24678l-.27273-1.09092c-1.24677-5.3767,2.06497-10.71444,7.40271-12.00018,2.45458-.58442,5.02605-.19481,7.24686,1.05196l1.3247.74027c.5065.31169,1.16885.19481,1.59743-.19481l12.27291-12.27291c.5065-.5065.5065-1.36366,0-1.87016-.03896-.03896-.07792-.07792-.11688-.11689l-1.83119-1.36364Z" fill="url(#linear-gradient-2)" stroke-width="0"/>
    <path d="M98.5339,60.13045c-.46754-.38962-1.12989-.35065-1.55846.03896-1.90912,1.48054-4.16889,2.88316-7.40271,2.88316-5.96113,0-10.83133-5.02604-10.83133-11.22094s4.83124-11.2599,10.79236-11.2599c2.57147,0,5.3767,1.09093,7.40271,2.88316.23377.27273.58442.42858.93508.42858.31169-.03896.58442-.19481.77923-.42858l1.94808-1.98704c.23377-.23377.38962-.58442.38962-.93508s-.19481-.70131-.42858-.89612c-3.38966-2.96108-6.77932-4.28578-11.0651-4.28578-9.07805,0-16.48076,7.44167-16.48076,16.59764,0,9.11701,7.36374,16.48075,16.48076,16.48075,4.12993.03896,8.14298-1.55846,11.10406-4.48058.27273-.27274.38962-.62339.38962-1.013,0-.31169-.11689-.58442-.35066-.77923l-2.10392-2.026ZM112.67697,35.81841h-2.92212c-.66235.03896-1.20781.58442-1.24677,1.24677v29.68874c0,.7013.54546,1.24678,1.24677,1.24678h2.92212c.66235-.03896,1.24677-.58442,1.24677-1.24678v-29.68874c-.03896-.70131-.58442-1.24677-1.24677-1.24677ZM147.46968,45.79258c0-5.49359-4.51955-9.97417-10.13002-9.97417h-12.11706c-.70131,0-1.24677.54546-1.24677,1.24677v29.68874c0,.7013.54546,1.24678,1.24677,1.24678h2.88316c.66235-.03896,1.24677-.58442,1.24677-1.24678v-11.02613h6.07801l5.80528,11.64952c.23377.38962.62339.62339,1.05196.62339h3.46758c.42858,0,.85715-.19481,1.09093-.58442s.23377-.89611,0-1.28573l-5.92216-10.98718c4.05201-1.8312,6.54556-5.33774,6.54556-9.35079ZM142.01506,45.8705c0,2.80524-2.29873,5.18189-5.02604,5.18189h-7.51959v-10.09105h7.51959c2.72731,0,5.02604,2.25978,5.02604,4.90916h0ZM179.1065,60.13045c-.46754-.38962-1.12988-.35065-1.55846.03896-1.90912,1.48054-4.1689,2.88316-7.40271,2.88316-5.96112,0-10.83132-5.02604-10.83132-11.22094s4.83124-11.2599,10.79237-11.2599c2.57147,0,5.3767,1.09093,7.40271,2.88316.23377.27273.58442.42858.93508.42858.31169-.03896.58442-.19481.77923-.42858l1.94808-1.98704c.23377-.23377.38962-.58442.38962-.93508s-.15584-.70131-.42858-.89612c-3.38966-2.96108-6.77932-4.28578-11.02613-4.28578-9.07805,0-16.48075,7.44167-16.48075,16.59764,0,9.11701,7.36374,16.48075,16.48075,16.48075,4.12993.03896,8.14297-1.55846,11.10406-4.48058.27274-.27274.38962-.62339.38962-1.013,0-.31169-.11688-.58442-.35065-.77923l-2.1429-2.026ZM206.14586,63.01361h-11.64952v-25.94843c-.03896-.66235-.58442-1.24677-1.24678-1.24677h-2.96108c-.7013,0-1.24678.54546-1.24678,1.24677v29.68875c0,.7013.54546,1.24678,1.24678,1.24678h15.85738c.7013,0,1.24678-.54546,1.24678-1.24678h0v-2.45458c-.00001-.70132-.54547-1.28574-1.24678-1.28574h0ZM232.56183,40.84445c.7013,0,1.24678-.54546,1.24678-1.24677v-2.49354c0-.70131-.54546-1.24677-1.24678-1.24677h-17.80546c-.7013,0-1.24678.54546-1.24678,1.24677v29.64978c0,.7013.54546,1.24678,1.24678,1.24678h17.80546c.7013,0,1.24678-.54546,1.24678-1.24678v-2.45458c0-.7013-.54546-1.24678-1.24678-1.24678h-13.67553v-8.84429h11.49367c.7013,0,1.24678-.54546,1.24678-1.24678v-2.49354c0-.7013-.58442-1.24678-1.24678-1.24678h-11.49367v-8.33778h13.67553v-.03895Z" fill="#fff" stroke-width="0"/>
  </g>
  <g>
    <g>
      <path d="M353.82604,44.61768c-.55119-.19454-1.71841-.29181-2.88563-.29181-3.50167,0-7.2303,2.82079-7.2303,6.32246v16.63293h-7.9436v-29.69934h7.68422v2.9829c1.78326-2.20475,5.02554-3.59894,8.62448-3.59894,1.16723,0,1.8481.12969,2.6911.25938l-.94027,7.39242Z" fill="#fff" stroke-width="0"/>
      <path d="M362.83959,21.98652c2.88563,0,5.18766,2.20475,5.18766,5.09039s-2.33445,5.09039-5.18766,5.09039-5.18766-2.20475-5.18766-5.09039,2.30203-5.09039,5.18766-5.09039ZM366.79518,67.21642h-7.9436v-29.6345h7.9436v29.6345Z" fill="#fff" stroke-width="0"/>
      <path d="M390.26933,36.96589c-3.37198,0-6.35488,1.10238-8.68932,2.9829v-2.39929h-7.6518v44.32206h7.9436v-16.76262c2.39929,1.8481,4.96069,2.6911,7.9436,2.6911,4.40951,0,8.62448-1.94537,11.25074-5.02554,2.33445-2.6911,3.72863-6.35488,3.72863-10.40774.03241-8.68933-6.45216-15.40086-14.52545-15.40086ZM389.32907,60.63458c-4.92828,0-8.17057-3.4044-8.17057-8.17056s3.24229-8.17056,8.17057-8.17056c4.21497,0,7.61937,3.66378,7.61937,8.17056s-3.4044,8.17056-7.61937,8.17056Z" fill="#fff" stroke-width="0"/>
      <path d="M453.07242,67.21642h-7.9436V23.8022h7.9436v43.41422Z" fill="#fff" stroke-width="0"/>
      <path d="M485.49528,62.5151c-2.88564,3.43683-7.58696,5.31735-12.15857,5.31735-8.85144,0-15.53056-6.12792-15.53056-15.40086,0-8.26783,5.64159-15.46571,14.42817-15.46571,8.20298,0,14.00668,6.90607,14.00668,15.1739,0,.81057-.06485,1.58872-.19453,2.2696h-20.5561c.42149,4.15013,3.79348,7.03576,8.00845,7.03576,3.37199,0,6.06308-1.88053,7.45726-3.43682l4.5392,4.50678ZM478.10287,48.57327c-.25938-2.62625-2.62624-5.18766-5.86853-5.18766-3.30714,0-5.99823,2.49656-6.35487,5.18766h12.2234Z" fill="#fff" stroke-width="0"/>
      <path d="M425.86964,36.96589c-3.37198,0-6.35488,1.10238-8.68932,2.9829v-2.39929h-7.6518v44.32206h7.9436v-16.76262c2.39929,1.8481,4.96069,2.6911,7.9436,2.6911,4.40951,0,8.62448-1.94537,11.25074-5.02554,2.33445-2.6911,3.72863-6.35488,3.72863-10.40774.03241-8.68933-6.45216-15.40086-14.52545-15.40086ZM424.89696,60.63458c-4.92828,0-8.17057-3.4044-8.17057-8.17056s3.24229-8.17056,8.17057-8.17056c4.21497,0,7.61937,3.66378,7.61937,8.17056.03241,4.50678-3.4044,8.17056-7.61937,8.17056Z" fill="#fff" stroke-width="0"/>
    </g>
    <path d="M319.42537,56.4196c-1.78326-1.03753-3.8259-1.32934-5.80369-1.39418-1.68599-.06484-4.18255-1.1348-4.18255-4.18255,0-2.2696,1.8481-4.1177,4.18255-4.18255,2.01022-.06484,4.02044-.35665,5.80369-1.39418,3.27471-1.88053,5.28493-5.3822,5.28493-9.17567s-2.01022-7.29514-5.28493-9.17567c-3.27471-1.88053-7.32757-1.88053-10.60228,0-3.30713,1.84811-5.31735,5.34978-5.31735,9.14325,0,2.04264.74573,3.95559,1.65357,5.70642.77815,1.45903,1.16722,4.21497-1.52387,5.77127-2.01022,1.16722-4.50678.4215-5.73885-1.5563-1.03753-1.68599-2.33445-3.27471-4.1177-4.27982-3.27471-1.88053-7.32757-1.88053-10.60228,0-3.24229,1.8481-5.2525,5.34977-5.2525,9.14325s2.01022,7.29514,5.31735,9.17567c3.27471,1.88053,7.32757,1.88053,10.60228,0,1.78326-1.03753,3.04775-2.59383,4.1177-4.27982.87542-1.39418,3.01533-3.14502,5.73885-1.58872,2.01022,1.16722,2.62625,3.69621,1.49145,5.77127-.94026,1.75083-1.65357,3.63136-1.65357,5.70643,0,3.79347,2.01022,7.29514,5.28493,9.17567,3.27471,1.88053,7.32757,1.88053,10.60228,0,3.27471-1.88053,5.28493-5.3822,5.28493-9.17567s-2.01022-7.29515-5.28493-9.2081Z" fill="url(#linear-gradient-3)" stroke-width="0"/>
  </g>
</svg>