<?xml version="1.0" encoding="UTF-8"?>
<svg id="Layer_1" data-name="Layer 1" xmlns="http://www.w3.org/2000/svg" version="1.1" viewBox="0 0 800 242.2">
  <defs>
    <style>
      .cls-1 {
        fill-rule: evenodd;
      }

      .cls-1, .cls-2 {
        fill: #fff;
        stroke-width: 0px;
      }
    </style>
  </defs>
  <g>
    <path class="cls-2" d="M271,128.2h30.2c4.2,0,7.7,3.5,7.7,7.7s-3.4,7.7-7.7,7.7h-36.4c-.6,0-1.1.2-1.5.6l-11,9.5c-1.7,1.5-.7,4.2,1.5,4.2h45.5s0,0,0,0,0,0,0,0c.6,0,1.1,0,1.7,0,12.1,0,21.9-9.8,21.9-22s-8.8-21-20.1-21.9c0,0,0,0,0,0s0,0,0,0h-32.5c-4.2,0-7.7-3.5-7.7-7.7s3.4-7.7,7.7-7.7h36.3c.6,0,1.2-.2,1.6-.6l10.2-9.5c1.6-1.5.5-4.2-1.6-4.2h-46.5c-12.1,0-21.9,9.8-21.9,22s9.8,22,21.9,22h.6Z"/>
    <path class="cls-2" d="M446.5,84.3c-1.3,0-2.4,1.1-2.4,2.4v68.9c0,1.3,1.1,2.4,2.4,2.4h55.2c.7,0,1.3-.3,1.8-.8l6.9-7.4c1.4-1.5.4-4.1-1.8-4.1h-48.2c-1.3,0-2.4-1.1-2.4-2.4v-56.6c0-1.3-1.1-2.4-2.4-2.4h-9.2Z"/>
    <path class="cls-1" d="M358.1,84.3h0s0,0,0,0c-7.1.3-12.7,6-13,13h0v46.3h0v.6c0,7.3,5.8,13.3,13,13.6h50.1c7.2-.3,13-6.3,13-13.6v-.6h0v-46.3h0c-.3-7.1-6-12.8-13-13h-50.1ZM367.5,97.3h0s0,0,0,0c-4.4.2-8,3.8-8.2,8.2h0v29.1h0v.4c0,4.6,3.6,8.4,8.2,8.6h31.4c4.5-.2,8.2-4,8.2-8.6v-.4h0v-29.1h0c-.2-4.5-3.7-8-8.2-8.2h-31.4Z"/>
    <path class="cls-1" d="M590.6,155.5c0,1.3,1.1,2.4,2.4,2.4h9.4c1.3,0,2.4-1.1,2.4-2.4v-57h0v-.6c0-7.3-5.7-13.3-12.9-13.6h-48.6c-7.5,0-13.5,6.1-13.5,13.7v.6h0v57c0,1.3,1.1,2.4,2.4,2.4h9.4c1.3,0,2.4-1.1,2.4-2.4v-23.7c0-1.3,1.1-2.4,2.4-2.4h42.2c1.3,0,2.4,1.1,2.4,2.4v23.7h-.1ZM543.7,116.3v-11.8c0-4.6,3.7-8.3,8.2-8.3h30.5c4.5,0,8.2,3.7,8.2,8.3v11.8c0,1.3-1.1,2.4-2.4,2.4h-42.2c-1.3,0-2.4-1.1-2.4-2.4Z"/>
    <path class="cls-1" d="M788.1,157.9c-1.3,0-2.4-1.1-2.4-2.4v-23.7c0-1.3-1.1-2.4-2.4-2.4h-42.7c-1.3,0-2.4,1.1-2.4,2.4v23.7c0,1.3-1.1,2.4-2.4,2.4h-9.4c-1.3,0-2.4-1.1-2.4-2.4v-57h0v-.6c0-7.5,6.1-13.7,13.6-13.7h49.2c7.2.3,13,6.3,13,13.6v.6h0v57c0,1.3-1.1,2.4-2.4,2.4h-9.5ZM738.3,104.5v11.8c0,1.3,1.1,2.4,2.4,2.4h42.7c1.3,0,2.4-1.1,2.4-2.4v-11.8c0-4.6-3.7-8.3-8.3-8.3h-30.8c-4.6,0-8.3,3.7-8.3,8.3Z"/>
    <path class="cls-2" d="M639.9,84.3c.7,0,1.4.3,1.8.8l42,50c1.4,1.7,4.2.7,4.2-1.6v-46.9c0-1.3,1.1-2.4,2.4-2.4h9.4c1.3,0,2.4,1.1,2.4,2.4v68.9c0,1.3-1.1,2.4-2.4,2.4h-11.6s0,0,0,0,0,0,0,0l-42.7-49.7c-1.4-1.7-4.2-.6-4.2,1.6v45.9c0,1.3-1.1,2.4-2.4,2.4h-9.4c-1.3,0-2.4-1.1-2.4-2.4v-68.9c0-1.3,1.1-2.4,2.4-2.4h10.7Z"/>
  </g>
  <g>
    <path class="cls-2" d="M31,160.4c1.2-1.2,2.7-1.8,4.4-1.8h152.2c2.8,0,4.2,3.4,2.2,5.3l-30.1,30.1c-1.2,1.2-2.7,1.8-4.4,1.8H3.1c-2.8,0-4.2-3.4-2.2-5.3l30.1-30.1Z"/>
    <path class="cls-2" d="M31,48.2c1.2-1.2,2.8-1.8,4.4-1.8h152.2c2.8,0,4.2,3.4,2.2,5.3l-30.1,30.1c-1.2,1.2-2.7,1.8-4.4,1.8H3.1c-2.8,0-4.2-3.4-2.2-5.3l30.1-30.1Z"/>
    <path class="cls-2" d="M159.8,104c-1.2-1.2-2.7-1.8-4.4-1.8H3.1c-2.8,0-4.2,3.4-2.2,5.3l30.1,30.1c1.2,1.2,2.7,1.8,4.4,1.8h152.2c2.8,0,4.2-3.4,2.2-5.3l-30.1-30.1Z"/>
  </g>
</svg>