<?xml version="1.0" encoding="UTF-8"?>
<svg id="Layer_1" data-name="Layer 1" xmlns="http://www.w3.org/2000/svg" version="1.1" viewBox="0 0 800 242.2">
  <defs>
    <style>
      .cls-1 {
        fill: #fff;
        stroke-width: 0px;
      }
    </style>
  </defs>
  <g id="tron">
    <path class="cls-1" d="M512,73c-11.4-10.5-27.1-26.5-39.9-37.9l-.8-.5c-1.3-1-2.7-1.8-4.2-2.3h0C436.3,26.5,292.8-.3,290,0c-.8.1-1.5.4-2.2.8l-.7.6c-.9.9-1.6,2-2,3.2l-.2.5v3.1c16.2,45,80,192.5,92.5,227,.8,2.3,2.2,6.8,4.9,7h.6c1.4,0,7.6-8.1,7.6-8.1,0,0,109.6-132.9,120.7-147.1,1.4-1.7,2.7-3.6,3.8-5.6.6-3.2-.6-6.4-3-8.5ZM418.6,88.5l46.8-38.8,27.4,25.3-74.2,13.5ZM400.5,85.9l-80.6-66,130.3,24-49.7,42ZM407.7,103.2l82.4-13.3-94.3,113.6,11.9-100.3ZM309,26.5l84.7,71.9-12.3,105.2L309,26.5Z"/>
  </g>
</svg>