<?xml version="1.0" encoding="UTF-8"?>
<svg id="Layer_1" data-name="Layer 1" xmlns="http://www.w3.org/2000/svg" width="570.97609" height="103.85804" xmlns:xlink="http://www.w3.org/1999/xlink" version="1.1" viewBox="0 0 570.97609 103.85804">
  <defs>
    <clipPath id="clippath">
      <rect y="24.05123" width="196.49532" height="55.75558" fill="none" stroke-width="0"/>
    </clipPath>
  </defs>
  <g clip-path="url(#clippath)">
    <g>
      <path d="M50.99054,24.05123H4.6422c-2.55444,0-4.6422,2.08776-4.6422,4.6422v27.87777h18.54425v-13.95117h37.08849v-13.92661c0-2.55444-2.08776-4.6422-4.6422-4.6422Z" fill="#fff" stroke-width="0"/>
      <path d="M37.08849,47.28671v13.95127H0v13.95117c0,2.55444,2.08776,4.6422,4.6422,4.6422h46.34834c2.55444,0,4.6422-2.08776,4.6422-4.6422v-27.87787h-18.54424v-.02456Z" fill="#fff" stroke-width="0"/>
      <path d="M179.27693,28.71895c4.91238,0,8.71949,1.05616,11.42129,3.19305,2.70181,2.11232,4.05272,5.08432,4.05272,8.89141,0,2.7755-.7123,5.08432-2.13689,6.87734-1.4246,1.79304-3.48779,2.99658-6.16505,3.61063,6.70541,1.20354,10.04583,4.8387,10.04583,10.95461,0,4.02815-1.44916,7.19664-4.3229,9.4809-2.87374,2.30882-6.97557,3.43867-12.30552,3.43867h-17.02141V28.71895h16.43193ZM170.18903,48.41761h9.2844c2.50531,0,4.47027-.58949,5.84573-1.79302,1.37548-1.20353,2.08776-2.82462,2.08776-4.91238s-.68773-3.70885-2.08776-4.88782c-1.37546-1.17897-3.34042-1.76846-5.84573-1.76846h-9.2844v13.36168ZM170.18903,68.73034h9.72652c2.89831,0,5.13343-.61405,6.68084-1.81758,1.54739-1.2281,2.33337-2.89831,2.33337-5.08432s-.78598-4.00359-2.35794-5.23169-3.8071-1.8667-6.65628-1.8667h-9.72652v14.00029Z" fill="#fff" stroke-width="0"/>
      <path d="M156.65565,52.86285v-3.11936h-19.45303v6.43522h12.40377v1.12985c-.17193,3.63516-1.44915,6.45978-3.88079,8.49842-2.40707,2.03864-5.40361,3.04568-8.98966,3.04568-2.82461,0-5.28081-.7123-7.39313-2.16145-2.11233-1.44915-3.73341-3.43867-4.86326-5.96855-1.12986-2.55444-1.69478-5.47731-1.69478-8.79317s.56492-6.23865,1.71934-8.79309c1.15441-2.55444,2.7755-4.54395,4.88783-5.96855,2.11233-1.44915,4.56852-2.16145,7.39313-2.16145,3.07024,0,5.67381.83511,7.76156,2.52988,2.11233,1.67021,3.53692,4.00359,4.24921,6.97558h7.29489c-.76142-4.96151-2.84918-8.89141-6.26329-11.81428-3.4141-2.92287-7.68788-4.37202-12.87045-4.37202-4.39659,0-8.22824.98248-11.51953,2.94743-3.2913,1.96495-5.82117,4.74045-7.58963,8.30193s-2.65269,7.68788-2.65269,12.37913.88423,8.7686,2.67725,12.35464c1.79302,3.58604,4.29834,6.36154,7.49139,8.32649,3.19305,1.96496,6.87733,2.94743,11.00374,2.94743,13.85292,0,20.21446-7.85981,20.21446-22.69521l.07368-.02456Z" fill="#fff" stroke-width="0"/>
      <path d="M81.91374,59.91163c.22106,2.75093,1.37547,5.08432,3.46323,6.72996,2.08777,1.67021,4.78958,2.48075,8.10543,2.48075,2.92287,0,5.28082-.61405,7.0984-1.81758,1.79302-1.2281,2.70181-2.89831,2.70181-5.08432,0-1.5474-.49124-2.7755-1.47371-3.68429-.98248-.90879-2.30883-1.59652-4.00359-2.08776-1.69477-.49124-4.05272-1.00704-7.12296-1.52284-3.0948-.54036-5.77205-1.2281-7.98262-2.08776-2.21057-.85967-4.02815-2.18601-5.40362-3.95447-1.40003-1.76855-2.08776-4.10194-2.08776-6.97568,0-2.65269.7123-5.01063,2.16145-7.09839,1.44915-2.08776,3.43866-3.68429,6.01767-4.8387,2.579-1.15441,5.52643-1.71933,8.86684-1.71933s6.48435.61405,9.18616,1.86671c2.70181,1.2281,4.81413,2.94743,6.36154,5.10888,1.5474,2.16145,2.40707,4.6422,2.52987,7.44226h-7.737c-.27018-2.38251-1.35091-4.3229-3.21761-5.77205s-4.24921-2.18601-7.12296-2.18601-5.01062.58949-6.68083,1.76846-2.50532,2.82462-2.50532,4.93695c0,1.49828.49124,2.70181,1.47371,3.58604.98248.88423,2.28426,1.5474,3.92991,1.98952,1.64564.44212,4.00359.93335,7.04927,1.44915,3.0948.54046,5.77205,1.22819,8.00718,2.11242s4.05272,2.18601,5.47732,3.90534c1.42459,1.71933,2.11232,4.00359,2.11232,6.82821s-.76141,5.20713-2.25969,7.36857c-1.49828,2.16145-3.6106,3.85622-6.31241,5.08432-2.70182,1.2281-5.74749,1.81758-9.18616,1.81758-3.78254,0-7.12295-.66317-9.9967-1.98951-2.87374-1.32634-5.13344-3.16848-6.75453-5.55099-1.62109-2.35794-2.45619-5.08432-2.50531-8.12999h7.737l.07368.02456Z" fill="#fff" stroke-width="0"/>
    </g>
  </g>
</svg>