<?xml version="1.0" encoding="UTF-8"?>
<svg id="Layer_1" data-name="Layer 1" xmlns="http://www.w3.org/2000/svg" width="570.97609" height="103.85804" xmlns:xlink="http://www.w3.org/1999/xlink" version="1.1" viewBox="0 0 570.97609 103.85804">
  <defs>
    <mask id="mask" x="54.43027" y="39.0537" width="211.11031" height="25.43427" maskUnits="userSpaceOnUse">
      <g id="mask0_758_3506" data-name="mask0 758 3506">
        <path d="M208.7428,40.8655c.21913,0,.43034.03249.6257.08122,2.75362.50365,4.37728,3.20061,3.80967,6.43367-.56894,3.2332-3.15228,5.93006-6.08543,6.43379-.21121.05689-.43034.08118-.64155.08118h-.43032l4.97921,5.42646-3.99578,3.66366-8.93541-9.73999c-.63364-.69052-.69962-1.77903-.15445-2.72947.53595-.95849,1.56689-1.58406,2.59125-1.58406h6.54746c.38941-.04053,1.0072-.64986,1.16957-1.55159.16237-.90159-.25214-1.51093-.60987-1.55146h-10.50364l.87782-4.96344h10.77161-.01583ZM249.63531,40.8655l7.31967,12.01449,2.12-12.01449h4.96338l-3.38724,19.19556c-.18744,1.05604-1.02436,1.99829-2.0804,2.34771-.28381.08924-.56761.13808-.83559.13808-.74847,0-1.41377-.34123-1.78735-.95044l-12.62364-20.72279h6.31117v-.00812ZM246.88168,55.31693l-1.2514,7.09184h-4.9634l1.25142-7.09184h4.96338ZM231.17968,40.5568c5.98643,0,9.99937,4.87401,8.94335,10.86096-1.05604,5.98695-6.79166,10.86098-12.77018,10.86098s-9.99937-4.87402-8.94333-10.86098c1.05604-5.98696,6.78242-10.86096,12.77016-10.86096ZM75.42144,40.8655l-.87731,4.96344h-10.53611c-.38995.04053-1.00733.64986-1.1697,1.55146-.1625.90173.25173,1.51106.6092,1.55159h5.62949c.21121,0,.40618.03247.58491.08937,2.75389.50373,4.37847,3.20059,3.80993,6.43379-.56868,3.23307-3.15188,5.93006-6.08451,6.43366-.21121.05689-.43047.08118-.64168.08118h-10.81227l.87731-4.96339h10.55235c.37358-.04053.99915-.64986,1.15346-1.55146.1625-.90173-.25187-1.51106-.6092-1.55159h-5.67014c-.18679-.01624-.36552-.04066-.5362-.08937-2.75376-.50373-4.37848-3.20059-3.80175-6.43379.56868-3.23307,3.15188-5.93002,6.0845-6.43367.21121-.05685.43047-.08122.64986-.08122h10.81213-.02429ZM90.45787,41.05232c.98291.00813,1.77085.60926,1.99011,1.51907l4.71971,19.39053h-5.38581l-2.97315-12.20136-7.61972,12.20136h-5.4427l12.15264-19.44739c.56868-.9017,1.59211-1.47846,2.55074-1.46222h.00819ZM142.3984,56.99854l-.87652,4.96339h-17.63639l.8773-4.96339h17.63561ZM120.65242,40.8655l-.8773,4.96344h-9.69128l-.54426,3.10304h9.69932l-.8773,4.96339h-9.69933l-1.42156,8.06656h-4.96339l1.42156-8.06656.87731-4.96339.98291-5.58074c.24381-1.37285,1.55159-2.47763,2.91639-2.47763h12.17693v-.00812ZM156.68002,40.8655l-1.41377,8.02596h6.89726l1.41245-8.02596h4.96339l-3.7199,21.09643h-4.96339l1.42961-8.10709h-6.89726l-1.42961,8.10709h-4.96339l3.72122-21.09643h4.96339ZM189.10045,56.99854l-.87782,4.96339h-17.63587l.87782-4.96339h17.63587ZM230.30186,45.52018c-3.24997,0-6.36001,2.6401-6.93687,5.89759-.56894,3.2493,1.60782,5.89759,4.85779,5.89759,3.24864,0,6.35999-2.64829,6.93685-5.89759.56894-3.2493-1.60782-5.89759-4.85777-5.89759ZM143.8201,48.93198l-.87652,4.96339h-17.63653l.87744-4.96339h17.63561ZM190.53007,48.93198l-.87784,4.96339h-17.63587l.87784-4.96339h17.63587ZM145.24972,40.8655l-.87652,4.96344h-17.6364l.87731-4.96344h17.63561ZM191.94385,40.8655l-.87784,4.96344h-17.63587l.87784-4.96344h17.63587Z" fill="#fff" stroke-width="0"/>
      </g>
    </mask>
    <clipPath id="clippath">
      <rect x=".69499" y="30.80822" width="42.2416" height="42.2416" fill="none" stroke-width="0"/>
    </clipPath>
  </defs>
  <g>
    <path d="M208.7428,40.86517c.21913,0,.43034.0325.6257.08124,2.75362.50365,4.37728,3.20066,3.80967,6.43373-.56894,3.23307-3.15228,5.93006-6.08543,6.43366-.21121.05689-.43034.08132-.64155.08132h-.43032l4.97921,5.42646-3.99578,3.66353-8.93541-9.73986c-.63364-.69052-.69962-1.77903-.15445-2.72947.53595-.95862,1.56689-1.58406,2.59125-1.58406h6.54746c.38941-.04066,1.0072-.64986,1.16957-1.55159s-.25214-1.51093-.60987-1.55159h-10.50364l.87782-4.96338h10.77161-.01583ZM249.63531,40.86517l7.31967,12.01455,2.12-12.01455h4.96338l-3.38724,19.19563c-.18744,1.05604-1.02436,1.99829-2.0804,2.34758-.28381.08937-.56761.13808-.83559.13808-.74847,0-1.41377-.3411-1.78735-.95044l-12.62364-20.72271h6.31117v-.00813ZM246.88168,55.31667l-1.2514,7.09171h-4.9634l1.25142-7.09171h4.96338ZM231.17968,40.55649c5.98643,0,9.99937,4.87406,8.94335,10.86102-1.05604,5.98682-6.79166,10.86098-12.77018,10.86098s-9.99937-4.87415-8.94333-10.86098c1.05604-5.98696,6.78242-10.86102,12.77016-10.86102ZM75.42144,40.86517l-.87731,4.96338h-10.53611c-.38995.04066-1.00733.64986-1.1697,1.55159-.1625.90173.25173,1.51093.6092,1.55159h5.62949c.21121,0,.40618.03247.58491.08937,2.75389.5036,4.37847,3.20059,3.80993,6.43366-.56868,3.2332-3.15188,5.93006-6.08451,6.43379-.21121.05676-.43047.08118-.64168.08118h-10.81227l.87731-4.96339h10.55235c.37358-.04066.99915-.64986,1.15346-1.55159.1625-.90173-.25187-1.51093-.6092-1.55159h-5.67014c-.18679-.01624-.36552-.04053-.5362-.08937-2.75376-.5036-4.37848-3.20059-3.80175-6.43366.56868-3.23307,3.15188-5.93007,6.0845-6.43373.21121-.05687.43047-.08124.64986-.08124h10.81213-.02429ZM90.45787,41.05201c.98291.00812,1.77085.60926,1.99011,1.51907l4.71971,19.39058h-5.38581l-2.97315-12.20136-7.61972,12.20136h-5.4427l12.15264-19.44745c.56868-.90169,1.59211-1.47846,2.55074-1.46221h.00819ZM142.3984,56.99828l-.87652,4.96339h-17.63639l.8773-4.96339h17.63561ZM120.65242,40.86517l-.8773,4.96338h-9.69128l-.54426,3.10317h9.69932l-.8773,4.96339h-9.69933l-1.42156,8.06656h-4.96339l1.42156-8.06656.87731-4.96339.98291-5.58079c.24381-1.37285,1.55159-2.47763,2.91639-2.47763h12.17693v-.00813ZM156.68002,40.86517l-1.41377,8.02589h6.89726l1.41245-8.02589h4.96339l-3.7199,21.0965h-4.96339l1.42961-8.10722h-6.89726l-1.42961,8.10722h-4.96339l3.72122-21.0965h4.96339ZM189.10045,56.99828l-.87782,4.96339h-17.63587l.87782-4.96339h17.63587ZM230.30186,45.51992c-3.24997,0-6.36001,2.6401-6.93687,5.89759-.56894,3.2493,1.60782,5.89759,4.85779,5.89759,3.24864,0,6.35999-2.64829,6.93685-5.89759.56894-3.24944-1.60782-5.89759-4.85777-5.89759ZM143.8201,48.93172l-.87652,4.96339h-17.63653l.87744-4.96339h17.63561ZM190.53007,48.93172l-.87784,4.96339h-17.63587l.87784-4.96339h17.63587ZM145.24972,40.86517l-.87652,4.96338h-17.6364l.87731-4.96338h17.63561ZM191.94385,40.86517l-.87784,4.96338h-17.63587l.87784-4.96338h17.63587Z" fill="#fff" fill-rule="evenodd" stroke-width="0"/>
    <g mask="url(#mask)">
      <path d="M265.54058,39.0537H54.43027v25.43427h211.11031v-25.43427Z" fill="#fff" stroke-width="0"/>
    </g>
    <g clip-path="url(#clippath)">
      <g>
        <path d="M21.81579,30.80822C10.15237,30.80822.69499,40.2656.69499,51.92902s9.45738,21.1208,21.1208,21.1208,21.1208-9.45737,21.1208-21.1208-9.45737-21.1208-21.1208-21.1208ZM27.17163,66.1948c0,.60868-.7354.91097-1.16442.48195l-16.91293-15.58108c-.23286-.23286-.36767-.55152-.36767-.88245v-1.64637c0-.2083.23695-.32684.40445-.20421l17.86487,11.64707c.16342.1225.26137.31457.26137.51878l-.08976,5.66631h.00409ZM36.20817,55.51177c0,.20844-.23286.32685-.40037.20434l-12.86851-7.99897c-.15933-.11854-.384,0-.384.19603v.8579c0,.28196.11432.55561.31457.75177l3.97903,3.89732c.26546.25741.41252.61277.41252.98449v3.3091c0,.19207-.22876.29001-.36763.15933l-6.52012-6.08292-2.26323-2.13254c-.27365-.2615-.43298-.62095-.43298-1.00086v-10.98938c0-.60462.72722-.91101,1.16019-.49023l16.99472,15.73228c.24104.23286.37582.55561.37582.89064v1.71171Z" fill="#20af93" stroke-width="0"/>
        <circle cx="21.81579" cy="51.92902" r="21.1208" fill="#20af93" stroke-width="0"/>
        <path d="M26.72532,66.03732c0,.60062-.73316.90212-1.16336.47825l-16.89722-15.41c-.23472-.23114-.36656-.54544-.36656-.87308v-1.63013c0-.20527.23593-.32328.40248-.20118l17.85042,11.51823c.16487.12078.26242.3118.26242.51508l-.08818,5.60282ZM35.75526,55.46966c0,.20474-.2347.32275-.40169.20197l-12.85887-7.9104c-.16039-.11603-.38532-.00251-.38532.19378v.84853c0,.27985.11392.54822.31589.74372l3.97559,3.85217c.26401.25609.41304.60643.41304.97248v3.2728c0,.18824-.22692.28605-.36618.15761l-6.51656-6.0152-2.25979-2.11063c-.2751-.25688-.43152-.61488-.43152-.98938v-10.86612c0-.59793.72708-.90054,1.15887-.48279l16.98231,15.55909c.23906.23193.37423.54914.37423.88074v1.69164Z" fill="#fff" stroke-width="0"/>
      </g>
    </g>
  </g>
  <g>
    <g id="B2cteZ.tif">
      <g>
        <path d="M362.48262,33.41017c1.73633,3.4274,3.47622,6.85302,5.20809,10.28265,2.18429,4.32556,4.41865,8.62723,6.52896,12.98835,2.97688,6.15192-.62327,13.1039-7.37208,14.34555-.65592.12068-1.33712.14479-2.00671.14596-6.10755.01065-12.21512.00693-18.32269.00561-1.03448-.00022-1.0519-.02956-.5898-.95143,1.06134-2.11731,2.14351-4.22457,3.17586-6.35578.26959-.55655.60451-.76054,1.22359-.75767,4.81871.02236,9.63758.01577,14.45638.01074,2.07847-.00217,2.98808-1.37665,2.06219-3.23088-3.03657-6.08121-6.11383-12.14228-9.17693-18.21036-.02444-.04842-.06917-.08667-.14265-.17628-.25917.1778-.32553.47599-.45157.72649-2.56714,5.10178-5.14349,10.19905-7.68186,15.31499-.31713.63917-.68066.87378-1.39958.85923-2.35241-.04759-4.70639-.01458-7.05976-.01953-.90696-.00191-.957-.08503-.5484-.89825,3.7896-7.54234,7.57967-15.08444,11.37741-22.62272.24856-.49338.41865-1.03264.79707-1.45668,3.30749,0,6.61499,0,9.92248,0Z" fill="#02c54c" stroke-width="0"/>
        <path d="M349.36476,33.41017c.02462.29047-.0958.53818-.22201.78853-1.10419,2.19017-2.22171,4.37398-3.29405,6.57954-.24787.5098-.55861.65759-1.10307.65466-3.89521-.02096-7.7906-.01464-11.68592-.01037-5.68306.00622-10.08081,4.13924-10.43021,9.79935-.20621,3.34043.5709,6.36341,2.93114,8.85942,1.99529,2.11007,4.50361,3.03334,7.36855,3.1066.33607.00859.67262.0065,1.00881.00083.4527-.00763.53466.17258.33539.56572-1.15874,2.286-2.31455,4.57354-3.45418,6.86901-.21572.4345-.52544.3802-.90966.33238-7.0632-.87925-13.17911-6.15255-15.17111-13.094-.31597-1.10105-.51998-2.22364-.67319-3.35721-.0234-.17311.07587-.4072-.18596-.4975v-.50236c.20554-.89761.08225-1.81223.13109-2.71812.43882-8.13938,6.43457-15.15063,14.454-16.90352.63315-.13839,1.32612-.07597,1.89632-.47296h19.00407Z" fill="#01c54c" stroke-width="0"/>
        <path d="M341.20989,71.17911c-1.96601-.00265-1.83146.12115-1.04201-1.46195.98064-1.96649,2.00037-3.91386,2.96206-5.88936.24558-.50447.54026-.70288,1.09529-.65401.55515.04889,1.11826.02174,1.67739.00816.4561-.01108.54866.18155.3569.56161-1.18997,2.35845-2.37407,4.71989-3.57611,7.07224-.37116.72635-1.08214.1544-1.47354.36331Z" fill="#02c54c" stroke-width="0"/>
        <path d="M335.22414,71.17811c-1.84994.01272-1.82899.11752-1.0413-1.42176,1.00298-1.95998,1.99707-3.92475,2.96583-5.90162.2355-.48058.49905-.74549,1.07828-.68238.52619.05733,1.06428.02824,1.59595.00739.4843-.01899.63064.17007.41527.59818-1.17714,2.33995-2.35834,4.6779-3.54323,7.01397-.37456.73845-1.07658.19433-1.4708.38622Z" fill="#02c54c" stroke-width="0"/>
      </g>
    </g>
    <g>
      <path d="M402.72805,32.76384c8.6809,0,15.23053,4.88652,17.31007,12.78792h-9.77272c-1.5076-3.11898-4.26253-4.67863-7.64145-4.67863-5.45814,0-9.20078,4.05464-9.20078,10.50049s3.74265,10.50049,9.20078,10.50049c3.37892,0,6.13386-1.55965,7.64145-4.67863h9.77272c-2.07953,7.9014-8.62917,12.73586-17.31007,12.73586-10.76043,0-18.34983-7.64145-18.34983-18.55772s7.5894-18.60978,18.34983-18.60978Z" fill="#fff" stroke-width="0"/>
      <path d="M440.41736,33.17994c8.94084,0,13.41126,5.14614,13.41126,11.48789,0,4.57453-2.49499,8.88911-8.10928,10.55254l8.42128,14.45103h-10.03266l-7.5894-13.77531h-2.13127v13.77531h-8.88911v-36.49146h14.91918ZM439.89748,40.56113h-5.51019v9.04495h5.51019c3.32687,0,4.8862-1.71517,4.8862-4.5742,0-2.7032-1.55933-4.47074-4.8862-4.47074Z" fill="#fff" stroke-width="0"/>
      <path d="M481.74521,40.30151h-13.46331v7.38151h11.90398v6.86163h-11.90398v8.00518h13.46331v7.12157h-22.35242v-36.49146h22.35242v7.12157Z" fill="#fff" stroke-width="0"/>
      <path d="M521.56483,44.71987h-9.82445c-1.35176-2.44326-3.84675-3.74265-7.17362-3.74265-5.71808,0-9.51278,4.05464-9.51278,10.39639,0,6.75784,3.84675,10.70838,10.24055,10.70838,4.41837,0,7.4853-2.33915,8.83674-6.44585h-11.28v-6.54963h19.33755v8.26512c-1.87165,6.28969-7.95345,12.5797-17.57033,12.5797-10.91627,0-18.60945-7.64145-18.60945-18.55772s7.64145-18.60978,18.55772-18.60978c8.73295,0,15.0747,4.47042,16.99807,11.95604Z" fill="#fff" stroke-width="0"/>
      <path d="M527.12899,33.17994h8.88911v36.49146h-8.88911v-36.49146Z" fill="#fff" stroke-width="0"/>
      <path d="M555.66861,70.03512c-7.84934,0-13.9832-3.89848-14.24314-11.28h9.46072c.25994,2.80699,2.02716,4.15843,4.52247,4.15843,2.5991,0,4.26253-1.29939,4.26253-3.43065,0-6.75784-18.24573-3.11898-18.14195-16.06273,0-6.91336,5.66635-10.76011,13.30748-10.76011,7.95345,0,13.30748,3.95054,13.67152,10.91627h-9.61688c-.15584-2.33915-1.81927-3.74265-4.21048-3.7947-2.13127-.05205-3.74265,1.03945-3.74265,3.32687,0,6.34174,18.03784,3.48271,18.03784,15.69869,0,6.13386-4.78241,11.22794-13.30748,11.22794Z" fill="#fff" stroke-width="0"/>
    </g>
  </g>
</svg>