<?xml version="1.0" encoding="UTF-8"?>
<svg id="Layer_1" data-name="Layer 1" xmlns="http://www.w3.org/2000/svg" version="1.1" viewBox="0 0 800 242.2">
  <defs>
    <style>
      .cls-1 {
        fill: #fff;
        stroke-width: 0px;
      }
    </style>
  </defs>
  <path class="cls-1" d="M340.2,119.7c-25.4,0-46-20.6-46-46h-27.9c0,40.8,33,73.7,73.7,73.7v-27.8Z"/>
  <path class="cls-1" d="M533.8,73.7c0-40.8-33-73.7-73.7-73.7v27.9c25.4,0,46,20.6,46,46h27.8Z"/>
  <path class="cls-1" d="M413.8,73.7h0c0-40.8-33-73.7-73.7-73.7v27.9c25.4,0,46,20.6,46,46h0c0,40.8,33,73.7,73.7,73.7v-27.9c-25.4,0-46-20.6-46-46h0"/>
  <path class="cls-1" d="M286,193.5l-.7,9.7c-6.5,0-11,3-11,7.4v17.4h-10.5v-33.8h10.2l.2,4.1c3.1-3.2,7.5-5,11.9-4.7"/>
  <path class="cls-1" d="M311.8,193.5l-.7,9.7c-6.5,0-11,3-11,7.4v17.4h-10.5v-33.8h10.2l.2,4.1c3.2-3.2,7.5-5,11.9-4.7"/>
  <path class="cls-1" d="M611.9,211c-.5-4.2-4.2-7.3-8.5-6.8-4.2.5-7.3,4.2-6.8,8.5.5,3.9,3.7,6.8,7.7,6.8s7.7-3.4,7.7-7.7c0-.3,0-.6,0-.8M622.4,228h-10.2l-.2-4.2c-2.4,3.2-6.3,5-10.2,4.8-9,0-16.2-7.3-16.2-16.3v-1.1c0-10.5,7.2-17.7,16.2-17.7,3.9,0,7.5,1.6,10,4.5v-18.5h10.5v48.5Z"/>
  <path class="cls-1" d="M323.1,207.7h12.4c-.7-3.8-2.8-5.9-6.3-5.9s-5.4,2.1-6.1,5.9M346.2,214.7h-23.2c.2,3.3,3,5.8,6.4,5.6h.3c2.6,0,5.1-1.1,6.8-3l8.2,4c-3.4,4.8-9,7.6-15,7.4-10.6,0-17.8-6.8-17.8-17.2-.7-9.1,6-17.1,15.1-17.8.7,0,1.5,0,2.1,0,9-.6,16.7,6.1,17.4,15,0,.6,0,1.3,0,1.9,0,1.4,0,2.8-.3,4.2"/>
  <path class="cls-1" d="M477,202.5c-4.7.4-8.1,4.5-7.8,9.2.4,4.2,3.6,7.4,7.8,7.8,2.6.2,5.1-.8,6.8-2.8l6,7c-3.6,3.3-8.4,5-13.2,4.8-11.1,0-18.5-7-18.5-17.5s7.5-17.5,18.6-17.5,8.5,1.4,11.8,4.1l-6,7.1c-1.4-1.4-3.5-2.2-5.6-2.1"/>
  <path class="cls-1" d="M406.2,202.5c-4.7.4-8.1,4.5-7.8,9.2.4,4.2,3.6,7.4,7.8,7.8,2.6.2,5.1-.8,6.8-2.8l6,7c-3.6,3.3-8.4,5-13.2,4.8-11.1,0-18.5-7-18.5-17.5s7.5-17.5,18.6-17.5,8.5,1.4,11.8,4.1l-6,7.1c-1.6-1.4-3.5-2.2-5.6-2.1"/>
  <rect class="cls-1" x="494" y="179.5" width="10.5" height="48.5"/>
  <path class="cls-1" d="M454.4,224.4c0,10.7-7.7,17.8-19.4,17.8-4.8.2-9.5-1.3-13.4-4.2l2.3-8.3c3.1,2.3,6.9,3.4,10.9,3.3,4.6.4,8.7-3.1,9-7.8v-.8c-2.4,2.6-5.8,4-9.3,3.9-6.7.2-12.4-5.1-12.6-11.8v-22.5h10.5v19.6c-.3,3.1,2.1,5.9,5.3,6.1,3.1.3,5.9-2.1,6.1-5.3v-20.4h10.5v30.4h0Z"/>
  <path class="cls-1" d="M534.6,211c-.5-4.2-4.2-7.2-8.5-6.7-4.2.5-7.2,4.2-6.7,8.5.5,3.9,3.7,6.8,7.6,6.7,4.2,0,7.7-3.4,7.7-7.7v-.8M508.5,211c0-10.5,7.5-17.5,18.6-17.5s18.5,7,18.5,17.5-7.5,17.5-18.5,17.5-18.6-7-18.6-17.5"/>
  <path class="cls-1" d="M581.7,194.1v21.5c0,7.8-6.6,12.9-16.2,12.9s-16.2-5.9-16.2-14.9v-19.6h10.5v19.6c-.3,3.1,2.1,5.9,5.3,6.2,3.1.3,5.9-2.1,6.2-5.3v-20.4h10.5Z"/>
  <path class="cls-1" d="M259.5,194.1v21.5c0,7.8-6.6,12.9-16.2,12.9s-16.2-5.9-16.2-14.9v-19.6h10.5v19.6c-.3,3.1,2.1,5.9,5.3,6.2,3.1.3,5.9-2.1,6.2-5.3v-20.4h10.5Z"/>
  <path class="cls-1" d="M383.7,206.7v21.2h-10.5v-19.6c-.4-3.5-3.5-6.1-7.1-5.7-3,.3-5.4,2.7-5.7,5.7v19.6h-10.5v-33.9h10.2v3.8c2.7-2.9,6.5-4.5,10.4-4.4,6.8-.5,12.8,4.8,13.2,11.6v1.6"/>
  <path class="cls-1" d="M215.8,211.2c-2.9,4.2-7.6,6.6-12.6,6.6-8,0-14.5-6.5-14.5-14.5s6.5-14.5,14.5-14.5h0c5.2,0,10.1,2.6,12.8,6.9l7.8-6.9c-4.9-6.5-12.6-10.2-20.7-10.2-13.6-.5-24.9,10.1-25.5,23.6-.5,13.6,10.1,24.9,23.6,25.5h1.8c8,0,15.6-3.6,20.6-10l-7.8-6.6Z"/>
</svg>