<?xml version="1.0" encoding="UTF-8"?>
<svg id="Layer_1" data-name="Layer 1" xmlns="http://www.w3.org/2000/svg" viewBox="0 0 702.65 242.25">
  <path d="M120.25,0c-23.91,0-47.13,7.03-66.82,20.4-19.69,13.36-35.17,32.36-44.31,54.16C-.03,97.07-2.14,120.98,2.08,144.9s15.47,45.02,32.36,61.9,38.69,28.84,61.9,33.06c23.21,4.92,47.83,2.11,69.63-7.03,21.8-9.14,40.8-24.62,54.16-45.02,13.36-19.69,20.4-43.61,20.4-67.52,0-32.36-12.66-63.3-35.17-85.81C182.85,12.66,151.9,0,120.25,0ZM7.71,125.91h37.28c0,16.88,2.81,33.76,7.74,49.94h-30.95c-8.44-15.47-13.36-33.06-14.07-49.94ZM124.47,58.38V9.14c21.1,2.11,39.39,21.1,50.64,49.24,0,0-50.64,0-50.64,0ZM177.93,66.82c4.92,16.18,7.74,33.06,8.44,49.94h-61.9v-49.94s53.46,0,53.46,0ZM115.33,9.14v49.24h-50.64c11.25-28.14,30.25-47.13,50.64-49.24ZM115.33,66.82v49.94h-61.9c0-16.88,2.81-33.76,8.44-49.94,0,0,53.46,0,53.46,0ZM44.99,116.76H7.71c.7-17.58,5.63-34.47,14.07-49.94h30.95c-4.92,16.18-7.03,33.06-7.74,49.94ZM53.43,125.91h61.9v49.94h-53.46c-4.92-16.18-7.74-33.06-8.44-49.94ZM115.33,184.29v49.24c-21.1-2.11-39.39-21.1-50.64-49.24h50.64ZM124.47,233.52v-49.94h50.64c-11.25,28.84-29.54,47.83-50.64,49.94ZM124.47,175.14v-49.94h61.9c0,16.88-2.81,33.76-8.44,49.94h-53.46ZM194.81,125.91h37.28c-.7,17.58-5.63,34.47-14.07,49.94h-30.95c4.92-16.88,7.74-33.06,7.74-49.94ZM194.81,116.76c0-16.88-2.81-33.76-7.74-49.94h30.95c8.44,15.47,13.36,32.36,14.07,49.94,0,0-37.28,0-37.28,0ZM213.1,58.38h-28.84c-2.81-7.74-6.33-14.77-10.55-21.8-4.92-8.44-10.55-15.47-17.58-21.8,23.21,7.74,42.91,23.21,56.97,43.61ZM83.68,14.77c-6.33,6.33-12.66,13.36-17.58,21.8-4.22,7.03-7.74,14.07-10.55,21.8h-28.84c14.07-20.4,33.76-35.87,56.97-43.61ZM26.7,184.29h28.84c2.81,7.74,6.33,14.77,10.55,21.8,4.92,7.74,10.55,15.47,17.58,21.8-23.21-7.74-42.91-23.21-56.97-43.61ZM156.13,227.9c7.03-6.33,12.66-13.36,17.58-21.8,4.22-7.03,7.74-14.77,10.55-21.8h28.84c-14.07,20.4-33.76,35.87-56.97,43.61ZM572.53,86.52h-19.69v108.32h19.69s0-108.32,0-108.32ZM562.68,71.74c7.03,0,13.36-5.63,13.36-13.36s-5.63-13.36-13.36-13.36c-7.03,0-13.36,5.63-13.36,13.36s6.33,13.36,13.36,13.36ZM612.62,115.35h28.84v-16.88h-28.84v-15.47c0-11.25,7.74-17.58,21.1-17.58h7.74v-19.69h-7.74c-25.32,0-40.8,14.07-40.8,36.58v113.24h19.69s0-80.19,0-80.19ZM694.91,195.54h7.74v-19.69h-7.74c-13.36,0-21.1-6.33-21.1-17.58v-42.91h28.84v-16.88h-28.84v-52.75h-19.69v113.24c0,21.8,15.47,35.87,40.8,36.58ZM445.92,195.54l19.69-80.89,19.69,80.89h22.51l30.25-108.32h-20.4l-21.1,83-20.4-83h-21.8l-20.4,83-21.1-83h-19.69l30.25,108.32s22.51,0,22.51,0ZM339,177.25c-16.88,0-30.95-10.55-35.87-21.1l-18.29,9.85c8.44,18.99,29.54,31.65,53.46,31.65,30.95,0,52.75-17.58,52.75-42.91,0-58.38-82.3-33.76-82.3-67.52,0-14.77,12.66-21.8,30.25-21.8,14.07,0,26.73,7.74,34.47,17.58l15.47-13.36c-10.55-14.77-29.54-23.21-49.94-23.21-31.65,0-51.35,19.69-51.35,40.8,0,56.97,83,28.84,83,68.23,0,12.66-12.66,21.8-31.65,21.8Z" fill="#fff" stroke-width="0"/>
</svg>