<?xml version="1.0" encoding="UTF-8"?>
<svg id="Layer_1" data-name="Layer 1" xmlns="http://www.w3.org/2000/svg" version="1.1" viewBox="0 0 800 242.2">
  <defs>
    <style>
      .cls-1 {
        fill: #fff;
        stroke-width: 0px;
      }
    </style>
  </defs>
  <path class="cls-1" d="M400.4,0c12.7,21.5,25,43.3,37.6,64.9,1.8,2.8,2.4,6.2,2.3,9.5v77.7c-17.3-6.1-36.5-7.2-54.1-1.4-9.4,2.9-17.9,8-25.9,13.5,0-30.5,0-60.9,0-91.4,0-2.2,0-4.5,1.4-6.4,12.9-22.1,25.8-44.2,38.6-66.3Z"/>
  <path class="cls-1" d="M259.9,241.7c23.6-40.7,47.2-81.3,71-122,.4,40.7.2,81.4.2,122.1-23.7-.2-47.4,0-71.1-.2"/>
  <path class="cls-1" d="M469.3,120c24,40.5,47.1,81.5,70.8,122.3-23.6,0-47.2-.1-70.8,0,0-40.8-.2-81.5,0-122.3"/>
  <path class="cls-1" d="M401.2,174.1c13.3-2.3,27.1.7,38.6,7.5.3,20.2-.2,40.3.5,60.5-25.7,0-51.4,0-77.1-.2-2.7-10.6-3.9-22-.9-32.7,4.8-17.9,20.6-32.2,38.9-35.1"/>
</svg>