<?xml version="1.0" encoding="UTF-8"?>
<svg id="Layer_1" data-name="Layer 1" xmlns="http://www.w3.org/2000/svg" width="570.97609" height="103.85804" version="1.1" viewBox="0 0 570.97609 103.85804">
  <g>
    <path d="M130.99137,65.80776v-29.61991h-4.85905v29.6199h4.85905ZM83.17689,55.42109v10.38667h-5.062v-28.06788h10.93584c2.14897,0,4.0114.38204,5.58731,1.13418,1.57591.75214,2.76978,1.82662,3.58161,3.18763s1.22968,2.88916,1.22968,4.63221-.41785,3.37865-1.22968,4.67997c-.81183,1.3252-2.0057,2.31611-3.55774,2.99661s-3.43834,1.0506-5.62312,1.0506h-5.86189ZM83.17689,51.40969h5.87384c1.80275,0,3.15181-.41785,4.0114-1.25356.87153-.83571,1.30131-1.96988,1.30131-3.43835,0-.90734-.17908-1.71917-.56112-2.48325s-.9551-1.36101-1.75499-1.80274c-.79989-.45367-1.7908-.69244-2.98467-.69244h-5.87384v9.65841h-.02387l.01194.01194ZM112.02078,66.18979c2.02957,0,3.78456-.45367,5.26497-1.37295,1.4804-.90734,2.62651-2.17284,3.41447-3.78457s1.17-3.41447,1.17-5.45598v-.39398c0-2.02958-.39398-3.8562-1.17-5.45598-.79989-1.61172-1.93407-2.87723-3.41447-3.79651-1.50428-.91928-3.25927-1.37295-5.30078-1.37295s-3.76069.45367-5.24109,1.37295-2.62651,2.18478-3.41447,3.79651c-.79989,1.61172-1.17,3.41447-1.17,5.45598v.39398c0,2.02958.39398,3.8562,1.17,5.45598.79989,1.61172,1.93407,2.87723,3.41447,3.78456,1.50428.90734,3.25927,1.37295,5.2769,1.37295h0ZM108.26009,60.43534c.83571,1.2655,2.07733,1.89825,3.76069,1.89825,1.09836,0,2.04152-.3104,2.78172-.90734s1.30131-1.40877,1.65948-2.42355.53724-2.14896.53724-3.43835v-.39398c0-1.2655-.17908-2.39968-.53724-3.41447-.35816-1.02673-.91928-1.82662-1.65948-2.44743-.76408-.59693-1.69529-.90734-2.81753-.90734s-2.02957.31041-2.78172.90734c-.7402.59693-1.30131,1.40877-1.64754,2.44743-.35816,1.02673-.53724,2.17284-.53724,3.41447v.39398c0,1.96988.41785,3.59355,1.25357,4.85905l-.01195.01194ZM142.27343,72.68444c-.99091,1.02673-2.42355,1.55203-4.27406,1.55203-.63275,0-1.40877-.10745-2.32804-.34622v-3.68906l.90734.03581c1.15805,0,2.04152-.20296,2.66233-.62081.62081-.39398,1.08643-1.12224,1.44458-2.13703l.66856-1.76693-7.43781-20.78527h5.26497l4.39344,14.00409,4.27406-14.00409h5.19333l-8.42872,24.0326c-.53724,1.44458-1.30131,2.67427-2.29223,3.71294h-.03581l-.01195.01194ZM160.53964,65.80775v-15.07857c.77601-1.50428,2.1012-2.25641,3.97559-2.25641,1.22968,0,2.14897.28653,2.78172.88346s.94315,1.58785.94315,2.98467v13.45491h4.85906v-14.33838c.27458-.90734.76408-1.64754,1.43264-2.17284.69245-.53724,1.54008-.81183,2.55488-.81183,1.22968,0,2.17285.27459,2.78172.83571.62082.56112.91928,1.55203.91928,2.98467v13.5146h4.85906v-13.49073c0-2.69815-.59693-4.64415-1.76692-5.89772-1.19387-1.25356-2.88916-1.86244-5.13364-1.86244-1.43264,0-2.67427.27459-3.78456.83571-1.09836.56112-2.00569,1.33713-2.71009,2.35192-.53724-1.08642-1.30131-1.88631-2.29223-2.39968-.99091-.5253-2.14897-.77601-3.4861-.77601s-2.45937.2149-3.4861.66857-1.89825,1.08642-2.60263,1.92213l-.16714-2.20866h-4.57252v20.86884h4.85906l.03581.02388-.00004-.03582ZM200.16418,65.55704c-.91928.41785-1.96988.63275-3.15181.63275-1.37294,0-2.62651-.27459-3.71294-.81183-1.09836-.53724-1.95795-1.28938-2.56681-2.24448s-.91928-2.02958-.91928-3.19957c0-2.2206.83571-3.92783,2.51907-5.1217,1.68336-1.16999,4.04722-1.76693,7.1274-1.76693h2.92498v-1.36101c0-1.09836-.3104-1.96988-.91928-2.5907-.62082-.62081-1.51622-.94316-2.71009-.94316-.72826,0-1.36101.13133-1.89825.35816s-.97898.57306-1.2655.99091c-.3104.41785-.45368.90734-.45368,1.43264h-4.85906c0-1.12224.35816-2.17284,1.08643-3.15181s1.75499-1.76693,3.09212-2.36386,2.85335-.90734,4.59641-.90734c1.61173,0,3.03242.27459,4.28599.81183s2.20867,1.36101,2.91304,2.42356,1.05061,2.39968,1.05061,3.96365v9.20473c0,1.89825.27458,3.41447.79989,4.5367v.32235h-4.97843c-.21489-.45367-.39398-1.09836-.53724-1.95795-.66856.70438-1.46845,1.2655-2.38774,1.69529l-.02388.02388-.01193.02388ZM197.96746,62.35747c-1.02673,0-1.82662-.27459-2.39967-.79989-.57305-.53724-.87152-1.22968-.87152-2.07734,0-1.08642.42979-1.93407,1.30131-2.55488.87152-.59693,2.14897-.90734,3.85619-.90734h2.55488v3.89202c-.35816.66857-.94315,1.25356-1.73111,1.71917s-1.69529.70438-2.71009.70438l.02388.02388h-.02388ZM217.02163,51.58876v14.21899h-4.85906v-20.86884h4.63222l.14326,2.35192c.53724-.87152,1.19387-1.55203,1.99376-2.02958.79989-.46561,1.71918-.70438,2.76979-.70438.27458,0,.57305.02388.91928.07163s.59693.10745.77601.17908l-.03581,4.5367c-.65663-.10745-1.30131-.16714-1.93406-.16714-2.17285,0-3.62936.79989-4.3815,2.39968h-.02388v.01194ZM231.18092,65.80775v-6.76924l2.13702-2.13703,6.1723,8.91821h5.62313l-8.66749-12.18941,7.84373-8.67943h-5.8619l-5.79027,6.45883-1.44459,1.76693v-16.97682h-4.84711v29.6199h4.84711l-.02388-.02388.01195.01194ZM261.6246,65.06755c-1.37294.7402-3.02049,1.12224-4.97843,1.12224-2.06539,0-3.86814-.42979-5.40823-1.3252s-2.71009-2.07734-3.54579-3.61742-1.22968-3.23539-1.22968-5.15752v-.79989c0-2.14896.41786-4.03528,1.25357-5.65894s1.99376-2.87723,3.43835-3.76069c1.46845-.88346,3.116-1.33713,4.94262-1.33713,1.99376,0,3.67712.42979,5.0262,1.28938,1.36101.87152,2.36386,2.06539,3.03242,3.61743s1.0148,3.34283,1.0148,5.38435v2.02958h-13.80113c.09551,1.06254.38205,2.0057.84766,2.84141.46561.81183,1.09836,1.46846,1.89825,1.93407s1.73111.69245,2.8056.69245c2.18478,0,3.93977-.84765,5.2769-2.55488l2.60263,2.49519c-.77601,1.12224-1.8505,2.04152-3.19956,2.80559h.02385ZM260.37103,53.40345h-8.88239c.21489-1.57591.72826-2.80559,1.50427-3.68906.77601-.87152,1.80274-1.3252,3.09212-1.3252,1.43264,0,2.49518.42979,3.16375,1.30132s1.05061,1.96988,1.12224,3.3309l.00002.38204ZM278.7208,65.71224c-.94315.3104-1.99376.46561-3.16375.46561-1.71918,0-3.08019-.46561-4.0711-1.40877s-1.4804-2.44743-1.4804-4.48895v-11.80737h-3.43835v-3.54579h3.43835v-5.08588h4.85906v5.08588h3.71294v3.54579h-3.71294v11.46115c0,.87152.17907,1.46846.53724,1.7908.35816.3104.90733.46561,1.64755.46561.52531,0,1.06254-.07163,1.65948-.20296v3.71294l.01193.01194ZM51.04986,49.27266v-28.98715L0,34.6597v34.53865l51.04986,14.37419v-34.31181.01194ZM46.11918,47.88777v-21.13149l-37.51138,10.56575,37.51138,10.56575ZM42.44206,51.93499L4.94262,41.36924v21.11955l37.51138-10.56575-.01195.01194ZM8.6078,66.54795l37.51138,10.56574v-21.14343l-37.51138,10.56575v.02388-.01194Z" fill="#fff" fill-rule="evenodd" stroke-width="0"/>
    <path d="M130.99137,65.80776v-29.61991h-4.85905v29.6199h4.85905ZM83.17689,55.42109v10.38667h-5.062v-28.06788h10.93584c2.14897,0,4.0114.38204,5.58731,1.13418,1.57591.75214,2.76978,1.82662,3.58161,3.18763s1.22968,2.88916,1.22968,4.63221-.41785,3.37865-1.22968,4.67997c-.81183,1.3252-2.0057,2.31611-3.55774,2.99661s-3.43834,1.0506-5.62312,1.0506h-5.86189ZM83.17689,51.40969h5.87384c1.80275,0,3.15181-.41785,4.0114-1.25356.87153-.83571,1.30131-1.96988,1.30131-3.43835,0-.90734-.17908-1.71917-.56112-2.48325s-.9551-1.36101-1.75499-1.80274c-.79989-.45367-1.7908-.69244-2.98467-.69244h-5.87384v9.65841h-.02387l.01194.01194ZM112.02078,66.18979c2.02957,0,3.78456-.45367,5.26497-1.37295,1.4804-.90734,2.62651-2.17284,3.41447-3.78457s1.17-3.41447,1.17-5.45598v-.39398c0-2.02958-.39398-3.8562-1.17-5.45598-.79989-1.61172-1.93407-2.87723-3.41447-3.79651-1.50428-.91928-3.25927-1.37295-5.30078-1.37295s-3.76069.45367-5.24109,1.37295-2.62651,2.18478-3.41447,3.79651c-.79989,1.61172-1.17,3.41447-1.17,5.45598v.39398c0,2.02958.39398,3.8562,1.17,5.45598.79989,1.61172,1.93407,2.87723,3.41447,3.78456,1.50428.90734,3.25927,1.37295,5.2769,1.37295h0ZM108.26009,60.43534c.83571,1.2655,2.07733,1.89825,3.76069,1.89825,1.09836,0,2.04152-.3104,2.78172-.90734s1.30131-1.40877,1.65948-2.42355.53724-2.14896.53724-3.43835v-.39398c0-1.2655-.17908-2.39968-.53724-3.41447-.35816-1.02673-.91928-1.82662-1.65948-2.44743-.76408-.59693-1.69529-.90734-2.81753-.90734s-2.02957.31041-2.78172.90734c-.7402.59693-1.30131,1.40877-1.64754,2.44743-.35816,1.02673-.53724,2.17284-.53724,3.41447v.39398c0,1.96988.41785,3.59355,1.25357,4.85905l-.01195.01194ZM142.27343,72.68444c-.99091,1.02673-2.42355,1.55203-4.27406,1.55203-.63275,0-1.40877-.10745-2.32804-.34622v-3.68906l.90734.03581c1.15805,0,2.04152-.20296,2.66233-.62081.62081-.39398,1.08643-1.12224,1.44458-2.13703l.66856-1.76693-7.43781-20.78527h5.26497l4.39344,14.00409,4.27406-14.00409h5.19333l-8.42872,24.0326c-.53724,1.44458-1.30131,2.67427-2.29223,3.71294h-.03581l-.01195.01194ZM160.53964,65.80775v-15.07857c.77601-1.50428,2.1012-2.25641,3.97559-2.25641,1.22968,0,2.14897.28653,2.78172.88346s.94315,1.58785.94315,2.98467v13.45491h4.85906v-14.33838c.27458-.90734.76408-1.64754,1.43264-2.17284.69245-.53724,1.54008-.81183,2.55488-.81183,1.22968,0,2.17285.27459,2.78172.83571.62082.56112.91928,1.55203.91928,2.98467v13.5146h4.85906v-13.49073c0-2.69815-.59693-4.64415-1.76692-5.89772-1.19387-1.25356-2.88916-1.86244-5.13364-1.86244-1.43264,0-2.67427.27459-3.78456.83571-1.09836.56112-2.00569,1.33713-2.71009,2.35192-.53724-1.08642-1.30131-1.88631-2.29223-2.39968-.99091-.5253-2.14897-.77601-3.4861-.77601s-2.45937.2149-3.4861.66857-1.89825,1.08642-2.60263,1.92213l-.16714-2.20866h-4.57252v20.86884h4.85906l.03581.02388-.00004-.03582ZM200.16418,65.55704c-.91928.41785-1.96988.63275-3.15181.63275-1.37294,0-2.62651-.27459-3.71294-.81183-1.09836-.53724-1.95795-1.28938-2.56681-2.24448s-.91928-2.02958-.91928-3.19957c0-2.2206.83571-3.92783,2.51907-5.1217,1.68336-1.16999,4.04722-1.76693,7.1274-1.76693h2.92498v-1.36101c0-1.09836-.3104-1.96988-.91928-2.5907-.62082-.62081-1.51622-.94316-2.71009-.94316-.72826,0-1.36101.13133-1.89825.35816s-.97898.57306-1.2655.99091c-.3104.41785-.45368.90734-.45368,1.43264h-4.85906c0-1.12224.35816-2.17284,1.08643-3.15181s1.75499-1.76693,3.09212-2.36386,2.85335-.90734,4.59641-.90734c1.61173,0,3.03242.27459,4.28599.81183s2.20867,1.36101,2.91304,2.42356,1.05061,2.39968,1.05061,3.96365v9.20473c0,1.89825.27458,3.41447.79989,4.5367v.32235h-4.97843c-.21489-.45367-.39398-1.09836-.53724-1.95795-.66856.70438-1.46845,1.2655-2.38774,1.69529l-.02388.02388-.01193.02388ZM197.96746,62.35747c-1.02673,0-1.82662-.27459-2.39967-.79989-.57305-.53724-.87152-1.22968-.87152-2.07734,0-1.08642.42979-1.93407,1.30131-2.55488.87152-.59693,2.14897-.90734,3.85619-.90734h2.55488v3.89202c-.35816.66857-.94315,1.25356-1.73111,1.71917s-1.69529.70438-2.71009.70438l.02388.02388h-.02388ZM217.02163,51.58876v14.21899h-4.85906v-20.86884h4.63222l.14326,2.35192c.53724-.87152,1.19387-1.55203,1.99376-2.02958.79989-.46561,1.71918-.70438,2.76979-.70438.27458,0,.57305.02388.91928.07163s.59693.10745.77601.17908l-.03581,4.5367c-.65663-.10745-1.30131-.16714-1.93406-.16714-2.17285,0-3.62936.79989-4.3815,2.39968h-.02388v.01194ZM231.18092,65.80775v-6.76924l2.13702-2.13703,6.1723,8.91821h5.62313l-8.66749-12.18941,7.84373-8.67943h-5.8619l-5.79027,6.45883-1.44459,1.76693v-16.97682h-4.84711v29.6199h4.84711l-.02388-.02388.01195.01194ZM261.6246,65.06755c-1.37294.7402-3.02049,1.12224-4.97843,1.12224-2.06539,0-3.86814-.42979-5.40823-1.3252s-2.71009-2.07734-3.54579-3.61742-1.22968-3.23539-1.22968-5.15752v-.79989c0-2.14896.41786-4.03528,1.25357-5.65894s1.99376-2.87723,3.43835-3.76069c1.46845-.88346,3.116-1.33713,4.94262-1.33713,1.99376,0,3.67712.42979,5.0262,1.28938,1.36101.87152,2.36386,2.06539,3.03242,3.61743s1.0148,3.34283,1.0148,5.38435v2.02958h-13.80113c.09551,1.06254.38205,2.0057.84766,2.84141.46561.81183,1.09836,1.46846,1.89825,1.93407s1.73111.69245,2.8056.69245c2.18478,0,3.93977-.84765,5.2769-2.55488l2.60263,2.49519c-.77601,1.12224-1.8505,2.04152-3.19956,2.80559h.02385ZM260.37103,53.40345h-8.88239c.21489-1.57591.72826-2.80559,1.50427-3.68906.77601-.87152,1.80274-1.3252,3.09212-1.3252,1.43264,0,2.49518.42979,3.16375,1.30132s1.05061,1.96988,1.12224,3.3309l.00002.38204ZM278.7208,65.71224c-.94315.3104-1.99376.46561-3.16375.46561-1.71918,0-3.08019-.46561-4.0711-1.40877s-1.4804-2.44743-1.4804-4.48895v-11.80737h-3.43835v-3.54579h3.43835v-5.08588h4.85906v5.08588h3.71294v3.54579h-3.71294v11.46115c0,.87152.17907,1.46846.53724,1.7908.35816.3104.90733.46561,1.64755.46561.52531,0,1.06254-.07163,1.65948-.20296v3.71294l.01193.01194ZM51.04986,49.27266v-28.98715L0,34.6597v34.53865l51.04986,14.37419v-34.31181.01194ZM46.11918,47.88777v-21.13149l-37.51138,10.56575,37.51138,10.56575ZM42.44206,51.93499L4.94262,41.36924v21.11955l37.51138-10.56575-.01195.01194ZM8.6078,66.54795l37.51138,10.56574v-21.14343l-37.51138,10.56575v.02388-.01194Z" fill="#fff" fill-rule="evenodd" stroke-width="0"/>
  </g>
  <g>
    <path d="M435.52338,24.50003h-11.16662v54.85414h11.16662V24.50003Z" fill="#21c891" fill-opacity=".9" stroke-width="0"/>
    <path d="M326.66481,24.56072h11.85372v24.60752l22.16128-24.60752h14.37334l-20.32872,22.55688,21.64586,32.24042h-14.20164l-15.80491-23.12648-7.84521,8.71501v14.41146h-11.85372V24.56072Z" fill="#21c891" stroke-width="0"/>
    <path d="M420.0622,78.84153h-5.66902c-5.09658,0-7.6162-2.22175-7.50155-6.60764-1.48912,2.27853-3.32137,4.04413-5.44027,5.24031-2.17594,1.19645-4.75289,1.82293-7.84524,1.82293-4.52387,0-8.18865-1.0253-10.99464-3.07589-2.74866-2.10764-4.12313-5.01265-4.12313-8.77234,0-4.27206,1.6035-7.57589,4.75289-9.85414,3.207-2.33558,7.84524-3.53176,13.91528-3.53176h8.07427v-1.93676c0-1.82274-.6871-3.24677-2.06156-4.32906-1.3742-1.08227-3.20672-1.65188-5.55465-1.65188-2.06156,0-3.72211.45571-5.03925,1.31012-1.31714.91138-2.11861,2.10759-2.34765,3.58859h-10.8232c.34368-4.10124,2.23354-7.29112,5.55465-9.56959,3.32137-2.27847,7.73086-3.47468,13.22817-3.47468,5.72635,0,10.19316,1.25318,13.28523,3.7595,3.14967,2.50632,4.75318,6.15188,4.75318,10.87965v14.18353c0,.96824.22903,1.65205.62977,2.05059.40074.34176,1.0881.5697,2.00423.5697h1.20249v9.39882ZM397.04215,61.41095c-2.2906,0-4.12313.45587-5.44027,1.42411-1.25981.91147-1.88958,2.1647-1.88958,3.81647,0,1.42411.51539,2.50646,1.60323,3.36087,1.08811.85441,2.57695,1.25296,4.40948,1.25296,2.92037,0,5.21096-.79736,6.87179-2.44914,1.66055-1.65205,2.57668-3.87352,2.63401-6.6647v-.74058h-8.18865Z" fill="#21c891" fill-rule="evenodd" stroke-width="0"/>
    <path d="M450.35478,65.45535c.1717,1.76588,1.03077,3.18999,2.63401,4.32912,1.60349,1.08235,3.60773,1.65204,6.07003,1.65204,2.34792,0,4.2375-.34176,5.61198-1.08235,1.37419-.79764,2.06156-1.87971,2.06156-3.30382,0-1.0253-.34368-1.82293-.97346-2.33558-.63004-.51265-1.54617-.91119-2.69161-1.08207-1.14516-.28499-3.03501-.5697-5.66902-.85441-3.60773-.45587-6.58542-1.08235-8.93335-1.82293-2.34792-.74058-4.29483-1.87971-5.66902-3.4747-1.43179-1.59472-2.11889-3.64559-2.11889-6.26571s.6871-4.89871,2.11889-6.89238c1.48885-2.05062,3.55041-3.58859,6.18441-4.72783,2.63428-1.08229,5.6693-1.65191,9.10505-1.65191,5.55465.05697,9.96386,1.25318,13.34257,3.53165,3.43575,2.27847,5.26829,5.46833,5.55464,9.56959h-10.59389c-.17171-1.53797-.97346-2.73418-2.4623-3.70253-1.43179-.96835-3.26405-1.481-5.55465-1.481-2.11889,0-3.83677.39874-5.1539,1.19621-1.25982.79744-1.88958,1.82277-1.88958,3.13289,0,.96835.34341,1.65191,1.03077,2.10751.6871.45587,1.60322.79764,2.69134,1.0253,1.0881.22793,2.97769.45587,5.55465.68353,5.49732.62675,9.67776,1.82293,12.5408,3.53176,2.9777,1.65178,4.40949,4.55705,4.40949,8.71529,0,2.62002-.80175,4.89854-2.34792,6.89236-1.54618,1.99354-3.66479,3.53148-6.47077,4.61383-2.74866,1.02529-5.95565,1.59499-9.56312,1.59499-5.61198,0-10.25049-1.25323-13.74357-3.70264-3.55041-2.50619-5.38293-5.92412-5.61198-10.19618h10.53685Z" fill="#21c891" stroke-width="0"/>
    <path d="M516.83935,42.95568c-3.09206-2.90506-6.98616-4.38606-11.79638-4.38606-4.98193,0-8.9904,1.82277-12.02542,5.46833v-19.53792h-11.16661v54.85414h11.16661v-20.67707c0-3.4747.74442-6.15178,2.34765-8.08854,1.60351-1.93671,3.83677-2.90506,6.70008-2.90506,2.74865,0,4.81022.91138,6.18441,2.67721,1.37446,1.70874,2.06157,4.2152,2.06157,7.5758v21.41765h11.16661v-21.87325c0-6.77845-1.54617-11.62021-4.63852-14.52524Z" fill="#21c891" stroke-width="0"/>
    <path d="M525.7716,39.02508h11.16663v40.27204h-11.16663v-40.27204Z" fill="#21c891" fill-opacity=".9" stroke-width="0"/>
    <path d="M535.27904,26.09497c-1.03078-1.02531-2.34793-1.59493-3.95141-1.59493-1.54589,0-2.92038.56962-4.00848,1.59493-1.03078,1.02531-1.60321,2.27848-1.60321,3.81645s.57243,2.84809,1.60321,3.87341c1.0881,1.0253,2.46259,1.59491,4.00848,1.59491,1.54617,0,2.92063-.51265,3.95141-1.59491,1.03078-1.08229,1.60323-2.33544,1.60323-3.87341s-.57245-2.8481-1.60323-3.81645Z" fill="#21c891" stroke-width="0"/>
  </g>
</svg>