<?xml version="1.0" encoding="UTF-8"?>
<svg id="Layer_1" data-name="Layer 1" xmlns="http://www.w3.org/2000/svg" version="1.1" viewBox="0 0 800 242.2">
  <defs>
    <style>
      .cls-1 {
        fill: #fff;
        stroke-width: 0px;
      }
    </style>
  </defs>
  <path id="Shape" class="cls-1" d="M224.2,39.2h36.6c9.3,0,16.1,2.5,20.5,6.8,4.3,3.7,6.2,8.7,6.2,13.6h0c0,1.9,0,4.3-.6,6.2-1.2,3.1-3.1,6.2-5.6,8.7s-2.5,1.9-3.7,2.5c4.3,1.2,8.1,3.7,11.2,6.8,2.5,3.1,3.7,6.8,3.7,12.4h0c0,3.1-.6,6.8-1.9,9.3-1.2,2.5-3.7,5-6.2,6.8-3.1,1.9-6.2,3.1-9.3,4.3-3.7,1.2-8.1,1.2-12.4,1.2h-37.9V39h-.6v.2ZM257.7,71.4c3.1,0,6.2-.6,9.3-1.9,2.5-1.2,3.7-3.7,3.7-6.2h0c0-2.5-1.2-5-3.1-6.2-2.5-1.9-5.6-2.5-8.7-1.9h-17.4v16.7h16.1v-.5h.1ZM262,103.1c3.1,0,6.2-.6,9.3-1.9,2.5-1.2,3.7-3.7,3.1-6.8h0c0-2.5-1.2-5-3.1-6.2s-5.6-2.5-9.9-2.5h-20.5v17.4h21.1Z"/>
  <polygon id="Path" class="cls-1" points="314.1 39.2 331.5 39.2 331.5 118.6 314.1 118.6 314.1 39.2"/>
  <polygon id="Path-2" data-name="Path" class="cls-1" points="358.2 39.2 374.3 39.2 411.5 88.2 411.5 39.2 428.8 39.2 428.8 118.6 414 118.6 374.9 68.3 374.9 118.6 358.2 118.6 358.2 39.2"/>
  <path id="Shape-2" data-name="Shape" class="cls-1" d="M481.6,38.6h16.1l34.1,80h-18l-7.4-18h-33.5l-7.4,18h-18l34.1-80ZM500.2,85.7l-10.5-26-10.5,26h21Z"/>
  <polygon id="Path-3" data-name="Path" class="cls-1" points="550.4 39.2 566.5 39.2 603.7 88.2 603.7 39.2 621.1 39.2 621.1 118.6 606.2 118.6 567.7 68.3 567.7 118.6 550.4 118.6 550.4 39.2"/>
  <path id="Path-4" data-name="Path" class="cls-1" d="M684.3,119.8c-5.6,0-11.2-1.2-16.1-3.1-9.9-4.3-17.4-11.8-21.7-21.7-1.9-5-3.1-10.5-3.1-16.1h0c0-10.5,4.3-21.1,11.8-29.1,3.7-3.7,8.1-6.8,13-8.7,5.6-2.5,11.2-3.1,16.7-3.1s6.8,0,9.9.6c3.1.6,5.6,1.2,8.1,2.5,2.5,1.2,5,2.5,6.8,3.7,1.9,1.2,4.3,3.1,6.2,5l-10.5,13c-3.1-2.5-6.2-5-9.3-6.8s-6.8-2.5-10.5-2.5-6.2.6-9.3,1.9c-3.1,1.2-5.6,3.1-7.4,5.6s-3.7,5-5,8.1c-1.2,3.1-1.9,6.2-1.9,9.3h0c0,3.1.6,6.8,1.9,9.9s2.5,5.6,5,8.1c4.3,5,10.5,7.4,16.7,7.4s8.1-.6,11.8-2.5c3.1-1.9,6.8-4.3,9.3-6.8l11.1,11.1c-1.9,1.9-4.3,4.3-6.2,6.2-2.5,1.9-5,3.1-7.4,4.3-2.5,1.2-5.6,2.5-8.7,3.1-4.4.6-8.1.6-11.2.6h0Z"/>
  <polygon id="Path-5" data-name="Path" class="cls-1" points="737.7 39.2 797.2 39.2 797.2 54.7 754.4 54.7 754.4 70.8 792.2 70.8 792.2 86.3 754.4 86.3 754.4 103.1 797.8 103.1 797.8 118.6 737.7 118.6 737.7 39.2"/>
  <path id="Path-6" data-name="Path" class="cls-1" d="M246.5,196.7c-4.3,0-8.7-.6-12.4-2.5-3.7-1.2-7.4-3.7-11.2-6.8l6.2-6.8c2.5,2.5,5,3.7,8.1,5.6,3.1,1.2,6.2,1.9,9.3,1.9s5-.6,7.4-1.9c1.9-1.2,2.5-3.1,2.5-5h0c0-.6,0-1.9-.6-2.5s-1.2-1.9-1.9-2.5c-1.2-.6-2.5-1.2-3.7-1.9-1.9-.6-4.3-1.2-6.2-1.9-2.5-.6-5.6-1.2-8.1-2.5-1.9-.6-4.3-1.9-5.6-3.1-1.2-1.2-2.5-2.5-3.7-4.3-1.2-2.5-1.2-5-1.2-6.8h0c0-2.5.6-4.3,1.2-6.8.6-1.9,2.5-3.7,3.7-5,1.9-1.2,3.7-2.5,6.2-3.1s5-1.2,7.4-1.2c3.7,0,7.4.6,11.2,1.9,3.1,1.2,6.2,3.1,9.3,5l-5,7.4c-2.5-1.9-5-3.1-7.4-4.3-2.5-1.2-5-1.2-7.4-1.2s-5,.6-6.8,1.9c-1.2,1.2-2.5,3.1-2.5,5h0c0,1.2,0,1.9.6,3.1.6.6,1.2,1.9,1.9,2.5,1.2.6,2.5,1.2,4.3,1.9,1.9.6,3.7,1.2,6.8,1.9,2.5.6,5,1.2,8.1,2.5,1.9.6,3.7,1.9,5.6,3.1,1.2,1.2,2.5,3.1,3.1,4.3.6,1.9,1.2,3.7,1.2,6.2h0c0,2.5-.6,5-1.2,6.8-1.2,1.9-2.5,3.7-4.3,5.6-1.9,1.2-3.7,2.5-6.2,3.1-3.1-.2-6.2.4-8.7.4Z"/>
  <polygon id="Path-7" data-name="Path" class="cls-1" points="277.5 140.3 288.1 140.3 304.8 166.3 322.2 140.3 332.7 140.3 332.7 196.1 322.8 196.1 322.8 155.8 305.4 181.8 304.8 181.8 287.5 155.8 287.5 196.1 277.5 196.1 277.5 140.3"/>
  <path id="Shape-3" data-name="Shape" class="cls-1" d="M366.2,139.7h9.3l24.2,55.8h-10.5l-5.6-13.6h-26l-5.6,13.6h-9.9l24.1-55.8ZM380.5,173.8l-9.9-22.3-9.3,22.3h19.2Z"/>
  <path id="Shape-4" data-name="Shape" class="cls-1" d="M409.6,140.3h24.8c3.1,0,6.2.6,9.3,1.2,2.5.6,5,2.5,6.8,4.3s2.5,3.1,3.7,5.6c.6,1.9,1.2,4.3,1.2,6.8h0c0,1.9-.6,4.3-1.2,6.2-.6,1.9-1.9,3.1-2.5,5-1.2,1.2-2.5,2.5-4.3,3.7-1.9,1.2-3.7,1.9-5.6,2.5l14.9,21.1h-11.8l-13.6-19.2h-12.4v19.2h-9.9l.6-56.4ZM433.8,167.6c3.1,0,6.2-.6,8.1-2.5,1.9-1.9,3.1-4.3,3.1-6.8h0c0-2.5-1.2-5-3.1-6.8-2.5-1.9-5.6-2.5-8.7-2.5h-14.3v18.6h14.9Z"/>
  <polygon id="Path-8" data-name="Path" class="cls-1" points="480.9 149 462.9 149 462.9 140.3 508.2 140.3 508.2 149 490.2 149 490.2 196.1 480.3 196.1 480.9 149"/>
  <path id="Path-9" data-name="Path" class="cls-1" d="M568.4,196.7c-3.7,0-7.4-.6-11.2-2.5-6.8-3.1-12.4-8.1-14.9-14.9-1.2-3.7-2.5-7.4-1.9-11.2h0c0-3.7.6-7.4,1.9-11.2,2.5-6.8,8.1-12.4,14.9-15.5,3.7-1.2,7.4-2.5,11.8-2.5s5,0,6.8.6c1.9.6,3.7,1.2,5.6,1.9,1.9.6,3.1,1.9,5,2.5,1.2,1.2,3.1,2.5,4.3,3.7l-6.2,7.4c-1.9-1.9-4.3-3.7-6.8-5-2.5-1.2-5.6-1.9-8.7-1.9s-5,.6-7.4,1.2c-2.5,1.2-4.3,2.5-6.2,4.3-1.9,1.9-3.1,3.7-3.7,6.2s-1.2,5-1.2,7.4h0c0,2.5.6,5,1.2,7.4s1.9,4.3,3.7,6.2c1.9,1.9,3.7,3.1,6.2,4.3,2.5,1.2,5,1.9,7.4,1.2,3.1,0,6.2-.6,8.7-1.9,2.5-1.2,5-3.1,7.4-5.6l6.2,6.2c-1.2,1.2-3.1,3.1-4.3,4.3-1.9,1.2-3.1,2.5-5,3.1s-3.7,1.9-6.2,1.9c-2.5,2.4-5,2.4-7.4,2.4h0Z"/>
  <polygon id="Path-10" data-name="Path" class="cls-1" points="601.2 140.3 610.5 140.3 610.5 163.2 637.2 163.2 637.2 140.3 647.1 140.3 647.1 196.1 637.2 196.1 637.2 172.5 610.5 172.5 610.5 196.1 601.2 196.1 601.2 140.3"/>
  <path id="Shape-5" data-name="Shape" class="cls-1" d="M681.2,139.7h9.3l24.2,55.8h-10.5l-5.6-13.6h-26l-5.6,13.6h-9.9l24.1-55.8ZM694.9,173.8l-9.3-22.3-9.3,22.3h18.6Z"/>
  <polygon id="Path-11" data-name="Path" class="cls-1" points="724.6 140.3 734.6 140.3 734.6 196.1 724.6 196.1 724.6 140.3"/>
  <polygon id="Path-12" data-name="Path" class="cls-1" points="749.4 140.3 758.1 140.3 787.9 178.7 787.9 140.3 797.8 140.3 797.8 196.1 789.7 196.1 759.4 156.4 759.4 196.1 749.4 196.1 749.4 140.3"/>
  <path id="binancedex" class="cls-1" d="M115.1,192.4v24.2l-21.1,12.4-20.5-12.4v-24.2l20.5,12.4,21.1-12.4ZM2.2,108.7l20.5,12.4v41.5l35.3,21.1v24.2L2.2,175v-66.3ZM185.8,108.7v66.4l-56.4,32.9v-24.2l35.3-21.1v-41.5l21.1-12.5ZM129.3,75.8l21.1,12.4h0v24.2l-35.3,21.1v42.1l-20.5,12.4-20.4-12.4v-42.2l-36.6-21.1v-24.2l21.1-12.4,35.3,21.1,35.3-21ZM37.6,129.7l20.5,12.4v24.2l-20.5-12.4v-24.2ZM150.4,129.7v24.2l-20.5,12.4v-24.2l20.5-12.4ZM22.7,54.7l21.1,12.4-21.1,12.4v24.2l-20.5-12.4v-24.2l20.5-12.4ZM165.3,54.7l21.1,12.4v24.2l-21.1,12.4v-24.2l-20.5-12.4,20.5-12.4ZM94,54.7l21.1,12.4-21.1,12.4-20.5-12.4,20.5-12.4ZM94,13.2l56.4,32.9-20.5,12.4-35.3-21.1-36,21.1-20.5-12.4L94,13.2Z"/>
</svg>