<?xml version="1.0" encoding="UTF-8"?>
<svg id="Layer_1" data-name="Layer 1" xmlns="http://www.w3.org/2000/svg" width="570.97609" height="103.85804" version="1.1" viewBox="0 0 570.97609 103.85804">
  <g>
    <rect x="23.28802" y="28.66834" width="46.4667" height="46.4667" fill="#fff" stroke-width="0"/>
    <polygon points="92.98807 51.95635 69.75472 28.66834 69.75472 75.1897 92.98807 51.95635" fill="#db0011" stroke-width="0"/>
    <polygon points="46.52137 51.95635 69.75472 28.66834 23.28802 28.66834 46.52137 51.95635" fill="#db0011" stroke-width="0"/>
    <polygon points="0 51.95635 23.28802 75.1897 23.28802 28.66834 0 51.95635" fill="#db0011" stroke-width="0"/>
    <polygon points="46.52137 51.95635 23.28802 75.1897 69.75472 75.1897 46.52137 51.95635" fill="#db0011" stroke-width="0"/>
    <path d="M113.37874,53.32302h-8.41867v8.30934h-4.20933v-19.46135h4.20933v7.98134h8.41867v-7.98134h4.20933v19.46135h-4.20933v-8.30934Z" fill="#fff" stroke-width="0"/>
    <path d="M127.75609,62.01503c-4.20933,0-7.65334-1.69467-7.70801-6.34134h4.20933c.05467,2.07733,1.25734,3.33467,3.55334,3.33467s3.66267-.87467,3.66267-2.788-1.312-1.968-3.49867-2.624l-1.42134-.38267c-3.06134-.87467-6.12267-2.07733-6.12267-5.576s4.04533-5.79467,7.70801-5.79467,7.052,1.312,7.10667,5.63067h-4.20933c-.164-1.74933-1.20267-2.788-3.17067-2.788s-3.116.82-3.116,2.56933,1.312,1.85867,4.04533,2.73334l1.64.492c3.33467,1.03867,5.46667,2.18667,5.46667,5.46667,0,4.37334-4.31867,6.068-8.14534,6.068Z" fill="#fff" stroke-width="0"/>
    <path d="M138.2521,42.22568h6.77867c1.25733-.05467,2.56934,0,3.82667.21867,2.35066.54667,4.15467,2.07733,4.15467,4.70134s-1.58533,3.772-3.88134,4.37334c2.624.492,4.592,1.804,4.592,4.70134,0,4.428-4.37334,5.412-7.76268,5.412h-7.65334v-19.40668h-.05465ZM145.03076,50.31635c1.85866,0,3.772-.38267,3.772-2.624s-1.74934-2.56934-3.49867-2.56934h-2.952v5.19334h2.67867ZM145.41344,58.73503c1.968,0,3.88134-.43733,3.88134-2.84267s-1.64-2.84267-3.66268-2.84267h-3.33467v5.68534h3.11601Z" fill="#fff" stroke-width="0"/>
    <path d="M164.65612,62.01503c-6.28667,0-9.07468-3.99067-9.07468-9.94934s3.11601-10.27734,9.29334-10.27734,7.65334,1.74933,7.76268,6.12267h-4.37334c-.21866-1.968-1.53066-2.952-3.38934-2.952-3.82667,0-4.97467,4.1-4.97467,7.216s1.148,6.724,4.81066,6.724,3.33467-1.03867,3.60801-3.00667h4.37334c-.43733,4.48267-3.99066,6.12267-8.03601,6.12267h.00002Z" fill="#fff" stroke-width="0"/>
  </g>
  <path d="M385.09898,44.33431c-1.14741-2.07943-3.62081-3.65653-6.30735-3.65653-2.36279,0-4.44107.96769-4.44107,3.47681,0,2.11281,2.61626,3.54591,5.33965,5.30273,2.97221,1.86284,6.05499,4.15421,6.05499,8.1333,0,5.1956-5.0516,8.38324-10.89237,8.38324-2.40082,0-4.90759-.46541-7.73811-1.54023l.46425-6.91559c1.36287,2.76022,3.90766,4.9445,7.66673,4.9445,2.90311,0,5.05164-1.39627,5.05164-3.83397,0-2.07822-1.75686-3.36736-3.90424-4.65644-4.51592-2.72223-7.37983-4.90995-7.37983-8.84985,0-5.91331,4.9433-7.88328,10.06635-7.88328,2.97221,0,4.83737.53799,6.7347.53799l-.71538,6.55732M360.05628,50.53103c-.64744,1.07598-1.46768,2.54251-1.97229,3.61966-.42853,2.04139-.64396,4.76594-.64396,7.77386,0,1.25454.21542,2.93762.78801,3.51132h-7.48702c1.32369-1.25338,1.86283-8.95466,1.79254-11.39232-1.00335-3.47453-2.36739-6.80729-4.44449-10.85665-1.32252-2.54251-2.86508-4.94566-3.83272-5.40991,1.68307-.14173,3.83272-.24998,4.87298-.24998,1.86172,0,2.36513.24998,3.51253,2.75906,1.78798,4.04935,3.11394,7.09186,3.90306,9.35097,1.89966-2.97449,3.2245-5.01592,4.9445-7.81069.42969-.68084.78797-1.54027.78797-2.36512,0-.64624-.1083-1.36167-.394-1.68424h7.4167c-1.43314.32256-7.88328,10.46266-9.24384,12.75403M334.00904,44.26401l-4.44106,9.63554h7.23587l-2.79481-9.63554M342.71604,65.68589c-2.36628,0-2.54368-.0703-4.44338-6.59075l-.67968-2.40083c-1.14513.53687-3.18991.78801-6.44902.78801h-3.29593l-.5737,1.21767c-.82368,1.82945-1.93426,3.97565-1.93426,5.48361,0,.35832.03571.75114.17972,1.25342h-19.56244c1.11165-1.25338,1.46997-5.30161,2.0068-12.64806l.10713-1.7545c.28685-4.19224.50456-7.41675.46657-9.67241-.03571-1.86279-.21543-3.04591-.71655-3.58274h7.56072c-1.07599.8248-1.47113,5.2659-1.97113,12.61231l-.144,1.75454c-.17972,2.72339-.53683,5.51704-.53683,8.24039,0,1.25226.50112,1.53911,1.79254,1.53911,4.58395,0,5.73247-.10713,7.80841-1.50452,1.28913-2.36512,2.76027-5.33965,4.19108-8.42011l1.9377-4.1197c1.82592-3.86959,3.61618-7.81181,3.61618-8.56295,0-.53911-.14285-1.03911-.35595-1.54139h6.01816s2.43538,9.02952,2.97337,10.96262l1.1808,4.37192c2.04139,7.34533,3.3328,10.92695,5.0528,12.32434-1.43542.17972-3.47682.24998-4.22907.24998M293.9567,65.97386c-7.12985,0-11.25064-5.87532-11.25064-12.46718,0-9.17125,4.97905-16.26767,14.47398-16.26767,2.97337,0,4.37196.53799,6.77046.53799l-.71543,7.05843c-1.36167-2.47225-3.58395-4.15649-6.55615-4.15649-5.91103,0-8.31182,6.37872-8.31182,11.86005,0,5.94674,3.33276,9.2058,7.77386,9.2058,2.40079,0,4.5136-.64513,8.06184-3.11621-1.43314,4.58739-4.76595,7.34533-10.24611,7.34533M269.23665,41.14552c-.68088,0-1.50688,0-2.14968.07142-.21543,1.18196-.39515,3.22451-.64629,6.51928l-.144,1.93658c.36055.07254.82484.10941,1.2557.10941,3.43761,0,5.8039-2.08054,5.8039-5.23135,0-2.15197-1.50456-3.40535-4.11962-3.40535M279.23046,66.61903c-2.04139,0-2.54368-.32372-3.22335-1.25574l-7.73927-10.74835c-.60946-.82368-1.07486-1.50452-2.04139-1.50452h-.17972l-.14172,2.07822c-.18083,2.83053-.28798,5.08963-.28798,6.77275.03571,1.86284.25114,3.00792.75338,3.47449h-7.48813c1.07371-.96765,1.46653-4.1922,2.0771-12.64802l.1083-1.75458c.28685-4.15533.50228-7.38095.4654-9.63661-.03687-1.97113-.24998-3.18996-.78909-3.61966h10.21032c3.33169,0,7.91787.57482,7.91787,5.98357,0,4.4411-2.97453,6.87876-6.66328,8.02384.35827.32372,1.00224,1.14745,1.39739,1.64973l5.62418,7.45242c3.51137,4.62189,3.79705,4.83616,5.05275,5.48133-1.5771.17856-3.68988.25114-5.05275.25114M244.338,44.26401l-4.48133,9.63554h7.2727l-2.79133-9.63554M253.04155,65.68589c-2.36279,0-2.54251-.0703-4.44106-6.59075l-.68084-2.40083c-1.14857.53687-3.18992.78801-6.45018.78801h-3.29593l-.57254,1.21767c-.5737,1.29141-1.97113,3.94338-1.93542,5.48361,0,.35832.03571.71659.17972,1.25342h-6.62757c1.89855-1.89855,4.29938-6.30501,7.63102-13.43487l1.93538-4.11961c1.75454-3.72567,3.61849-7.95358,3.61849-8.563,0-.53911-.14168-1.03911-.35828-1.54139h6.02048s1.57366,5.98357,2.97221,10.96262l1.18195,4.37192c2.04255,7.34533,3.33164,10.92695,5.05164,12.32433-1.54027.17856-3.47565.24886-4.22907.24886M218.93361,41.10981c-.53799,0-1.25338,0-1.93421.07258-.28685,1.93422-.46657,3.79701-.60829,5.83844,0,0-.10829,1.7545-.10829,1.68308h.71659c3.51132,0,6.73699-1.21767,6.73699-4.4399,0-1.86512-1.54139-3.15421-4.80277-3.15421M218.03968,52.07243h-1.96997l-.28685,4.08395c-.14284,1.79253-.21543,3.29593-.25114,5.08735,0,.25226.78797.78909,2.64965.78909,3.86964,0,6.41447-1.93426,6.41447-5.12418,0-3.54707-2.90311-4.83621-6.55616-4.83621M218.46937,65.43588h-9.67353c1.21883-1.07598,1.54139-5.26702,2.07826-12.64802l.10713-1.71887c.28797-4.19215.50228-7.41667.46657-9.67232-.03571-1.93542-.25114-3.18996-.78913-3.61966h10.81977c2.57938,0,7.73927.14401,7.73927,5.51704,0,3.58274-3.33276,5.80385-6.3776,6.59414,4.29938.4297,7.52388,2.5068,7.52388,6.94902-.00116,4.80045-4.5148,8.59866-11.89464,8.59866" fill="#00aeef" stroke-width="0"/>
  <g>
    <path d="M460.80574,30.6588h-35.34734c-1.94813,0-3.54035,1.59222-3.54035,3.54035v21.26085h14.14268v-10.63979h28.28537v-10.62106c0-1.94813-1.59222-3.54035-3.54035-3.54035Z" fill="#fff" stroke-width="0"/>
    <path d="M450.20342,48.37923v10.63987h-28.28537v10.63979c0,1.94813,1.59222,3.54035,3.54035,3.54035h35.34734c1.94813,0,3.54035-1.59222,3.54035-3.54035v-21.26093h-14.14268v-.01873Z" fill="#fff" stroke-width="0"/>
    <path d="M558.64277,34.21862c3.74641,0,6.64988.80548,8.7104,2.43516,2.06052,1.61095,3.09079,3.87753,3.09079,6.781,0,2.11672-.54323,3.87753-1.62969,5.24497-1.08646,1.36746-2.65994,2.28533-4.70174,2.75363,5.11385.91787,7.66141,3.69021,7.66141,8.35449,0,3.07205-1.1052,5.48849-3.29684,7.23057-2.19164,1.76081-5.31989,2.62248-9.38475,2.62248h-12.9813v-35.42229h12.53173ZM551.71192,49.24171h7.08071c1.91066,0,3.40923-.44957,4.45822-1.36744,1.049-.91787,1.59222-2.15418,1.59222-3.74641s-.52449-2.82854-1.59222-3.72767c-1.04899-.89914-2.54756-1.34871-4.45822-1.34871h-7.08071v10.19022ZM551.71192,64.73311h7.41788c2.21038,0,3.91499-.4683,5.09511-1.38617,1.18011-.9366,1.77954-2.21038,1.77954-3.87753s-.59942-3.05332-1.79827-3.98992-2.90347-1.42363-5.07638-1.42363h-7.41788v10.67726Z" fill="#fff" stroke-width="0"/>
    <path d="M541.39075,52.63185v-2.37897h-14.83577v4.90779h9.45967v.86167c-.13112,2.77234-1.10519,4.92652-2.95966,6.48128-1.83574,1.55476-4.12104,2.32277-6.85592,2.32277-2.15418,0-4.02738-.54323-5.63834-1.64842-1.61096-1.10519-2.84727-2.62249-3.70894-4.55189-.86168-1.94813-1.29251-4.17724-1.29251-6.70607s.43084-4.75788,1.31124-6.70601c.88041-1.94813,2.11672-3.46543,3.72768-4.55188,1.61096-1.10519,3.48416-1.64842,5.63834-1.64842,2.3415,0,4.3271.63689,5.91932,1.9294,1.61096,1.27378,2.69742,3.05332,3.24064,5.3199h5.56342c-.5807-3.78387-2.17292-6.78099-4.77667-9.01011-2.60375-2.22911-5.86313-3.3343-9.81559-3.3343-3.35304,0-6.27523.74928-8.78532,2.24784-2.51009,1.49856-4.43949,3.61528-5.7882,6.33143s-2.02306,5.86312-2.02306,9.44089.67435,6.68733,2.04179,9.42221c1.36744,2.73488,3.27811,4.8516,5.71328,6.35016,2.43516,1.49856,5.24497,2.24785,8.39195,2.24785,10.56486,0,15.41646-5.99425,15.41646-17.3084l.05619-.01873Z" fill="#fff" stroke-width="0"/>
    <path d="M484.38918,58.00757c.16859,2.09799,1.049,3.87753,2.64122,5.13258,1.59223,1.27378,3.65275,1.89194,6.18157,1.89194,2.22912,0,4.02739-.4683,5.41356-1.38617,1.36744-.9366,2.06052-2.21038,2.06052-3.87753,0-1.18012-.37464-2.11672-1.12392-2.8098-.74928-.69308-1.76082-1.21758-3.05332-1.59222-1.29251-.37464-3.09079-.76801-5.43229-1.16139-2.36023-.4121-4.40202-.9366-6.08791-1.59222-1.68588-.65562-3.07205-1.66715-4.12104-3.01586-1.06773-1.34878-1.59222-3.12832-1.59222-5.31997,0-2.02306.54323-3.82133,1.64842-5.41356,1.10519-1.59222,2.62248-2.8098,4.58935-3.69021,1.96686-.88041,4.21471-1.31124,6.76226-1.31124s4.94526.4683,7.00578,1.42363c2.06052.9366,3.67148,2.24784,4.8516,3.89626,1.18012,1.64842,1.83574,3.54035,1.9294,5.6758h-5.90059c-.20605-1.81701-1.03027-3.29684-2.4539-4.40203s-3.24064-1.66715-5.43229-1.66715-3.82133.44957-5.09511,1.34871-1.91067,2.15418-1.91067,3.76514c0,1.14265.37464,2.06052,1.12392,2.73488.74928.67435,1.74208,1.18012,2.99713,1.5173,1.25504.33718,3.05332.71182,5.37609,1.10519,2.36023.41218,4.40202.93668,6.10664,1.61103s3.09079,1.66715,4.17725,2.97839c1.08645,1.31124,1.61095,3.05332,1.61095,5.2075s-.58069,3.97119-1.72334,5.61961c-1.14266,1.64842-2.75361,2.94093-4.81413,3.87753-2.06053.9366-4.3833,1.38617-7.00578,1.38617-2.88473,0-5.43228-.50576-7.62394-1.51729-2.19164-1.01153-3.91499-2.41643-5.15131-4.23344-1.23631-1.79827-1.8732-3.87753-1.91066-6.2003h5.90059l.05619.01873Z" fill="#fff" stroke-width="0"/>
  </g>
</svg>