<?xml version="1.0" encoding="UTF-8"?>
<svg id="Layer_1" data-name="Layer 1" xmlns="http://www.w3.org/2000/svg" width="570.97609" height="103.85804" version="1.1" viewBox="0 0 570.97609 103.85804">
  <path d="M32.08214,19.61415c-6.38025,0-12.57285,1.87654-17.82717,5.44198s-9.38272,8.6321-11.82223,14.44939C-.00676,45.51046-.56973,51.89071.5562,58.27096s4.1284,12.00988,8.6321,16.51359,10.32099,7.69383,16.51359,8.81976c6.1926,1.31358,12.7605.56296,18.57779-1.87654s10.88396-6.56791,14.44939-12.00988c3.56544-5.25432,5.44198-11.63457,5.44198-18.01483,0-8.6321-3.37778-16.8889-9.38272-22.89384-6.00495-5.81728-14.26174-9.19506-22.70619-9.19506ZM2.05744,53.20429h9.94569c0,4.50371.75062,9.00741,2.0642,13.32347H5.81052c-2.25185-4.1284-3.56543-8.81976-3.75309-13.32347ZM33.20807,35.18947v-13.13581c5.62963.56296,10.50865,5.62963,13.51112,13.13581,0,0-13.51112,0-13.51112,0ZM47.46981,37.44132c1.31358,4.31605,2.0642,8.81976,2.25185,13.32346h-16.51359v-13.32346s14.26174,0,14.26173,0ZM30.76857,22.05366v13.13581h-13.51112c3.00247-7.50618,8.06914-12.57285,13.51112-13.13581ZM30.76857,37.44132v13.32346H14.25497c0-4.50371.75062-9.00741,2.25185-13.32347,0,0,14.26174,0,14.26174,0ZM12.00312,50.76478H2.05743c.18765-4.69136,1.50124-9.19507,3.75309-13.32347h8.2568c-1.31358,4.31605-1.87654,8.81976-2.0642,13.32347ZM14.25497,53.20429h16.51359v13.32347h-14.26174c-1.31358-4.31605-2.0642-8.81976-2.25185-13.32347ZM30.76857,68.77961v13.13581c-5.62963-.56296-10.50865-5.62963-13.51112-13.13581h13.51112ZM33.20807,81.91542v-13.32347h13.51112c-3.00247,7.69383-7.88149,12.7605-13.51112,13.32347ZM33.20807,66.3401v-13.32347h16.51359c0,4.50371-.75062,9.00741-2.25185,13.32347h-14.26174ZM51.97351,53.20429h9.94569c-.18765,4.69136-1.50123,9.19507-3.75309,13.32347h-8.25679c1.31358-4.50371,2.0642-8.81976,2.0642-13.32347ZM51.97351,50.76478c0-4.50371-.75062-9.00741-2.0642-13.32347h8.25679c2.25185,4.1284,3.56543,8.6321,3.75309,13.32347,0,0-9.94568,0-9.94568,0ZM56.85253,35.18947h-7.69383c-.75062-2.0642-1.68889-3.94074-2.81482-5.81729-1.31358-2.25185-2.81482-4.1284-4.69136-5.81729,6.19259,2.0642,11.44692,6.1926,15.20001,11.63457ZM22.32411,23.55489c-1.68889,1.68889-3.37778,3.56543-4.69136,5.81729-1.12593,1.87654-2.0642,3.75309-2.81482,5.81729h-7.69383c3.75309-5.44198,9.00741-9.57038,15.20001-11.63457ZM7.1241,68.77961h7.69383c.75062,2.0642,1.68889,3.94074,2.81482,5.81729,1.31358,2.0642,2.81482,4.1284,4.69136,5.81729-6.1926-2.0642-11.44692-6.19259-15.20001-11.63458ZM41.65252,80.41419c1.87654-1.68889,3.37778-3.56543,4.69136-5.81729,1.12593-1.87654,2.0642-3.94074,2.81482-5.81729h7.69383c-3.75309,5.44198-9.00741,9.57038-15.20001,11.63458ZM152.74394,42.69565h-5.25433v28.89878h5.25433s0-28.89878,0-28.89878ZM150.11678,38.7549c1.87654,0,3.56544-1.50124,3.56544-3.56543s-1.50124-3.56543-3.56544-3.56543c-1.87654,0-3.56544,1.50124-3.56544,3.56543s1.68889,3.56543,3.56544,3.56543ZM163.44024,50.38948h7.69383v-4.50371h-7.69383v-4.1284c0-3.00247,2.0642-4.69136,5.62963-4.69136h2.0642v-5.25432h-2.0642c-6.75556,0-10.88396,3.75309-10.88396,9.75803v30.21236h5.25433s0-21.3926,0-21.3926ZM185.3958,71.78208h2.0642v-5.25433h-2.0642c-3.56544,0-5.62963-1.68889-5.62963-4.69136v-11.44692h7.69383v-4.50371h-7.69383v-14.07408h-5.25433v30.21236c0,5.81729,4.12839,9.57038,10.88396,9.75803ZM118.96613,71.78208l5.25433-21.58026,5.25433,21.58026h6.00494l8.06915-28.89878h-5.44198l-5.62963,22.14322-5.44198-22.14322h-5.81728l-5.44198,22.14322-5.62963-22.14322h-5.25432l8.06914,28.89878s6.00494,0,6.00493,0ZM90.44265,66.90307c-4.50371,0-8.2568-2.81482-9.57037-5.62963l-4.87901,2.62716c2.25185,5.06667,7.88149,8.44445,14.26173,8.44445,8.2568,0,14.07408-4.69136,14.07408-11.44692,0-15.57532-21.95557-9.00741-21.95557-18.01483,0-3.94074,3.37778-5.81729,8.06914-5.81729,3.75309,0,7.13087,2.0642,9.19507,4.69136l4.1284-3.56543c-2.81482-3.94074-7.88149-6.1926-13.32346-6.1926-8.44445,0-13.69877,5.25432-13.69877,10.88396,0,15.20001,22.14322,7.69383,22.14322,18.20248,0,3.37778-3.37778,5.81729-8.44446,5.81729Z" fill="#fff" stroke-width="0"/>
  <g>
    <path id="path5689" d="M281.02558,42.78022h-12.65476c0-2.07684-.24426-3.47022-.73038-4.18015-.75324-1.04925-2.83129-1.57508-6.23292-1.57508-3.30417,0-5.49412.30202-6.56262.90726-1.0685.60765-1.60396,1.92763-1.60396,3.95995,0,1.8398.47409,3.05269,1.42347,3.63266.67985.41272,1.57869.65458,2.69773.72677l2.55213.18049c5.47005.36218,8.88613.61848,10.24823.76408,4.32575.43558,7.46146,1.58591,9.40714,3.44977,1.53056,1.45475,2.44384,3.35591,2.73503,5.70228.17086,1.40421.25509,2.99373.25509,4.75892,0,4.06945-.38866,7.04874-1.16476,8.93667-1.40903,3.46541-4.57483,5.65416-9.4998,6.57345-2.0636.38866-5.21977.58238-9.4661.58238-7.08724,0-12.02545-.42114-14.81463-1.26945-3.42209-1.03842-5.67942-3.14293-6.77079-6.31114-.60885-1.76399-.90967-4.70237-.90967-8.81513h12.65476c0,.45844.0012.8098.0012,1.05165,0,2.19476.63051,3.60499,1.89033,4.2343.87237.43318,1.92523.66059,3.16339.68827h4.65304c2.37405,0,3.88896-.12153,4.54233-.36579,1.16356-.45724,1.92763-1.19364,2.29222-2.21281.19373-.6281.28999-1.43911.28999-2.433,0-2.22484-.81221-3.57852-2.43421-4.06464-.60765-.19132-3.42811-.45965-8.46499-.79777-4.04538-.28878-6.85501-.56674-8.42768-.83627-4.14285-.7749-6.90435-2.36923-8.28209-4.789-1.21169-2.05518-1.81693-5.16563-1.81693-9.32773,0-3.1682.32729-5.7095.98187-7.62029.65458-1.91199,1.70984-3.36313,3.1658-4.35583,2.13339-1.52454,4.86361-2.41857,8.18583-2.68569,2.76511-.24186,5.83224-.36459,9.2062-.36459,5.31122,0,9.0967.30563,11.35283.91087,5.50736,1.48002,8.26043,5.62407,8.26043,12.43457,0,.55832-.04091,1.39338-.12273,2.51002" fill="#10298e" stroke-width="0"/>
    <path id="path5693" d="M336.67502,77.20016V26.65812h25.34322c3.47623,0,6.12824.28277,7.95119.85071,4.16812,1.30555,6.96451,3.98041,8.39759,8.02098.73881,2.12136,1.10942,5.31483,1.10942,9.57921,0,5.12712-.41032,8.81032-1.22252,11.05442-1.62562,4.43524-4.9707,6.99098-10.02322,7.65278-.59441.09987-3.12247.18771-7.5854.2599l-2.25733.07461h-8.11002v13.04943h-13.60294ZM350.27796,52.42609h8.47942c2.68931-.09626,4.32454-.30322,4.91295-.6269.80377-.4416,1.34404-1.3272,1.61237-2.65441.17207-.8832.2575-2.19717.2575-3.94191,0-2.1382-.17085-3.72291-.5138-4.75772-.48852-1.44994-1.6605-2.33193-3.51594-2.65321-.3682-.04813-1.24658-.0746-2.63876-.0746h-8.59373v14.70874Z" fill="#10298e" stroke-width="0"/>
    <path id="path5697" d="M408.51261,68.46541h-18.18739l-2.44383,8.73452h-14.07343l15.18645-50.54205h20.51931l15.37174,50.54205h-13.77741l-2.59544-8.73452ZM405.81128,58.61907l-6.37372-21.90909-6.18478,21.90909h12.5585Z" fill="#10298e" stroke-width="0"/>
    <path id="path5701" d="M317.90007,33.76847c5.60963,0,10.61763,2.58462,13.90857,6.63241l2.93236-6.28707c-4.58565-4.33417-10.827-7.00663-17.71089-7.00663-10.71871,0-19.8876,6.47358-23.65022,15.63766h-5.71793l-3.37637,7.23765h7.35557c-.05535.67142-.09145,1.34285-.09145,2.02871,0,.82905.04332,1.64968.12514,2.45948h-3.69644l-3.37516,7.24006h8.95231c3.86971,8.93186,12.9243,15.20208,23.47454,15.20208,5.31724,0,10.25064-1.59312,14.33573-4.31492v-8.8729c-3.28974,3.74577-8.1016,6.1126-13.46577,6.1126-6.27022,0-11.78601-3.23318-14.99752-8.12687h18.7445l3.37637-7.24006h-24.87876c-.12875-.87116-.19734-1.76158-.19734-2.66885,0-.61367.03129-1.22011.09145-1.81934h27.07713l3.37516-7.23765h-28.11194c3.10925-5.36537,8.89455-8.97638,15.52095-8.97638" fill="#ffbe00" stroke-width="0"/>
    <path id="path5705" d="M317.90007,33.9853c5.34612,0,10.35412,2.38969,13.74011,6.55299l.219.26953.148-.31405,2.93117-6.28707.06497-.14319-.1119-.10829c-4.82029-4.55557-11.16392-7.06438-17.8613-7.06438-5.23061,0-10.26267,1.52815-14.55473,4.4196-4.19098,2.82287-7.40611,6.74913-9.29524,11.35162l.19974-.13477h-5.85751l-.05775.12514-3.37517,7.23886-.14439.30924h7.6961l-.21659-.23584c-.06137.75204-.09145,1.41986-.09145,2.04676,0,.81221.04212,1.64848.12514,2.48114l.21659-.23825h-3.83361l-.05776.12514-3.37757,7.23886-.14319.30924h9.29284l-.19974-.13116c4.03576,9.31449,13.3286,15.33324,23.67429,15.33324,5.18608,0,10.18325-1.50288,14.45606-4.34981l.09506-.06377v-9.56718l-.37903.43318c-3.37035,3.83722-8.21832,6.03679-13.30212,6.03679-5.98024,0-11.51888-3.00215-14.81703-8.0282l-.18049.33691h18.88407l.05776-.12394,3.37637-7.24126.14439-.30804h-25.22049l.21538.1853c-.12875-.87718-.19493-1.76279-.19493-2.63756,0-.59562.03008-1.19966.09025-1.79768l-.21659.19613h27.2167l.05776-.12514,3.37516-7.23886.14559-.30924h-28.45487l.18771.32608c3.16941-5.47005,9.04616-8.86808,15.33324-8.86808M302.37912,42.96167h28.11194l-.19734-.30924-3.37396,7.23886.19613-.12514h-27.27326l-.02166.19613c-.06016.61126-.09025,1.23094-.09025,1.8398,0,.89523.06738,1.8049.19854,2.70134l.02888.1853h25.06526l-.19613-.30924-3.37516,7.23886.19493-.12514h-19.1476l.2214.33451c3.37757,5.15239,9.05338,8.22433,15.17921,8.22433,5.20775,0,10.17603-2.25252,13.62941-6.18359l-.38143-.14319v8.87289l.09626-.17929c-4.20061,2.7976-9.11475,4.27641-14.2142,4.27641-10.17362,0-19.30883-5.91647-23.2748-15.07213l-.05776-.12995h-9.09429l.19854.31044,3.37396-7.24126-.19734.12634h3.93589l-.02286-.23945c-.08182-.81822-.12514-1.64005-.12514-2.43782,0-.61367.03008-1.27185.09145-2.01066l.01925-.23464h-7.59141l.19613.30924,3.37637-7.23886-.19613.12514h5.86352l.05414-.13477c1.85905-4.52308,5.01883-8.38076,9.13882-11.1567,4.21866-2.84091,9.1689-4.3438,14.31166-4.3438,6.58668,0,12.82202,2.46549,17.56169,6.94526l-.04813-.25028-2.92995,6.28828.36459-.04572c-3.47142-4.26558-8.60095-6.71303-14.07823-6.71303-6.4435,0-12.46104,3.48105-15.70986,9.08467l-.18891.32609h.37783Z" fill="#ffbe00" stroke-width="0"/>
  </g>
  <g>
    <path d="M511.57147,16.23441c3.38467,5.72561,6.65005,11.52204,10.00117,17.26628.48459.74552.62624,1.64015.61506,2.51614v20.68077c-4.59987-1.62896-9.72533-1.91226-14.39229-.38395-2.4975.76789-4.7527,2.12846-6.88862,3.6046.00746-8.10755.00746-16.21882,0-24.3301,0-.59269.01864-1.20774.38394-1.70724,3.44058-5.87098,6.86998-11.75314,10.28074-17.64649Z" fill="#fff" stroke-width="0"/>
    <path d="M474.19101,80.56175c6.27729-10.8287,12.57322-21.64622,18.89152-32.46001.11928,10.83243.04473,21.67232.041,32.50474-6.30711-.05591-12.62168,0-18.93252-.04473" fill="#fff" stroke-width="0"/>
    <path d="M529.9113,48.15765c6.39285,10.77651,12.53967,21.70214,18.83187,32.54202-6.28475.02236-12.56577-.03728-18.84679,0-.02236-10.85107-.05591-21.69841.01491-32.54202" fill="#fff" stroke-width="0"/>
    <path d="M511.78394,62.57231c3.53004-.60014,7.20547.19011,10.27701,2.00172.08946,5.36403-.06337,10.73178.14538,16.08836-6.84016.02609-13.68405-.02236-20.52421-.04846-.71197-2.83298-1.04373-5.85234-.24602-8.70769,1.26739-4.75642,5.47958-8.57722,10.34784-9.33393" fill="#fff" stroke-width="0"/>
  </g>
</svg>