<?xml version="1.0" encoding="UTF-8"?>
<svg id="Layer_1" data-name="Layer 1" xmlns="http://www.w3.org/2000/svg" width="570.97609" height="103.85804" version="1.1" viewBox="0 0 570.97609 103.85804">
  <path d="M83.01025,27.5049l-11.2037,52.37339h-13.55178l11.2037-52.37339h13.55178ZM140.01271,61.33963l7.1337-19.65679,4.11474,19.65679h-11.24844ZM155.10752,79.87829h12.54546l-10.93534-52.37339h-11.62859c-2.57171,0-4.76325,1.56539-5.70248,3.80165v.04473l-20.35004,48.52701h14.22266l2.84006-7.82694h17.3758l1.63247,7.82694ZM119.75213,62.79321c.06709-13.82013-19.12009-14.58046-18.98591-20.75256.04473-1.87847,1.83374-3.89111,5.74721-4.38308.71561-.06709,1.56539-.11181,2.41517-.11181,3.98055,0,7.73748.89451,11.09188,2.52698l-.15654-.06709,2.37044-11.11425c-3.75693-1.45357-8.11765-2.30336-12.67964-2.32572h0c-13.39524,0-22.80993,7.13369-22.89938,17.30871-.08945,7.53622,6.73117,11.7404,11.85222,14.24503,5.27759,2.57171,7.04424,4.20418,7.02188,6.50754-.04473,3.51094-4.20418,5.07633-8.11765,5.12105h-.60379c-4.87506,0-9.45941-1.22995-13.46233-3.39913l.15654.06709-2.45989,11.47205c4.40545,1.76665,9.48177,2.77297,14.82645,2.77297h.24599c14.22266,0,23.5479-7.02188,23.59263-17.9125h0l.04473.04472h0ZM63.64417,27.5049l-21.93779,52.37339h-14.33448l-10.80117-41.79584c-.20126-2.035-1.45357-3.73457-3.1755-4.58435h-.04472c-3.84638-1.90083-8.31892-3.44385-12.99271-4.40545l-.3578-.06709.31308-1.52066h23.05592c3.13077,0,5.74721,2.30336,6.23919,5.29995h0c0,.02236,5.70248,30.34615,5.70248,30.34615l14.08849-35.6461h14.24503,0Z" fill="#1434cb" stroke-width="0"/>
  <g>
    <rect id="rect19" x="240.35176" y="30.55968" width="26.51279" height="47.63281" fill="#ff5a00" stroke-width="0"/>
    <path d="M242.11667,54.37609c0-9.67756,4.54953-18.26676,11.53071-23.81641-5.13783-4.03967-11.61896-6.48112-18.68838-6.48112-16.74698,0-30.29753,13.55055-30.29753,30.29753s13.55055,30.29753,30.29753,30.29753c7.06942,0,13.55055-2.44145,18.68838-6.48112-6.99099-5.47121-11.53071-14.13885-11.53071-23.81641Z" fill="#eb001b" stroke-width="0"/>
    <path id="path22" d="M302.63329,54.37609c0,16.74698-13.55055,30.29753-30.29753,30.29753-7.06942,0-13.55055-2.44145-18.68838-6.48112,7.06942-5.55945,11.53071-14.13885,11.53071-23.81641s-4.54953-18.26677-11.53071-23.81641c5.12803-4.03967,11.60915-6.48112,18.67857-6.48112,16.75679,0,30.30734,13.63879,30.30734,30.29753Z" fill="#f79e1b" stroke-width="0"/>
  </g>
  <g id="g10">
    <g id="g12">
      <g id="g14">
        <g id="g16">
          <path id="path22-2" data-name="path22" d="M360.13288,63.03431c-2.22593,2.01001-5.11745,2.88696-9.69493,2.88696h-1.9013v-24.01713h1.9013c4.57748,0,7.35518.81907,9.69493,2.9373,2.45005,2.18171,3.92403,5.56217,3.92403,9.04161,0,3.48647-1.47398,6.97046-3.92403,9.15126ZM351.85707,35.75053h-10.39921v36.31928h10.34433c5.50069,0,9.47246-1.29774,12.95906-4.19276,4.14294-3.42872,6.59299-8.5965,6.59299-13.94171,0-10.71825-8.00805-18.18481-19.49718-18.18481" fill="#fff" stroke-width="0"/>
          <path id="path24" d="M374.61426,72.0698h7.08438v-36.31928h-7.08438v36.31928Z" fill="#fff" stroke-width="0"/>
          <path id="path26" d="M399.02109,49.68768c-4.25116-1.5731-5.4996-2.61069-5.4996-4.57297,0-2.28733,2.22398-4.02562,5.27757-4.02562,2.12279,0,3.86719.87188,5.71305,2.94146l3.70655-4.85392c-3.04604-2.66441-6.69055-4.02666-10.67259-4.02666-6.42585,0-11.32751,4.46266-11.32751,10.40685,0,5.00376,2.28238,7.56555,8.93599,9.96018,2.77315.97814,4.18457,1.62994,4.89698,2.06842,1.41558.92429,2.12435,2.2327,2.12435,3.75793,0,2.94289-2.33975,5.12317-5.50064,5.12317-3.3789,0-6.10067-1.6899-7.73165-4.84417l-4.57699,4.40673c3.26404,4.79123,7.18404,6.91466,12.57438,6.91466,7.36237,0,12.52665-4.89502,12.52665-11.9261,0-5.77041-2.38761-8.38253-10.44652-11.32998" fill="#fff" stroke-width="0"/>
          <path id="path28" d="M411.70265,53.93533c0,10.67558,8.38266,18.95354,19.1705,18.95354,3.04955,0,5.66115-.59964,8.88201-2.1168v-8.33935c-2.83207,2.83467-5.34052,3.97788-8.5528,3.97788-7.13462,0-12.19887-5.17286-12.19887-12.52755,0-6.97319,5.22424-12.47384,11.86965-12.47384,3.3789,0,5.93664,1.20577,8.88202,4.08662v-8.33532c-3.10952-1.57765-5.66674-2.23101-8.71487-2.23101-10.73295,0-19.33764,8.44549-19.33764,19.00583" fill="#fff" stroke-width="0"/>
          <path id="path30" d="M495.92677,60.1463l-9.6852-24.39578h-7.73932l15.41231,37.25112h3.81244l15.69066-37.25112h-7.67949l-9.81139,24.39578" fill="#fff" stroke-width="0"/>
          <path id="path32" d="M516.62133,72.0698h20.09102v-6.14853h-13.01247v-9.80371h12.5325v-6.15205h-12.5325v-8.06138h13.01247v-6.15361h-20.09102v36.31928" fill="#fff" stroke-width="0"/>
          <path id="path34" d="M550.54949,52.4715h-2.06946v-11.00025h2.18132c4.41207,0,6.8106,1.84846,6.8106,5.38319,0,3.65127-2.39853,5.61706-6.92246,5.61706ZM564.76253,46.47294c0-6.79942-4.68392-10.72241-12.85377-10.72241h-10.50467v36.31928h7.07596v-14.58999h.92351l9.80618,14.58999h8.71226l-11.43339-15.30084c5.33558-1.08481,8.27392-4.73491,8.27392-10.29603" fill="#fff" stroke-width="0"/>
          <path id="path36" d="M567.9415,37.55125h-.12877v-.83429h.13658c.37721,0,.57232.13567.57232.41051,0,.28252-.19771.42378-.58013.42378ZM569.28384,37.11577c0-.63658-.43834-.98465-1.20838-.98465h-1.02497v3.19237h.76222v-1.23816l.8936,1.23816h.93002l-1.04968-1.31647c.44874-.12097.69719-.4481.69719-.89126" fill="#fff" stroke-width="0"/>
          <path id="path38" d="M568.21856,40.00689c-1.22008,0-2.21775-1.01522-2.21775-2.28186,0-1.2712.98464-2.2859,2.21775-2.2859,1.21357,0,2.20342,1.03798,2.20342,2.2859,0,1.25598-.98985,2.28186-2.20342,2.28186ZM568.22896,34.93809c-1.55047,0-2.78095,1.23725-2.78095,2.7829,0,1.54461,1.24479,2.7833,2.78095,2.7833,1.51014,0,2.74713-1.25195,2.74713-2.7833,0-1.5238-1.23699-2.7829-2.74713-2.7829" fill="#fff" stroke-width="0"/>
        </g>
      </g>
    </g>
    <circle cx="461.4307" cy="54.02145" r="19.30432" fill="#ff5e33" stroke-width="0"/>
  </g>
</svg>