<?xml version="1.0" encoding="UTF-8"?>
<svg id="Layer_1" data-name="Layer 1" xmlns="http://www.w3.org/2000/svg" version="1.1" viewBox="0 0 800 242.2">
  <defs>
    <style>
      .cls-1 {
        fill: #fff;
        stroke-width: 0px;
      }
    </style>
  </defs>
  <path class="cls-1" d="M396.4,4.3l-50.1,234.2h-60.6L335.8,4.3h60.6ZM651.3,155.6l31.9-87.9,18.4,87.9h-50.3ZM718.8,238.5h56.1L726,4.3h-52c-11.5,0-21.3,7-25.5,17v.2l-91,217h63.6l12.7-35h77.7l7.3,35ZM560.7,162.1c.3-61.8-85.5-65.2-84.9-92.8.2-8.4,8.2-17.4,25.7-19.6,3.2-.3,7-.5,10.8-.5,17.8,0,34.6,4,49.6,11.3l-.7-.3,10.6-49.7c-16.8-6.5-36.3-10.3-56.7-10.4h0c-59.9,0-102,31.9-102.4,77.4-.4,33.7,30.1,52.5,53,63.7,23.6,11.5,31.5,18.8,31.4,29.1-.2,15.7-18.8,22.7-36.3,22.9h-2.7c-21.8,0-42.3-5.5-60.2-15.2l.7.3-11,51.3c19.7,7.9,42.4,12.4,66.3,12.4h1.1c63.6,0,105.3-31.4,105.5-80.1h0l.2.2ZM309.8,4.3l-98.1,234.2h-64.1L99.3,51.6c-.9-9.1-6.5-16.7-14.2-20.5h-.2c-17.2-8.5-37.2-15.4-58.1-19.7l-1.6-.3,1.4-6.8h103.1c14,0,25.7,10.3,27.9,23.7h0c0,.1,25.5,135.7,25.5,135.7L246.1,4.3h63.7Z"/>
</svg>