<?xml version="1.0" encoding="UTF-8"?>
<svg id="Layer_1" data-name="Layer 1" xmlns="http://www.w3.org/2000/svg" version="1.1" viewBox="0 0 800 242.2">
  <defs>
    <style>
      .cls-1 {
        fill: #fff;
        stroke-width: 0px;
      }
    </style>
  </defs>
  <path class="cls-1" d="M400,26c-1.6,1.2-3.1,2.4-4.6,3.8-25.6,22.3-41.7,55-41.7,91.4s16.1,69.1,41.5,91.2h.1c1.5,1.4,3,2.7,4.6,3.9,1.6-1.2,3.1-2.5,4.6-3.8,25.6-22.3,41.7-55,41.7-91.4s-16.1-69.1-41.5-91.2h-.1c-1.5-1.4-3-2.7-4.6-3.9h0ZM474.8,0h-.2c-24.9,0-48,7.6-67.2,20.5l.4-.3c1,.8,1.9,1.6,2.7,2.4h0c27.7,24,45.1,59.3,45.1,98.6s-17.3,74.4-44.7,98.2h-.2c-.9.9-2,1.7-3,2.5,18.9,12.7,42.1,20.3,67.1,20.3,66.9,0,121.1-54.2,121.1-121.1S541.7,0,474.8,0h0ZM389.2,219.6c.9.8,2,1.6,3,2.4-18.8,12.7-42.1,20.2-67,20.2-66.9,0-121.1-54.2-121.1-121.1S258.3,0,325.2,0s48.2,7.6,67.4,20.5l-.4-.3c-1,.8-1.9,1.6-2.7,2.4h0c-27.7,24-45.1,59.3-45.1,98.6s17.3,74.4,44.7,98.2h.2c0,.1-.1.2-.1.2Z"/>
</svg>