<?xml version="1.0" encoding="UTF-8"?>
<svg id="Layer_1" data-name="Layer 1" xmlns="http://www.w3.org/2000/svg" viewBox="0 0 800 218.62">
  <path id="path5689" d="M177.74,69.74h-54.74c0-8.98-1.06-15.01-3.16-18.08-3.26-4.54-12.25-6.81-26.96-6.81s-23.76,1.31-28.39,3.92c-4.62,2.63-6.94,8.34-6.94,17.13,0,7.96,2.05,13.2,6.16,15.71,2.94,1.79,6.83,2.83,11.67,3.14l11.04.78c23.66,1.57,38.44,2.68,44.33,3.3,18.71,1.88,32.27,6.86,40.69,14.92,6.62,6.29,10.57,14.52,11.83,24.66.74,6.07,1.1,12.95,1.1,20.58,0,17.6-1.68,30.49-5.04,38.66-6.09,14.99-19.79,24.46-41.09,28.43-8.93,1.68-22.58,2.52-40.95,2.52-30.66,0-52.02-1.82-64.08-5.49-14.8-4.49-24.57-13.59-29.29-27.3-2.63-7.63-3.93-20.34-3.93-38.13h54.74c0,1.98,0,3.5,0,4.55,0,9.49,2.73,15.59,8.18,18.32,3.77,1.87,8.33,2.86,13.68,2.98h20.13c10.27,0,16.82-.53,19.65-1.58,5.03-1.98,8.34-5.16,9.91-9.57.84-2.72,1.25-6.22,1.25-10.52,0-9.62-3.51-15.48-10.53-17.58-2.63-.83-14.83-1.99-36.61-3.45-17.5-1.25-29.65-2.45-36.45-3.62-17.92-3.35-29.86-10.25-35.82-20.71C2.88,97.61.27,84.15.27,66.15c0-13.7,1.42-24.7,4.25-32.96,2.83-8.27,7.4-14.55,13.69-18.84C27.43,7.75,39.24,3.89,53.61,2.73c11.96-1.05,25.23-1.58,39.82-1.58,22.97,0,39.35,1.32,49.11,3.94,23.82,6.4,35.73,24.33,35.73,53.79,0,2.41-.18,6.03-.53,10.86" fill="#fff" stroke-width="0"/>
  <path id="path5693" d="M418.45,218.62V0h109.62c15.04,0,26.51,1.22,34.39,3.68,18.03,5.65,30.12,17.22,36.32,34.69,3.2,9.18,4.8,22.99,4.8,41.43,0,22.18-1.77,38.11-5.29,47.82-7.03,19.18-21.5,30.24-43.36,33.1-2.57.43-13.51.81-32.81,1.12l-9.76.32h-35.08v56.44h-58.84ZM477.29,111.46h36.68c11.63-.42,18.71-1.31,21.25-2.71,3.48-1.91,5.81-5.74,6.97-11.48.74-3.82,1.11-9.5,1.11-17.05,0-9.25-.74-16.1-2.22-20.58-2.11-6.27-7.18-10.09-15.21-11.48-1.59-.21-5.39-.32-11.41-.32h-37.17v63.62Z" fill="#fff" stroke-width="0"/>
  <path id="path5697" d="M729.18,180.84h-78.67l-10.57,37.78h-60.87L644.75,0h88.76l66.49,218.62h-59.59l-11.23-37.78ZM717.5,138.25l-27.57-94.77-26.75,94.77h54.32Z" fill="#fff" stroke-width="0"/>
  <path id="path5701" d="M337.24,30.76c24.26,0,45.93,11.18,60.16,28.69l12.68-27.19c-19.84-18.75-46.83-30.31-76.61-30.31-46.36,0-86.02,28-102.3,67.64h-24.73l-14.6,31.31h31.82c-.24,2.9-.4,5.81-.4,8.78,0,3.59.19,7.14.54,10.64h-15.99l-14.6,31.32h38.72c16.74,38.63,55.9,65.76,101.54,65.76,23,0,44.34-6.89,62.01-18.66v-38.38c-14.23,16.2-35.04,26.44-58.25,26.44-27.12,0-50.98-13.98-64.87-35.15h81.08l14.6-31.32h-107.61c-.56-3.77-.85-7.62-.85-11.54,0-2.65.14-5.28.4-7.87h117.12l14.6-31.31h-121.6c13.45-23.21,38.47-38.83,67.14-38.83" fill="#fff" stroke-width="0"/>
  <path id="path5705" d="M337.24,31.69c23.12,0,44.79,10.34,59.43,28.34l.95,1.17.64-1.36,12.68-27.19.28-.62-.48-.47c-20.85-19.7-48.29-30.56-77.26-30.56-22.62,0-44.39,6.61-62.96,19.12-18.13,12.21-32.03,29.19-40.21,49.1l.86-.58h-25.34l-.25.54-14.6,31.31-.62,1.34h33.29l-.94-1.02c-.27,3.25-.4,6.14-.4,8.85,0,3.51.18,7.13.54,10.73l.94-1.03h-16.58l-.25.54-14.61,31.31-.62,1.34h40.2l-.86-.57c17.46,40.29,57.65,66.32,102.4,66.32,22.43,0,44.05-6.5,62.53-18.81l.41-.28v-41.38l-1.64,1.87c-14.58,16.6-35.55,26.11-57.54,26.11-25.87,0-49.82-12.99-64.09-34.73l-.78,1.46h81.68l.25-.54,14.6-31.32.62-1.33h-109.09l.93.8c-.56-3.79-.84-7.62-.84-11.41,0-2.58.13-5.19.39-7.78l-.94.85h117.72l.25-.54,14.6-31.31.63-1.34h-123.08l.81,1.41c13.71-23.66,39.13-38.36,66.32-38.36M270.1,70.52h121.6l-.85-1.34-14.59,31.31.85-.54h-117.97l-.09.85c-.26,2.64-.39,5.32-.39,7.96,0,3.87.29,7.81.86,11.68l.12.8h108.42l-.85-1.34-14.6,31.31.84-.54h-82.82l.96,1.45c14.61,22.29,39.16,35.57,65.66,35.57,22.53,0,44.02-9.74,58.95-26.75l-1.65-.62v38.38l.42-.78c-18.17,12.1-39.43,18.5-61.48,18.5-44.01,0-83.52-25.59-100.67-65.19l-.25-.56h-39.34l.86,1.34,14.59-31.32-.85.55h17.02l-.1-1.04c-.35-3.54-.54-7.09-.54-10.54,0-2.65.13-5.5.4-8.7l.08-1.01h-32.84l.85,1.34,14.6-31.31-.85.54h25.36l.23-.58c8.04-19.56,21.71-36.25,39.53-48.26,18.25-12.29,39.66-18.79,61.9-18.79,28.49,0,55.46,10.66,75.96,30.04l-.21-1.08-12.67,27.2,1.58-.2c-15.02-18.45-37.2-29.04-60.89-29.04-27.87,0-53.9,15.06-67.95,39.3l-.82,1.41h1.63Z" fill="#fff" stroke-width="0"/>
</svg>