<svg viewBox="0 0 200 200" xmlns="http://www.w3.org/2000/svg"><g id="Layer_2" data-name="Layer 2"><g id="Flat_Color" data-name="Flat Color"><g id="Aptos_APT_" data-name="Aptos (APT)"><circle cx="100" cy="100" fill="#3ad8af" r="100"/><path d="m96.94 92.76 6-6.28a4 4 0 0 1 2.87-1.22h.25a4 4 0 0 1 3 1.34l5.06 5.73a5.07 5.07 0 0 0 3.8 1.71h52.7a70.89 70.89 0 0 0 -3.72-17.5h-40.62a5.12 5.12 0 0 1 -3.81-1.71l-5.06-5.73a4 4 0 0 0 -6 0l-4.31 4.9a7.47 7.47 0 0 1 -5.61 2.53h-68.39a71 71 0 0 0 -3.72 17.47h64.56a4.14 4.14 0 0 0 3-1.24z"/><path d="m97.3 111.44-5.07-5.72a4 4 0 0 0 -6 0l-4.34 4.91a7.51 7.51 0 0 1 -5.62 2.53h-46a70.59 70.59 0 0 0 5.8 17.67h32.3a4.14 4.14 0 0 0 3-1.28l6-6.27a4 4 0 0 1 2.87-1.23h.25a4 4 0 0 1 3 1.34l5.07 5.73a5.05 5.05 0 0 0 3.8 1.71h71.41a70.34 70.34 0 0 0 5.81-17.67h-68.48a5.06 5.06 0 0 1 -3.8-1.72z"/><path d="m122.11 56.14 6-6.28a4 4 0 0 1 2.89-1.22h.25a4 4 0 0 1 3 1.34l5.06 5.73a5.07 5.07 0 0 0 3.8 1.71h13.59a70.89 70.89 0 0 0 -113.35 0h75.78a4.14 4.14 0 0 0 2.98-1.28z"/><path d="m91.83 148.35h-18.57a5.09 5.09 0 0 1 -3.8-1.71l-5.07-5.73a4 4 0 0 0 -6 0l-4.34 4.91a7.51 7.51 0 0 1 -5.62 2.53h-.29a70.85 70.85 0 0 0 103.65 0z"/></g></g></g></svg>