<svg viewBox="0 0 200 200" xmlns="http://www.w3.org/2000/svg"><g id="Layer_2" data-name="Layer 2"><g id="Flat_Color" data-name="Flat Color"><g id="Arbitrum_ARB_" data-name="Arbitrum (ARB)"><circle cx="100" cy="100" fill="#213147" r="100"/><path d="m42.53 72.53v55a9.67 9.67 0 0 0 4.94 8.52l47.65 27.5a9.79 9.79 0 0 0 9.82 0l47.66-27.5a9.83 9.83 0 0 0 4.94-8.52v-55a9.78 9.78 0 0 0 -4.94-8.53l-47.66-27.5a9.84 9.84 0 0 0 -9.82 0l-47.65 27.5a9.64 9.64 0 0 0 -4.88 8.52z" fill="#213147"/><path d="m110.4 110.7-6.82 18.66a3.41 3.41 0 0 0 0 1.62l11.7 32.02 13.52-7.8-16.25-44.5a1.11 1.11 0 0 0 -2.15 0z" fill="#12aaff"/><path d="m124.06 79.36a1.17 1.17 0 0 0 -1.49-.72 1.12 1.12 0 0 0 -.72.72l-6.85 18.64a3.41 3.41 0 0 0 0 1.62l19.5 52.47 13.53-7.8-23.67-65z" fill="#12aaff"/><path d="m100 38.53a2 2 0 0 1 1 0l51.49 29.71a2 2 0 0 1 1 1.69v59.49a2 2 0 0 1 -1 1.69l-51.49 29.78a1.94 1.94 0 0 1 -2 0l-51.5-29.45a1.83 1.83 0 0 1 -1-1.69v-59.56a1.87 1.87 0 0 1 1-1.62l51.5-29.78a1.78 1.78 0 0 1 1 0zm0-8.65a11 11 0 0 0 -5.33 1.37l-51.56 29.75a10.53 10.53 0 0 0 -5.33 9.17v59.55a10.54 10.54 0 0 0 5.33 9.3l51.56 29.77a11.05 11.05 0 0 0 10.66 0l51.56-29.79a10.55 10.55 0 0 0 5.33-9.17v-59.64a10.51 10.51 0 0 0 -5.33-9.19l-51.62-29.75a10.81 10.81 0 0 0 -5.27-1.37z" fill="#9dcced"/><path d="m65.87 152.18 4.74-13.01 9.56 7.87-8.91 8.19z" fill="#213147"/><g fill="#fff"><path d="m95.64 66h-13a2.32 2.32 0 0 0 -2.14 1.43l-28.16 76.88 13.53 7.69 30.88-84.54a1.16 1.16 0 0 0 -.75-1.46 1.3 1.3 0 0 0 -.33-.07z"/><path d="m118.53 66h-13a2.33 2.33 0 0 0 -2.21 1.49l-32.06 87.74 13.53 7.77 34.72-95.57a1.1 1.1 0 0 0 -.51-1.43 1 1 0 0 0 -.48-.1z"/></g></g></g></g></svg>