<svg viewBox="0 0 200 200" xmlns="http://www.w3.org/2000/svg"><g id="Layer_2" data-name="Layer 2"><g id="Flat_Color" data-name="Flat Color"><g id="Avalanche_AVAX_" data-name="Avalanche (AVAX)"><circle cx="100" cy="100" fill="#e84142" r="100"/><g fill="#fff" fill-rule="evenodd"><path d="m143.9 123.16-11.25-19.27c-1.62-2.69-2.4-4-3.42-4.55a3.81 3.81 0 0 0 -3.59 0c-1 .54-1.85 1.92-3.47 4.79l-11.17 19.21c-1.62 2.81-2.39 4.25-2.39 5.39a4.07 4.07 0 0 0 1.79 3.17 13.38 13.38 0 0 0 6 .6h22.44a12.67 12.67 0 0 0 6-.66 4 4 0 0 0 1.8-3.11c.01-1.14-.89-2.52-2.74-5.57z"/><path d="m116.25 81a11.94 11.94 0 0 0 0-5.45 27.65 27.65 0 0 0 -3.11-6.34l-8-13.89c-1.62-2.87-2.46-4.31-3.54-4.84a3.81 3.81 0 0 0 -3.59 0c-1.07.53-1.91 2-3.53 4.84l-38.74 68.02c-1.61 2.81-2.33 4.25-2.33 5.45a3.94 3.94 0 0 0 1.79 3.11 13.09 13.09 0 0 0 6 .6h15.73a32 32 0 0 0 7.18-.42 12.08 12.08 0 0 0 4.79-2.82 26.5 26.5 0 0 0 3.95-6l20.29-35.91a28.07 28.07 0 0 0 3.11-6.35z"/></g></g></g></g></svg>