<svg viewBox="0 0 200 200" xmlns="http://www.w3.org/2000/svg"><g id="Layer_2" data-name="Layer 2"><g id="Flat_Color" data-name="Flat Color"><g id="Bitcoin_Cash_BCH_" data-name="Bitcoin Cash (BCH)"><circle cx="100" cy="100" fill="#0bc08e" r="100"/><path d="m128.07 73.21c-3.52-10.45-13.53-11.87-25.41-10.28l-3.39-14.65-9 2.09 3.33 14.41-7.21 1.67-3.34-14.45-8.89 2.1 3.42 14.76-18.2 4.22 2.23 9.59 6.51-1.51a4.83 4.83 0 0 1 6 2.77l9.42 40.69a3.24 3.24 0 0 1 -.59 2.46 3.14 3.14 0 0 1 -2.14 1.35l-6.51 1.51.82 11.06 18-4.18 3.49 15.06 9.07-2.1-3.49-15.06 7.21-1.67 3.42 14.77 9-2.08-3.45-14.88c15-4.46 24.73-10.63 22.77-25.18a15.75 15.75 0 0 0 -15.85-15.68c-.47 0-.93 0-1.39.07a14.26 14.26 0 0 0 4.17-16.86zm-5.21 34.89c2.59 11.16-16.83 14.31-22.93 15.73l-4.6-19.83c6.11-1.41 24.83-7.58 27.53 4.1zm-10.64-26.93c2.35 10.17-13.86 12.64-19 13.83l-4.15-18c5.12-1.21 20.67-6.52 23.15 4.17z" fill="#fff"/></g></g></g></svg>