<svg viewBox="0 0 200 200" xmlns="http://www.w3.org/2000/svg"><g id="Layer_2" data-name="Layer 2"><g id="Flat_Color" data-name="Flat Color"><g id="Cardano_ADA_" data-name="Cardano (ADA)"><circle cx="100" cy="100" fill="#0939b1" r="100"/><g fill="#fff"><path d="m73.16 99.59a8 8 0 0 0 7.52 8.41h.47a8 8 0 1 0 -8-8.43z"/><path d="m43 97.54h.06.22z"/><path d="m43.06 97.57a2.54 2.54 0 0 0 -2.5 2.35v.08a2.61 2.61 0 0 0 2.44 2.7 2.6 2.6 0 0 0 .06-5.13z"/><path d="m72.66 53.13a2.6 2.6 0 0 0 1.11-3.49 2.65 2.65 0 0 0 -3.49-1.17 2.62 2.62 0 0 0 2.38 4.66z"/><path d="m80.2 67.55a3.66 3.66 0 0 0 .56-.28 4 4 0 1 0 -3.05-7.38 3.55 3.55 0 0 0 -.55.28 4 4 0 0 0 3 7.38z"/><path d="m58.11 76.56a3.33 3.33 0 0 0 -.47-4.68 3.56 3.56 0 0 0 -.61-.4 3.33 3.33 0 1 0 1.08 5.08z"/><path d="m58.32 96.1a4 4 0 1 0 3.77 4.21 4 4 0 0 0 -3.79-4.21z"/><path d="m53.87 122.94a3.28 3.28 0 0 0 -1.47 4.39 3.29 3.29 0 0 0 5.87-3 3.32 3.32 0 0 0 -4.4-1.39z"/><path d="m69.39 87.84a4.71 4.71 0 0 0 5.61-7.59 4 4 0 0 0 -.43-.28 4.6 4.6 0 0 0 -6.39 1.23l-.1.15a4.66 4.66 0 0 0 1.29 6.46z"/><path d="m118.69 67a4 4 0 0 0 5.54-1.16 4 4 0 0 0 -1.1-5.54 4 4 0 0 0 -5.53 1.14 3.92 3.92 0 0 0 1 5.47z"/><path d="m126.89 52.85a2.49 2.49 0 0 0 3.47-.65l.08-.12a2.55 2.55 0 0 0 -.7-3.54 2.61 2.61 0 1 0 -3.4 3.95 2.65 2.65 0 0 0 .55.36z"/><path d="m110.87 99.48a8 8 0 0 0 7.54 8.43h.44a8 8 0 1 0 -8-8.43z"/><path d="m83.37 87.23a8 8 0 0 0 15.19-3.61 7.67 7.67 0 0 0 -.89-3.6 8 8 0 1 0 -14.3 7.21z"/><path d="m143.08 71.12a3.32 3.32 0 0 0 -1.44 4.46 3.39 3.39 0 0 0 4.49 1.42 3.33 3.33 0 1 0 -3-5.91z"/><path d="m125.91 79.54h-.07a4.64 4.64 0 0 0 -2.12 6.23 4.71 4.71 0 1 0 2.18-6.3z"/><path d="m99.67 51.63a3.27 3.27 0 1 0 -3.11-3.49 3.39 3.39 0 0 0 3.11 3.49z"/><path d="m99.6 72.25h.07a4.71 4.71 0 1 0 -4.44-5 4.66 4.66 0 0 0 4.37 5z"/><path d="m74.09 120.42h.07a4.66 4.66 0 0 0 2.12-6.24 4.71 4.71 0 1 0 -2.18 6.3z"/><path d="m102.72 79.24a8 8 0 1 0 6.65-3.6 7.88 7.88 0 0 0 -6.65 3.6z"/><path d="m116.64 112.8v-.06a8 8 0 1 0 -3.57 10.72 7.94 7.94 0 0 0 3.57-10.66z"/><path d="m130.61 112.12a4.71 4.71 0 0 0 -5.59 7.59 4 4 0 0 0 .43.29 4.6 4.6 0 0 0 6.39-1.24l.1-.15a4.66 4.66 0 0 0 -1.29-6.46z"/><path d="m141.7 104.2a4 4 0 0 0 4.21-3.88 1.93 1.93 0 0 0 0-.34 4 4 0 1 0 -4.23 4.22z"/><path d="m157 97.26a2.55 2.55 0 0 0 -2.71 2.38v.06a2.55 2.55 0 0 0 2.38 2.72h.06a2.58 2.58 0 0 0 .28-5.16z"/><path d="m141.89 123.4a3.33 3.33 0 0 0 .47 4.68 3.06 3.06 0 0 0 .61.4 3.33 3.33 0 1 0 -1.08-5.08z"/><path d="m73.11 147.11a2.61 2.61 0 0 0 -3.61.72 2.67 2.67 0 0 0 .73 3.61 2.61 2.61 0 0 0 3.6-.78 2.56 2.56 0 0 0 -.7-3.54z"/><path d="m127.34 146.83a2.61 2.61 0 0 0 -1.11 3.5 2.65 2.65 0 0 0 3.49 1.16 2.62 2.62 0 0 0 -2.38-4.66z"/><path d="m97.28 120.72a8 8 0 1 0 -11.09 2.33 8.19 8.19 0 0 0 4.38 1.27 7.74 7.74 0 0 0 6.71-3.6z"/><path d="m81.31 133.25a4 4 0 0 0 -5.54 1.16 4 4 0 0 0 1.1 5.54 4 4 0 0 0 5.53-1.14 3.92 3.92 0 0 0 -1-5.47z"/><path d="m100.07 148.34h-.07a3.28 3.28 0 0 0 -3.44 3.1 3.28 3.28 0 1 0 3.51-3.1z"/><path d="m100.07 127.71h-.07a4.71 4.71 0 1 0 4.43 5 4.66 4.66 0 0 0 -4.36-5z"/><path d="m119.24 132.7a4 4 0 1 0 5.38 1.71 4 4 0 0 0 -5.38-1.71z"/></g></g></g></g></svg>