<svg viewBox="0 0 200 200" xmlns="http://www.w3.org/2000/svg"><g id="Layer_2" data-name="Layer 2"><g id="Flat_Color" data-name="Flat Color"><g id="Cosmos_Hub_ATOM_" data-name="Cosmos Hub (ATOM)"><circle cx="100" cy="100" fill="#393753" r="100"/><circle cx="99.81" cy="99.78" fill="#22253c" r="50.05"/><path d="m100 26.17c-8.79 0-16.53 33.07-16.53 73.79s7.38 73.87 16.53 73.87 16.52-33.33 16.52-73.83-7.38-73.83-16.52-73.83zm1.14 143.44a1.32 1.32 0 0 1 -1.84.27 1.72 1.72 0 0 1 -.27-.27 39.53 39.53 0 0 1 -6.24-13.89c-7.39-23.57-5.63-74.32-5.63-74.32 3.42-39.93 9.84-49.4 11.84-51.54a1.31 1.31 0 0 1 1.67 0 30 30 0 0 1 5.72 11.43 217.6 217.6 0 0 1 7 55.24 285.25 285.25 0 0 1 -3.87 49.34c-3.73 19.61-8.39 23.74-8.39 23.74z" fill="#6f7390"/><path d="m164 63.28c-4.58-7.91-36.85 2.11-72.21 22.43s-60.31 43.09-55.79 51.01 36.85-2.11 72.3-22.6 60.33-43.19 55.76-51zm-123.82 72.38a1.32 1.32 0 0 1 -1.4-1.67 40.41 40.41 0 0 1 8.79-12.4c16.8-18.12 61.57-41.86 61.57-41.86 36.67-17 48-16.27 50.92-15.48a1.24 1.24 0 0 1 1 1.41c0 3.78-7 10.55-7 10.55a220 220 0 0 1 -44 33.6 291.64 291.64 0 0 1 -44.81 21.19c-18.91 6.77-24.89 4.66-24.89 4.66z" fill="#6f7390"/><path d="m163.84 137c4.57-7.91-20.32-30.87-55.58-51.27s-67.55-30.63-72.12-22.73 20.32 30.78 55.58 51.1 67.55 30.8 72.12 22.9zm-124.71-71a1.32 1.32 0 0 1 .48-1.81 1.69 1.69 0 0 1 .31-.13 38.16 38.16 0 0 1 15.13 1.5c24.36 5.44 67.19 32.44 67.19 32.44 33.07 23.13 38.17 33.33 38.87 36.24a1.22 1.22 0 0 1 -.7 1.49 29.43 29.43 0 0 1 -12.66-.7 217.66 217.66 0 0 1 -51.28-21.64 286.06 286.06 0 0 1 -40.72-28c-15.39-13.05-16.62-19.39-16.62-19.39z" fill="#6f7390"/><g fill="#b7b9c8"><circle cx="99.81" cy="99.78" r="8.71"/><ellipse cx="135.43" cy="66.45" rx="5.01" ry="5.19"/><ellipse cx="52.76" cy="84.21" rx="5.01" ry="5.19"/><ellipse cx="89.61" cy="148.06" rx="5.01" ry="5.19"/></g></g></g></g></svg>