<svg viewBox="0 0 200 200" xmlns="http://www.w3.org/2000/svg"><g id="Layer_2" data-name="Layer 2"><g id="Flat_Color" data-name="Flat Color"><g id="Fantom_Opera_FTM_" data-name="Fantom Opera (FTM)"><circle cx="100" cy="100" fill="#132fff" r="100"/><path d="m95.68 50.94a10.28 10.28 0 0 1 8.58 0l25 13.08a4 4 0 0 1 2.44 3.06v65.53a3.87 3.87 0 0 1 -2.44 3.37l-25 13.08a10.28 10.28 0 0 1 -8.58 0l-25.03-13.06a3.92 3.92 0 0 1 -2.38-3.37v-65.55a3.92 3.92 0 0 1 2.38-3.08zm32 52.69-23.4 12.52a10.28 10.28 0 0 1 -8.58 0l-23.4-12.21v28.79l23.4 12.14a11.73 11.73 0 0 0 4 1.5 9.81 9.81 0 0 0 4.13-1.37l23.59-12.52zm-63.35 27.66a12.41 12.41 0 0 0 .88 5.32 6.67 6.67 0 0 0 2.56 2.63 6.84 6.84 0 0 0 1 .69h.44l1.44.87-2.06 3.32-1.59-.94-1.19-.75a11.19 11.19 0 0 1 -5.44-11.14h3.94zm33.67-45.06h-.5l-25 13 25 13h.5zm3.88 0v26.29h.56l25-13-25-13h-.56zm25.78-14.39-22.34 11.7 22.34 11.7zm-55.38 0v23.34l22.28-11.7zm30.16-17.4a6.24 6.24 0 0 0 -4.94 0l-25 13 25 13a6.24 6.24 0 0 0 4.94 0l25-13zm28.85 1.38 1.57.94a6 6 0 0 1 1.19.75 11.19 11.19 0 0 1 5.56 11.2h-3.94a11.94 11.94 0 0 0 -.87-5.32 6.32 6.32 0 0 0 -2.57-2.63l-.94-.5h-.44l-1.44-.87z" fill="#fff"/></g></g></g></svg>