<svg viewBox="0 0 200 200" xmlns="http://www.w3.org/2000/svg"><g id="Layer_2" data-name="Layer 2"><g id="Flat_Color" data-name="Flat Color"><g id="Filecoin_FIL_" data-name="Filecoin (FIL)"><circle cx="100" cy="100" fill="#0995ff" r="100"/><path d="m107.36 90.08-2.52 13.52 24.16 3.4-1.64 6.41-23.73-3.41c-1.69 5.47-2.57 11.44-4.65 16.42s-4.49 11.87-6.84 17.35a22.87 22.87 0 0 1 -17.41 13.57 17 17 0 0 1 -13.52-2.63 5.47 5.47 0 0 1 -2-2.14 4.55 4.55 0 0 1 -.33-3.28 6.34 6.34 0 0 1 .81-1.8 3.18 3.18 0 0 1 2.83-1.36 7.77 7.77 0 0 1 .83.08 4.35 4.35 0 0 1 2.61 1.48 18.21 18.21 0 0 1 2.45 3.63 6.11 6.11 0 0 0 8.43 2 5.2 5.2 0 0 0 .92-.7 25.91 25.91 0 0 0 7.18-12.75c2.43-9.62 4.81-18.85 6.87-28.39a16.45 16.45 0 0 0 .35-3.36l-22.5-3.39.88-6.35 23.32 3.34 3-13.14-24.26-3.58.88-6.9 25 3.4c.67-2.1 1.08-3.87 1.69-5.62.36-1 .63-2.07.89-3.12a62.33 62.33 0 0 1 8.86-19.94 22.28 22.28 0 0 1 19.92-10.57 13.15 13.15 0 0 1 10.16 4.21 4.09 4.09 0 0 1 1.26 2.13 7.12 7.12 0 0 1 -.46 3.63 3.32 3.32 0 0 1 -2.71 2.13 4.11 4.11 0 0 1 -3.56-1.54c-1.12-1.12-1.93-2.24-3-3.35a9.33 9.33 0 0 1 -.73-.93 5.74 5.74 0 0 0 -9-.43 26.86 26.86 0 0 0 -5.47 8.1c-3 8.92-5.09 18.23-8 27.37l23.32 3.34-1.7 6.4-22.49-3.39" fill="#fff" fill-rule="evenodd"/></g></g></g></svg>