<svg viewBox="0 0 200 200" xmlns="http://www.w3.org/2000/svg"><g id="Layer_2" data-name="Layer 2"><g id="Flat_Color" data-name="Flat Color"><g id="Injective_INJ_" data-name="Injective (INJ)"><circle cx="100" cy="100" fill="#202634" r="100"/><g fill="#08adfb"><path d="m93.9 94.15a21.72 21.72 0 0 0 -1.41-28.69 20.57 20.57 0 0 0 -27.1-1.41l-1.59 1.33-1.8 2.29a50.67 50.67 0 0 0 4 69.64 40.05 40.05 0 0 0 5.21 3.53 35.31 35.31 0 0 1 -13.86-22.33 61.78 61.78 0 0 1 11-40.78c9.7-13.24 23-1.23 14.82 9.53-6 7.95-18.36 28.42-13.85 42.19a37.93 37.93 0 0 0 16.94 19 49.69 49.69 0 0 0 22.42 1.06 43 43 0 0 1 -17.68-8.85c-20.49-15.97-5.93-33.66 2.9-46.51z"/><path d="m133.62 62.82a38.15 38.15 0 0 0 -5.21-3.53 35.33 35.33 0 0 1 13.86 22.33 61.75 61.75 0 0 1 -11 40.77c-9.71 13.24-23 1.41-14.38-9.53 6-7.94 18.35-28.42 13.85-42.1a37.59 37.59 0 0 0 -17.65-18.89 49.57 49.57 0 0 0 -21.4-1.67 43 43 0 0 1 17.66 8.8c20.47 16 5.91 33.72-2.92 46.51a21.72 21.72 0 0 0 1 29.48 20.2 20.2 0 0 0 20.92 4.77 22.72 22.72 0 0 0 6.27-3.36l1.5-1.32 1.94-2.29v.08a50.74 50.74 0 0 0 -4.44-70.05z"/></g></g></g></g></svg>