<svg viewBox="0 0 200 200" xmlns="http://www.w3.org/2000/svg"><g id="Layer_2" data-name="Layer 2"><g id="Flat_Color" data-name="Flat Color"><g id="Internet_Computer_Protocol_ICP_" data-name="Internet Computer Protocol (ICP)"><circle cx="100" cy="100" fill="#efefef" r="100"/><path d="m132.21 69h-.34a34.79 34.79 0 0 0 -22.48 11.19 89.63 89.63 0 0 0 -9.29 10.28l-.32-.36c-8.44-9.85-20.16-21.11-31.66-21.11a30.5 30.5 0 0 0 -28.94 23c-.1.24-.21.47-.3.72a32.08 32.08 0 0 0 -.88 7.17 30.6 30.6 0 0 0 30.11 31.11 34.6 34.6 0 0 0 22.69-11.19 111.77 111.77 0 0 0 9.2-10.13l.22.24c8.55 9.82 20.16 21.11 31.66 21.11a30.47 30.47 0 0 0 28.73-22.27c.18-.42.36-.83.51-1.27a32.35 32.35 0 0 0 .84-6.86 30.71 30.71 0 0 0 -29.75-31.63zm-49.74 42.19a23.25 23.25 0 0 1 -14.35 7.92 18.28 18.28 0 0 1 -18-18.57v-.12a18.47 18.47 0 0 1 18-18.68h.88a39.43 39.43 0 0 1 13 8.34 105.14 105.14 0 0 1 10 10.55 88.08 88.08 0 0 1 -9.53 10.56zm25.71-11.51a97.36 97.36 0 0 1 9.23-10.34 23 23 0 0 1 14.36-8 18.36 18.36 0 0 1 18 18.67 18.48 18.48 0 0 1 -18 18.68h-.05a37.59 37.59 0 0 1 -13.89-8.76c-4.36-4.19-8.57-9-9.65-10.25z" fill="#29abe2" fill-rule="evenodd"/><path d="m162 100.63a32.35 32.35 0 0 1 -.84 6.86c-.15.41-.3.82-.48 1.22.14-.47.26-.95.37-1.43a21.1 21.1 0 0 1 -22.06 13.2 37 37 0 0 1 -7.22-1.8h.05a18.47 18.47 0 0 0 18-18.68 18.35 18.35 0 0 0 -18-18.67 23 23 0 0 0 -14.36 8 97.36 97.36 0 0 0 -9.23 10.34l-.27-.31-7.81-8.93a88.71 88.71 0 0 1 9.29-10.28 34.79 34.79 0 0 1 22.43-11.15h.34a30.71 30.71 0 0 1 29.79 31.63z" fill="#fbb343"/><path d="m100 109.68a110.56 110.56 0 0 1 -9.19 10.16 34.6 34.6 0 0 1 -22.69 11.16 30.6 30.6 0 0 1 -30.12-31.11 32.08 32.08 0 0 1 .84-7.17c.1-.27.21-.54.31-.8-.07.26-.14.53-.2.8a21.11 21.11 0 0 1 21.95-13.2 38.69 38.69 0 0 1 8.1 2.22h-.92a18.48 18.48 0 0 0 -18 18.68v.12a18.25 18.25 0 0 0 18 18.56 23.19 23.19 0 0 0 14.35-7.91 88.08 88.08 0 0 0 9.57-10.56z" fill="#d72981"/></g></g></g></svg>