<svg viewBox="0 0 200 200" xmlns="http://www.w3.org/2000/svg"><g id="Layer_2" data-name="Layer 2"><g id="Flat_Color" data-name="Flat Color"><g id="Litecoin_LTC_" data-name="Litecoin (LTC)"><circle cx="100" cy="100" fill="#2b53b7" r="100"/><path d="m138.31 121.67v.42l-3.22 11.45a2.78 2.78 0 0 1 -2.74 1.89l-66 3.17 9.59-33.28-12.23 3.8 2.48-7.59 12.21-3.85 13.5-46.68a2.91 2.91 0 0 1 2.75-2l16.5-.74a2.12 2.12 0 0 1 2.38 1.74v.64l-11.24 39.44 12.24-3.85-2.27 8-12.45 3.66-7 24.2 43.09-1.9a2.06 2.06 0 0 1 2.41 1.48z" fill="#fff"/></g></g></g></svg>