<svg viewBox="0 0 200 200" xmlns="http://www.w3.org/2000/svg"><g id="Layer_2" data-name="Layer 2"><g id="Flat_Color" data-name="Flat Color"><g id="Mantle_MNT_" data-name="Mantle (MNT)"><circle cx="100" cy="100" r="100"/><g fill="#07dc76"><path d="m53.43 76.36-24-12.22a78.74 78.74 0 0 0 -4.75 11.49l25.63 8.29a53 53 0 0 1 3.12-7.56z"/><path d="m73.82 54.82 13.3 22.91a25.32 25.32 0 0 1 6.18-2.57l-6.88-25.58a50.86 50.86 0 0 1 5.32-1.14l-4.23-26.61a79.3 79.3 0 0 0 -12.08 2.91l8.22 25.2a51.12 51.12 0 0 0 -7.65 3.17l-12-23.59a79.17 79.17 0 0 0 -10.62 6.48l15.88 21.79a50.89 50.89 0 0 1 4.56-2.97z"/><path d="m145.16 73.8-22.9 13.31a25.35 25.35 0 0 1 2.58 6.18l25.58-6.9a50.86 50.86 0 0 1 1.14 5.32l26.6-4.24a78.45 78.45 0 0 0 -2.92-12.08l-25.19 8.24a53.33 53.33 0 0 0 -3.17-7.63l23.58-12.11a80.17 80.17 0 0 0 -6.52-10.56l-21.75 15.91a50.89 50.89 0 0 1 2.97 4.56z"/><path d=""/><path d="m135.82 29.41a79.81 79.81 0 0 0 -11.49-4.74l-8.27 25.63a53 53 0 0 1 7.56 3.12z"/><path d="m126.26 54.35-13.45 23.34a25.58 25.58 0 0 1 5.34 4.09l37.72-37.84a79.58 79.58 0 0 0 -9.45-8l-15.55 21.4c-1.49-1.07-3.02-2.07-4.61-2.99z"/><path d="m54.37 73.72 23.33 13.46a25.58 25.58 0 0 1 4.09-5.34l-37.79-37.73a79.7 79.7 0 0 0 -8.06 9.44l21.42 15.56a49.74 49.74 0 0 0 -2.99 4.61z"/><path d="m108.16 48 4.07-26.18a79.19 79.19 0 0 0 -12.23-.96h-.06v53.42h.06a25.75 25.75 0 0 1 6.62.86l6.91-26a53.88 53.88 0 0 0 -5.37-1.14z"/><path d="m75.14 93.36-26-6.92a53.68 53.68 0 0 0 -1.14 5.36l-26.2-4.08a79.94 79.94 0 0 0 -.95 12.28h53.43a25.9 25.9 0 0 1 .86-6.64z"/><path d="m146.57 123.64 24 12.22a78.4 78.4 0 0 0 4.75-11.5l-25.63-8.29a52.5 52.5 0 0 1 -3.12 7.57z"/><path d="m126.18 145.18-13.3-22.91a25.32 25.32 0 0 1 -6.18 2.57l6.88 25.58a50.86 50.86 0 0 1 -5.32 1.14l4.23 26.6a78.11 78.11 0 0 0 12.08-2.9l-8.22-25.2a53.33 53.33 0 0 0 7.61-3.17l12.09 23.59a80.21 80.21 0 0 0 10.57-6.48l-15.88-21.76a52.36 52.36 0 0 1 -4.56 2.94z"/><path d="m54.84 126.21 22.9-13.31a25.75 25.75 0 0 1 -2.58-6.18l-25.57 6.89a53.4 53.4 0 0 1 -1.15-5.31l-26.6 4.23a78.29 78.29 0 0 0 2.92 12.09l25.24-8.24a53.82 53.82 0 0 0 3.12 7.62l-23.58 12.1a79.52 79.52 0 0 0 6.52 10.56l21.75-15.88a52.36 52.36 0 0 1 -2.97-4.57z"/><path d=""/><path d="m64.18 170.59a78.69 78.69 0 0 0 11.49 4.74l8.27-25.63a51.19 51.19 0 0 1 -7.56-3.12z"/><path d="m73.74 145.66 13.45-23.33a25.93 25.93 0 0 1 -5.34-4.09l-37.72 37.83a80.52 80.52 0 0 0 9.45 8.05l15.55-21.45c1.49 1.07 3.02 2.07 4.61 2.99z"/><path d="m145.63 126.29-23.33-13.46a26.12 26.12 0 0 1 -4.09 5.34l37.79 37.73a79.48 79.48 0 0 0 8.05-9.44l-21.44-15.57a54.06 54.06 0 0 0 3.02-4.6z"/><path d="m93.38 124.86-6.91 26c1.76.46 3.56.83 5.37 1.12l-4.07 26.22a79.2 79.2 0 0 0 12.23 1h.06v-53.48h-.06a25.75 25.75 0 0 1 -6.62-.86z"/><path d="m125.72 100a25.9 25.9 0 0 1 -.86 6.64l26 6.93a54.48 54.48 0 0 0 1.14-5.37l26.18 4.08a79.71 79.71 0 0 0 1-12.27z"/></g></g></g></g></svg>