<svg viewBox="0 0 200 200" xmlns="http://www.w3.org/2000/svg"><g id="Layer_2" data-name="Layer 2"><g id="Flat_Color" data-name="Flat Color"><g id="Oasis_Network_ROSE_" data-name="Oasis Network (ROSE)"><circle cx="100" cy="100" fill="#0895f6" r="100"/><path d="m139.84 69.84a39.47 39.47 0 0 0 -31-16c-23.72 0-41.17 22.08-41.17 46 0 16.65 11.12 29.15 23.41 29.15a14.41 14.41 0 0 0 3.4-.32 35.66 35.66 0 0 1 -13.48-28.67c0-18.94 12.82-33.67 27.87-33.67 16.49 0 27.93 16.33 27.93 33.67a54.82 54.82 0 0 1 -12.65 35 43.64 43.64 0 0 1 -26.15 15h2a50 50 0 0 0 50-50 49.16 49.16 0 0 0 -10.16-30.16zm-7.55 30.16c0-16.65-11.12-29.15-23.41-29.15a14.41 14.41 0 0 0 -3.4.32 35.64 35.64 0 0 1 13.52 28.83c0 18.94-12.82 33.67-27.87 33.67-16.49 0-27.93-16.33-27.93-33.67a54.82 54.82 0 0 1 12.65-34.95 43.64 43.64 0 0 1 26.12-15h-2a50 50 0 0 0 -50 50 49.16 49.16 0 0 0 10.16 30.16 39.42 39.42 0 0 0 31 16c23.71-.21 41.16-22.27 41.16-46.21z" fill="#fff" fill-rule="evenodd"/></g></g></g></svg>