<svg viewBox="0 0 200 200" xmlns="http://www.w3.org/2000/svg"><g id="Layer_2" data-name="Layer 2"><g id="Flat_Color" data-name="Flat Color"><g id="Optimism_OP_" data-name="Optimism (OP)"><circle cx="100" cy="100" fill="#ff0420" r="100"/><path d="m68.37 127.42a24.32 24.32 0 0 1 -14.71-4.26 14.71 14.71 0 0 1 -5.95-12.36 23.55 23.55 0 0 1 .44-4.19c.59-3.6 1.62-8 2.79-13.24a25.16 25.16 0 0 1 26.84-21 25.65 25.65 0 0 1 10.59 2.06 15.89 15.89 0 0 1 7.36 5.81 15.59 15.59 0 0 1 2.72 9.19 23.9 23.9 0 0 1 -.44 4c-.81 4.56-1.69 9-2.72 13.31a28.88 28.88 0 0 1 -9.29 15.75 28.17 28.17 0 0 1 -17.58 5.15zm1.4-10.88a11.21 11.21 0 0 0 7.35-2.5 14.68 14.68 0 0 0 4-7.8c1.25-4.78 2.14-9 2.73-12.5a17.35 17.35 0 0 0 0-3.38 6.34 6.34 0 0 0 -5.53-7 6.61 6.61 0 0 0 -1.83.05 11.18 11.18 0 0 0 -7.35 2.57 14.21 14.21 0 0 0 -4.27 7.73q-1.52 6.18-2.43 12.5a16.81 16.81 0 0 0 0 3c-.03 4.9 2.18 7.33 7.33 7.33zm32 10.15a1.67 1.67 0 0 1 -1.32-.52 2.23 2.23 0 0 1 0-1.4l10.37-49.56a1.82 1.82 0 0 1 .88-1.4 2.11 2.11 0 0 1 1.47-.59h20.3a24.12 24.12 0 0 1 13.6 3.53 11.55 11.55 0 0 1 5.22 10.37 19.62 19.62 0 0 1 -.51 4 21 21 0 0 1 -7.72 12.8 25.86 25.86 0 0 1 -15.45 4.19h-10.67l-3.46 16.77a2.61 2.61 0 0 1 -.59 1.4 2.29 2.29 0 0 1 -1.39.58h-10.81zm27-29.42a8.63 8.63 0 0 0 5.59-1.84 8.3 8.3 0 0 0 3.31-5 14.46 14.46 0 0 0 0-2.28 4.8 4.8 0 0 0 -1.33-3.46 6.55 6.55 0 0 0 -4.48-1.17h-8.9l-2.96 13.9h8.6z" fill="#fff"/></g></g></g></svg>