<svg viewBox="0 0 200 200" xmlns="http://www.w3.org/2000/svg"><g id="Layer_2" data-name="Layer 2"><g id="Flat_Color" data-name="Flat Color"><g id="Polygon_MATIC_" data-name="Polygon (MATIC)"><circle cx="100" cy="100" fill="#8247e5" r="100"/><path d="m147.57 95.79-22.57-13.02a4.8 4.8 0 0 0 -4.86 0l-40.24 23.23a4.9 4.9 0 0 1 -4.9 0l-12.81-7.4a4.88 4.88 0 0 1 -2.43-4.21v-14.84a4.86 4.86 0 0 1 2.43-4.21l12.81-7.42a4.9 4.9 0 0 1 4.86 0l12.85 7.42a4.83 4.83 0 0 1 2.43 4.21v7.13a1.2 1.2 0 0 0 1.82 1l6.69-3.85a2.44 2.44 0 0 0 1.21-2.11v-7.79a4.88 4.88 0 0 0 -2.43-4.21l-22.57-13a4.85 4.85 0 0 0 -4.86 0l-22.57 13a4.88 4.88 0 0 0 -2.43 4.21v26.07a4.87 4.87 0 0 0 2.43 4.21l22.57 13a4.85 4.85 0 0 0 4.86 0l40.24-23.21a4.9 4.9 0 0 1 4.9 0l12.89 7.42a4.88 4.88 0 0 1 2.38 4.21v14.84a4.83 4.83 0 0 1 -2.43 4.21l-12.84 7.4a4.85 4.85 0 0 1 -4.86 0l-12.85-7.42a4.86 4.86 0 0 1 -2.43-4.21v-7.12a1.22 1.22 0 0 0 -1.22-1.21 1.17 1.17 0 0 0 -.6.16l-6.69 3.86a2.41 2.41 0 0 0 -1.2 2.11v7.82a4.87 4.87 0 0 0 2.42 4.21l22.62 13a4.85 4.85 0 0 0 4.86 0l22.57-13a4.87 4.87 0 0 0 2.43-4.21v-26.07a4.87 4.87 0 0 0 -2.48-4.21z" fill="#fff"/></g></g></g></svg>