<svg viewBox="0 0 200 200" xmlns="http://www.w3.org/2000/svg"><g id="Layer_2" data-name="Layer 2"><g id="Flat_Color" data-name="Flat Color"><g id="Quant_QNT_" data-name="Quant (QNT)"><circle cx="100" cy="100" fill="#e33c3c" r="100"/><g fill="#fff"><path d="m78.08 55.67 25.4 30 17.2-10.14s-20.76-27.68-26.26-25.73-16.34 5.87-16.34 5.87z"/><path d="m121.44 75.52a61.29 61.29 0 0 0 5.88-16.18s19.41 7.82 12 27.4z"/><path d="m139.29 87 1.62 20.55 7.44-1s1.94-.65 1.62-4.21-1-12.08-1-12.08.32-1.94-4.21-2.59c-5.47-1.04-5.47-.67-5.47-.67z"/><path d="m140.91 107.5-14.91 12.08 6.79 13.32s1.62 5.39 6.47-.65 6.48-6.85 6.15-10.41-1.27-12.08-4.5-14.34z"/><path d="m125.64 119.53-20.38-9.12-18 36.19s-1.35 2.59 3.24 2.91 12 2.32 15.85-1.62a311.23 311.23 0 0 0 19.29-28.36z"/><path d="m105.26 110.09-1.78-24.09-44.06 3s-2.59.32-2.27 5.39c.33 6.53 1 13.7 1 13.7s-.33 2.91 5.39 3.29 41.07 0 41.72-1.29z"/></g></g></g></g></svg>