<svg viewBox="0 0 200 200" xmlns="http://www.w3.org/2000/svg"><g id="Layer_2" data-name="Layer 2"><g id="Flat_Color" data-name="Flat Color"><g id="Shiba_Inu_SHIB_" data-name="Shiba Inu (SHIB)"><circle cx="100" cy="100" fill="#f10d09" r="100"/><path d="m146.3 118.22a23 23 0 0 1 -1.83 6c-.14.3-1.14 2.08-1.39 2.47a1.76 1.76 0 0 0 -.21.38.08.08 0 0 1 -.07.07s-.07.05-.07.08 0 .08-.07.08a0 0 0 0 0 0 .07s0 .08 0 .1-.08.05-.07.08 0 .07-.06.09-.09.06-.07.08 0 .08-.07.12-.1.06-.06.06a26.28 26.28 0 0 1 -2.45 3.27 51.54 51.54 0 0 1 -4.61 4.62c-10.41 9-26 15.23-36.63 14.52-10.24-.71-23.64-6.79-33.54-15.19-6.04-5.12-9.89-10.38-11.1-15.12a14.65 14.65 0 0 1 -.33-5.09c0-.1 0-.22 0-.32a60.66 60.66 0 0 1 6.42-23.59 3.13 3.13 0 0 0 .19-.36c-.74-2.19-2.71-8.24-4.31-15.13-2.43-10.41-4-22.72.67-26.38 0 0 8-.58 18.65 9.55a68.16 68.16 0 0 1 7.86 9l.46-.16a45.17 45.17 0 0 1 12.63-2.52c1.59-.1 6.44-.1 7.74 0a52.51 52.51 0 0 1 12.75 2.47l.71.23a68.93 68.93 0 0 1 7.61-9c10.28-10.08 18-9.51 18-9.51 4.44 3.54 3 15.31.7 25.39-1.75 7.42-3.85 13.91-4.37 15.42a.61.61 0 0 0 .07.14 5.22 5.22 0 0 0 .36.7 48.78 48.78 0 0 1 6.32 20.32c.05.51.12 1.56.15 2.31 0 .5.07 1 .09 1.34a3.72 3.72 0 0 0 0 .37 21.26 21.26 0 0 1 -.07 3.04z" fill="#fff"/><path d="m146.37 114.85a35.53 35.53 0 0 0 -26 8.06s-3.42-15.68-19.44-15.68-22 15.68-22 15.68c-9-9.68-21-9-25.34-8.33a60.66 60.66 0 0 1 6.5-23.58 3.13 3.13 0 0 0 .19-.36c-.74-2.19-2.71-8.24-4.31-15.13-2.43-10.41-4-22.72.67-26.38 0 0 8-.58 18.65 9.55a68.16 68.16 0 0 1 7.86 9l.46-.16a45.17 45.17 0 0 1 12.63-2.52c1.59-.1 6.44-.1 7.74 0a52.51 52.51 0 0 1 12.75 2.47l.71.23a68.93 68.93 0 0 1 7.61-9c10.28-10.08 18-9.51 18-9.51 4.44 3.54 3 15.31.7 25.39-.84 3.71-1.8 7.19-2.6 9.93s-1.46 4.75-1.72 5.53a.61.61 0 0 0 .07.14 5.22 5.22 0 0 0 .36.7 48.78 48.78 0 0 1 6.32 20.32c.05.51.12 1.56.15 2.31-.01.49.02 1.01.04 1.34z" fill="#ffa409"/><path d="m140.86 59.87a8.87 8.87 0 0 0 -1.51-3.82s-6.83.7-17.85 13.38a31.22 31.22 0 0 1 4.9 3.28 39.42 39.42 0 0 1 10 11.66s6.01-15.58 4.46-24.5zm0 0a4.82 4.82 0 0 0 -.49 0 4.82 4.82 0 0 1 .49 0z" fill="#ff8300"/><path d="m140.86 59.87c-1.3-.17-7.45-.2-14.43 12.86a31.22 31.22 0 0 0 -4.9-3.28c11-12.68 17.85-13.38 17.85-13.38a8.87 8.87 0 0 1 1.48 3.8z" fill="#ff9300"/><path d="m78.83 69.43c-11.41-12.68-18.49-13.38-18.5-13.38a8.45 8.45 0 0 0 -1.55 3.82 8.4 8.4 0 0 1 5.28 1.46 8.37 8.37 0 0 0 -5.27-1.46c-1.6 8.92 4.64 24.52 4.64 24.52a39.8 39.8 0 0 1 10.31-11.66 32.92 32.92 0 0 1 5.09-3.3z" fill="#ff8300"/><path d="m78.83 69.43a32.92 32.92 0 0 0 -5.08 3.28 0 0 0 0 1 0 0c-7.22-13.08-13.58-13-14.94-12.86a8.45 8.45 0 0 1 1.55-3.82s7.06.72 18.47 13.4z" fill="#ff9300"/><path d="m129.2 102a5.65 5.65 0 0 1 -1.61 1.65 28.06 28.06 0 0 1 -10.61 4c-2.39.44-4.77.5-5.49.15-.47-.23-.54-.41-.37-1a8.15 8.15 0 0 1 3.25-3.91c.9-.65 4.56-2.87 6.26-3.8a22 22 0 0 1 6.61-2.67 3.4 3.4 0 0 1 1.25 0c.3.12.63 1 .76 2.07a25.56 25.56 0 0 1 -.05 3.51z"/><path d="m89.9 107.56a1.8 1.8 0 0 1 -1.17.5 19.81 19.81 0 0 1 -3.28-.08 34.49 34.49 0 0 1 -10-2.89 12.64 12.64 0 0 1 -3.45-2.32l-.47-.48v-.64a17.92 17.92 0 0 1 .07-3.45 4.45 4.45 0 0 1 .4-1.47c.13-.16.13-.16.73-.16a7.12 7.12 0 0 1 2.35.43 46 46 0 0 1 8.92 4.4c3.07 1.84 4.22 2.74 5.1 4a3.36 3.36 0 0 1 .8 2.16z"/><path d="m113.52 130.78c0 .05-.2.85-.45 1.8s-.45 1.72-.45 1.75a2.35 2.35 0 0 1 -.53 0h-.54l-.73 1.73-.82 2-.1.24-.35-.57-.35-.57v-4.62h-.13c-.28.07-2.3.34-3.19.42a45.18 45.18 0 0 1 -11-.23c-.58-.09-1.08-.15-1.1-.14s0 1.09 0 2.41v2.37l-.29.43c-.15.23-.3.43-.3.45s-.21-.22-.6-1a11.06 11.06 0 0 1 -.93-2.54l-.12-.48h-.52-.51l-.14-.62c-.06-.33-.15-.85-.18-1.13v-.54l-.43-.38-.55-.47a.33.33 0 0 1 -.12-.28v-.2h2.08 2.09l.07.22.06.22h.72l2.8.08 2.09.05.53-.83.55-.83h.7v-1.52-1.73l-.92-.4c-3-1.31-4.69-2.79-5.34-4.59a6.54 6.54 0 0 1 -.16-2.17 6.44 6.44 0 0 1 .1-2.17 2.43 2.43 0 0 1 1.71-1.7 41.7 41.7 0 0 1 5-.08h4.63l.52.25a2.87 2.87 0 0 1 1.25 1 2.75 2.75 0 0 1 .52 2 14.67 14.67 0 0 1 -.25 3.2 7.08 7.08 0 0 1 -1 1.92 9 9 0 0 1 -3.74 2.62l-.4.15v1.75 1.75h.36.37l.5.75.49.75h2.23 2.42s.2 0 .37-.27l.2-.3h1.91a6.25 6.25 0 0 1 1.97.05z"/><path d="m104.72 135.57c-.32.18-.54.26-.59.23s-.28-.22-.53-.4l-.45-.37-.47.5c-1 1.1-1.05 1.15-1.35 1.17-.47.05-.57 0-1.14-.88-.3-.44-.53-.8-.53-.8a3.81 3.81 0 0 0 -.47-.05l-.46-.05-.22.45-.22.45-.38-.12a8.48 8.48 0 0 1 -.88-.35l-.51-.25v-.95h4.44 4.44v.45c.03.57.05.55-.68.97z"/><g fill="#fff"><path d="m119.51 93.05s-5.34.33-4.67-3.84 4.84-4.67 6-4.5 5.83 1.83 5 5.33-2 2.84-2.67 3a27.57 27.57 0 0 1 -3.66.01z"/><path d="m80.14 93.05s-5.33.33-4.67-3.84 4.84-4.67 6-4.5 5.84 1.83 5 5.33-2 2.84-2.67 3a27.58 27.58 0 0 1 -3.66.01z"/></g></g></g></g></svg>