<svg viewBox="0 0 200 200" xmlns="http://www.w3.org/2000/svg"><g id="Layer_2" data-name="Layer 2"><g id="Flat_Color" data-name="Flat Color"><g id="Solana_SOL_" data-name="Solana (SOL)"><circle cx="100" cy="100" fill="#7044cf" r="100"/><g fill="#fff"><path d="m69.2 118.86a2.87 2.87 0 0 1 2.1-.88h73a1.54 1.54 0 0 1 1.46 1.63 1.6 1.6 0 0 1 -.41 1l-14.42 14.39a3 3 0 0 1 -2.1.88h-73a1.49 1.49 0 0 1 -1.05-2.65z"/><path d="m69.2 65a3 3 0 0 1 2.1-.89h73a1.5 1.5 0 0 1 1.05 2.55l-14.42 14.48a3 3 0 0 1 -2.1.88h-73a1.55 1.55 0 0 1 -1.46-1.63 1.6 1.6 0 0 1 .41-1z"/><path d="m130.93 91.76a2.92 2.92 0 0 0 -2.1-.89h-73a1.55 1.55 0 0 0 -1.46 1.63 1.58 1.58 0 0 0 .41 1l14.42 14.35a2.92 2.92 0 0 0 2.1.89h73a1.5 1.5 0 0 0 1.05-2.55z"/></g></g></g></g></svg>