<svg viewBox="0 0 200 200" xmlns="http://www.w3.org/2000/svg"><g id="Layer_2" data-name="Layer 2"><g id="Flat_Color" data-name="Flat Color"><g id="Stellar_Lumens_XLM_" data-name="Stellar Lumens (XLM)"><circle cx="100" cy="100" fill="#160e2c" r="100"/><g fill="#fff"><path d="m142.56 63.05-14.25 7.29-69 35.15a40.7 40.7 0 0 1 0-5.41 41 41 0 0 1 41-41 41.73 41.73 0 0 1 20 5.16l8.19-4.18 1.23-.57a50.23 50.23 0 0 0 -79.64 41v3.85a9.23 9.23 0 0 1 -4.91 8.85l-4.43 1.72v10.24l12.7-6.39 4.1-2.13 4-2 72.68-37 8.19-4.18 16.88-8.19v-10.73z"/><path d="m57.52 126.87-16.39 8.2v10.24l16.39-8.2 14.26-7.21 69-35.23a40.7 40.7 0 0 1 0 5.41 41 41 0 0 1 -61.12 35.81h-.49l-8.85 4.58a50.23 50.23 0 0 0 79.64-41v-3.81a9.08 9.08 0 0 1 4.91-8.77l4.34-2.21v-9.68l-93.5 47.69z"/></g></g></g></g></svg>