<svg viewBox="0 0 200 200" xmlns="http://www.w3.org/2000/svg"><g id="Layer_2" data-name="Layer 2"><g id="Flat_Color" data-name="Flat Color"><g id="Synthetix_Network_SNX_" data-name="Synthetix Network (SNX)"><circle cx="100" cy="100" fill="#0e0236" r="100"/><path d="m74.2 81.19a3.35 3.35 0 0 0 -2.57-1.25h-21.42a1 1 0 0 1 0-.42v-14.24a1.09 1.09 0 0 1 0-.36.79.79 0 0 1 .48 0h22.08a18.85 18.85 0 0 1 14.47 6.82l5.39 6.58-10.63 12.57zm38.65-9.69a18.81 18.81 0 0 1 14.48-6.76h22.43a.45.45 0 0 1 0 .42v14.12a.51.51 0 0 1 0 .42.36.36 0 0 1 -.42 0h-20.88a3.47 3.47 0 0 0 -2.63 1.3l-15.38 19 15.5 18.9a3.27 3.27 0 0 0 2.45 1.1h21.36a1.29 1.29 0 0 1 0 .48v14.18a.73.73 0 0 1 0 .36.61.61 0 0 1 -.42 0h-22a18.56 18.56 0 0 1 -14.42-6.82l-12.92-15.48-12.82 15.68a18.67 18.67 0 0 1 -14.47 6.82h-22a.61.61 0 0 1 -.42 0 .66.66 0 0 1 0-.48v-14.24a1 1 0 0 1 0-.42.36.36 0 0 1 .42 0h20.92a3.47 3.47 0 0 0 2.57-1.26l15.14-18.42z" fill="#02c5f2"/></g></g></g></svg>