<svg viewBox="0 0 200 200" xmlns="http://www.w3.org/2000/svg"><g id="Layer_2" data-name="Layer 2"><g id="Flat_Color" data-name="Flat Color"><g id="Tether_USDT_" data-name="Tether (USDT)"><circle cx="100" cy="100" fill="#59af99" r="100"/><path d="m110.38 87.69v-11.81h26.87v-18.63h-74.57v18.63h26.94v11.81c-22.57 1.09-39.51 5.62-39.51 11s16.92 9.93 39.51 11v39h20.76v-39c22.57-1.08 39.51-5.61 39.51-11s-16.89-9.91-39.51-11zm-10.38 18.56c-24.44 0-44.25-3.78-44.25-8.33 0-3.91 14.43-7.2 33.85-8.08v13.34c3.34.15 6.81.24 10.38.24s7.06-.09 10.38-.24v-13.34c19.42.88 33.85 4.17 33.85 8.08.04 4.6-19.77 8.33-44.21 8.33z" fill="#fff"/></g></g></g></svg>