<svg viewBox="0 0 200 200" xmlns="http://www.w3.org/2000/svg"><g id="Layer_2" data-name="Layer 2"><g id="Flat_Color" data-name="Flat Color"><g id="Tezos_XTZ_" data-name="Tezos (XTZ)"><circle cx="100" cy="100" fill="#0868ff" r="100"/><path d="m109.1 156.33a22.28 22.28 0 0 1 -16.67-5.48 17.07 17.07 0 0 1 -5.24-11.78 8 8 0 0 1 .94-3.89 6.59 6.59 0 0 1 2.47-2.71 8.6 8.6 0 0 1 7.78 0 6.39 6.39 0 0 1 2.53 2.47 8 8 0 0 1 .94 3.89 7.5 7.5 0 0 1 -1.35 4.59 5.88 5.88 0 0 1 -3.18 2.36 8.7 8.7 0 0 0 5 3.06 24.33 24.33 0 0 0 7.12 1.3 14.43 14.43 0 0 0 14.15-10.14 35.33 35.33 0 0 0 0-23.15 14.64 14.64 0 0 0 -5.89-7.31 15.36 15.36 0 0 0 -8.31-2.41 15.89 15.89 0 0 0 -7.18 2.47l-5.36 2.65v-2.65l24-32.22h-33.66v33.28a12.33 12.33 0 0 0 1.88 6.84 6.25 6.25 0 0 0 5.93 2.66 8.9 8.9 0 0 0 5.48-2 19.69 19.69 0 0 0 4.65-4.77 1.91 1.91 0 0 1 .59-.76 1.11 1.11 0 0 1 .83-.3 2.44 2.44 0 0 1 1.45.67 3.15 3.15 0 0 1 .88 2.24 17 17 0 0 1 -.29 1.71 16.34 16.34 0 0 1 -5.89 7.06 13.88 13.88 0 0 1 -8 2.42 20.78 20.78 0 0 1 -15-4.24 16 16 0 0 1 -4.13-11.78v-33.2h-17.07v-6.21h17v-14.23l-3.88-3.89v-2.88h11.38l4.24 2.24v19h44l4.42 4.36-27 27.16a17 17 0 0 1 5.06-1.24 21.78 21.78 0 0 1 9.9 2.83 20.15 20.15 0 0 1 8.48 7.54 27 27 0 0 1 3.83 8.78 35.61 35.61 0 0 1 .89 7.83 32.86 32.86 0 0 1 -3.3 14.55 21.11 21.11 0 0 1 -10 10 32.11 32.11 0 0 1 -14.42 3.28z" fill="#fff"/></g></g></g></svg>