<svg viewBox="0 0 200 200" xmlns="http://www.w3.org/2000/svg" xmlns:xlink="http://www.w3.org/1999/xlink"><clipPath id="clip-path"><path d="m128.85 44.75h-57.7l-5.48 5.53v99.5l5.48 5.47h57.7l5.48-5.47v-99.5zm-5.53 99.5h-46.64v-88.56h46.64z"/></clipPath><clipPath id="clip-path-2"><path d="m117.47 115.76h-11.94v12.44h-10.75v-12.44h-11.94v-10.76h34.63zm0-31.09h-11.94v-12.44h-10.75v12.44h-11.94v11h34.63z"/></clipPath><g id="Layer_2" data-name="Layer 2"><g id="Flat_Color" data-name="Flat Color"><g id="Theta_Network_THETA_" data-name="Theta Network (THETA)"><circle cx="100" cy="100" fill="#31bae7" r="100"/><g fill="#fff"><path d="m128.85 44.75h-57.7l-5.48 5.53v99.5l5.48 5.47h57.7l5.48-5.47v-99.5zm-5.53 99.5h-46.64v-88.56h46.64z"/><g clip-path="url(#clip-path)"><path d="m77.99 55.69-1.31 1.37v-1.37z"/><path d="m82.46 55.69-5.78 5.85v-4.48l1.31-1.37z"/><path d="m86.94 55.69-10.26 10.33v-4.48l5.78-5.85z"/><path d="m91.42 55.69-14.74 14.74v-4.41l10.26-10.33z"/><path d="m95.83 55.69-19.15 19.22v-4.48l14.74-14.74z"/><path d="m100.31 55.69-23.63 23.7v-4.48l19.15-19.22z"/><path d="m104.79 55.69-28.11 28.11v-4.41l23.63-23.7z"/><path d="m109.2 55.69-32.52 32.59v-4.48l28.11-28.11z"/><path d="m113.68 55.69-37 37.07v-4.48l32.52-32.59z"/><path d="m118.16 55.69-41.48 41.54v-4.47l37-37.07z"/><path d="m122.64 55.69-45.96 45.96v-4.42l41.48-41.54z"/><path d="m123.32 59.42-46.64 46.71v-4.48l45.96-45.96h.68z"/><path d="m123.32 63.9-46.64 46.7v-4.47l46.64-46.71z"/><path d="m123.32 68.38-46.64 46.64v-4.42l46.64-46.7z"/><path d="m123.32 72.79-46.64 46.71v-4.48l46.64-46.64z"/><path d="m123.32 77.27-46.64 46.7v-4.47l46.64-46.71z"/><path d="m123.32 81.75-46.64 46.7v-4.48l46.64-46.7z"/><path d="m123.32 84.8-46.64 46.64v-2.99l46.64-46.7z"/><path d="m123.32 87.84-46.64 46.64v-3.04l46.64-46.64z"/><path d="m123.32 90.89-46.64 46.64v-3.05l46.64-46.64z"/><path d="m123.32 93.94-46.64 46.64v-3.05l46.64-46.64z"/><path d="m123.32 96.92-46.64 46.7v-3.04l46.64-46.64z"/><path d="m123.32 99.97-44.34 44.4h-2.3v-.75l46.64-46.7z"/><path d="m123.32 103.02-41.29 41.35h-3.05l44.34-44.4z"/><path d="m123.32 106.06-38.24 38.31h-3.05l41.29-41.35z"/><path d="m123.32 109.11-35.2 35.26h-3.04l38.24-38.31z"/><path d="m123.32 112.16-32.15 32.21h-3.05l35.2-35.26z"/><path d="m123.32 115.2-29.1 29.17h-3.05l32.15-32.21z"/><path d="m123.32 118.25-26.06 26.12h-3.04l29.1-29.17z"/><path d="m123.32 121.3-23.01 23.07h-3.05l26.06-26.12z"/><path d="m123.32 124.35-20.02 20.02h-2.99l23.01-23.07z"/><path d="m123.32 127.33-16.98 17.04h-3.04l20.02-20.02z"/><path d="m123.32 130.38-13.93 13.99h-3.05l16.98-17.04z"/><path d="m123.32 133.43-10.88 10.94h-3.05l13.93-13.99z"/><path d="m123.32 136.47-7.84 7.9h-3.04l10.88-10.94z"/><path d="m123.32 139.52-4.79 4.85h-3.05l7.84-7.9z"/><path d="m123.32 142.57-1.74 1.8h-3.05l4.79-4.85z"/><path d="m121.58 144.37 1.74-1.8v1.8z"/><path d="m71.15 44.75-5.48 5.47v-5.47z"/><path d="m75.62 44.75-9.95 9.95v-4.48l5.48-5.47z"/><path d="m80.1 44.75-14.43 14.42v-4.47l9.95-9.95z"/><path d="m84.52 44.75-18.85 18.84v-4.42l14.43-14.42z"/><path d="m88.99 44.75-23.32 23.32v-4.48l18.85-18.84z"/><path d="m93.47 44.75-27.8 27.8v-4.48l23.32-23.32z"/><path d="m97.89 44.75-32.22 32.21v-4.41l27.8-27.8z"/><path d="m102.36 44.75-36.69 36.69v-4.48l32.22-32.21z"/><path d="m106.84 44.75-41.17 41.17v-4.48l36.69-36.69z"/><path d="m111.32 44.75-45.65 45.58v-4.41l41.17-41.17z"/><path d="m115.73 44.75-50.06 50.06v-4.48l45.65-45.58z"/><path d="m120.21 44.75-54.54 54.53v-4.47l50.06-50.06z"/><path d="m124.69 44.75-59.02 58.95v-4.42l54.54-54.53z"/><path d="m129.1 44.75-63.43 63.43v-4.48l59.02-58.95z"/><path d="m129.97 44.75 1.81 1.8-66.11 66.11v-4.48l63.43-63.43z"/><path d="m131.78 46.55 2.24 2.24-68.35 68.34v-4.47z"/><path d="m134.02 48.79.31.31v3.79l-68.66 68.66v-4.42z"/><path d="m134.33 57.37-68.66 68.66v-4.48l68.66-68.66z"/><path d="m134.33 61.85-68.66 68.65v-4.47l68.66-68.66z"/><path d="m134.33 66.26-68.66 68.66v-4.42l68.66-68.65z"/><path d="m134.33 70.74-68.66 68.66v-4.48l68.66-68.66z"/><path d="m134.33 73.79-68.66 68.65v-3.04l68.66-68.66z"/><path d="m134.33 76.84-68.66 68.65v-3.05l68.66-68.65z"/><path d="m134.33 79.88-68.66 68.66v-3.05l68.66-68.65z"/><path d="m134.33 82.93-68.35 68.34-.31-.31v-2.42l68.66-68.66z"/><path d="m134.33 85.98-66.85 66.79-1.5-1.5 68.35-68.34z"/><path d="m134.33 89.02-65.3 65.3-1.55-1.55 66.85-66.79z"/><path d="m134.33 92.07-63.31 63.24h-.99l-1-.99 65.3-65.3z"/><path d="m134.33 95.12-60.26 60.19h-3.05l63.31-63.24z"/><path d="m134.33 98.1-57.21 57.21h-3.05l60.26-60.19z"/><path d="m134.33 101.15-54.17 54.16h-3.04l57.21-57.21z"/><path d="m134.33 104.2-51.12 51.11h-3.05l54.17-54.16z"/><path d="m134.33 107.25-48.07 48.06h-3.05l51.12-51.11z"/><path d="m134.33 110.29-45.03 45.02h-3.04l48.07-48.06z"/><path d="m134.33 113.34-41.98 41.97h-3.05l45.03-45.02z"/><path d="m134.33 116.39-38.93 38.92h-3.05l41.98-41.97z"/><path d="m134.33 119.43-35.88 35.88h-3.05l38.93-38.92z"/><path d="m134.33 122.48-32.9 32.83h-2.98l35.88-35.88z"/><path d="m134.33 125.53-29.85 29.78h-3.05l32.9-32.83z"/><path d="m134.33 128.57-26.8 26.74h-3.05l29.85-29.78z"/><path d="m134.33 131.56-23.76 23.75h-3.04l26.8-26.74z"/><path d="m134.33 134.61-20.71 20.7h-3.05l23.76-23.75z"/><path d="m134.33 137.65-17.66 17.66h-3.05l20.71-20.7z"/><path d="m134.33 140.7-14.62 14.61h-3.04l17.66-17.66z"/><path d="m134.33 143.75-11.57 11.56h-3.05l14.62-14.61z"/><path d="m134.33 146.8-8.52 8.51h-3.05l11.57-11.56z"/><path d="m134.33 149.84-5.48 5.47h-3.04l8.52-8.51z"/><path d="m128.85 155.31 5.48-5.47v5.47z"/></g><path d="m117.47 115.76h-11.94v12.44h-10.75v-12.44h-11.94v-10.76h34.63zm0-31.09h-11.94v-12.44h-10.75v12.44h-11.94v11h34.63z"/><g clip-path="url(#clip-path-2)"><path d="m94.78 72.36-11.94 11.94v-11.94z"/><path d="m96.52 72.36-13.68 13.74v-1.8l11.94-11.94z"/><path d="m98.26 72.36-15.42 15.48v-1.74l13.68-13.74z"/><path d="m100.06 72.36-17.22 17.22v-1.74l15.42-15.48z"/><path d="m101.8 72.36-18.96 19.03v-1.81l17.22-17.22z"/><path d="m103.61 72.36-20.77 20.77v-1.74l18.96-19.03z"/><path d="m105.35 72.36-22.51 22.57v-1.8l20.77-20.77z"/><path d="m106.65 72.36.25.25-23.07 23.07h-.99v-.75l22.51-22.57z"/><path d="m106.9 72.61.87.87-22.13 22.2h-1.81z"/><path d="m107.77 73.48.87.87-21.26 21.33h-1.74z"/><path d="m108.64 74.35.94.87-20.46 20.46h-1.74z"/><path d="m109.58 75.22.87.93-19.53 19.53h-1.8z"/><path d="m110.45 76.15.87.87-18.66 18.66h-1.74z"/><path d="m111.32 77.02.87.87-17.72 17.79h-1.81z"/><path d="m112.19 77.89.87.87-16.85 16.92h-1.74z"/><path d="m113.06 78.76.93.87-16.04 16.05h-1.74z"/><path d="m113.99 79.63.87.94-15.11 15.11h-1.8z"/><path d="m114.86 80.57.87.87-14.24 14.24h-1.74z"/><path d="m115.73 81.44.87.87-13.3 13.37h-1.81z"/><path d="m116.6 82.31.87.87v.06l-12.43 12.44h-1.74z"/><path d="m117.47 84.98-10.69 10.7h-1.74l12.43-12.44z"/><path d="m117.47 86.23-9.45 9.45h-1.24l10.69-10.7z"/><path d="m117.47 87.41-8.27 8.27h-1.18l9.45-9.45z"/><path d="m117.47 88.59-7.02 7.09h-1.25l8.27-8.27z"/><path d="m117.47 89.83-5.84 5.85h-1.18l7.02-7.09z"/><path d="m117.47 91.01-4.66 4.67h-1.18l5.84-5.85z"/><path d="m117.47 92.2-3.41 3.48h-1.25l4.66-4.67z"/><path d="m117.47 93.44-2.23 2.24h-1.18l3.41-3.48z"/><path d="m117.47 94.62-1.05 1.06h-1.18l2.23-2.24z"/><path d="m116.42 95.68 1.05-1.06v1.06z"/><path d="m83.33 105.01-.49.49v-.49z"/><path d="m85.14 105.01-2.3 2.3v-1.81l.49-.49z"/><path d="m86.88 105.01-4.04 4.04v-1.74l2.3-2.3z"/><path d="m88.68 105.01-5.84 5.78v-1.74l4.04-4.04z"/><path d="m90.42 105.01-7.58 7.58v-1.8l5.84-5.78z"/><path d="m92.17 105.01-9.33 9.32v-1.74l7.58-7.58z"/><path d="m93.97 105.01-11.13 11.13v-1.81l9.33-9.32z"/><path d="m95.71 105.01-12.69 12.68-.18-.25v-1.3l11.13-11.13z"/><path d="m97.51 105.01-13.62 13.55-.87-.87 12.69-12.68z"/><path d="m98.69 105.01-14.17 14.18-.63-.63 13.62-13.55z"/><path d="m99.88 105.01-14.74 14.74-.62-.56 14.17-14.18z"/><path d="m101.12 105.01-15.42 15.36-.56-.62 14.74-14.74z"/><path d="m102.3 105.01-15.98 15.98-.62-.62 15.42-15.36z"/><path d="m103.48 105.01-16.54 16.54-.62-.56 15.98-15.98z"/><path d="m104.73 105.01-17.23 17.16-.56-.62 16.54-16.54z"/><path d="m105.91 105.01-17.79 17.78-.62-.62 17.23-17.16z"/><path d="m107.15 105.01-18.4 18.34-.63-.56 17.79-17.78z"/><path d="m108.33 105.01-19.03 18.96-.55-.62 18.4-18.34z"/><path d="m109.52 105.01-19.59 19.58-.63-.62 19.03-18.96z"/><path d="m110.76 105.01-20.21 20.21-.62-.63 19.59-19.58z"/><path d="m111.94 105.01-20.83 20.77-.56-.56 20.21-20.21z"/><path d="m113.12 105.01-21.39 21.39-.62-.62 20.83-20.77z"/><path d="m114.36 105.01-22.01 22.01-.62-.62 21.39-21.39z"/><path d="m115.55 105.01-22.58 22.57-.62-.56 22.01-22.01z"/><path d="m116.79 105.01-23.26 23.19-.56-.62 22.58-22.57z"/><path d="m117.47 105.5-22.82 22.76h-1.06l-.06-.06 23.26-23.19h.68z"/><path d="m117.47 106.69-21.57 21.57h-1.25l22.82-22.76z"/><path d="m117.47 107.87-20.39 20.39h-1.18l21.57-21.57z"/><path d="m117.47 109.11-19.15 19.15h-1.24l20.39-20.39z"/><path d="m117.47 110.29-17.97 17.97h-1.18l19.15-19.15z"/><path d="m117.47 111.47-16.79 16.79h-1.18l17.97-17.97z"/><path d="m117.47 112.72-15.54 15.54h-1.25l16.79-16.79z"/><path d="m117.47 113.9-14.36 14.36h-1.18l15.54-15.54z"/><path d="m117.47 115.14-13.12 13.12h-1.24l14.36-14.36z"/><path d="m117.47 116.32-11.94 11.94h-1.18l13.12-13.12z"/><path d="m105.53 128.26 11.94-11.94v11.94z"/></g></g></g></g></g></svg>