<svg viewBox="0 0 200 200" xmlns="http://www.w3.org/2000/svg"><g id="Layer_2" data-name="Layer 2"><g id="Flat_Color" data-name="Flat Color"><g id="Toncoin_TON_" data-name="Toncoin (TON)"><circle cx="100" cy="100" fill="#0089cd" r="100"/><path d="m140.26 70.58a9.74 9.74 0 0 0 -4.82-4.44 13.6 13.6 0 0 0 -6-1.48h-58.37a11.23 11.23 0 0 0 -6.31 1.48 9.58 9.58 0 0 0 -5.6 4.86 11.68 11.68 0 0 0 -1.56 7.08 12.28 12.28 0 0 0 2.34 6.3l36.19 63.2a5 5 0 0 0 4.05 2.18 4.32 4.32 0 0 0 4.12-2.18l36.35-63.2a11.38 11.38 0 0 0 1.79-6.69 15 15 0 0 0 -2.18-7.11zm-44.67 57.28-27.87-48.64c-.72-1.48-1.09-2.22-1.09-2.22a2.85 2.85 0 0 1 .37-1.91 2.75 2.75 0 0 1 1.48-1.48h27.11zm37.2-50.59a5.73 5.73 0 0 1 0 2.26l-28.49 48.57v-54.17h24.75a5.13 5.13 0 0 1 2.57.38l.39.39c.39 0 .39.7.78.7a3.31 3.31 0 0 1 0 1.87z" fill="#fff" fill-rule="evenodd"/></g></g></g></svg>