<svg viewBox="0 0 200 200" xmlns="http://www.w3.org/2000/svg"><g id="Layer_2" data-name="Layer 2"><g id="Flat_Color" data-name="Flat Color"><g id="Tron_TRX_" data-name="Tron (TRX)"><circle cx="100" cy="100" fill="#ff0e12" r="100"/><path d="m150 86.41c-5-4.63-11.93-11.66-17.59-16.67l-.33-.27a7.43 7.43 0 0 0 -1.85-1c-13.6-2.54-76.93-14.41-78.13-14.25a2.15 2.15 0 0 0 -.93.55h-.32a3.56 3.56 0 0 0 -.85 1.36v1.36c7.13 19.88 35.28 84.84 40.84 100.09.32 1 .92 3 2.12 3.1h.27c.66 0 3.33-3.54 3.33-3.54s48.24-58.26 53.14-64.25a19.74 19.74 0 0 0 1.64-2.45 3.91 3.91 0 0 0 -1.34-4.03zm-41.17 6.8 20.7-17.09 12 11.32zm-8-1.08-35.5-29.13 57.45 10.89zm3.21 7.62 36.38-5.88-41.54 50.13zm-43.55-33.82 37.35 31.7-5.44 46.37z" fill="#fff"/></g></g></g></svg>