<svg viewBox="0 0 200 200" xmlns="http://www.w3.org/2000/svg"><g id="Layer_2" data-name="Layer 2"><g id="Flat_Color" data-name="Flat Color"><g id="Uniswap_UNI_" data-name="Uniswap (UNI)"><circle cx="100" cy="100" fill="#f5d4e5" r="100"/><g fill="#ff1280"><path d="m83.42 58.05h-.8a22.07 22.07 0 0 1 6.12.44 26.13 26.13 0 0 1 13.4 8.74l1.17 1.38h1.69a36.41 36.41 0 0 1 20.83 2.62 29.68 29.68 0 0 1 4.67 2.7 6.41 6.41 0 0 1 .51 1.82 11.53 11.53 0 0 1 -.73 7.28 2 2 0 0 0 .41 2.75 2 2 0 0 0 1.12.38c1.6 0 3.2-2.4 4-5.89v-1.39l.58.66a25.33 25.33 0 0 1 6.34 12.52v1l-.29-1.24a11.76 11.76 0 0 0 -3.13-3.35 20 20 0 0 0 -10.78-2.26 46.31 46.31 0 0 1 -11.87-1.82c-5.32-1.74-8.09-4.07-14.57-12.45a62.91 62.91 0 0 0 -6.26-7.28 22.33 22.33 0 0 0 -12.41-6.61z"/><path d="m131.86 66.28a13.64 13.64 0 0 1 1.14-5.53 7.12 7.12 0 0 1 .59-1.17v1a12.67 12.67 0 0 0 0 5.68c.43 3 .65 3.35 3.78 6.56 1.46 1.45 3.14 3.35 3.79 4.15l1.09 1.45-1.09-1.09a37.18 37.18 0 0 0 -6-4.3h-.51c-.51 0 0 .66 0 2.55a14.59 14.59 0 0 1 -1.39 6.63c-.58 1-.65.8 0 0a10.22 10.22 0 0 0 .37-4c0-5.69-.66-7.29-4.59-9.33l-3.66-1.88-1.75-.8a28.74 28.74 0 0 1 5.46 1.6c2.26 1 2.62 1 2.91 1a5.61 5.61 0 0 0 -.14-2.52z"/><path d="m86.05 76a23.18 23.18 0 0 1 -4.05-14v-1.33h.65a16.84 16.84 0 0 1 4.16 1.61c2.62 1.52 3.78 3.71 4.87 9a14.76 14.76 0 0 0 .95 4 29.31 29.31 0 0 0 2.77 5c.73 1 0 1.53-1.38 1.45a13.45 13.45 0 0 1 -7.97-5.73z"/><path d="m128.58 104.3c-12.89-5.17-17.48-9.4-17.48-17.3v-2l1.09.8a26.28 26.28 0 0 0 13.7 4.2 57.26 57.26 0 0 1 10 2 19 19 0 0 1 13.84 15.15 27.89 27.89 0 0 1 0 8.16 16.85 16.85 0 0 1 -2 4.66v-.8a10.32 10.32 0 0 0 -3.78-7.28 51.44 51.44 0 0 0 -15.37-7.59z"/><path d="m119.48 106.49a21.88 21.88 0 0 0 -.66-2.77v-1l.58.66a11.76 11.76 0 0 1 2.12 3.78 8.68 8.68 0 0 1 .43 3.65 9.35 9.35 0 0 1 -.43 3.56 11.22 11.22 0 0 1 -2.77 4.3 15.56 15.56 0 0 1 -9.75 4.33l-4.95.44a35.28 35.28 0 0 0 -11.05 1.84h-.81a18.59 18.59 0 0 1 3.5-2 37.51 37.51 0 0 1 9.76-2.63 37.36 37.36 0 0 0 5.83-1.16 11.29 11.29 0 0 0 8.2-13z"/><path d="m125.38 116.75a14.87 14.87 0 0 1 -1.17-10.48c0-.37 0-.66.37-.66a2.53 2.53 0 0 1 .94.44c.73.51 2.41 1.45 6.56 3.71a34.52 34.52 0 0 1 10.34 7.29 16.38 16.38 0 0 1 3.42 7.93 25 25 0 0 1 0 7.73 19.32 19.32 0 0 1 -9.76 13.18 5.44 5.44 0 0 1 -1.38.65 11.86 11.86 0 0 1 .58-1.38 12.87 12.87 0 0 0 .66-10.12 42.42 42.42 0 0 0 -5.25-9.33 58.52 58.52 0 0 1 -5.31-8.96z"/><path d="m76.87 136.86a34.62 34.62 0 0 1 16.24-7.8 23.14 23.14 0 0 1 8.38 0 15 15 0 0 1 8.23 5.25 20.38 20.38 0 0 1 3 8.88 16.82 16.82 0 0 0 .66 3.94 8.42 8.42 0 0 0 2.84 5.17 10 10 0 0 0 9 0 5 5 0 0 1 1.09 0 19.09 19.09 0 0 1 -2.77 1.89 8.7 8.7 0 0 1 -4.66 1.09 9.32 9.32 0 0 1 -7.94-4.88 32.61 32.61 0 0 1 -2.18-4.29c-2.26-5.25-3.43-6.85-6.12-8.6a8.09 8.09 0 0 0 -7.28-.73 5 5 0 0 0 -2.43 6.58 5.23 5.23 0 0 0 .68 1.07 7.3 7.3 0 0 0 3.71 2 4 4 0 0 0 4.49-3.47 4.89 4.89 0 0 0 0-.54 3.12 3.12 0 0 0 -2.19-3.2c-2-.88-4.29 0-4.22 2.18a1.76 1.76 0 0 0 1.16 1.75 2.41 2.41 0 0 1 -1.65-3 2.37 2.37 0 0 1 .85-1.25 4.59 4.59 0 0 1 6.45.73 4.68 4.68 0 0 1 .47.72 7.2 7.2 0 0 1 0 4.45 6 6 0 0 1 -7.28 3.49 10.89 10.89 0 0 1 -5.68-3.79 17.22 17.22 0 0 0 -12.82-5.9h-1.27z"/><path d="m42.64 32.12c15.22 18.43 38.53 47.05 39.69 48.66s.58 2.54-1 3.42a9.83 9.83 0 0 1 -3.71 1 5 5 0 0 1 -3.13-1.31c-.59-.59-3.14-4.3-8.82-13.26-4.37-6.85-8.08-12.16-8.15-12.16a140.93 140.93 0 0 0 7.64 13.69 122.31 122.31 0 0 1 6.7 12.46c0 .87 0 1.31-1.31 2.47a14.62 14.62 0 0 0 -3.13 8.81 27.24 27.24 0 0 1 -7.28 14.57 26.23 26.23 0 0 0 -4.14 5.85 10.6 10.6 0 0 0 -1.31 5.17 17.2 17.2 0 0 0 .8 6.41 23.3 23.3 0 0 0 3.17 6.1 14.29 14.29 0 0 1 2.4 4.73c0 .51 0 .51 2.48 0a25.24 25.24 0 0 0 12.75-6.26 5.71 5.71 0 0 0 2-5 5.4 5.4 0 0 0 -.43-2.69 11.47 11.47 0 0 0 -4.59-4.44 10.49 10.49 0 0 1 -5.39-7.29 12.56 12.56 0 0 1 1.71-7.05 22.57 22.57 0 0 0 2.84-10.27c0-2.7.51-3.86 1.31-4.67a5 5 0 0 1 3.57-1.52 12.22 12.22 0 0 0 7.28-2.92 6.21 6.21 0 0 0 2.19-4.73v-1.55l-.88-.88c-2.9-3.46-45.45-50.11-45.45-50.11s.95 1.24 2.19 2.77zm20 92.57a2.77 2.77 0 0 0 -.88-3.57c-1.09-.72-2.76-.43-2.76.59a.64.64 0 0 0 .51.65c.58 0 .65.59 0 1.31a1.2 1.2 0 0 0 0 1.82 1.88 1.88 0 0 0 2.67 0 2 2 0 0 0 .49-.8z" fill-rule="evenodd"/><path d="m89 90.46a5.73 5.73 0 0 0 -3.5 3.86 5.55 5.55 0 0 0 .37 3.5c.61.87 1.27 1.18 3.13 1.18 3.64 0 6.7-1.6 7.28-3.49a5.09 5.09 0 0 0 -2.91-4.66 6.57 6.57 0 0 0 -4.37-.39zm4.22 3.21a1.46 1.46 0 0 0 -.36-2 1.64 1.64 0 0 0 -.29-.16c-1.75-1.09-4.44 0-4.44 1.53s1.38 1.75 2.69 1.75a3.58 3.58 0 0 0 2.36-1.12z" fill-rule="evenodd"/></g></g></g></g></svg>