<svg viewBox="0 0 200 200" xmlns="http://www.w3.org/2000/svg"><g id="Layer_2" data-name="Layer 2"><g id="Flat_Color" data-name="Flat Color"><g id="UNUS_Sed_Leo_LEO_" data-name="UNUS Sed Leo (LEO)"><circle cx="100" cy="100" fill="#403b5d" r="100"/><g fill="#ffd156"><path d="m73.28 91.94h.09l.8.36.81.27.17.05 15.68 6.75v-.98-1.34-.18-1.08-.71-.63-1.25-1.26-1.34-1.25-1.35-1.25-.09-.09h-.99-.98-.09-1.08-.8-.36-.99-.62-.54-1.07-.27-.81-1.07-.09-.99-.89-.18-1.08-.71-1.97-1.88-.09-1.08l-.8.36-1.97 1.07-1.97.99-1.97.98-1.88.99-1.97 1.07-1.97.99-1.88 1.07-1.97.99-1.97.98-1.88 1.08-1.79.89-.17 28.91 1.96 1.35 1.88 1.43 1.97 1.25 1.97 1.44 1.88 1.34 1.97 1.43.9.63 1.07-1.43 1.88-2.51.18-.27-.18-.18-1.88-1.34-1.97-1.34-1.97-1.35-1.88-1.34-1.97-1.43-.53-.36.18-23.36.35-.27 1.97-.9 1.88-.98 1.97-.99 1.97-.98 1.88-.99 1.97-.98 1.97-.9 1.97-.98z"/><path d="m106.76 147.18-1.61.62-1.88.81-1.79.71-1.79.72-.81.27-.98-.45-1.79-.89-1.88-.9-1.7-.98-1.88-.9-1.79-.8-1.8-.99-1.87-.89-1.8-.9-1.78-.98-1.89-.9-1.7-.89-1.79-.9-.17-.09v-23.63h-1.62-1.88-1.79v26.85l1.79.81 1.88.98 1.79.9 1.79.89 1.7.99 1.89.89 1.78.9 1.8.89 1.87.9 1.8.9 1.79.98 1.88.89 1.7.9 1.88.98 1.79.81.71.45 1.08-.54 1.79-.63 1.79-.8 1.88-.72 1.7-.71 1.88-.72-1.88-4.57z"/><path d="m138.99 114.32.08 11.1-.44.45-3.05 2.06-3.13 2.24-3.04 2.24-3.05 2.14-3.13 2.24-3.04 2.24-3.05 2.15-1.79 1.25-1.25-.89-3.04-2.42-3.14-2.33-3.04-2.33-3.05-2.32-.53-.45v-12l.53-.44 3.05-3.23 3.04-3.22 3.14-3.22 3.04-3.13 2.95-3.14h-2.95-3.04-3.14-3.04-3.05-3.13-3.13-2.96-3.13-3.04-3.05-3.13l3.13 3.22 3.05 3.14 3.04 3.22 3.13 3.22 2.96 3.14.54.44v14.51l2.59 2.14 3.13 2.33 3.05 2.33 3.04 2.42 3.14 2.32 3.04 2.33 1.07.9 1.97-1.44 3.05-2.14 3.04-2.24 3.13-2.15 3.05-2.15 3.04-2.24 3.13-2.23 3.05-2.15 3.13-2.15 2.51-1.88.53-13.7-3.04-.09z"/><path d="m55.02 88.45h.36v-14.86l1.96-1.25 2.51-1.43 2.42-1.52 2.42-1.44 2.41-1.52 2.51-1.52 2.33-1.43 2.5-1.43 2.42-1.53 2.51-1.52 2.32 1.34 2.51 1.35 2.42 1.43 2.41 1.34 2.42 1.35 2.42 1.43 2.41 1.43 2.42 1.34.09-.18 2.42-4.47-2.42-1.35-2.51-1.43-2.41-1.34-2.42-1.34-2.42-1.44-2.41-1.34-2.42-1.34-2.51-1.43-2.32-1.35-.09-.09-2.42 1.44-2.42 1.52-2.5 1.52-2.33 1.52-2.51 1.43-2.41 1.44-2.42 1.52-2.42 1.52-2.51 1.43-2.32 1.52-2.51 1.44-2.33 1.52-.09 17.72h2.42z"/><path d="m148.74 73.86-1.34-.98-1.25-1.08-1.26-.98-1.25-.99-1.34-1.07-1.26-.99-1.25-.98-1.25-1.07-.99-.72-.36.36-1.25 1.61-1.25 1.61-.36.36.36.36 1.25 1.07 1.25 1.07 1.35 1.08 1.25 1.07 1.25 1.08 1.26 1.07 1.34 1.07.63.45.09 23.9-.72.54-1.34.72-1.26.89-1.25.81-1.25.8-1.35.81-1.25.8-1.25.81-1.25.81-1.26.8-1.34.81-1.25.8-1.26.81-1.25.8-1.34.81-1.26.81-1.25.8 1.25 2.06 1.26 1.97.26.36 1.08-.63 1.25-.8 1.26-.81 1.25-.72 1.34-.89 1.26-.72 1.25-.8 1.25-.81 1.25-.8 1.35-.72 1.25-.9 1.25-.71 1.26-.81 1.34-.8 1.25-.81 1.26-.72 1.25-.89 1.34-.72 1.26-.8v-29.27z"/><path d="m90.38 53 1.16.72.81-.45 1.88-.98 1.97-1.08 1.97-.98.71-.36 1.26.63 1.96 1.16 1.88 1.07 1.97 1.17 1.97 1.16 1.97 1.17 1.88 1.16 1.97 1.16 1.88 1.08 1.97 1.16 2.06 1.17 1.88 1.07.63.36v23.09h-.45-.18-.9-.98-.18-1.16-.72-.36-1.07-.54-.62-1.08-.18-.98-.99-.09-1.16-.63-.45-.89-.18v.03l-.09-.03v2.69 1.25 1.35 1.34 1.34 1.34 1.35 1.25 1.07l.45-.18 1.7-.62 1.7-.72 1.7-.72.17-.07 2.28-.92.95-.35 1.7-.71.25-.11 2.17-.87.98-.37 1.71-.71 1.7-.63 1.61-.71v-1.35-.45-3.49-25.96l-1.88-1.25-1.97-1.07-1.97-1.17-1.88-1.16-2.06-1.17-1.97-1.07-1.88-1.16-1.97-1.17-1.88-1.16-1.97-1.08-1.97-1.16-1.97-1.16-1.88-1.17-1.96-1.07-1.08-.63-.89.54-1.97.99-1.97 1.07-1.88 1.07-1.97 1.08-1.97.98-1.97 1.17 1.97 1.07z"/></g></g></g></g></svg>