<svg viewBox="0 0 200 200" xmlns="http://www.w3.org/2000/svg"><g id="Layer_2" data-name="Layer 2"><g id="Flat_Color" data-name="Flat Color"><g id="Wrapped_Bitcoin_WBTC_" data-name="Wrapped Bitcoin (WBTC)"><circle cx="100" cy="100" fill="#fff" r="100"/><g fill="#5a5564"><path d="m163.05 42-5.5 5.44a77.67 77.67 0 0 1 0 104.92l5.5 5.49a85.46 85.46 0 0 0 0-116z"/><path d="m47.57 42.45a77.8 77.8 0 0 1 104.92 0l5.51-5.45a85.6 85.6 0 0 0 -116 0z"/><path d="m42.45 152.43a77.74 77.74 0 0 1 0-104.86l-5.45-5.5a85.68 85.68 0 0 0 0 116z"/><path d="m152.43 157.49a77.67 77.67 0 0 1 -104.92 0l-5.51 5.51a85.55 85.55 0 0 0 116 0z"/></g><path d="m133.24 82.61c-1.08-11-10.51-14.62-22.44-15.75v-15h-9.25v14.8h-7.4v-14.84h-9.15v15.18h-18.65v9.84h6.65a4.83 4.83 0 0 1 5.25 4.06v41.76a3.22 3.22 0 0 1 -1.13 2.27 3.18 3.18 0 0 1 -2.39.84h-6.65l-1.73 11h18.5v15.45h9.3v-15.49h7.4v15.15h9.19v-15.27c15.63-1 26.49-4.78 27.87-19.4a15.75 15.75 0 0 0 -11.88-18.84c-.45-.1-.91-.19-1.37-.25a14.27 14.27 0 0 0 7.88-15.51zm-13 32.81c0 11.46-19.63 10.15-25.9 10.15v-20.35c6.32 0 25.95-1.79 25.95 10.2zm-4.24-28.63c0 10.44-16.36 9.21-21.61 9.21v-18.52c5.25 0 21.61-1.67 21.61 9.31z" fill="#f19242"/><path d="m100 200a100 100 0 1 1 100-100 100 100 0 0 1 -100 100zm0-192.17a92 92 0 1 0 .25 0z" fill="#282138"/></g></g></g></svg>