<?xml version="1.0" encoding="UTF-8"?>
<svg id="Layer_1" data-name="Layer 1" xmlns="http://www.w3.org/2000/svg" xmlns:xlink="http://www.w3.org/1999/xlink" version="1.1" viewBox="0 0 1024 1024">
  <defs>
    <style>
      .cls-1 {
        clip-path: url(#clippath);
      }

      .cls-2 {
        fill: none;
      }

      .cls-2, .cls-3, .cls-4 {
        stroke-width: 0px;
      }

      .cls-3 {
        fill: #02afc1;
      }

      .cls-4 {
        fill: #fff;
        fill-rule: evenodd;
      }
    </style>
    <clipPath id="clippath">
      <path class="cls-2" d="M512,0h0c282.8,0,512,229.2,512,512s-229.2,512-512,512S0,794.8,0,512,229.2,0,512,0Z"/>
    </clipPath>
  </defs>
  <g class="cls-1">
    <g>
      <path class="cls-3" d="M1024,0v1024H0V0h1024Z"/>
      <path class="cls-4" d="M320.6,252h390.3c9.3,0,17.9,5,22.6,13.1l113.7,198c5.9,10.3,4.1,23.2-4.3,31.6l-313,309.8c-10.1,10-26.4,10-36.6,0L180.7,495c-8.6-8.5-10.2-21.9-3.9-32.2l121.5-198.4c4.7-7.7,13.1-12.4,22.2-12.4ZM660.5,340.4v55.6h-111.2v38.5c78.1,4.1,136.7,21,137.1,41.3v42.2c-.4,20.3-59,37.2-137.1,41.3v94.5h-73.8v-94.5c-78.1-4.1-136.7-21-137.1-41.3v-42.2c.4-20.3,59-37.2,137.1-41.3v-38.5h-111.2v-55.6h296.2ZM512.4,530.3c83.3,0,153-14.3,170-33.4-14.5-16.2-66.7-28.9-133.1-32.4v40.3c-11.9.6-24.2,1-36.9,1s-25-.3-36.9-1v-40.3c-66.4,3.5-118.7,16.2-133.1,32.4,17,19.1,86.7,33.4,170,33.4Z"/>
    </g>
  </g>
</svg>