<?xml version="1.0" encoding="UTF-8"?>
<svg id="Layer_1" data-name="Layer 1" xmlns="http://www.w3.org/2000/svg" version="1.1" viewBox="0 0 200 200">
  <defs>
    <style>
      .cls-1 {
        fill: #5e31eb;
      }

      .cls-1, .cls-2 {
        stroke-width: 0px;
      }

      .cls-2 {
        fill: #fff;
      }
    </style>
  </defs>
  <g id="Layer_2" data-name="Layer 2">
    <g id="Flat_Color" data-name="Flat Color">
      <g id="Polygon_MATIC_" data-name="Polygon MATIC ">
        <circle class="cls-1" cx="100" cy="100" r="100"/>
        <path class="cls-2" d="M147.6,95.8l-22.6-13c-1.5-.9-3.4-.9-4.9,0l-40.2,23.2c-1.5.9-3.4.9-4.9,0l-12.8-7.4c-1.5-.9-2.4-2.5-2.4-4.2v-14.8c0-1.7.9-3.3,2.4-4.2l12.8-7.4c1.5-.9,3.4-.9,4.9,0l12.8,7.4c1.5.9,2.4,2.5,2.4,4.2v7.1c0,.7.6,1.2,1.2,1.2.2,0,.4,0,.6-.2l6.7-3.8c.8-.4,1.2-1.2,1.2-2.1v-7.8c0-1.7-.9-3.3-2.4-4.2l-22.6-13c-1.5-.9-3.4-.9-4.9,0l-22.6,13c-1.5.9-2.4,2.5-2.4,4.2v26.1c0,1.7.9,3.3,2.4,4.2l22.6,13c1.5.9,3.4.9,4.9,0l40.2-23.2c1.5-.9,3.4-.9,4.9,0l12.9,7.4c1.5.9,2.4,2.5,2.4,4.2v14.8c0,1.7-.9,3.3-2.4,4.2l-12.8,7.4c-1.5.9-3.4.9-4.9,0l-12.8-7.4c-1.5-.9-2.4-2.5-2.4-4.2v-7.1c0-.7-.6-1.2-1.2-1.2-.2,0-.4,0-.6.2l-6.7,3.9c-.8.4-1.2,1.2-1.2,2.1v7.8c0,1.7.9,3.3,2.4,4.2l22.6,13c1.5.9,3.4.9,4.9,0l22.6-13c1.5-.9,2.4-2.5,2.4-4.2v-26.1c0-1.7-1-3.4-2.5-4.2h0Z"/>
      </g>
    </g>
  </g>
</svg>