<?xml version="1.0" encoding="UTF-8"?>
<svg id="Layer_1" data-name="Layer 1" xmlns="http://www.w3.org/2000/svg" version="1.1" viewBox="0 0 200 200">
  <defs>
    <style>
      .cls-1 {
        fill: #ff8f00;
      }

      .cls-1, .cls-2 {
        stroke-width: 0px;
      }

      .cls-2 {
        fill: #fff;
      }
    </style>
  </defs>
  <g id="Layer_2" data-name="Layer 2">
    <g id="Flat_Color" data-name="Flat Color">
      <g id="Bitcoin_BTC_" data-name="Bitcoin BTC ">
        <circle class="cls-1" cx="100" cy="100" r="100"/>
        <path class="cls-2" d="M137.1,90.8c1.7-10.9-6.5-16.8-17.8-20.8l3.7-14.6-9-2.3-3.7,14.3-7.2-1.8,3.7-14.3-8.8-2.3-3.8,14.7-18.1-4.6-2.4,9.5,6.5,1.7c2.5.4,4.3,2.7,4.1,5.2l-10.4,40.5c-.3.8-.9,1.5-1.7,1.9-.8.4-1.7.5-2.5.2l-6.5-1.7-4.4,10.2,17.9,4.6-3.8,15,9,2.3,3.8-15,7.2,1.8-3.8,14.6,8.9,2.3,3.8-14.8c15.4,3,26.8,2,31.8-11.8,4-7.7.9-17.2-6.8-21.2-.4-.2-.8-.4-1.3-.6,6.3-1.2,11.1-6.6,11.5-13h.1ZM116.4,119.4c-2.8,11.1-21.5,5-27.6,3.4l5.1-19.7c6.1,1.6,25.5,4.7,22.6,16.3h0ZM119.4,90.6c-2.6,10.1-18.1,4.8-23.2,3.5l4.6-17.9c5,1.3,21.3,3.8,18.6,14.4h0Z"/>
      </g>
    </g>
  </g>
</svg>