<?xml version="1.0" encoding="UTF-8"?>
<svg id="Layer_1" data-name="Layer 1" xmlns="http://www.w3.org/2000/svg" version="1.1" viewBox="0 0 200 200">
  <defs>
    <style>
      .cls-1 {
        fill: #1a5de5;
      }

      .cls-1, .cls-2 {
        stroke-width: 0px;
      }

      .cls-2 {
        fill: #fff;
      }
    </style>
  </defs>
  <g id="Layer_2" data-name="Layer 2">
    <g id="Flat_Color" data-name="Flat Color">
      <g id="USD_Coin_USDC_" data-name="USD Coin USDC ">
        <circle class="cls-1" cx="100" cy="100" r="100"/>
        <g>
          <path class="cls-2" d="M125.9,113.9c0-13.7-8.2-18.4-24.5-20.3-11.7-1.6-14-4.7-14-10.2s3.9-9,11.7-9c5.8-.9,11.3,2.6,12.9,8.2.4,1.2,1.5,2,2.8,2h6.1c1.5,0,2.7-1.2,2.7-2.6v-.2c-1.5-8.7-8.7-15.3-17.5-16v-9.7c0-1.5-1.2-2.7-3.1-3.1h-6.1c-1.5,0-2.7,1.2-3.1,3.1v9c-10.4.4-18.7,8.7-19.1,19.1,0,12.9,7.8,18,24.2,19.9,10.9,1.9,14.5,4.3,14.5,10.5s-5.5,10.6-12.9,10.6-13.7-4.3-14.8-10.1c-.2-1.3-1.4-2.3-2.8-2.3h-6.4c-1.5,0-2.7,1.1-2.7,2.6,0,0,0,0,0,0v.5c1.5,10.5,10.2,18.4,20.8,18.8v9.4c0,1.5,1.2,2.7,3.1,3.1h6.1c1.7,0,3-1.4,3.1-3.1v-9.4c10.8-1,19.2-9.8,19.5-20.7h-.4Z"/>
          <path class="cls-2" d="M80.1,154.6c-30.3-10.9-46.1-44.4-35.1-74.8,5.9-16.4,18.8-29.2,35.1-35.1,1.5-.7,2.5-2.3,2.3-3.9v-5.3c0-1.4-.9-2.7-2.3-3.1-.6,0-1.1,0-1.6.4-37,11.8-57.4,51.3-45.6,88.2,6.9,21.7,23.9,38.7,45.6,45.6,1.1.7,2.6.3,3.3-.9.1-.2.2-.5.3-.8.4-.4.4-.7.4-1.5v-5.5c-.2-1.5-1.1-2.8-2.3-3.6ZM121.5,32.8c-1.1-.7-2.5-.3-3.2.8-.1.2-.2.5-.3.8-.4.4-.4.8-.4,1.6v5.5c.1,1.6,1,3,2.3,3.9,30.3,11.1,45.9,44.6,34.8,74.9-5.9,16.2-18.6,28.9-34.8,34.8-1.5.7-2.5,2.3-2.3,3.9v5.5c-.1,1.5.9,2.8,2.3,3.1.5,0,1.1-.1,1.5-.4,37.1-11.9,57.5-51.6,45.6-88.7-7-21.6-23.9-38.6-45.6-45.6h0Z"/>
        </g>
      </g>
    </g>
  </g>
</svg>