<?xml version="1.0" encoding="UTF-8"?>
<svg id="Layer_1" data-name="Layer 1" xmlns="http://www.w3.org/2000/svg" version="1.1" viewBox="0 0 200 200">
  <defs>
    <style>
      .cls-1 {
        fill: #ff0e12;
      }

      .cls-1, .cls-2 {
        stroke-width: 0px;
      }

      .cls-2 {
        fill: #fff;
      }
    </style>
  </defs>
  <g id="Layer_2" data-name="Layer 2">
    <g id="Flat_Color" data-name="Flat Color">
      <g id="Tron_TRX_" data-name="Tron TRX ">
        <circle class="cls-1" cx="100" cy="100" r="100"/>
        <path class="cls-2" d="M150,86.4c-5-4.6-11.9-11.7-17.6-16.7l-.3-.3c-.6-.4-1.2-.8-1.9-1-13.6-2.5-76.9-14.4-78.1-14.2-.4.1-.7.3-.9.5h-.3c-.4.4-.7.8-.8,1.4v1.4c7.1,19.9,35.3,84.8,40.8,100.1.3,1,.9,3,2.1,3.1h.3c.7,0,3.3-3.5,3.3-3.5,0,0,48.2-58.3,53.1-64.3.6-.8,1.2-1.6,1.6-2.4.4-1.5-.1-3.1-1.3-4h0ZM108.8,93.2l20.7-17.1,12,11.3-32.7,5.8ZM100.8,92.1l-35.5-29.1,57.4,10.9-21.9,18.2ZM104,99.8l36.4-5.9-41.5,50.1,5.2-44.3ZM60.5,65.9l37.3,31.7-5.4,46.4-31.9-78.1Z"/>
      </g>
    </g>
  </g>
</svg>