<?xml version="1.0" encoding="UTF-8"?>
<svg id="UpFinance-Logotype" xmlns="http://www.w3.org/2000/svg" xmlns:xlink="http://www.w3.org/1999/xlink" version="1.1" viewBox="0 0 1500 300">
  <defs>
    <style>
      .cls-1 {
        fill: url(#linear-gradient);
      }

      .cls-1, .cls-2 {
        stroke-width: 0px;
      }

      .cls-2 {
        fill: #fff;
      }
    </style>
    <linearGradient id="linear-gradient" x1="224.97" y1="300" x2="224.97" y2="0" gradientUnits="userSpaceOnUse">
      <stop offset="0" stop-color="#fff" stop-opacity=".1"/>
      <stop offset="1" stop-color="#fff"/>
    </linearGradient>
  </defs>
  <g id="Logomark">
    <rect class="cls-2" x="-.03" width="150" height="150"/>
    <rect class="cls-1" x="149.97" width="150" height="300"/>
  </g>
  <g>
    <path class="cls-2" d="M434.41,158.69v-94.16h34.76v96.14c0,18.7,12.98,30.14,30.14,30.14s29.7-11.44,29.7-29.92v-96.36h34.76v94.38c0,36.74-26.18,63.36-64.46,63.36s-64.9-26.84-64.9-63.58Z"/>
    <path class="cls-2" d="M588.19,112.93h33.66v7.48c7.26-5.94,17.16-9.68,27.94-9.68,30.36,0,52.14,23.76,52.14,55.66s-21.78,55.66-52.14,55.66c-11,0-21.12-3.52-28.38-9.46v52.36h-33.22V112.93ZM667.83,166.39c0-14.96-9.9-25.3-23.98-25.3s-23.98,10.34-23.98,25.3,9.68,25.3,23.98,25.3,23.98-10.56,23.98-25.3Z"/>
    <path class="cls-2" d="M722.16,64.53h107.58v29.7h-73.04v34.98h69.52v29.7h-69.52v60.94h-34.54V64.53Z"/>
    <path class="cls-2" d="M847.56,79.71c0-10.34,7.7-18.48,18.26-18.48s18.04,8.14,18.04,18.48-7.48,18.48-18.04,18.48-18.26-8.14-18.26-18.48ZM848.88,112.93h33.66v106.92h-33.66v-106.92Z"/>
    <path class="cls-2" d="M906.3,112.93h33.66v8.58c7.48-6.82,18.04-10.78,29.92-10.78,23.54,0,40.7,18.7,40.7,40.7v68.42h-33.66v-60.94c0-11.22-7.7-18.7-18.26-18.7s-18.7,7.48-18.7,18.7v60.94h-33.66v-106.92Z"/>
    <path class="cls-2" d="M1025.54,166.39c0-31.9,21.78-55.66,51.26-55.66,11.88,0,22.22,4.18,29.48,11v-8.8h33v106.92h-33v-8.8c-7.26,6.82-17.6,11-29.48,11-29.48,0-51.26-23.76-51.26-55.66ZM1107.6,166.39c0-14.96-9.68-25.3-23.76-25.3s-24.2,10.56-24.2,25.3,10.12,25.3,23.98,25.3,23.98-10.34,23.98-25.3Z"/>
    <path class="cls-2" d="M1163.03,112.93h33.66v8.58c7.48-6.82,18.04-10.78,29.92-10.78,23.54,0,40.7,18.7,40.7,40.7v68.42h-33.66v-60.94c0-11.22-7.7-18.7-18.26-18.7s-18.7,7.48-18.7,18.7v60.94h-33.66v-106.92Z"/>
    <path class="cls-2" d="M1281.83,166.39c0-31.9,25.52-55.88,59.18-55.88,16.5,0,30.8,5.94,41.58,17.16l-21.56,21.56c-4.84-5.5-11.44-8.14-20.02-8.14-14.3,0-24.86,10.12-24.86,25.08s10.56,25.52,24.86,25.52c9.02,0,15.62-3.08,20.68-8.8l21.34,21.56c-11.22,11.66-25.3,17.82-42.46,17.82-33.22,0-58.74-23.98-58.74-55.88Z"/>
    <path class="cls-2" d="M1388.31,166.39c0-31.9,24.86-55.88,57.42-55.88s53.9,22.44,53.9,53.46c0,3.96-.44,7.92-1.54,13.42l-76.56.22c3.52,11.88,12.76,18.7,26.4,18.7,10.56,0,19.14-3.52,25.52-11l18.48,18.48c-10.56,12.32-25.74,18.48-43.78,18.48-34.76,0-59.84-23.32-59.84-55.88ZM1421.53,154.51l46.64-.22c-2.64-11.88-10.12-18.04-22.22-18.04s-21.12,6.82-24.42,18.26Z"/>
  </g>
</svg>