<?xml version="1.0" encoding="UTF-8"?>
<svg id="UpFinance-Logotype" xmlns="http://www.w3.org/2000/svg" xmlns:xlink="http://www.w3.org/1999/xlink" version="1.1" viewBox="0 0 1500 300">
  <defs>
    <style>
      .cls-1 {
        fill: url(#linear-gradient);
      }

      .cls-1, .cls-2 {
        stroke-width: 0px;
      }

      .cls-2 {
        fill: #000;
      }
    </style>
    <linearGradient id="linear-gradient" x1="225" y1=".7" x2="225" y2="300.7" gradientTransform="translate(0 300.7) scale(1 -1)" gradientUnits="userSpaceOnUse">
      <stop offset="0" stop-color="#000" stop-opacity=".1"/>
      <stop offset="1" stop-color="#000"/>
    </linearGradient>
  </defs>
  <g id="Logomark">
    <rect class="cls-2" x="0" y="0" width="150" height="150"/>
    <rect class="cls-1" x="150" y="0" width="150" height="300"/>
  </g>
  <g>
    <path class="cls-2" d="M434.4,158.7v-94.2h34.8v96.1c0,18.7,13,30.1,30.1,30.1s29.7-11.4,29.7-29.9v-96.4h34.8v94.4c0,36.7-26.2,63.4-64.5,63.4s-64.9-26.8-64.9-63.6h0Z"/>
    <path class="cls-2" d="M588.2,112.9h33.7v7.5c7.3-5.9,17.2-9.7,27.9-9.7,30.4,0,52.1,23.8,52.1,55.7s-21.8,55.7-52.1,55.7-21.1-3.5-28.4-9.5v52.4h-33.2V112.9h0ZM667.8,166.4c0-15-9.9-25.3-24-25.3s-24,10.3-24,25.3,9.7,25.3,24,25.3,24-10.6,24-25.3Z"/>
    <path class="cls-2" d="M722.2,64.5h107.6v29.7h-73v35h69.5v29.7h-69.5v60.9h-34.5V64.5h0Z"/>
    <path class="cls-2" d="M847.6,79.7c0-10.3,7.7-18.5,18.3-18.5s18,8.1,18,18.5-7.5,18.5-18,18.5-18.3-8.1-18.3-18.5ZM848.9,112.9h33.7v106.9h-33.7v-106.9Z"/>
    <path class="cls-2" d="M906.3,112.9h33.7v8.6c7.5-6.8,18-10.8,29.9-10.8,23.5,0,40.7,18.7,40.7,40.7v68.4h-33.7v-60.9c0-11.2-7.7-18.7-18.3-18.7s-18.7,7.5-18.7,18.7v60.9h-33.7v-106.9Z"/>
    <path class="cls-2" d="M1025.5,166.4c0-31.9,21.8-55.7,51.3-55.7s22.2,4.2,29.5,11v-8.8h33v106.9h-33v-8.8c-7.3,6.8-17.6,11-29.5,11-29.5,0-51.3-23.8-51.3-55.7h0ZM1107.6,166.4c0-15-9.7-25.3-23.8-25.3s-24.2,10.6-24.2,25.3,10.1,25.3,24,25.3,24-10.3,24-25.3Z"/>
    <path class="cls-2" d="M1163,112.9h33.7v8.6c7.5-6.8,18-10.8,29.9-10.8,23.5,0,40.7,18.7,40.7,40.7v68.4h-33.7v-60.9c0-11.2-7.7-18.7-18.3-18.7s-18.7,7.5-18.7,18.7v60.9h-33.7v-106.9Z"/>
    <path class="cls-2" d="M1281.8,166.4c0-31.9,25.5-55.9,59.2-55.9s30.8,5.9,41.6,17.2l-21.6,21.6c-4.8-5.5-11.4-8.1-20-8.1-14.3,0-24.9,10.1-24.9,25.1s10.6,25.5,24.9,25.5,15.6-3.1,20.7-8.8l21.3,21.6c-11.2,11.7-25.3,17.8-42.5,17.8-33.2,0-58.7-24-58.7-55.9h0Z"/>
    <path class="cls-2" d="M1388.3,166.4c0-31.9,24.9-55.9,57.4-55.9s53.9,22.4,53.9,53.5-.4,7.9-1.5,13.4l-76.6.2c3.5,11.9,12.8,18.7,26.4,18.7s19.1-3.5,25.5-11l18.5,18.5c-10.6,12.3-25.7,18.5-43.8,18.5-34.8,0-59.8-23.3-59.8-55.9h0ZM1421.5,154.5l46.6-.2c-2.6-11.9-10.1-18-22.2-18s-21.1,6.8-24.4,18.3Z"/>
  </g>
</svg>