<?xml version="1.0" encoding="UTF-8"?> <!-- Generator: Adobe Illustrator 25.4.1, SVG Export Plug-In . SVG Version: 6.00 Build 0) --> <svg xmlns="http://www.w3.org/2000/svg" xmlns:xlink="http://www.w3.org/1999/xlink" version="1.1" id="Layer_1" x="0px" y="0px" viewBox="0 0 481.9 311.4" style="enable-background:new 0 0 481.9 311.4;" xml:space="preserve"> <style type="text/css"> .st0{fill:#FFFFFF;} .st1{fill:#FF5000;} </style> <g> <g> <g> <path class="st0" d="M245.8,310.8h-3l9.8-25.7h3.5l9.8,25.7h-3.5l-2.9-7.8h-10.7L245.8,310.8z M249.7,300.4h8.9l-4.4-11.7h-0.2 L249.7,300.4z"></path> <path class="st0" d="M276.7,285.2l7.9,22.1h0.1l7.8-22.1h3l-9.4,25.7h-3.6l-9.4-25.7H276.7z"></path> <path class="st0" d="M298.8,285.8c0.3-0.3,0.8-0.5,1.3-0.5c0.5,0,1,0.2,1.4,0.5c0.4,0.3,0.5,0.7,0.5,1.2c0,0.5-0.2,0.9-0.5,1.3 c-0.4,0.3-0.8,0.5-1.4,0.5s-1-0.2-1.3-0.5c-0.3-0.3-0.5-0.7-0.5-1.3C298.3,286.6,298.5,286.2,298.8,285.8z M301.7,310.8h-3v-19.1 h3V310.8z"></path> <path class="st0" d="M306.3,295.4c0.1-0.5,0.3-0.9,0.5-1.3c0.2-0.4,0.5-0.7,0.8-1c0.3-0.3,0.7-0.6,1.1-0.8 c0.4-0.2,0.8-0.4,1.3-0.6c0.5-0.2,1-0.3,1.5-0.4c0.5-0.1,1.1-0.1,1.7-0.1c1.2,0,2.2,0.1,3.1,0.3c0.9,0.2,1.6,0.5,2.1,0.7l0.1,2.7 h-0.1c-0.2-0.1-0.3-0.2-0.6-0.3c-0.2-0.1-0.4-0.2-0.7-0.3c-0.3-0.1-0.5-0.2-0.8-0.3c-0.3-0.1-0.5-0.2-0.8-0.2 c-0.3-0.1-0.6-0.1-0.9-0.2c-0.3,0-0.6-0.1-0.9-0.1c-0.3,0-0.5,0-0.8,0c-1.3,0-2.3,0.2-3,0.6c-0.8,0.4-1.1,1.1-1.1,2.2 c0,1,0.4,1.7,1.1,2.1c0.7,0.4,1.8,0.8,3.2,1.2c0.4,0.1,0.8,0.2,1.2,0.4c0.4,0.1,0.8,0.2,1.1,0.4c0.3,0.2,0.7,0.2,1,0.4 c0.3,0.1,0.6,0.3,0.9,0.4c0.3,0.2,0.5,0.3,0.8,0.5c0.2,0.2,0.4,0.4,0.6,0.6c0.2,0.2,0.3,0.5,0.5,0.8c0.1,0.3,0.2,0.6,0.3,0.9 s0.1,0.7,0.1,1.2c0,2-0.6,3.5-1.9,4.5c-1.3,1-3.1,1.5-5.3,1.5c-1.3,0-2.5-0.1-3.6-0.4c-1.1-0.3-2-0.7-2.8-1.1l-0.1-2.8h0.1 c0.8,0.7,1.8,1.2,3,1.6c1.2,0.4,2.4,0.5,3.5,0.5c1.5,0,2.6-0.2,3.4-0.7c0.7-0.5,1.1-1.3,1.1-2.4c0-1-0.4-1.8-1.2-2.1 c-0.8-0.4-2-0.8-3.5-1.3c-0.4-0.1-0.8-0.2-1.1-0.3c-0.4-0.1-0.7-0.2-1-0.3c-0.3-0.1-0.6-0.2-0.9-0.4c-0.3-0.1-0.6-0.3-0.9-0.4 c-0.3-0.1-0.5-0.3-0.7-0.5s-0.4-0.4-0.6-0.6c-0.2-0.2-0.3-0.5-0.4-0.8c-0.1-0.3-0.2-0.6-0.3-1c-0.1-0.4-0.1-0.8-0.1-1.2 C306.1,296.4,306.2,295.9,306.3,295.4z"></path> <path class="st0" d="M323.8,293c0.7-0.5,1.6-0.9,2.7-1.3c1.1-0.3,2.3-0.5,3.5-0.5c2.4,0,4.3,0.5,5.5,1.5c1.2,1,1.8,2.6,1.8,4.8 v13.3h-2.9v-3.7h-0.1c-0.5,1.4-1.3,2.5-2.3,3.1c-1,0.7-2.3,1-3.9,1c-0.4,0-0.8,0-1.2-0.1c-0.4-0.1-0.7-0.1-1.1-0.3 c-0.3-0.1-0.7-0.3-1-0.4c-0.3-0.2-0.6-0.4-0.9-0.6c-0.3-0.2-0.5-0.5-0.7-0.8c-0.2-0.3-0.4-0.6-0.6-0.9c-0.2-0.3-0.3-0.7-0.4-1.1 c-0.1-0.4-0.1-0.8-0.1-1.3c0-1.8,0.6-3.1,1.7-4c1.1-0.8,2.7-1.4,4.6-1.7c1.6-0.3,2.8-0.5,3.8-0.8c1-0.2,1.6-0.5,2-0.9v-0.9 c0-1.4-0.3-2.4-1-3c-0.6-0.6-1.8-1-3.6-1c-1.1,0-2.2,0.2-3.3,0.6c-1.1,0.4-2.1,1-3,1.7h-0.1L323.8,293z M334.3,300.5 c-0.4,0.3-1,0.6-1.9,0.8c-0.9,0.3-2,0.5-3.4,0.7c-1.1,0.2-2.1,0.5-2.8,1c-0.7,0.5-1.1,1.4-1.1,2.6c0,1.1,0.3,2,1,2.6 s1.6,0.8,2.7,0.8c0.4,0,0.8,0,1.2-0.1s0.7-0.2,1.1-0.3c0.3-0.1,0.6-0.3,0.9-0.5c0.3-0.2,0.5-0.4,0.8-0.6c0.2-0.2,0.4-0.5,0.6-0.7 c0.2-0.3,0.3-0.5,0.4-0.8c0.1-0.3,0.2-0.5,0.3-0.8c0.1-0.3,0.1-0.5,0.1-0.8v-3.9H334.3z"></path> <path class="st0" d="M348.3,290.1c0.1-0.5,0.3-1,0.5-1.4c0.2-0.4,0.5-0.8,0.8-1.2c0.3-0.4,0.6-0.7,1-1c0.4-0.3,0.8-0.6,1.3-0.8 c0.5-0.2,0.9-0.4,1.5-0.6c0.5-0.1,1-0.3,1.6-0.3s1.1-0.1,1.7-0.1c1.8,0,3.3,0.2,4.5,0.6c1.1,0.4,2,0.8,2.5,1.2l0.2,3.3h-0.1 c-0.8-0.7-1.8-1.3-3.2-1.8s-2.7-0.7-4.1-0.7c-1.6,0-2.8,0.3-3.9,0.8c-1,0.6-1.5,1.5-1.5,2.9c0,0.4,0,0.8,0.1,1.1 c0.1,0.3,0.2,0.6,0.3,0.9c0.1,0.3,0.3,0.5,0.5,0.7c0.2,0.2,0.4,0.4,0.7,0.6c0.3,0.2,0.6,0.3,0.9,0.5c0.3,0.2,0.7,0.3,1,0.4 c0.4,0.1,0.8,0.3,1.2,0.4c0.4,0.1,0.9,0.3,1.3,0.4c0.5,0.1,0.9,0.3,1.3,0.4c0.4,0.1,0.9,0.2,1.3,0.4c0.4,0.1,0.8,0.3,1.2,0.4 c0.4,0.2,0.7,0.3,1.1,0.5c0.3,0.2,0.7,0.4,1,0.6s0.6,0.4,0.8,0.7c0.2,0.3,0.5,0.5,0.7,0.9c0.2,0.3,0.4,0.7,0.5,1 c0.1,0.4,0.3,0.8,0.3,1.2c0,0.4,0.1,0.9,0.1,1.5c0,2.5-0.8,4.4-2.5,5.7c-1.7,1.3-4,2-6.9,2c-1.5,0-3-0.2-4.5-0.6 c-1.5-0.4-2.7-1-3.7-1.6l-0.2-3.3h0.1c1.1,0.9,2.4,1.7,4,2.2c1.5,0.5,3,0.8,4.6,0.8c2,0,3.5-0.4,4.5-1.1s1.5-1.8,1.5-3.3 c0-1.6-0.5-2.7-1.6-3.3c-1.1-0.7-2.6-1.3-4.7-1.8c-0.4-0.1-0.9-0.2-1.3-0.4c-0.4-0.2-0.8-0.3-1.2-0.4c-0.4-0.1-0.8-0.3-1.1-0.4 c-0.4-0.2-0.7-0.3-1.1-0.5c-0.3-0.2-0.7-0.4-0.9-0.6c-0.3-0.2-0.6-0.5-0.8-0.7c-0.2-0.3-0.5-0.5-0.7-0.9c-0.2-0.3-0.4-0.7-0.5-1 c-0.1-0.4-0.2-0.8-0.3-1.2s-0.1-0.9-0.1-1.4C348.1,291.1,348.2,290.6,348.3,290.1z"></path> <path class="st0" d="M379.7,291.4c0.6,0.1,1.1,0.2,1.7,0.4c0.5,0.2,1,0.4,1.5,0.7c0.5,0.3,0.9,0.6,1.3,1c0.4,0.4,0.8,0.8,1.1,1.2 c0.3,0.4,0.6,0.9,0.9,1.4c0.3,0.5,0.5,1,0.7,1.6s0.3,1.1,0.4,1.7c0.1,0.6,0.1,1.2,0.1,1.9s0,1.3-0.1,1.9s-0.2,1.2-0.4,1.7 c-0.2,0.6-0.4,1.1-0.7,1.6c-0.3,0.5-0.6,1-0.9,1.4c-0.3,0.4-0.7,0.8-1.1,1.2c-0.4,0.4-0.9,0.7-1.3,1c-0.5,0.3-1,0.5-1.5,0.7 c-0.5,0.2-1.1,0.3-1.7,0.4c-0.6,0.1-1.2,0.2-1.8,0.2s-1.2-0.1-1.8-0.2s-1.1-0.2-1.7-0.4c-0.5-0.2-1-0.4-1.5-0.7s-0.9-0.6-1.3-1 c-0.4-0.4-0.8-0.8-1.1-1.2c-0.3-0.4-0.6-0.9-0.9-1.4c-0.3-0.5-0.5-1-0.7-1.6c-0.2-0.6-0.3-1.1-0.4-1.7c-0.1-0.6-0.1-1.2-0.1-1.9 s0-1.3,0.1-1.9c0.1-0.6,0.2-1.2,0.4-1.7c0.2-0.6,0.4-1.1,0.7-1.6c0.3-0.5,0.6-1,0.9-1.4c0.3-0.4,0.7-0.8,1.1-1.2 c0.4-0.4,0.9-0.7,1.3-1c0.5-0.3,1-0.5,1.5-0.7c0.5-0.2,1.1-0.3,1.7-0.4c0.6-0.1,1.2-0.2,1.8-0.2 C378.5,291.3,379.1,291.3,379.7,291.4z M382.6,306.8c1.1-1.3,1.6-3.2,1.6-5.5s-0.5-4.2-1.6-5.5s-2.7-2-4.8-2s-3.7,0.7-4.8,2 c-1.1,1.3-1.6,3.2-1.6,5.5s0.5,4.2,1.6,5.5c1.1,1.3,2.7,2,4.8,2S381.5,308.1,382.6,306.8z"></path> <path class="st0" d="M394.1,284.1v26.7h-3v-26.7H394.1z"></path> <path class="st0" d="M407.9,308.6c0.4-0.1,0.7-0.2,1.1-0.3c0.3-0.1,0.7-0.3,1-0.4c0.3-0.2,0.6-0.4,0.9-0.6 c0.3-0.2,0.5-0.5,0.7-0.8c0.2-0.3,0.4-0.6,0.5-0.9c0.1-0.3,0.3-0.7,0.3-1c0.1-0.4,0.1-0.7,0.1-1.1v-11.7h3v19.1h-2.9v-4h-0.1 c-0.1,0.4-0.3,0.8-0.5,1.1c-0.2,0.3-0.4,0.7-0.7,0.9c-0.2,0.3-0.5,0.5-0.8,0.8c-0.3,0.2-0.6,0.4-0.9,0.6 c-0.3,0.2-0.6,0.3-0.9,0.5c-0.3,0.1-0.7,0.2-1,0.3c-0.3,0.1-0.7,0.2-1,0.2c-0.3,0-0.7,0.1-1,0.1c-2.1,0-3.7-0.5-4.9-1.6 c-1.2-1.1-1.8-2.8-1.8-5v-12.9h3v12.3c0,1.6,0.3,2.8,1,3.5c0.7,0.8,1.9,1.1,3.7,1.1C407.1,308.7,407.5,308.7,407.9,308.6z"></path> <path class="st0" d="M425.4,308.2c0.5,0.4,1.2,0.6,2,0.6s1.4-0.1,2-0.2c0.6-0.1,1-0.3,1.4-0.5h0.1l-0.3,2.5 c-0.3,0.2-0.8,0.3-1.5,0.5c-0.7,0.1-1.4,0.2-2.1,0.2c-1.7,0-3-0.4-4-1.2c-1-0.8-1.5-2.1-1.5-3.9v-12H418l0.4-2l3.1-0.4v-4.1 l3-0.4v4.5h5.8l-0.4,2.5h-5.5v11.5C424.6,306.9,424.9,307.7,425.4,308.2z"></path> <path class="st0" d="M433.8,285.8c0.3-0.3,0.8-0.5,1.3-0.5s1,0.2,1.4,0.5s0.5,0.7,0.5,1.2c0,0.5-0.2,0.9-0.5,1.3 c-0.4,0.3-0.8,0.5-1.4,0.5s-1-0.2-1.3-0.5c-0.3-0.3-0.5-0.7-0.5-1.3C433.3,286.6,433.5,286.2,433.8,285.8z M436.7,310.8h-3v-19.1 h3V310.8z"></path> <path class="st0" d="M451.9,291.4c0.6,0.1,1.1,0.2,1.7,0.4c0.5,0.2,1,0.4,1.5,0.7c0.5,0.3,0.9,0.6,1.3,1c0.4,0.4,0.8,0.8,1.1,1.2 c0.3,0.4,0.6,0.9,0.9,1.4c0.3,0.5,0.5,1,0.7,1.6c0.2,0.6,0.3,1.1,0.4,1.7c0.1,0.6,0.1,1.2,0.1,1.9s0,1.3-0.1,1.9 s-0.2,1.2-0.4,1.7c-0.2,0.6-0.4,1.1-0.7,1.6c-0.3,0.5-0.6,1-0.9,1.4c-0.3,0.4-0.7,0.8-1.1,1.2c-0.4,0.4-0.9,0.7-1.3,1 c-0.5,0.3-1,0.5-1.5,0.7c-0.5,0.2-1.1,0.3-1.7,0.4c-0.6,0.1-1.2,0.2-1.8,0.2c-0.6,0-1.2-0.1-1.8-0.2s-1.1-0.2-1.7-0.4 c-0.5-0.2-1-0.4-1.5-0.7c-0.5-0.3-0.9-0.6-1.3-1c-0.4-0.4-0.8-0.8-1.1-1.2c-0.3-0.4-0.6-0.9-0.9-1.4c-0.3-0.5-0.5-1-0.7-1.6 c-0.2-0.6-0.3-1.1-0.4-1.7c-0.1-0.6-0.1-1.2-0.1-1.9s0-1.3,0.1-1.9c0.1-0.6,0.2-1.2,0.4-1.7c0.2-0.6,0.4-1.1,0.7-1.6 c0.3-0.5,0.6-1,0.9-1.4c0.3-0.4,0.7-0.8,1.1-1.2c0.4-0.4,0.9-0.7,1.3-1c0.5-0.3,1-0.5,1.5-0.7c0.5-0.2,1.1-0.3,1.7-0.4 c0.6-0.1,1.2-0.2,1.8-0.2C450.7,291.2,451.3,291.3,451.9,291.4z M454.8,306.8c1.1-1.3,1.6-3.2,1.6-5.5s-0.5-4.2-1.6-5.5 c-1.1-1.3-2.7-2-4.8-2s-3.7,0.7-4.8,2c-1.1,1.3-1.6,3.2-1.6,5.5s0.5,4.2,1.6,5.5c1.1,1.3,2.7,2,4.8,2S453.8,308.1,454.8,306.8z"></path> <path class="st0" d="M468,295.3c-1.1,0.9-1.7,2.2-1.7,3.9v11.7h-3v-19.1h2.9v4.1h0.2c0.1-0.4,0.3-0.8,0.5-1.1 c0.2-0.3,0.4-0.7,0.7-1c0.2-0.3,0.5-0.6,0.8-0.8c0.3-0.2,0.6-0.4,0.9-0.6c0.3-0.2,0.6-0.3,0.9-0.5c0.3-0.1,0.7-0.2,1-0.3 c0.3-0.1,0.7-0.1,1-0.2c0.3,0,0.7-0.1,1-0.1c2.1,0,3.7,0.5,4.9,1.6c1.2,1.1,1.8,2.7,1.8,5v13h-3v-12.2c0-1.6-0.3-2.8-1-3.6 c-0.7-0.8-1.9-1.2-3.7-1.2C470.5,293.9,469.2,294.3,468,295.3z"></path> </g> </g> <g> <path class="st1" d="M176.1,129.7c-27.5,0-49.8-22.3-49.8-49.8l0,0H96.1c0,44.2,35.8,79.9,79.9,79.9L176.1,129.7z"></path> <path class="st1" d="M385.9,79.9C385.9,35.7,350.1,0,306,0v30.2c27.5,0,49.8,22.3,49.8,49.8l0,0L385.9,79.9L385.9,79.9z"></path> <path class="st1" d="M255.9,79.9L255.9,79.9c0-44.2-35.8-79.9-79.9-79.9v30.2c27.5,0,49.8,22.3,49.8,49.8l0,0l0,0 c0,44.2,35.8,79.9,79.9,79.9v-30.2C278.2,129.7,255.9,107.4,255.9,79.9L255.9,79.9"></path> <path class="st0" d="M117.4,209.7l-0.8,10.5c-7,0-11.9,3.3-11.9,8V247H93.3v-36.6h11l0.2,4.4C107.9,211.3,112.6,209.4,117.4,209.7 "></path> <path class="st0" d="M145.4,209.7l-0.8,10.5c-7,0-11.9,3.3-11.9,8V247h-11.4v-36.6h11l0.2,4.4C136,211.3,140.6,209.4,145.4,209.7"></path> <path class="st0" d="M470.5,228.6c-0.5-4.6-4.6-7.9-9.2-7.4c-4.6,0.5-7.9,4.6-7.4,9.2c0.5,4.2,4,7.4,8.3,7.4 c4.6,0,8.3-3.7,8.3-8.3C470.5,229.2,470.5,228.9,470.5,228.6 M481.9,247h-11l-0.2-4.5c-2.6,3.5-6.8,5.4-11.1,5.2 c-9.7,0-17.6-7.9-17.5-17.7c0-0.4,0-0.8,0-1.2c0-11.4,7.8-19.2,17.5-19.2c4.2-0.1,8.1,1.7,10.8,4.9v-20h11.4L481.9,247z"></path> <path class="st0" d="M157.6,225H171c-0.8-4.1-3-6.4-6.8-6.4C160.4,218.6,158.4,220.9,157.6,225 M182.6,232.6h-25.1 c0.2,3.6,3.3,6.3,6.9,6.1c0.1,0,0.2,0,0.3,0c2.8,0.1,5.5-1.2,7.4-3.3l8.9,4.3c-3.7,5.2-9.8,8.2-16.2,8c-11.5,0-19.3-7.4-19.3-18.6 c-0.8-9.9,6.5-18.5,16.4-19.3c0.8-0.1,1.6-0.1,2.3,0c9.7-0.7,18.1,6.6,18.8,16.3c0.1,0.7,0.1,1.4,0,2.1c0,1.5-0.1,3-0.3,4.6"></path> <path class="st0" d="M324.4,219.4c-5.1,0.4-8.8,4.9-8.4,10c0.4,4.5,3.9,8,8.4,8.4c2.8,0.2,5.5-0.9,7.4-3l6.5,7.6 c-3.9,3.6-9.1,5.4-14.3,5.2c-12,0-20-7.6-20-19c0-11.4,8.1-19,20.2-19c4.6,0,9.2,1.5,12.8,4.4l-6.5,7.7 C329,220.2,326.7,219.3,324.4,219.4"></path> <path class="st0" d="M247.7,219.4c-5.1,0.4-8.8,4.9-8.4,10c0.4,4.5,3.9,8,8.4,8.4c2.8,0.2,5.5-0.9,7.4-3l6.5,7.6 c-3.9,3.6-9.1,5.4-14.3,5.2c-12,0-20-7.6-20-19c0-11.4,8.1-19,20.2-19c4.6,0,9.2,1.5,12.8,4.4l-6.5,7.7 C252.1,220.2,250,219.3,247.7,219.4"></path> <rect x="342.8" y="194.5" class="st0" width="11.4" height="52.5"></rect> <path class="st0" d="M299.9,243.1c0,11.6-8.3,19.3-21,19.3c-5.2,0.2-10.3-1.4-14.5-4.5l2.5-9c3.4,2.5,7.5,3.7,11.8,3.6 c5,0.4,9.4-3.4,9.8-8.4c0-0.3,0-0.6,0-0.9c-2.6,2.8-6.3,4.3-10.1,4.2c-7.3,0.2-13.4-5.5-13.6-12.8c0-0.5,0-1,0-1.5v-22.9h11.4 v21.2c-0.3,3.4,2.3,6.4,5.7,6.6c3.4,0.3,6.4-2.3,6.6-5.7c0-0.3,0-0.6,0-0.9v-21.2h11.4V243.1z"></path> <path class="st0" d="M386.8,228.6c-0.5-4.5-4.6-7.8-9.2-7.3c-4.5,0.5-7.8,4.6-7.3,9.2c0.5,4.2,4,7.4,8.2,7.3 c4.6,0,8.3-3.7,8.3-8.3C386.8,229.2,386.8,228.9,386.8,228.6 M358.5,228.6c0-11.4,8.1-19,20.2-19c12.1,0,20,7.6,20,19 c0,11.4-8.1,19-20,19S358.5,240,358.5,228.6"></path> <path class="st0" d="M437.8,210.3v23.3c0,8.4-7.2,14-17.6,14c-10.5,0-17.6-6.4-17.6-16.1v-21.2H414v21.2c-0.3,3.4,2.3,6.4,5.7,6.7 c3.4,0.3,6.4-2.3,6.7-5.7c0-0.3,0-0.6,0-0.9v-21.2L437.8,210.3L437.8,210.3z"></path> <path class="st0" d="M88.7,210.3v23.3c0,8.4-7.2,14-17.6,14s-17.6-6.4-17.6-16.1v-21.2h11.4v21.2c-0.3,3.4,2.3,6.4,5.7,6.7 c3.4,0.3,6.4-2.3,6.7-5.7c0-0.3,0-0.6,0-0.9v-21.2L88.7,210.3L88.7,210.3z"></path> <path class="st0" d="M223.3,224v23h-11.4v-21.2c-0.4-3.8-3.8-6.6-7.7-6.2c-3.3,0.3-5.9,2.9-6.2,6.2V247h-11.4v-36.7h11v4.1 c2.9-3.1,7-4.9,11.3-4.8c7.4-0.5,13.9,5.2,14.3,12.6c0,0.6,0,1.1,0,1.7"></path> <path class="st0" d="M41.4,228.8c-3.1,4.5-8.2,7.2-13.7,7.2C19,236,12,229,12,220.3s7-15.7,15.7-15.7l0,0c5.6,0,10.9,2.8,13.9,7.5 l8.4-7.5c-5.3-7-13.6-11-22.4-11c-14.7-0.5-27,10.9-27.6,25.6c-0.5,14.7,10.9,27,25.6,27.6c0.7,0,1.3,0,2,0 c8.7,0.1,16.9-3.9,22.3-10.8L41.4,228.8z"></path> </g> </g> </svg> 