<?xml version="1.0" encoding="UTF-8"?>
<svg id="layer" xmlns="http://www.w3.org/2000/svg" xmlns:xlink="http://www.w3.org/1999/xlink" version="1.1" viewBox="0 0 246.2 180.4">
  <defs>
    <style>
      .cls-1 {
        clip-path: url(#clippath);
      }

      .cls-2 {
        fill: none;
      }

      .cls-2, .cls-3 {
        stroke-width: 0px;
      }

      .cls-3 {
        fill: url(#radial-gradient);
      }
    </style>
    <clipPath id="clippath">
      <path class="cls-2" d="M228.7,53.8c-6.8,12.7-11.9,20.9-23.5,35.3h0c19.1-12.5,33.2-33.8,39.6-45.8.8-1.6,1.5-3.2,1.5-5V10.7c.1,0,0,0,0,0-3.6,12-10.2,29.5-17.6,43.2M0,0l3.8,42.6c.5,4,2.7,7.5,5.7,10.2,11.2,10.4,40.1,27.5,62.1,39.4h0c-19.7-5.3-47.2-18.5-62.5-28.7h-.1c.2,2.5.7,8,1.2,10.6,2,11.1,11.8,22.7,21.7,28.3,13.4,7.5,19.5,10.1,31.4,14.9h0c-13.6-1.1-23.6-3.9-25.8-4.4q-.1,0-.1.1c13.2,30.7,88.7,33,94.3,32.7,0,0-19.1,12.5-68.4,18.9h-.1c7.3,9.1,13.7,12.8,19.9,11.5,18.3-3.6,39.5-11.7,56.3-22.4h0c-15.7,14.6-36.1,21.7-51.5,26.6h0c27.6.3,47.4-8.9,61.6-15.9.7-.4,1.3.2,1.3.6v8.7c0,.5.5.8,1,.6,25.3-7.5,26.8-.1,26.8-.1h.1c-.3-5.8-3.1-12.1-19.4-13.6h0c1.7-2.8,18.4-15.8,26.5-13.3,6.6,2,6,5.8,4.7,6.6h.1c.8,0,1.5-.3,1.6-.4,2.3-1.2,3.1-4,1.9-6.3-.5-.9-1.3-1.6-2.1-2,2.7-3.5-.2-16.5-17.1-18.2-9.2-1-13.7-.5-15.3-.4h0c2.4-.9,13.6-4,27.6-1,26.9-21.3,50.1-42.4,55.9-51,1.9-2.9,3.1-5.5,3.1-8.6v-14h-.1c-1.3,2.9-8,11.6-20.1,23.3-21.5,20.6-25.8,14.3-34.1,19.8-5.2,3.5-12.5,11.1-20,17.4-7,5.3-14.3,10.1-19.6,10.1-15.7,0-22.1-30.9-55.5-49.8C58.9,51.4,13.8,22.5,0,0h0Z"/>
    </clipPath>
    <radialGradient id="radial-gradient" cx="-430.4" cy="-231.5" fx="-430.4" fy="-231.5" r="3.5" gradientTransform="translate(30510.1 12441) rotate(11) scale(74.7 27.1)" gradientUnits="userSpaceOnUse">
      <stop offset="0" stop-color="#008581"/>
      <stop offset="0" stop-color="#008581"/>
      <stop offset=".2" stop-color="#098984"/>
      <stop offset=".5" stop-color="#23928e"/>
      <stop offset=".8" stop-color="#4ca19d"/>
      <stop offset="1" stop-color="#63a9a5"/>
    </radialGradient>
  </defs>
  <g class="cls-1">
    <polygon class="cls-3" points="8.9 -45.6 279.8 7 237.2 226.6 -33.7 174 8.9 -45.6"/>
  </g>
</svg>