<?xml version="1.0" encoding="UTF-8"?>
<svg id="svg1221" xmlns="http://www.w3.org/2000/svg" xmlns:svg="http://www.w3.org/2000/svg" version="1.1" viewBox="0 0 567 335">
  <defs>
    <style>
      .cls-1 {
        fill: #701b45;
        stroke-width: 0px;
      }
    </style>
  </defs>
  <path id="path655" class="cls-1" d="M198,9.7l-121.1,315.6h250.2L448.2,9.7h-250.2ZM451.7,75.7l-76.8,200.8h30.4l20.8-56h79.1l20.8,56h32.2l-78.7-200.8h-27.8ZM143.3,75.7H9.5v200.8h28.9v-87.9h61.7l9.8-25.6H38.4v-61.4h95.1l9.9-25.9ZM260.1,77c10,0,18.9,1.2,26.8,3.7,7.9,2.4,14.8,5.5,20.8,9.2,5.9,3.7,11,7.7,15.3,12,4.2,4.3,7.7,8.5,10.3,12.4l-19.2,16.4c-2.3-3.2-4.9-6.5-8-10-3.1-3.5-6.8-6.6-11.2-9.5-4.3-2.8-9.3-5.2-15-7.1-5.6-1.9-12.1-2.8-19.5-2.8s-19.6,2-27.8,5.9c-8.2,4-15.2,9.3-20.9,16.1-5.7,6.8-10.1,14.7-13.1,23.7-3,9-4.5,18.6-4.5,28.8s1.6,19.7,4.7,28.7c3.1,8.9,7.5,16.7,13.1,23.3,5.7,6.6,12.5,11.8,20.6,15.5,8.1,3.8,17.1,5.6,27.1,5.6s15.8-1.1,21.9-3.2c6.1-2.2,11.3-4.7,15.5-7.8,4.2-3,7.7-6.1,10.4-9.2,2.7-3.1,5-5.7,6.9-7.8l18.9,15.8c-2.1,3.4-5.3,7.3-9.6,11.6-4.3,4.3-9.6,8.4-15.8,12.3-6.2,3.9-13.4,7.1-21.5,9.7-8.1,2.6-17,4-26.8,4-13.9,0-26.6-2.5-38.1-7.3-11.5-4.9-21.4-11.7-29.7-20.5-8.3-8.8-14.7-19.1-19.3-31.1-4.6-12-6.9-25-6.9-39.1s2.3-26.6,6.9-38.7c4.6-12,11.1-22.6,19.3-31.6,8.3-9,18.2-16.1,29.8-21.3,11.6-5.2,24.4-7.8,38.5-7.8h0ZM465.5,107.9l30.9,88.2h-62l31.1-88.2Z"/>
</svg>