<?xml version="1.0" encoding="utf-8"?>
<!-- Generator: Adobe Illustrator 18.1.1, SVG Export Plug-In . SVG Version: 6.00 Build 0)  -->
<!DOCTYPE svg PUBLIC "-//W3C//DTD SVG 1.1//EN" "http://www.w3.org/Graphics/SVG/1.1/DTD/svg11.dtd">
<svg version="1.1" id="Layer_1" xmlns="http://www.w3.org/2000/svg" xmlns:xlink="http://www.w3.org/1999/xlink" x="0px" y="0px"
	 width="662.2px" height="206.8px" viewBox="0 0 662.2 206.8" enable-background="new 0 0 662.2 206.8" xml:space="preserve">
<g>
	<g>
		<path fill="#444D55" d="M244,80.8c-1.7-0.6-5.3-0.9-8.9-0.9c-10.8,0-22.3,8.7-22.3,19.5v51.3h-24.5V59.1H212v9.2
			c5.5-6.8,15.5-11.1,26.6-11.1c3.6,0,5.7,0.4,8.3,0.8L244,80.8z"/>
		<path fill="#444D55" d="M271.8,11c8.9,0,16,6.8,16,15.7s-7.2,15.7-16,15.7s-16-6.8-16-15.7S262.9,11,271.8,11z M284,150.5h-24.5
			V59.1H284V150.5z"/>
		<path fill="#444D55" d="M356.4,57.2c-10.4,0-19.6,3.4-26.8,9.2v-7.4h-23.6v136.7h24.5v-51.7c7.4,5.7,15.3,8.3,24.5,8.3
			c13.6,0,26.6-6,34.7-15.5c7.2-8.3,11.5-19.6,11.5-32.1C401.3,77.9,381.3,57.2,356.4,57.2z M353.5,130.2
			c-15.2,0-25.2-10.5-25.2-25.2s10-25.2,25.2-25.2c13,0,23.5,11.3,23.5,25.2C377,118.9,366.5,130.2,353.5,130.2z"/>
		<path fill="#444D55" d="M550.1,150.5h-24.5V16.6h24.5V150.5z"/>
		<path fill="#444D55" d="M650.1,136c-8.9,10.6-23.4,16.4-37.5,16.4c-27.3,0-47.9-18.9-47.9-47.5c0-25.5,17.4-47.7,44.5-47.7
			c25.3,0,43.2,21.3,43.2,46.8c0,2.5-0.2,4.9-0.6,7h-63.4c1.3,12.8,11.7,21.7,24.7,21.7c10.4,0,18.7-5.8,23-10.6L650.1,136z
			 M627.3,93c-0.8-8.1-8.1-16-18.1-16c-10.2,0-18.5,7.7-19.6,16H627.3z"/>
		<path fill="#444D55" d="M466.2,57.2c-10.4,0-19.6,3.4-26.8,9.2v-7.4h-23.6v136.7h24.5v-51.7c7.4,5.7,15.3,8.3,24.5,8.3
			c13.6,0,26.6-6,34.7-15.5c7.2-8.3,11.5-19.6,11.5-32.1C511.1,77.9,491.1,57.2,466.2,57.2z M463.2,130.2
			c-15.2,0-25.2-10.5-25.2-25.2s10-25.2,25.2-25.2c13,0,23.5,11.3,23.5,25.2C486.8,118.9,476.2,130.2,463.2,130.2z"/>
	</g>
	<g>
		<g>
			<linearGradient id="SVGID_1_" gradientUnits="userSpaceOnUse" x1="50.5705" y1="45.7015" x2="159.0832" y2="154.2141">
				<stop  offset="0" style="stop-color:#11AAE2"/>
				<stop  offset="1" style="stop-color:#016197"/>
			</linearGradient>
			<path fill="url(#SVGID_1_)" d="M137.9,117.2c-5.5-3.2-11.8-4.1-17.9-4.3c-5.2-0.2-12.9-3.5-12.9-12.9c0-7,5.7-12.7,12.9-12.9
				c6.2-0.2,12.4-1.1,17.9-4.3c10.1-5.8,16.3-16.6,16.3-28.3c0-11.7-6.2-22.5-16.3-28.3c-10.1-5.8-22.6-5.8-32.7,0
				C95,31.9,88.8,42.7,88.8,54.4c0,6.3,2.3,12.2,5.1,17.6c2.4,4.5,3.6,13-4.7,17.8c-6.2,3.6-13.9,1.3-17.7-4.8
				c-3.2-5.2-7.2-10.1-12.7-13.2c-10.1-5.8-22.6-5.8-32.7,0C16.1,77.5,9.9,88.3,9.9,100c0,11.7,6.2,22.5,16.4,28.3
				c10.1,5.8,22.6,5.8,32.7,0c5.5-3.2,9.4-8,12.7-13.2c2.7-4.3,9.3-9.7,17.7-4.9c6.2,3.6,8.1,11.4,4.6,17.8
				c-2.9,5.4-5.1,11.2-5.1,17.6c0,11.7,6.2,22.5,16.3,28.3c10.1,5.8,22.6,5.8,32.7,0c10.1-5.8,16.3-16.6,16.3-28.3
				C154.2,133.9,148,123.1,137.9,117.2z"/>
		</g>
	</g>
</g>
</svg>
