<svg width="80" height="23" viewBox="0 0 80 23" fill="none" xmlns="http://www.w3.org/2000/svg">
<g clip-path="url(#clip0_1803_9802)">
<path d="M20.76 0H1.89C0.85 0 0 0.85 0 1.89V13.24H7.55V7.56H22.65V1.89C22.65 0.85 21.8 0 20.76 0Z" fill="CurrentColor"/>
<path d="M15.1 9.45996V15.14H0V20.82C0 21.86 0.85 22.71 1.89 22.71H20.76C21.8 22.71 22.65 21.86 22.65 20.82V9.46996H15.1V9.45996Z" fill="CurrentColor"/>
<path d="M72.9898 1.90039C74.9898 1.90039 76.5398 2.33039 77.6398 3.20039C78.7398 4.06039 79.2898 5.27039 79.2898 6.82039C79.2898 7.95039 78.9998 8.89039 78.4198 9.62039C77.8398 10.3504 76.9998 10.8404 75.9098 11.0904C78.6398 11.5804 79.9998 13.0604 79.9998 15.5504C79.9998 17.1904 79.4098 18.4804 78.2398 19.4104C77.0698 20.3504 75.3998 20.8104 73.2298 20.8104H66.2998V1.90039H72.9898ZM69.2898 9.92039H73.0698C74.0898 9.92039 74.8898 9.68039 75.4498 9.19039C76.0098 8.70039 76.2998 8.04039 76.2998 7.19039C76.2998 6.34039 76.0198 5.68039 75.4498 5.20039C74.8898 4.72039 74.0898 4.48039 73.0698 4.48039H69.2898V9.91039V9.92039ZM69.2898 18.1904H73.2498C74.4298 18.1904 75.3398 17.9404 75.9698 17.4504C76.5998 16.9504 76.9198 16.2704 76.9198 15.3804C76.9198 14.4904 76.5998 13.7504 75.9598 13.2504C75.3198 12.7504 74.4098 12.4904 73.2498 12.4904H69.2898V18.1904Z" fill="CurrentColor"/>
<path d="M63.7799 11.7302V10.4602H55.8599V13.0802H60.9099V13.5402C60.8399 15.0202 60.3199 16.1702 59.3299 17.0002C58.3499 17.8302 57.1299 18.2402 55.6699 18.2402C54.5199 18.2402 53.5199 17.9502 52.6599 17.3602C51.7999 16.7702 51.1399 15.9602 50.6799 14.9302C50.2199 13.8902 49.9899 12.7002 49.9899 11.3502C49.9899 10.0002 50.2199 8.81023 50.6899 7.77023C51.1599 6.73023 51.8199 5.92023 52.6799 5.34023C53.5399 4.75023 54.5399 4.46023 55.6899 4.46023C56.9399 4.46023 57.9999 4.80023 58.8499 5.49023C59.7099 6.17023 60.2899 7.12023 60.5799 8.33023H63.5499C63.2399 6.31023 62.3899 4.71023 60.9999 3.52023C59.6099 2.33023 57.8699 1.74023 55.7599 1.74023C53.9699 1.74023 52.4099 2.14023 51.0699 2.94023C49.7299 3.74023 48.6999 4.87023 47.9799 6.32023C47.2599 7.77023 46.8999 9.45023 46.8999 11.3602C46.8999 13.2702 47.2599 14.9302 47.9899 16.3902C48.7199 17.8502 49.7399 18.9802 51.0399 19.7802C52.3399 20.5802 53.8399 20.9802 55.5199 20.9802C61.1599 20.9802 63.7499 17.7802 63.7499 11.7402L63.7799 11.7302Z" fill="CurrentColor"/>
<path d="M33.3499 14.6C33.4399 15.72 33.9099 16.67 34.7599 17.34C35.6099 18.02 36.7099 18.35 38.0599 18.35C39.2499 18.35 40.2099 18.1 40.9499 17.61C41.6799 17.11 42.0499 16.43 42.0499 15.54C42.0499 14.91 41.8499 14.41 41.4499 14.04C41.0499 13.67 40.5099 13.39 39.8199 13.19C39.1299 12.99 38.1699 12.78 36.9199 12.57C35.6599 12.35 34.5699 12.07 33.6699 11.72C32.7699 11.37 32.0299 10.83 31.4699 10.11C30.8999 9.38996 30.6199 8.43996 30.6199 7.26996C30.6199 6.18996 30.9099 5.22996 31.4999 4.37996C32.0899 3.52996 32.8999 2.87996 33.9499 2.40996C34.9999 1.93996 36.1999 1.70996 37.5599 1.70996C38.9199 1.70996 40.1999 1.95996 41.2999 2.46996C42.3999 2.96996 43.2599 3.66996 43.8899 4.54996C44.5199 5.42996 44.8699 6.43996 44.9199 7.57996H41.7699C41.6599 6.60996 41.2199 5.81996 40.4599 5.22996C39.6999 4.63996 38.7299 4.33996 37.5599 4.33996C36.3899 4.33996 35.5199 4.57996 34.8399 5.05996C34.1599 5.53996 33.8199 6.20996 33.8199 7.06996C33.8199 7.67996 34.0199 8.16996 34.4199 8.52996C34.8199 8.88996 35.3499 9.15996 36.0199 9.33996C36.6899 9.51996 37.6499 9.71996 38.8899 9.92996C40.1499 10.15 41.2399 10.43 42.1499 10.79C43.0599 11.15 43.7999 11.68 44.3799 12.38C44.9599 13.08 45.2399 14.01 45.2399 15.16C45.2399 16.31 44.9299 17.28 44.3199 18.16C43.7099 19.04 42.8499 19.73 41.7499 20.23C40.6499 20.73 39.4099 20.97 38.0099 20.97C36.4699 20.97 35.1099 20.7 33.9399 20.16C32.7699 19.62 31.8499 18.87 31.1899 17.9C30.5299 16.94 30.1899 15.83 30.1699 14.59H33.3199L33.3499 14.6Z" fill="CurrentColor"/>
</g>
<defs>
<clipPath id="clip0_1803_9802">
<rect width="80" height="22.7" fill="white"/>
</clipPath>
</defs>
</svg>