<svg viewBox="0 0 220 32" xmlns="http://www.w3.org/2000/svg" preserveAspectRatio="xMidYMid meet" style="width: 100%; height: auto;">
<g clip-path="url(#clip0_3_12805)">
<path d="M76.985 8.81807L70.6376 3.56832C67.6349 1.0786 58.787 -4.53038 45.0023 7.04682L28.4178 20.975C24.0687 24.6278 17.0588 28.5473 11.3134 23.7813L8.49945 21.4552C8.11119 21.1351 8.10763 20.5411 8.49588 20.2174L23.7659 7.39182C24.0651 7.14285 24.4997 7.13929 24.7989 7.38826C25.9672 8.3557 28.7135 10.6249 28.7277 10.6356C30.9611 12.4744 34.1989 12.4388 36.4144 10.5787L38.7012 8.65802C38.9933 8.4126 38.8116 7.93244 38.4269 7.94667C35.1179 8.07827 33.3191 6.588 32.5497 5.94778L26.1916 0.694477C25.0661 -0.23739 23.4311 -0.230276 22.3127 0.708703L1.12266 18.5066C0.61686 18.9299 0.242856 19.4954 0.0861304 20.1356C-0.191701 21.2845 0.217922 22.4582 1.09416 23.1838L7.44155 28.4335C10.4443 30.9232 19.2921 36.5322 33.0769 24.955L49.6613 11.0268C54.0104 7.37404 61.0239 3.45451 66.7657 8.22054L69.5797 10.5466C69.9679 10.8668 69.9715 11.4607 69.5832 11.7844L54.3132 24.61C54.014 24.859 53.5794 24.8625 53.2802 24.6136C52.1119 23.6461 49.3656 21.3769 49.3514 21.3663C47.1181 19.5274 43.8802 19.563 41.6647 21.4232L39.3779 23.3438C39.0859 23.5892 39.2675 24.0694 39.6522 24.0552C42.9613 23.9236 44.76 25.4138 45.5294 26.054L51.8804 31.3073C53.0059 32.2392 54.6409 32.2321 55.7593 31.2931L76.9493 13.4987C77.4551 13.0755 77.8291 12.51 77.9859 11.8698C78.2637 10.7209 77.8541 9.5472 76.9778 8.82163L76.985 8.81807Z" fill="#00D37E"/>
<path d="M160.769 3.24805H156.801C156.354 3.24805 155.992 3.60952 155.992 4.05543V7.77578C155.992 8.22168 156.354 8.58316 156.801 8.58316H160.769C161.215 8.58316 161.577 8.22168 161.577 7.77578V4.05543C161.577 3.60952 161.215 3.24805 160.769 3.24805Z" fill="currentColor"/>
<path d="M160.824 11.0156H156.742C156.296 11.0156 155.934 11.3771 155.934 11.823V28.0489C155.934 28.4948 156.296 28.8562 156.742 28.8562H160.824C161.271 28.8562 161.633 28.4948 161.633 28.0489V11.823C161.633 11.3771 161.271 11.0156 160.824 11.0156Z" fill="currentColor"/>
<path d="M175.638 23.8939H174.288C172.286 23.8939 171.168 22.7415 171.168 20.5861V13.7572C171.168 13.5794 171.31 13.4371 171.488 13.4371H175.481C175.927 13.4371 176.29 13.0743 176.29 12.6297V9.40018C176.29 8.95559 175.927 8.5928 175.481 8.5928H171.681C171.503 8.5928 171.36 8.45053 171.36 8.2727V3.79832C171.36 3.32527 170.808 3.06918 170.448 3.37506L166.174 6.96382C165.725 7.34083 165.469 7.89213 165.469 8.47543V21.2797C165.469 25.8537 168.048 28.852 173.091 28.852H175.635C176.08 28.852 176.443 28.4892 176.443 28.0446V24.6977C176.443 24.2531 176.08 23.8903 175.635 23.8903L175.638 23.8939Z" fill="currentColor"/>
<path d="M152.005 14.5004C151.759 12.5797 150.975 11.0717 149.661 9.97266C149.568 9.89441 149.476 9.82327 149.379 9.74858C149.351 9.72724 149.319 9.70234 149.287 9.681C149.219 9.63121 149.155 9.58497 149.087 9.53873C149.052 9.51384 149.016 9.48894 148.977 9.46404C148.909 9.42136 148.845 9.37868 148.777 9.336C148.742 9.31466 148.706 9.28976 148.671 9.26842C148.574 9.21151 148.478 9.1546 148.378 9.10125C148.332 9.07636 148.282 9.05146 148.236 9.02656C148.179 8.99811 148.126 8.96965 148.069 8.9412C148.012 8.91275 147.951 8.88429 147.89 8.85584C147.844 8.8345 147.798 8.81316 147.752 8.79182C147.677 8.75981 147.068 8.51083 146.654 8.38991C146.637 8.38635 146.619 8.37923 146.601 8.37568C146.505 8.34722 146.295 8.29387 146.284 8.29032C145.86 8.18361 145.418 8.10181 144.959 8.0449C144.439 7.98088 143.898 7.94531 143.331 7.94531C141.632 7.94531 140.122 8.22274 138.793 8.78115C137.226 9.43914 136.136 10.4457 135.545 11.1037C135.235 11.4487 135.274 11.968 135.63 12.2632L138.209 14.3972C138.537 14.6676 139.014 14.632 139.313 14.3261C142.337 11.2602 146.711 12.3414 146.711 14.8169C146.711 14.9023 146.704 14.9841 146.697 15.0624C146.697 15.0801 146.694 15.0979 146.69 15.1157C146.679 15.1904 146.669 15.2651 146.651 15.3327C146.633 15.4074 146.608 15.4785 146.58 15.5425C146.58 15.5461 146.576 15.5532 146.573 15.5567C146.544 15.6208 146.512 15.6812 146.473 15.7381C146.412 15.8306 146.341 15.9124 146.256 15.98C145.949 16.2325 145.465 16.3855 144.802 16.4388L141.461 16.7554C135.734 17.296 133.543 19.96 133.543 23.3531C133.543 26.042 135.092 27.7101 136.806 28.5175C138.672 29.3996 141.714 29.6165 144.268 28.3005C144.995 27.9271 145.625 27.4718 146.166 26.949C146.416 26.7107 146.715 26.7427 146.715 27.1731V28.0302C146.715 28.4748 147.078 28.8376 147.524 28.8376H151.281C151.727 28.8376 152.09 28.4748 152.09 28.0302V15.8804C152.09 15.3931 152.062 14.9272 152.005 14.4862V14.5004ZM144.09 24.3205C143.296 24.7723 142.444 24.9963 141.543 24.9963C140.72 24.9963 140.076 24.8114 139.613 24.4415C139.149 24.0716 138.914 23.5665 138.914 22.9299C138.914 20.4793 141.96 20.8705 146.181 20.1236C146.59 20.0525 146.736 20.1698 146.726 20.5753C146.708 21.1515 146.32 23.0579 144.086 24.3205H144.09Z" fill="currentColor"/>
<path d="M92.3422 10.055C92.3422 7.90321 94.6361 7.09227 97.2078 7.73248C98.6326 8.0846 100.068 9.0058 101.386 9.95545C101.71 10.1902 102.134 10.2329 102.444 9.97323L105.347 7.53331C105.717 7.22031 105.735 6.64768 105.379 6.32046C98.9211 0.416268 86.6075 1.49752 86.6075 10.5139C86.6075 20.0068 100.741 16.4003 100.118 21.6465C99.8401 24.001 96.0573 24.5594 93.1864 23.2754C92.0715 22.7775 91.1312 22.1871 90.0804 21.2908C89.7456 21.0062 89.3217 20.9885 88.9869 21.2694L85.7989 23.9477C85.4392 24.25 85.4071 24.7942 85.7348 25.1285C92.3244 31.8436 105.895 30.1222 105.895 21.49C105.895 11.3817 92.3458 15.1625 92.3458 10.0479L92.3422 10.055Z" fill="currentColor"/>
<path d="M186.715 7.94531C181.785 7.94531 178.629 10.3105 178.629 14.1874C178.629 21.2048 189.447 19.5012 189.447 23.0686C189.447 24.2316 188.446 24.9288 186.75 24.9288C185.055 24.9288 183.466 24.0325 181.792 22.7912C181.432 22.5244 181.137 22.4746 180.741 22.784L178.362 24.8007C177.999 25.1066 177.974 25.665 178.319 25.9922C180.389 27.9555 183.409 29.3498 186.562 29.3498C191.758 29.3498 195.11 26.8281 195.11 22.72C195.11 15.1975 184.253 17.1751 184.253 13.878C184.253 12.8323 185.101 12.2098 186.64 12.2098C187.716 12.2098 189.201 12.7825 190.512 13.5223C190.989 13.789 191.377 13.7784 191.755 13.4618L194.038 11.527C194.448 11.1784 194.409 10.5346 193.96 10.2359C191.897 8.8594 189.215 7.94531 186.718 7.94531H186.715Z" fill="currentColor"/>
<path d="M132.845 8.13752C131.943 8.22999 131.092 8.47185 130.323 8.82041C129.553 9.16897 128.805 9.69181 128.3 10.0831C128.097 10.2396 127.901 10.1613 127.901 9.80207V9.40016C127.901 8.95557 127.537 8.59278 127.092 8.59278H123.316C122.871 8.59278 122.508 8.95557 122.508 9.40016V28.0482C122.508 28.4927 122.871 28.8555 123.316 28.8555H127.398C127.844 28.8555 128.207 28.4927 128.207 28.0482V17.7051C128.207 15.219 129.952 13.6825 132.951 13.4655C133.379 13.4335 133.714 13.0885 133.714 12.6617V8.9449C133.714 8.47541 133.311 8.09128 132.841 8.14107L132.845 8.13752Z" fill="currentColor"/>
<path d="M118.584 23.8939H117.234C115.232 23.8939 114.114 22.7415 114.114 20.5861V13.7572C114.114 13.5794 114.256 13.4371 114.434 13.4371H118.427C118.872 13.4371 119.236 13.0743 119.236 12.6297V9.40018C119.236 8.95559 118.872 8.5928 118.427 8.5928H114.626C114.448 8.5928 114.306 8.45053 114.306 8.2727V3.79832C114.306 3.32527 113.754 3.06918 113.394 3.37506L109.027 7.04206C108.639 7.36573 108.418 7.84589 108.418 8.35094V21.2797C108.418 25.8537 110.997 28.852 116.041 28.852H118.584C119.029 28.852 119.392 28.4892 119.392 28.0446V24.6977C119.392 24.2531 119.029 23.8903 118.584 23.8903V23.8939Z" fill="currentColor"/>
<path d="M219.572 3.24805H216.452C214.318 3.24805 212.324 4.31863 211.148 6.10055L207.675 11.361L202.471 3.97718C202.151 3.52192 201.627 3.2516 201.071 3.2516H196.936C196.281 3.2516 195.9 3.98785 196.277 4.52136L204.021 15.501L198.293 23.8025C197.189 25.3816 196.537 26.4095 195.7 27.1885C195.315 27.5441 194.934 27.8394 194.592 28.0741C194.247 28.3124 194.414 28.853 194.834 28.853H197.955C200.088 28.853 202.083 27.7824 203.259 26.0005L207.194 20.0394L212.915 28.131C213.236 28.5827 213.756 28.853 214.311 28.853H218.45C219.106 28.853 219.487 28.1168 219.109 27.5833L210.867 15.8994L216.11 8.30218C217.214 6.72298 217.866 5.69508 218.703 4.91616C219.088 4.56048 219.469 4.26527 219.811 4.03053C220.156 3.79223 219.989 3.2516 219.569 3.2516L219.572 3.24805Z" fill="currentColor"/>
</g>
<defs>
<clipPath id="clip0_3_12805">
      <rect width="220" height="32" fill="white"/>
</clipPath>
</defs>
</svg>