<?xml version="1.0" encoding="UTF-8"?>
<svg id="HSBC_MASTERBRAND_LOGO_WW_RGB" data-name="HSBC MASTERBRAND LOGO WW RGB" xmlns="http://www.w3.org/2000/svg" version="1.1" viewBox="0 0 315.9 85">
  <defs>
    <style>
      .cls-1 {
        fill: #db0011;
      }

      .cls-1, .cls-2 {
        stroke-width: 0px;
      }

      .cls-2 {
        fill: #fff;
      }
    </style>
  </defs>
  <rect class="cls-2" x="42.6" width="85" height="85"/>
  <polygon class="cls-1" points="170.1 42.6 127.6 0 127.6 85.1 170.1 42.6"/>
  <polygon class="cls-1" points="85.1 42.6 127.6 0 42.6 0 85.1 42.6"/>
  <polygon class="cls-1" points="0 42.6 42.6 85.1 42.6 0 0 42.6"/>
  <polygon class="cls-1" points="85.1 42.6 42.6 85.1 127.6 85.1 85.1 42.6"/>
  <path class="cls-2" d="M207.4,45.1h-15.4v15.2h-7.7V24.7h7.7v14.6h15.4v-14.6h7.7v35.6h-7.7v-15.2Z"/>
  <path class="cls-2" d="M233.7,61c-7.7,0-14-3.1-14.1-11.6h7.7c.1,3.8,2.3,6.1,6.5,6.1s6.7-1.6,6.7-5.1-2.4-3.6-6.4-4.8l-2.6-.7c-5.6-1.6-11.2-3.8-11.2-10.2s7.4-10.6,14.1-10.6,12.9,2.4,13,10.3h-7.7c-.3-3.2-2.2-5.1-5.8-5.1s-5.7,1.5-5.7,4.7,2.4,3.4,7.4,5l3,.9c6.1,1.9,10,4,10,10,0,8-7.9,11.1-14.9,11.1Z"/>
  <path class="cls-2" d="M252.9,24.8h12.4c2.3-.1,4.7,0,7,.4,4.3,1,7.6,3.8,7.6,8.6s-2.9,6.9-7.1,8c4.8.9,8.4,3.3,8.4,8.6,0,8.1-8,9.9-14.2,9.9h-14V24.8ZM265.3,39.6c3.4,0,6.9-.7,6.9-4.8s-3.2-4.7-6.4-4.7h-5.4v9.5h4.9ZM266,55c3.6,0,7.1-.8,7.1-5.2s-3-5.2-6.7-5.2h-6.1v10.4h5.7Z"/>
  <path class="cls-2" d="M301.2,61c-11.5,0-16.6-7.3-16.6-18.2s5.7-18.8,17-18.8,14,3.2,14.2,11.2h-8c-.4-3.6-2.8-5.4-6.2-5.4-7,0-9.1,7.5-9.1,13.2s2.1,12.3,8.8,12.3,6.1-1.9,6.6-5.5h8c-.8,8.2-7.3,11.2-14.7,11.2Z"/>
</svg>