<?xml version="1.0" encoding="UTF-8"?>
<svg xmlns="http://www.w3.org/2000/svg" version="1.1" viewBox="0 0 39.7 12">
  <defs>
    <style>
      .cls-1 {
        fill-opacity: .6;
      }

      .cls-1, .cls-2 {
        fill: #000;
        stroke-width: 0px;
      }

      .cls-2 {
        fill-opacity: .8;
      }
    </style>
  </defs>
  <g id="Layer_1" data-name="Layer 1" focusable="false">
    <path class="cls-1" d="M21.6,12c.7,0,1.3-.6,1.3-1.3,0-.7-.6-1.3-1.3-1.3s-1.3.6-1.3,1.3h0c0,.7.6,1.3,1.3,1.3Z"/>
    <path class="cls-2" d="M35.3,11.7c-4.5,1.2-8.5-2.8-7.3-7.3.5-2.1,2.1-3.7,4.2-4.2,4.5-1.2,8.5,2.8,7.3,7.3-.5,2.1-2.1,3.7-4.2,4.2h0ZM34.8,2.9c-1.7-.6-3.5.3-4.1,2-.2.7-.2,1.4,0,2.1.3.9,1.1,1.7,2,2,1.7.6,3.5-.3,4.1-2,.2-.7.2-1.4,0-2.1-.3-.9-1.1-1.7-2-2h0ZM26.6,10.6V1.4c0-1-1-1.7-2-1.2-.5.2-.7.7-.7,1.2v9.3c0,.5.3,1,.7,1.2,1,.5,2-.3,2-1.2ZM8.6,7.3H2.8c.5,1.3,1.8,2.1,3.1,2.1h2.7c.7,0,1.3.6,1.3,1.3,0,.7-.6,1.3-1.3,1.3h-2.7c-3.3,0-6-2.7-6-6S2.7,0,6,0h2.7c.7,0,1.3.6,1.3,1.3,0,.7-.6,1.3-1.3,1.3h-2.7c-1.4,0-2.6.8-3.1,2.1h5.8c.7,0,1.3.6,1.3,1.3,0,.7-.6,1.3-1.3,1.3h0ZM21.5,0c-1.8,0-3.5.8-4.6,2.2C15.8.9,14.1,0,12.3,0c-.7,0-1.3.5-1.4,1.1,0,.7.4,1.4,1.1,1.4,0,0,.1,0,.2,0,1.6,0,3,1.1,3.3,2.7,0,.2,0,.5,0,.8h0c0,.3,0,.5,0,.7-.4,1.5-1.7,2.6-3.3,2.6-.7,0-1.2.5-1.3,1.1,0,.7.4,1.3,1.1,1.4,0,0,0,0,.1,0,1.8,0,3.5-.8,4.7-2.2.7.8,1.5,1.5,2.6,1.9h0c-.1-.3-.2-.6-.2-.9,0-.6.2-1.2.7-1.6,0,0,0,0,0,0-.9-.5-1.5-1.3-1.7-2.2,0-.2,0-.4,0-.7h0c0-.4,0-.7.1-1,.4-1.5,1.7-2.5,3.3-2.5.7,0,1.3-.6,1.3-1.3,0,0,0-.1,0-.2,0-.7-.7-1.1-1.4-1.1,0,0,0,0,0,0Z"/>
  </g>
</svg>