<?xml version="1.0" encoding="UTF-8"?>
<svg id="Layer_1" data-name="Layer 1" xmlns="http://www.w3.org/2000/svg" xmlns:xlink="http://www.w3.org/1999/xlink" version="1.1" viewBox="0 0 220 32">
  <defs>
    <style>
      .cls-1 {
        clip-path: url(#clippath);
      }

      .cls-2 {
        fill: none;
      }

      .cls-2, .cls-3, .cls-4 {
        stroke-width: 0px;
      }

      .cls-3 {
        fill: #00d37e;
      }

      .cls-4 {
        fill: #fff;
      }
    </style>
    <clipPath id="clippath">
      <rect class="cls-2" width="220" height="32"/>
    </clipPath>
  </defs>
  <g class="cls-1">
    <g>
      <path class="cls-3" d="M77,8.8l-6.3-5.2c-3-2.5-11.9-8.1-25.6,3.5l-16.6,13.9c-4.3,3.7-11.4,7.6-17.1,2.8l-2.8-2.3c-.4-.3-.4-.9,0-1.2l15.3-12.8c.3-.2.7-.3,1,0,1.2,1,3.9,3.2,3.9,3.2,2.2,1.8,5.5,1.8,7.7,0l2.3-1.9c.3-.2.1-.7-.3-.7-3.3.1-5.1-1.4-5.9-2L26.2.7c-1.1-.9-2.8-.9-3.9,0L1.1,18.5c-.5.4-.9,1-1,1.6-.3,1.1.1,2.3,1,3l6.3,5.2c3,2.5,11.9,8.1,25.6-3.5l16.6-13.9c4.3-3.7,11.4-7.6,17.1-2.8l2.8,2.3c.4.3.4.9,0,1.2l-15.3,12.8c-.3.2-.7.3-1,0-1.2-1-3.9-3.2-3.9-3.2-2.2-1.8-5.5-1.8-7.7,0l-2.3,1.9c-.3.2-.1.7.3.7,3.3-.1,5.1,1.4,5.9,2l6.4,5.3c1.1.9,2.8.9,3.9,0l21.2-17.8c.5-.4.9-1,1-1.6.3-1.1-.1-2.3-1-3h0Z"/>
      <path class="cls-4" d="M160.8,3.2h-4c-.4,0-.8.4-.8.8v3.7c0,.4.4.8.8.8h4c.4,0,.8-.4.8-.8v-3.7c0-.4-.4-.8-.8-.8Z"/>
      <path class="cls-4" d="M160.8,11h-4.1c-.4,0-.8.4-.8.8v16.2c0,.4.4.8.8.8h4.1c.4,0,.8-.4.8-.8V11.8c0-.4-.4-.8-.8-.8Z"/>
      <path class="cls-4" d="M175.6,23.9h-1.4c-2,0-3.1-1.2-3.1-3.3v-6.8c0-.2.1-.3.3-.3h4c.4,0,.8-.4.8-.8v-3.2c0-.4-.4-.8-.8-.8h-3.8c-.2,0-.3-.1-.3-.3V3.8c0-.5-.6-.7-.9-.4l-4.3,3.6c-.4.4-.7.9-.7,1.5v12.8c0,4.6,2.6,7.6,7.6,7.6h2.5c.4,0,.8-.4.8-.8v-3.3c0-.4-.4-.8-.8-.8h0Z"/>
      <path class="cls-4" d="M152,14.5c-.2-1.9-1-3.4-2.3-4.5,0,0-.2-.1-.3-.2,0,0,0,0,0,0,0,0-.1,0-.2-.1,0,0,0,0-.1,0,0,0-.1,0-.2-.1,0,0,0,0-.1,0,0,0-.2-.1-.3-.2,0,0,0,0-.1,0,0,0-.1,0-.2,0s-.1,0-.2,0c0,0,0,0-.1,0,0,0-.7-.3-1.1-.4,0,0,0,0,0,0,0,0-.3,0-.3,0-.4-.1-.9-.2-1.3-.2-.5,0-1.1,0-1.6,0-1.7,0-3.2.3-4.5.8-1.6.7-2.7,1.7-3.2,2.3-.3.3-.3.9,0,1.2l2.6,2.1c.3.3.8.2,1.1,0,3-3.1,7.4-2,7.4.5s0,.2,0,.2c0,0,0,0,0,0,0,0,0,.1,0,.2,0,0,0,.1,0,.2,0,0,0,0,0,0,0,0,0,.1,0,.2,0,0-.1.2-.2.2-.3.3-.8.4-1.5.5l-3.3.3c-5.7.5-7.9,3.2-7.9,6.6s1.5,4.4,3.3,5.2c1.9.9,4.9,1.1,7.5-.2.7-.4,1.4-.8,1.9-1.4.2-.2.5-.2.5.2v.9c0,.4.4.8.8.8h3.8c.4,0,.8-.4.8-.8v-12.1c0-.5,0-1,0-1.4h0ZM144.1,24.3c-.8.5-1.6.7-2.5.7s-1.5-.2-1.9-.6c-.5-.4-.7-.9-.7-1.5,0-2.5,3-2.1,7.3-2.8.4,0,.6,0,.5.5,0,.6-.4,2.5-2.6,3.7h0Z"/>
      <path class="cls-4" d="M92.3,10.1c0-2.2,2.3-3,4.9-2.3,1.4.4,2.9,1.3,4.2,2.2.3.2.7.3,1.1,0l2.9-2.4c.4-.3.4-.9,0-1.2-6.5-5.9-18.8-4.8-18.8,4.2s14.1,5.9,13.5,11.1c-.3,2.4-4.1,2.9-6.9,1.6-1.1-.5-2.1-1.1-3.1-2-.3-.3-.8-.3-1.1,0l-3.2,2.7c-.4.3-.4.8,0,1.2,6.6,6.7,20.2,5,20.2-3.6s-13.5-6.3-13.5-11.4h0Z"/>
      <path class="cls-4" d="M186.7,7.9c-4.9,0-8.1,2.4-8.1,6.2,0,7,10.8,5.3,10.8,8.9s-1,1.9-2.7,1.9-3.3-.9-5-2.1c-.4-.3-.7-.3-1.1,0l-2.4,2c-.4.3-.4.9,0,1.2,2.1,2,5.1,3.4,8.2,3.4,5.2,0,8.5-2.5,8.5-6.6,0-7.5-10.9-5.5-10.9-8.8s.8-1.7,2.4-1.7,2.6.6,3.9,1.3c.5.3.9.3,1.2,0l2.3-1.9c.4-.3.4-1,0-1.3-2.1-1.4-4.7-2.3-7.2-2.3h0Z"/>
      <path class="cls-4" d="M132.8,8.1c-.9,0-1.8.3-2.5.7-.8.3-1.5.9-2,1.3-.2.2-.4,0-.4-.3v-.4c0-.4-.4-.8-.8-.8h-3.8c-.4,0-.8.4-.8.8v18.6c0,.4.4.8.8.8h4.1c.4,0,.8-.4.8-.8v-10.3c0-2.5,1.7-4,4.7-4.2.4,0,.8-.4.8-.8v-3.7c0-.5-.4-.9-.9-.8h0Z"/>
      <path class="cls-4" d="M118.6,23.9h-1.3c-2,0-3.1-1.2-3.1-3.3v-6.8c0-.2.1-.3.3-.3h4c.4,0,.8-.4.8-.8v-3.2c0-.4-.4-.8-.8-.8h-3.8c-.2,0-.3-.1-.3-.3V3.8c0-.5-.6-.7-.9-.4l-4.4,3.7c-.4.3-.6.8-.6,1.3v12.9c0,4.6,2.6,7.6,7.6,7.6h2.5c.4,0,.8-.4.8-.8v-3.3c0-.4-.4-.8-.8-.8h0Z"/>
      <path class="cls-4" d="M219.6,3.2h-3.1c-2.1,0-4.1,1.1-5.3,2.9l-3.5,5.3-5.2-7.4c-.3-.5-.8-.7-1.4-.7h-4.1c-.7,0-1,.7-.7,1.3l7.7,11-5.7,8.3c-1.1,1.6-1.8,2.6-2.6,3.4-.4.4-.8.7-1.1.9-.3.2-.2.8.2.8h3.1c2.1,0,4.1-1.1,5.3-2.9l3.9-6,5.7,8.1c.3.5.8.7,1.4.7h4.1c.7,0,1-.7.7-1.3l-8.2-11.7,5.2-7.6c1.1-1.6,1.8-2.6,2.6-3.4.4-.4.8-.7,1.1-.9.3-.2.2-.8-.2-.8h0Z"/>
    </g>
  </g>
</svg>