<?xml version="1.0" encoding="utf-8"?>
<!-- Generator: Adobe Illustrator 19.0.0, SVG Export Plug-In . SVG Version: 6.00 Build 0)  -->
<svg version="1.1" id="layer" xmlns="http://www.w3.org/2000/svg" xmlns:xlink="http://www.w3.org/1999/xlink" x="0px" y="0px"
	 viewBox="-153 -46 652 652" style="enable-background:new -153 -46 652 652;" xml:space="preserve">
<style type="text/css">
	.st0{fill:url(#SVGID_1_);}
	.st1{fill:url(#SVGID_2_);}
	.st2{fill:#3D3652;}
</style>
<linearGradient id="SVGID_1_" gradientUnits="userSpaceOnUse" x1="-81.6219" y1="203.4759" x2="26.486" y2="311.5838" gradientTransform="matrix(1 0 0 -1 0 560)">
	<stop  offset="0" style="stop-color:#B090F5"/>
	<stop  offset="1" style="stop-color:#5FBFFF"/>
</linearGradient>
<path class="st0" d="M12.2,236.8L8.8,231c-0.9-1.6-3-2.2-4.6-1.3c-0.3,0.2-0.5,0.3-0.7,0.6l-7.6,7.6c-1.1,1.2-1.3,3-0.4,4.3
	c2.8,4.2,5,8.8,6.6,13.6l0,0c10.5,31.3-6.3,65.2-37.5,75.7c-6.1,2.1-12.6,3.1-19.1,3.1c-9.8,0-19.4-2.4-28-6.9l12.9-12.9
	c22,8.3,46.7-2.8,55-24.8c4.1-11,3.6-23.1-1.5-33.7c-0.8-1.7-2.9-2.4-4.6-1.6c-0.3,0.2-0.7,0.4-0.9,0.7l-7.7,7.7
	c-0.8,0.8-1.2,2-0.9,3.2l0.7,2.8c3.2,13.8-5.3,27.5-19.1,30.8c-6.3,1.5-12.9,0.5-18.5-2.7l-3.4-1.9c-1.3-0.8-3-0.5-4.1,0.5
	l-31.5,31.5c-1.3,1.3-1.3,3.5,0,4.8c0.1,0.1,0.2,0.2,0.3,0.3l4.6,3.6c13.4,10.3,29.8,15.9,46.7,15.8c42.4-0.1,76.8-34.5,76.8-76.9
	C22.2,261.4,18.7,248.3,12.2,236.8z"/>
<linearGradient id="SVGID_2_" gradientUnits="userSpaceOnUse" x1="-135.5901" y1="258.7212" x2="-27.4671" y2="366.8376" gradientTransform="matrix(1 0 0 -1 0 560)">
	<stop  offset="0" style="stop-color:#68D7FA"/>
	<stop  offset="1" style="stop-color:#4EE498"/>
</linearGradient>
<path class="st1" d="M-7.9,213.9c-13.4-10.3-29.8-15.9-46.7-15.8c-42.4,0-76.8,34.5-76.8,76.9c0,13.3,3.5,26.4,10.1,38l3.3,5.8
	c0.9,1.6,3,2.2,4.7,1.3c0.3-0.1,0.5-0.3,0.7-0.5l7.6-7.6c1.1-1.2,1.3-3,0.4-4.3c-2.8-4.2-5-8.8-6.6-13.6l0,0
	c-10.5-31.3,6.3-65.2,37.5-75.7c6.1-2.1,12.6-3.1,19.1-3.1c9.8,0,19.4,2.4,28,7L-39.4,235c-22-8.3-46.7,2.7-55,24.8
	c-1.8,4.8-2.8,10-2.8,15.1c0,0.7,0.2,3.9,0.3,4.5c0.5,4.9,1.9,9.7,4,14.1c0.8,1.7,2.9,2.4,4.6,1.6c0.3-0.2,0.7-0.4,0.9-0.7l7.7-7.7
	c0.8-0.8,1.2-2,0.9-3.2l-0.7-2.8c-3.2-13.8,5.3-27.5,19-30.8c6.3-1.5,12.9-0.5,18.6,2.7l3.4,1.9c1.3,0.8,3,0.5,4.1-0.5l31.5-31.5
	c1.3-1.3,1.3-3.5,0-4.8c-0.1-0.1-0.2-0.2-0.3-0.3L-7.9,213.9z"/>
<path class="st2" d="M121.5,296c-1.2-1-2.9-0.9-4,0.1c-4.9,3.8-10.7,7.4-19,7.4c-15.3,0-27.8-12.9-27.8-28.8s12.4-28.9,27.7-28.9
	c6.6,0,13.8,2.8,19,7.4c0.6,0.7,1.5,1.1,2.4,1.1c0.8-0.1,1.5-0.5,2-1.1l5-5.1c0.6-0.6,1-1.5,1-2.4c0-0.9-0.5-1.8-1.1-2.3
	c-8.7-7.6-17.4-11-28.4-11c-23.3,0-42.3,19.1-42.3,42.6c0,23.4,18.9,42.3,42.3,42.3c10.6,0.1,20.9-4,28.5-11.5c0.7-0.7,1-1.6,1-2.6
	c0-0.8-0.3-1.5-0.9-2L121.5,296z M157.8,233.6h-7.5c-1.7,0.1-3.1,1.5-3.2,3.2V313c0,1.8,1.4,3.2,3.2,3.2h7.5
	c1.7-0.1,3.2-1.5,3.2-3.2v-76.2C160.9,235,159.5,233.6,157.8,233.6z M247.1,259.2c0-14.1-11.6-25.6-26-25.6H190
	c-1.8,0-3.2,1.4-3.2,3.2V313c0,1.8,1.4,3.2,3.2,3.2h7.4c1.7-0.1,3.2-1.5,3.2-3.2v-28.3h15.6l14.9,29.9c0.6,1,1.6,1.6,2.7,1.6h8.9
	c1.1,0,2.2-0.5,2.8-1.5c0.6-1,0.6-2.3,0-3.3l-15.2-28.2C240.7,278.5,247.1,269.5,247.1,259.2z M233.1,259.4
	c0,7.2-5.9,13.3-12.9,13.3h-19.3v-25.9h19.3C227.2,246.8,233.1,252.6,233.1,259.4L233.1,259.4z M328.3,296c-1.2-1-2.9-0.9-4,0.1
	c-4.9,3.8-10.7,7.4-19,7.4c-15.3,0-27.8-12.9-27.8-28.8s12.4-28.9,27.7-28.9c6.6,0,13.8,2.8,19,7.4c0.6,0.7,1.5,1.1,2.4,1.1
	c0.8-0.1,1.5-0.5,2-1.1l5-5.1c0.6-0.6,1-1.5,1-2.4c0-0.9-0.4-1.8-1.1-2.3c-8.7-7.6-17.4-11-28.3-11c-23.3,0-42.3,19.1-42.3,42.6
	c0,23.4,18.9,42.3,42.3,42.3c10.6,0.1,20.9-4,28.5-11.5c0.7-0.7,1-1.6,1-2.6c0-0.8-0.3-1.5-0.9-2L328.3,296z M397.7,303.4h-29.9
	v-66.6c-0.1-1.7-1.5-3.2-3.2-3.2H357c-1.8,0-3.2,1.4-3.2,3.2V313c0,1.8,1.4,3.2,3.2,3.2h40.7c1.8,0,3.2-1.4,3.2-3.2c0,0,0,0,0,0
	v-6.3C400.9,304.9,399.5,303.4,397.7,303.4C397.7,303.4,397.7,303.4,397.7,303.4z M465.5,246.5c1.8,0,3.2-1.4,3.2-3.2v-6.4
	c0-1.8-1.4-3.2-3.2-3.2h-45.7c-1.8,0-3.2,1.4-3.2,3.2V313c0,1.8,1.4,3.2,3.2,3.2h45.7c1.8,0,3.2-1.4,3.2-3.2v-6.3
	c0-1.8-1.4-3.2-3.2-3.2h-35.1v-22.7h29.5c1.8,0,3.2-1.4,3.2-3.2v-6.4c0-1.8-1.5-3.2-3.2-3.2h-29.5v-21.4H465.5z"/>
</svg>
