<svg width="201" height="32" viewBox="0 0 201 32" fill="none" xmlns="http://www.w3.org/2000/svg">
<path fill-rule="evenodd" clip-rule="evenodd" d="M157.606 7.61861C157.772 7.61861 157.932 7.64323 158.08 7.68015C160.166 8.06169 161.396 10.1048 160.966 12.554C160.535 15.0032 158.578 17.0463 156.356 17.4278C156.196 17.4709 156.03 17.4894 155.87 17.4894H155.544L159.316 21.6002L156.289 24.3755L149.52 16.9971C149.04 16.474 148.99 15.6494 149.403 14.9294C149.809 14.2032 150.59 13.7294 151.366 13.7294H156.326C156.621 13.6986 157.089 13.2371 157.212 12.554C157.335 11.8709 157.021 11.4094 156.75 11.3786H156.738H148.793L149.458 7.61861H157.618H157.606ZM188.584 7.61861L194.129 16.7202L195.735 7.61861H199.495L196.929 22.1602C196.787 22.9602 196.153 23.674 195.353 23.9386C195.138 24.0063 194.923 24.0432 194.72 24.0432C194.153 24.0432 193.649 23.7848 193.366 23.3232L183.803 7.62477H188.584V7.61861ZM186.498 18.5663L185.55 23.9386H181.79L182.738 18.5663H186.498ZM174.603 7.38477C179.138 7.38477 182.178 11.0771 181.378 15.6125C180.578 20.1478 176.233 23.8402 171.704 23.8402C167.175 23.8402 164.129 20.1478 164.929 15.6125C165.729 11.0771 170.067 7.38477 174.603 7.38477ZM56.6088 7.61861L55.9442 11.3786H47.9626C47.6672 11.4094 47.1995 11.8709 47.0765 12.554C46.9534 13.2371 47.2672 13.6986 47.538 13.7294C47.538 13.7294 47.5503 13.7294 47.5565 13.7294H51.8026C51.9626 13.7294 52.1103 13.754 52.2457 13.7971C54.3319 14.1786 55.5626 16.2217 55.1319 18.6709C54.7011 21.1202 52.7442 23.1632 50.5226 23.5448C50.3626 23.5878 50.1965 23.6063 50.0365 23.6063H41.8457L42.5103 19.8463H50.4857C50.4857 19.8463 50.498 19.8463 50.5042 19.8463C50.7872 19.8155 51.2611 19.354 51.378 18.6709C51.5011 17.9878 51.1872 17.5263 50.9165 17.4955H50.9042H46.6211C46.4796 17.4832 46.3442 17.4648 46.2149 17.4278C44.1288 17.0463 42.898 15.0032 43.3349 12.554C43.7657 10.1048 45.7226 8.06169 47.9442 7.68015C48.1042 7.63707 48.2703 7.61861 48.4365 7.61861H56.6272H56.6088ZM67.9996 7.76015C68.7442 7.7663 69.3411 8.22169 69.5072 8.91092L73.0826 23.6002H69.0026L66.7503 14.3571L60.978 23.6002H56.8549L66.0611 8.86784C66.4919 8.18477 67.2672 7.74784 67.9934 7.76015H67.9996ZM107.347 19.8402L106.683 23.6002H93.3226L93.9872 19.8402H107.347ZM90.8734 7.61861L90.2088 11.3786H82.8672L82.4549 13.7294H89.8026L89.138 17.4894H81.7903L80.7134 23.6002H76.9534L78.0303 17.4894L78.6949 13.7294L79.4395 9.50169C79.6242 8.46169 80.6149 7.62477 81.6488 7.62477H90.8734V7.61861ZM118.166 7.61861L117.095 13.6986H122.32L123.39 7.61861H127.15L124.332 23.6002H120.572L121.655 17.4586H116.43L115.347 23.6002H111.587L114.406 7.61861H118.166ZM142.726 19.8402L142.061 23.6002H128.701L129.366 19.8402H142.726ZM173.938 11.1448C171.476 11.1448 169.12 13.1448 168.683 15.6125C168.252 18.074 169.901 20.0802 172.363 20.0802C174.824 20.0802 177.181 18.074 177.618 15.6125C178.049 13.1509 176.4 11.1448 173.938 11.1448ZM108.424 13.7294L107.76 17.4894H94.3995L95.0642 13.7294H108.424ZM143.809 13.7294L143.144 17.4894H129.784L130.449 13.7294H143.809ZM109.507 7.61861L108.843 11.3786H95.4826L96.1472 7.61861H109.507ZM144.88 7.61861L144.215 11.3786H130.855L131.52 7.61861H144.88Z" fill="white"/>
<mask id="mask0_758_3506" style="mask-type:luminance" maskUnits="userSpaceOnUse" x="41" y="7" width="159" height="18">
<path d="M157.606 7.61886C157.772 7.61886 157.932 7.64347 158.08 7.68039C160.166 8.06193 161.396 10.105 160.966 12.5542C160.535 15.0035 158.578 17.0465 156.356 17.4281C156.196 17.4712 156.03 17.4896 155.87 17.4896H155.544L159.316 21.6004L156.289 24.3758L149.52 16.9973C149.04 16.4742 148.99 15.6496 149.403 14.9296C149.809 14.2035 150.59 13.7296 151.366 13.7296H156.326C156.621 13.6989 157.089 13.2373 157.212 12.5542C157.335 11.8712 157.021 11.4096 156.75 11.3789H156.738H148.793L149.458 7.61886H157.618H157.606ZM188.584 7.61886L194.129 16.7204L195.735 7.61886H199.495L196.929 22.1604C196.787 22.9604 196.153 23.6742 195.353 23.9389C195.138 24.0065 194.923 24.0435 194.72 24.0435C194.153 24.0435 193.649 23.785 193.366 23.3235L183.803 7.62501H188.584V7.61886ZM186.498 18.5665L185.55 23.9389H181.79L182.738 18.5665H186.498ZM174.603 7.38501C179.138 7.38501 182.178 11.0773 181.378 15.6127C180.578 20.1481 176.233 23.8404 171.704 23.8404C167.175 23.8404 164.129 20.1481 164.929 15.6127C165.729 11.0773 170.067 7.38501 174.603 7.38501ZM56.6088 7.61886L55.9442 11.3789H47.9626C47.6672 11.4096 47.1995 11.8712 47.0765 12.5542C46.9534 13.2373 47.2672 13.6989 47.538 13.7296C47.538 13.7296 47.5503 13.7296 47.5565 13.7296H51.8026C51.9626 13.7296 52.1103 13.7542 52.2457 13.7973C54.3319 14.1789 55.5626 16.2219 55.1319 18.6712C54.7011 21.1204 52.7442 23.1635 50.5226 23.545C50.3626 23.5881 50.1965 23.6065 50.0365 23.6065H41.8457L42.5103 19.8465H50.4857C50.4857 19.8465 50.498 19.8465 50.5042 19.8465C50.7872 19.8158 51.2611 19.3542 51.378 18.6712C51.5011 17.9881 51.1872 17.5265 50.9165 17.4958H50.9042H46.6211C46.4796 17.4835 46.3442 17.465 46.2149 17.4281C44.1288 17.0465 42.898 15.0035 43.3349 12.5542C43.7657 10.105 45.7226 8.06193 47.9442 7.68039C48.1042 7.63732 48.2703 7.61886 48.4365 7.61886H56.6272H56.6088ZM67.9996 7.76039C68.7442 7.76655 69.3411 8.22193 69.5072 8.91116L73.0826 23.6004H69.0026L66.7503 14.3573L60.978 23.6004H56.8549L66.0611 8.86809C66.4919 8.18501 67.2672 7.74809 67.9934 7.76039H67.9996ZM107.347 19.8404L106.683 23.6004H93.3226L93.9872 19.8404H107.347ZM90.8734 7.61886L90.2088 11.3789H82.8672L82.4549 13.7296H89.8026L89.138 17.4896H81.7903L80.7134 23.6004H76.9534L78.0303 17.4896L78.6949 13.7296L79.4395 9.50193C79.6242 8.46193 80.6149 7.62501 81.6488 7.62501H90.8734V7.61886ZM118.166 7.61886L117.095 13.6989H122.32L123.39 7.61886H127.15L124.332 23.6004H120.572L121.655 17.4589H116.43L115.347 23.6004H111.587L114.406 7.61886H118.166ZM142.726 19.8404L142.061 23.6004H128.701L129.366 19.8404H142.726ZM173.938 11.145C171.476 11.145 169.12 13.145 168.683 15.6127C168.252 18.0742 169.901 20.0804 172.363 20.0804C174.824 20.0804 177.181 18.0742 177.618 15.6127C178.049 13.1512 176.4 11.145 173.938 11.145ZM108.424 13.7296L107.76 17.4896H94.3995L95.0642 13.7296H108.424ZM143.809 13.7296L143.144 17.4896H129.784L130.449 13.7296H143.809ZM109.507 7.61886L108.843 11.3789H95.4826L96.1472 7.61886H109.507ZM144.88 7.61886L144.215 11.3789H130.855L131.52 7.61886H144.88Z" fill="white"/>
</mask>
<g mask="url(#mask0_758_3506)">
<path d="M200.633 6.24634H40.707V25.514H200.633V6.24634Z" fill="white"/>
</g>
<g clip-path="url(#clip0_758_3506)">
<path d="M16 0C7.16441 0 0 7.16441 0 16C0 24.8356 7.16441 32 16 32C24.8356 32 32 24.8356 32 16C32 7.16441 24.8356 0 16 0ZM20.0573 26.807C20.0573 27.2681 19.5002 27.4971 19.1752 27.1721L6.36286 15.3687C6.18646 15.1923 6.08433 14.9509 6.08433 14.7002V13.453C6.08433 13.2952 6.26383 13.2054 6.39072 13.2983L19.9242 22.1215C20.048 22.2143 20.1222 22.3598 20.1222 22.5145L20.0542 26.807H20.0573ZM26.9029 18.7141C26.9029 18.872 26.7265 18.9617 26.5996 18.8689L16.8511 12.8093C16.7304 12.7195 16.5602 12.8093 16.5602 12.9578V13.6077C16.5602 13.8213 16.6468 14.0286 16.7985 14.1772L19.8128 17.1296C20.0139 17.3246 20.1253 17.5938 20.1253 17.8754V20.3822C20.1253 20.5277 19.952 20.6019 19.8468 20.5029L14.9075 15.8948L13.193 14.2793C12.9857 14.0812 12.865 13.8089 12.865 13.5211V5.19613C12.865 4.7381 13.4159 4.506 13.7439 4.82476L26.6182 16.7427C26.8008 16.9191 26.9029 17.1636 26.9029 17.4174V18.7141Z" fill="#20AF93"/>
<circle cx="16" cy="16" r="16" fill="#20AF93"/>
<path d="M19.7192 26.6877C19.7192 27.1427 19.1638 27.3711 18.8379 27.05L6.03746 15.3762C5.85965 15.2011 5.75977 14.963 5.75977 14.7148V13.4799C5.75977 13.3244 5.9385 13.235 6.06467 13.3275L19.5872 22.0531C19.7121 22.1446 19.786 22.2893 19.786 22.4433L19.7192 26.6877ZM26.5598 18.6822C26.5598 18.8373 26.382 18.9267 26.2555 18.8352L16.5143 12.8427C16.3928 12.7548 16.2224 12.8408 16.2224 12.9895V13.6323C16.2224 13.8443 16.3087 14.0476 16.4617 14.1957L19.4734 17.1139C19.6734 17.3079 19.7863 17.5733 19.7863 17.8506V20.3299C19.7863 20.4725 19.6144 20.5466 19.5089 20.4493L14.5723 15.8925L12.8604 14.2936C12.652 14.099 12.5335 13.8278 12.5335 13.5441V5.3125C12.5335 4.85954 13.0843 4.6303 13.4114 4.94676L26.2763 16.7335C26.4574 16.9092 26.5598 17.1495 26.5598 17.4007V18.6822Z" fill="white"/>
</g>
<defs>
<clipPath id="clip0_758_3506">
<rect width="32" height="32" fill="white"/>
</clipPath>
</defs>
</svg>
