<svg width="36" height="36" viewBox="0 0 36 36" fill="none" xmlns="http://www.w3.org/2000/svg">
<g clip-path="url(#clip0_5208_13607)">
<path d="M35.6219 6.723C35.2409 6.537 35.0759 6.8925 34.8539 7.074C34.7774 7.1325 34.7129 7.209 34.6484 7.278C34.0904 7.8735 33.4394 8.2635 32.5889 8.217C31.3454 8.148 30.2834 8.538 29.3444 9.489C29.1449 8.316 28.4819 7.617 27.4739 7.167C26.9459 6.933 26.4119 6.7005 26.0414 6.192C25.7834 5.8305 25.7129 5.427 25.5839 5.031C25.5014 4.791 25.4189 4.5465 25.1444 4.506C24.8444 4.4595 24.7274 4.71 24.6104 4.92C24.1409 5.778 23.9594 6.723 23.9774 7.68C24.0179 9.834 24.9269 11.55 26.7344 12.7695C26.9399 12.909 26.9924 13.05 26.9279 13.254C26.8049 13.674 26.6579 14.082 26.5289 14.5035C26.4464 14.772 26.3234 14.829 26.0354 14.7135C25.0623 14.2953 24.1784 13.6945 23.4314 12.9435C22.1459 11.7015 20.9849 10.3305 19.5359 9.2565C19.2002 9.00843 18.8555 8.77277 18.5024 8.55C17.0249 7.1145 18.6974 5.9355 19.0844 5.796C19.4894 5.649 19.2239 5.148 17.9159 5.154C16.6079 5.16 15.4109 5.5965 13.8854 6.18C13.6587 6.26687 13.4255 6.33558 13.1879 6.3855C11.7624 6.1169 10.3044 6.06532 8.86342 6.2325C6.03592 6.5475 3.77842 7.8855 2.11792 10.167C0.122924 12.909 -0.346575 16.026 0.227925 19.275C0.832425 22.701 2.58142 25.5375 5.26792 27.7545C8.05492 30.054 11.2634 31.1805 14.9249 30.9645C17.1479 30.837 19.6244 30.5385 22.4159 28.1745C23.1209 28.5255 23.8589 28.665 25.0859 28.77C26.0309 28.8585 26.9399 28.725 27.6434 28.578C28.7459 28.344 28.6694 27.3225 28.2719 27.1365C25.0394 25.6305 25.7489 26.244 25.1024 25.7475C26.7464 23.8035 29.2214 21.7845 30.1904 15.243C30.2654 14.7225 30.2009 14.3955 30.1904 13.9755C30.1844 13.7205 30.2429 13.62 30.5354 13.5915C31.347 13.5073 32.1342 13.2653 32.8529 12.879C34.9469 11.7345 35.7929 9.8565 35.9924 7.6035C36.0224 7.2585 35.9864 6.9045 35.6219 6.723ZM17.3714 27C14.2379 24.537 12.7184 23.7255 12.0914 23.76C11.5034 23.796 11.6099 24.4665 11.7389 24.9045C11.8739 25.3365 12.0494 25.6335 12.2954 26.013C12.4664 26.2635 12.5834 26.637 12.1259 26.9175C11.1164 27.5415 9.36292 26.7075 9.28042 26.667C7.23892 25.464 5.53042 23.877 4.32892 21.7065C3.16792 19.617 2.49292 17.376 2.38192 14.9835C2.35192 14.4045 2.52142 14.2005 3.09742 14.0955C3.85359 13.9508 4.62836 13.931 5.39092 14.037C8.58892 14.505 11.3099 15.9345 13.5929 18.198C14.8949 19.488 15.8804 21.0285 16.8959 22.5345C17.9759 24.1335 19.1369 25.6575 20.6159 26.9055C21.1379 27.3435 21.5534 27.6765 21.9524 27.921C20.7494 28.056 18.7424 28.086 17.3714 27ZM18.8714 17.34C18.8712 17.2655 18.889 17.192 18.9235 17.126C18.958 17.0599 19.0081 17.0033 19.0693 16.9609C19.1306 16.9185 19.2013 16.8917 19.2753 16.8827C19.3493 16.8738 19.4243 16.883 19.4939 16.9095C19.5827 16.9413 19.6593 17.0001 19.713 17.0775C19.7668 17.1549 19.7951 17.2472 19.7939 17.3415C19.7941 17.4024 19.7822 17.4628 19.7589 17.519C19.7355 17.5753 19.7012 17.6263 19.6579 17.6692C19.6146 17.712 19.5632 17.7459 19.5068 17.7687C19.4503 17.7915 19.3898 17.8028 19.3289 17.802C19.2685 17.8022 19.2086 17.7904 19.1528 17.7671C19.097 17.7439 19.0464 17.7098 19.0039 17.6668C18.9614 17.6238 18.928 17.5727 18.9055 17.5166C18.883 17.4605 18.8704 17.4004 18.8714 17.34ZM23.5364 19.734C23.2364 19.8555 22.9379 19.9605 22.6514 19.974C22.2204 19.989 21.7975 19.8544 21.4544 19.593C21.0434 19.248 20.7494 19.056 20.6264 18.456C20.584 18.1628 20.5921 17.8645 20.6504 17.574C20.7554 17.0835 20.6384 16.7685 20.2919 16.4835C20.0114 16.2495 19.6529 16.185 19.2599 16.185C19.1254 16.1772 18.9947 16.1371 18.8789 16.068C18.8305 16.0461 18.7873 16.0142 18.752 15.9745C18.7167 15.9348 18.6901 15.8881 18.674 15.8375C18.6579 15.7869 18.6526 15.7335 18.6584 15.6807C18.6643 15.6279 18.6811 15.5769 18.7079 15.531C18.7499 15.45 18.9479 15.252 18.9959 15.216C19.5299 14.913 20.1464 15.012 20.7149 15.24C21.2429 15.456 21.6419 15.852 22.2164 16.413C22.8029 17.0895 22.9094 17.277 23.2439 17.784C23.5079 18.1815 23.7479 18.5895 23.9114 19.056C24.0119 19.3485 23.8829 19.587 23.5364 19.734Z" fill="#4D6BFE"/>
</g>
<defs>
<clipPath id="clip0_5208_13607">
<rect width="36" height="36" fill="white"/>
</clipPath>
</defs>
</svg>
