<svg width="40" height="40" viewBox="0 0 40 40" fill="none" xmlns="http://www.w3.org/2000/svg">
<g clip-path="url(#clip0_3890_3445)">
<path d="M1.24219 26.9568C4.06805 34.5728 11.3989 40.0004 19.9982 40.0004C28.5975 40.0004 35.9284 34.5728 38.7542 26.9568L19.9982 25.2178L1.24219 26.9568Z" fill="#FFDA44"/>
<path d="M19.9982 0C11.3989 0 4.06805 5.4275 1.24219 13.0435L19.9982 14.7826L38.7542 13.0434C35.9284 5.4275 28.5975 0 19.9982 0Z" fill="black"/>
<path d="M1.24398 13.0439C0.440078 15.2106 0 17.554 0 20.0004C0 22.4468 0.440078 24.7903 1.24398 26.9569H38.7561C39.56 24.7903 40 22.4468 40 20.0004C40 17.554 39.56 15.2106 38.756 13.0439H1.24398Z" fill="#D80027"/>
</g>
<defs>
<clipPath id="clip0_3890_3445">
<rect width="40" height="40" fill="white"/>
</clipPath>
</defs>
</svg>
