<svg width="38" height="36" viewBox="0 0 38 36" fill="none" xmlns="http://www.w3.org/2000/svg">
<path fill-rule="evenodd" clip-rule="evenodd" d="M18.9937 0C14.4831 0.00228617 10.1203 1.56291 6.68555 4.40281C3.2508 7.24271 0.968052 11.1767 0.245467 15.5013C-0.477118 19.826 0.407576 24.2593 2.74137 28.0085C5.07517 31.7577 8.70588 34.5784 12.9843 35.9661C13.9282 36.1372 14.2837 35.5658 14.2837 35.0799C14.2837 34.594 14.2648 33.1851 14.2585 31.6449C8.97277 32.7604 7.85584 29.466 7.85584 29.466C6.99376 27.3268 5.74783 26.7645 5.74783 26.7645C4.02366 25.6215 5.87683 25.6429 5.87683 25.6429C7.78663 25.7743 8.7903 27.5468 8.7903 27.5468C10.483 30.3675 13.236 29.5516 14.3183 29.0748C14.4882 27.8799 14.9822 27.067 15.5265 26.6056C11.3042 26.1411 6.8679 24.558 6.8679 17.4865C6.84173 15.6525 7.54239 13.8789 8.82491 12.5327C8.62984 12.0682 7.97854 10.1918 9.01053 7.64307C9.01053 7.64307 10.6057 7.148 14.2365 9.53474C17.3508 8.70752 20.6366 8.70752 23.7509 9.53474C27.3786 7.148 28.9706 7.64307 28.9706 7.64307C30.0057 10.1857 29.3544 12.062 29.1594 12.5327C30.4459 13.8791 31.1481 15.6558 31.1195 17.4926C31.1195 24.5794 26.6738 26.1411 22.4452 26.5964C23.1248 27.1709 23.732 28.2925 23.732 30.0161C23.732 32.4853 23.71 34.4717 23.71 35.0799C23.71 35.5719 24.0529 36.1464 25.0157 35.9661C29.2946 34.5782 32.9257 31.757 35.2594 28.0072C37.5932 24.2573 38.4774 19.8234 37.754 15.4983C37.0306 11.1733 34.7467 7.23925 31.3109 4.39984C27.875 1.56043 23.5112 0.000837082 19 0H18.9937Z" fill="white"/>
</svg>
