<svg width="38" height="38" viewBox="0 0 38 38" fill="none" xmlns="http://www.w3.org/2000/svg">
<g clip-path="url(#clip0_5208_1670)">
<path d="M14.6768 23.521L27.31 14.1426C27.9293 13.6828 28.8146 13.8621 29.1097 14.5763C30.6628 18.3426 29.9689 22.8688 26.8787 25.9764C23.7886 29.0841 19.4889 29.7656 15.5588 28.2134L11.2656 30.2123C17.4233 34.445 24.9008 33.3982 29.5734 28.696C33.2797 24.9688 34.4275 19.8883 33.3542 15.3067L33.3639 15.3165C31.8075 8.586 33.7466 5.89571 37.7188 0.394569C37.8127 0.264134 37.907 0.133697 38.0009 0L32.7738 5.25658V5.24029L14.6736 23.5242" fill="white"/>
<path d="M12.0689 25.8003C7.64928 21.5546 8.41129 14.9839 12.1825 11.1947C14.9711 8.3903 19.5399 7.24574 23.5283 8.92835L27.8118 6.93921C27.04 6.37834 26.051 5.77505 24.9161 5.35115C19.7863 3.22828 13.6449 4.28482 9.47488 8.4751C5.46376 12.5088 4.20241 18.7111 6.36845 24.0035C7.98653 27.959 5.33406 30.7569 2.66217 33.5808C1.71533 34.5819 0.765255 35.583 0 36.6429L12.0657 25.8036" fill="white"/>
</g>
<defs>
<clipPath id="clip0_5208_1670">
<rect width="38" height="38" fill="white"/>
</clipPath>
</defs>
</svg>
