<svg width="49" height="45" viewBox="0 0 49 45" fill="none" xmlns="http://www.w3.org/2000/svg">
<path fill-rule="evenodd" clip-rule="evenodd" d="M11.6605 28.9157L4.96996 22.1945C3.83309 21.0524 1.98988 21.0524 0.852648 22.1945C-0.284216 23.3365 -0.284216 25.1882 0.852648 26.3306L9.60185 35.12C10.7387 36.2621 12.5824 36.2621 13.7192 35.12L21.9542 26.8469L17.8372 22.7107L11.6605 28.9157Z" fill="#7C68FF"/>
<path fill-rule="evenodd" clip-rule="evenodd" d="M36.882 15.9931L24.0166 28.9175L11.1496 15.9916C10.0124 14.8492 8.16919 14.8492 7.03233 15.9916C5.89547 17.1337 5.89547 18.9854 7.03233 20.1278L21.9578 35.1218C23.0948 36.2639 24.938 36.2639 26.0752 35.1218L40.9993 20.1293C42.1361 18.9868 42.1361 17.1351 40.9993 15.9931C39.862 14.851 38.0188 14.851 36.882 15.9931Z" fill="#FFB41F"/>
<path fill-rule="evenodd" clip-rule="evenodd" d="M47.1712 26.3355L38.4234 35.1233C37.2866 36.2655 35.4433 36.2655 34.3064 35.1233L13.2042 13.9243C12.0673 12.7822 12.0673 10.9306 13.2042 9.78848C14.3414 8.64603 16.1847 8.64603 17.3215 9.78848L36.3648 28.919L43.0538 22.1993C44.191 21.0572 46.0343 21.0572 47.1712 22.1993C48.308 23.3418 48.308 25.1934 47.1712 26.3355Z" fill="#F56358"/>
<path fill-rule="evenodd" clip-rule="evenodd" d="M34.8187 9.7882C33.6818 8.64612 31.8386 8.64612 30.7013 9.7882L17.8359 22.7127L21.9533 26.8489L34.8187 13.9244C35.9556 12.782 35.9556 10.9303 34.8187 9.7882Z" fill="#7C68FF"/>
</svg>
