<svg width="32" height="29" viewBox="0 0 32 29" fill="none" xmlns="http://www.w3.org/2000/svg">
<g clip-path="url(#clip0_5208_8396)">
<path d="M23.2734 0H29.0916V5.79321H23.2734V0Z" fill="white"/>
<path d="M26.1797 0H31.9979V5.79321H26.1797V0Z" fill="#F7D046"/>
<path d="M0 0H5.81818V5.79321H0V0ZM0 5.79321H5.81818V11.5864H0V5.79321ZM0 11.5864H5.81818V17.3796H0V11.5864ZM0 17.3796H5.81818V23.1728H0V17.3796ZM0 23.1728H5.81818V28.9661H0V23.1728Z" fill="white"/>
<path d="M2.90625 0H8.72443V5.79321H2.90625V0Z" fill="#F7D046"/>
<path d="M26.179 5.79321H31.9972V11.5864H26.179V5.79321ZM2.90625 5.79321H8.72443V11.5864H2.90625V5.79321Z" fill="#F2A73B"/>
<path d="M17.4531 5.79321H23.2713V11.5864H17.4531V5.79321Z" fill="white"/>
<path d="M20.3629 5.79321H26.1811V11.5864H20.3629V5.79321ZM8.72656 5.79321H14.5447V11.5864H8.72656V5.79321Z" fill="#F2A73B"/>
<path d="M14.5447 11.5864H20.3629V17.3796H14.5447V11.5864ZM20.3629 11.5864H26.1811V17.3796H20.3629V11.5864ZM8.72656 11.5864H14.5447V17.3796H8.72656V11.5864Z" fill="#EE792F"/>
<path d="M11.6328 17.3796H17.451V23.1728H11.6328V17.3796Z" fill="white"/>
<path d="M14.5469 17.3796H20.3651V23.1728H14.5469V17.3796Z" fill="#EB5829"/>
<path d="M26.179 11.5864H31.9972V17.3796H26.179V11.5864ZM2.90625 11.5864H8.72443V17.3796H2.90625V11.5864Z" fill="#EE792F"/>
<path d="M23.2734 17.3796H29.0916V23.1728H23.2734V17.3796Z" fill="white"/>
<path d="M26.1797 17.3796H31.9979V23.1728H26.1797V17.3796Z" fill="#EB5829"/>
<path d="M23.2734 23.1729H29.0916V28.9661H23.2734V23.1729Z" fill="white"/>
<path d="M2.90625 17.3796H8.72443V23.1728H2.90625V17.3796Z" fill="#EB5829"/>
<path d="M26.179 23.1729H31.9972V28.9661H26.179V23.1729ZM2.90625 23.1729H8.72443V28.9661H2.90625V23.1729Z" fill="#EA3326"/>
</g>
<defs>
<clipPath id="clip0_5208_8396">
<rect width="32" height="29" fill="white"/>
</clipPath>
</defs>
</svg>
