<svg width="38" height="21" viewBox="0 0 38 21" fill="none" xmlns="http://www.w3.org/2000/svg">
<g clip-path="url(#clip0_5208_8418)">
<path d="M9.82379 18.0849V13.8487C9.82379 10.8738 5.76796 9.82677 4.25208 12.4123L2.76771 14.9424C2.35238 15.6511 1.41526 15.8888 0.694054 15.46C-0.00165955 15.0473 -0.19508 14.1418 0.208254 13.452L7.23435 1.47528C8.75023 -1.10877 12.8061 -0.0631907 12.8061 2.91314V7.16543C12.8061 10.1388 16.8604 11.1859 18.3778 8.60474L22.5716 1.46653C24.0888 -1.11606 28.1432 -0.0690232 28.1432 2.90583V7.18877C28.1432 10.1622 32.1945 11.2092 33.7135 8.62954L35.2337 6.04694C35.6505 5.33968 36.5877 5.10198 37.3075 5.53217C38.0032 5.94777 38.1951 6.8519 37.7902 7.54166L30.7311 19.5359C29.2123 22.1155 25.1609 21.0685 25.1609 18.0951V13.8268C25.1609 10.8534 21.1066 9.80635 19.5893 12.3875L15.3955 19.5256C13.8781 22.1082 9.82379 21.0611 9.82379 18.0864V18.0849Z" fill="white"/>
</g>
<defs>
<clipPath id="clip0_5208_8418">
<rect width="38" height="21" fill="white"/>
</clipPath>
</defs>
</svg>
