<svg width="34" height="32" viewBox="0 0 34 32" fill="none" xmlns="http://www.w3.org/2000/svg">
<path d="M14.9656 0C20.1219 0 27.9107 1.60096 31.531 5.27225C32.4488 6.20454 33.6534 8.02411 33.6534 10.6988C33.6534 15.4438 29.8738 22.7285 25.7053 26.9592C23.551 29.1453 20.1219 32 15.5073 32C10.9947 32 7.5529 28.9009 6.55859 27.8851C2.73434 24.0145 0 18.1378 0 12.6663C0 9.20715 0.975184 6.18525 3.45457 3.67129C5.74912 1.35021 9.70722 0 14.9656 0ZM21.3457 18.9351C23.0857 17.1734 23.5574 15.0002 23.5574 13.8043C23.5574 12.9363 23.3343 11.6697 22.2635 10.5831C20.6255 8.91782 18.8026 8.44846 16.8267 8.44846C14.3218 8.44846 12.6391 9.25216 11.5174 10.3838C10.6378 11.2839 9.87932 12.647 9.87932 14.5951C9.87932 16.5369 10.9055 18.4143 12.0145 19.5459C13.0471 20.5875 14.666 21.3591 16.2913 21.3591C17.923 21.3591 19.6057 20.6968 21.3457 18.9351Z" fill="#7C68FF"/>
</svg>
