<svg width="38" height="38" viewBox="0 0 38 38" fill="none" xmlns="http://www.w3.org/2000/svg">
<path d="M18.2529 34.4375V26.4189L11.4053 33.3164C11.1912 33.532 10.8678 33.5972 10.5869 33.4814C10.3061 33.3656 10.123 33.0918 10.123 32.7881V25.6055H7.47656C7.06245 25.6055 6.72673 25.2695 6.72656 24.8555V13.1201C6.72666 12.706 7.06241 12.3701 7.47656 12.3701H10.123V5.21191C10.123 4.91045 10.3033 4.63779 10.5811 4.52051C10.8587 4.4033 11.1794 4.46379 11.3955 4.67383L18.2529 11.3438V3.5625C18.2529 3.14839 18.5889 2.81266 19.0029 2.8125C19.4171 2.8125 19.7529 3.14829 19.7529 3.5625V11.3447L26.6104 4.67383C26.8264 4.46363 27.1481 4.40322 27.4258 4.52051C27.7034 4.63785 27.8838 4.91054 27.8838 5.21191V12.3701H30.5303C30.9443 12.3703 31.2802 12.7061 31.2803 13.1201V24.8555C31.2801 25.2694 30.9442 25.6053 30.5303 25.6055H27.8838V32.7881C27.8838 33.0919 27.6999 33.3657 27.4189 33.4814C27.1381 33.5971 26.8156 33.532 26.6016 33.3164L19.7529 26.4189V34.4375C19.7529 34.8517 19.4171 35.1875 19.0029 35.1875C18.5889 35.1873 18.2529 34.8516 18.2529 34.4375ZM11.623 21.6895V30.9678L18.2529 24.29V14.9521L11.623 21.6895ZM19.7529 24.29L26.3838 30.9678V21.6904L19.7529 14.9512V24.29ZM27.668 20.8564C27.806 20.9967 27.8838 21.186 27.8838 21.3828V24.1055H29.7803V13.8701H20.793L27.668 20.8564ZM8.22656 24.1055H10.123V21.3828C10.1231 21.186 10.1999 20.9967 10.3379 20.8564L17.2139 13.8701H8.22656V24.1055ZM20.8506 12.3701H26.3838V6.98633L20.8506 12.3701ZM11.623 12.3701H17.1562L11.623 6.9873V12.3701Z" fill="#20808D"/>
</svg>
