<svg width="38" height="38" viewBox="0 0 38 38" fill="none" xmlns="http://www.w3.org/2000/svg">
<path fill-rule="evenodd" clip-rule="evenodd" d="M19.9597 2.12173C20.582 3.21423 21.201 4.30989 21.8185 5.40714C21.8435 5.45102 21.8797 5.48749 21.9234 5.5128C21.967 5.53812 22.0166 5.55138 22.0671 5.55122H30.8578C31.1333 5.55122 31.3676 5.72539 31.564 6.06897L33.8661 10.1381C34.167 10.6717 34.2461 10.895 33.9041 11.4634C33.4925 12.1442 33.0919 12.8314 32.7008 13.5217L32.1197 14.5636C31.9519 14.8739 31.7666 15.0069 32.0564 15.3742L36.2554 22.7161C36.5277 23.1927 36.4311 23.4983 36.1873 23.9353C35.4954 25.1782 34.7908 26.4116 34.0735 27.6403C33.8218 28.071 33.5162 28.2341 32.9969 28.2261C31.7666 28.2008 30.5395 28.2103 29.3125 28.2515C29.2862 28.2528 29.2606 28.2608 29.2382 28.2746C29.2158 28.2885 29.1972 28.3077 29.1842 28.3306C27.7685 30.8391 26.3408 33.3408 24.9013 35.8356C24.6337 36.2996 24.2996 36.4104 23.7534 36.412C22.1748 36.4167 20.5835 36.4183 18.9765 36.4151C18.8268 36.4147 18.68 36.3748 18.5507 36.2995C18.4214 36.2242 18.3143 36.116 18.2402 35.9861L16.1265 32.308C16.1142 32.2839 16.0953 32.2638 16.072 32.2501C16.0487 32.2364 16.0221 32.2295 15.995 32.2304H7.89154C7.44029 32.2779 7.01596 32.2288 6.61696 32.0847L4.07888 27.6989C4.00381 27.569 3.96403 27.4218 3.96347 27.2718C3.96292 27.1218 4.00161 26.9743 4.07571 26.8439L5.98679 23.4872C6.01402 23.4398 6.02834 23.386 6.02834 23.3313C6.02834 23.2765 6.01402 23.2228 5.98679 23.1753C4.9913 21.4518 4.00171 19.7249 3.01804 17.9946L1.76721 15.7859C1.51388 15.2951 1.49329 15.0006 1.91763 14.258C2.65388 12.9707 3.38538 11.6851 4.11371 10.401C4.32271 10.0305 4.59504 9.87214 5.03838 9.87056C6.40479 9.8648 7.77121 9.86427 9.13763 9.86897C9.17214 9.86871 9.20598 9.85935 9.23572 9.84183C9.26546 9.82432 9.29006 9.79928 9.30704 9.76923L13.7499 2.01881C13.8172 1.9009 13.9144 1.80282 14.0317 1.73444C14.149 1.66606 14.2823 1.6298 14.418 1.62931C15.2477 1.62773 16.0853 1.62931 16.9245 1.61981L18.5347 1.58339C19.0746 1.57864 19.681 1.63406 19.9597 2.12173ZM14.5257 2.75981C14.509 2.7598 14.4926 2.76418 14.4782 2.77252C14.4637 2.78086 14.4517 2.79286 14.4434 2.80731L9.90554 10.7477C9.88376 10.7851 9.85257 10.8162 9.81508 10.8379C9.77759 10.8595 9.73509 10.871 9.69179 10.8712H5.15396C5.06529 10.8712 5.04313 10.9108 5.08904 10.9884L14.2882 27.0687C14.3278 27.1352 14.3088 27.1669 14.2344 27.1685L9.80896 27.1922C9.74426 27.1901 9.68027 27.2061 9.62427 27.2386C9.56828 27.2711 9.52254 27.3187 9.49229 27.3759L7.40229 31.0334C7.33263 31.1569 7.36904 31.2202 7.50996 31.2202L16.5603 31.2329C16.6331 31.2329 16.687 31.2646 16.725 31.3295L18.9464 35.215C19.0192 35.3432 19.092 35.3448 19.1665 35.215L27.0926 21.345L28.3324 19.1568C28.3399 19.1433 28.351 19.132 28.3643 19.1242C28.3777 19.1164 28.3929 19.1122 28.4084 19.1122C28.4239 19.1122 28.4391 19.1164 28.4524 19.1242C28.4658 19.132 28.4768 19.1433 28.4844 19.1568L30.739 23.1626C30.756 23.1926 30.7806 23.2175 30.8104 23.2348C30.8402 23.252 30.874 23.261 30.9085 23.2608L35.2832 23.2291C35.2944 23.2292 35.3055 23.2264 35.3152 23.2208C35.3249 23.2152 35.333 23.2072 35.3386 23.1975C35.344 23.1878 35.3469 23.1769 35.3469 23.1658C35.3469 23.1547 35.344 23.1438 35.3386 23.1341L30.747 15.0813C30.7304 15.0544 30.7217 15.0234 30.7217 14.9918C30.7217 14.9603 30.7304 14.9293 30.747 14.9024L31.2109 14.0996L32.9842 10.9694C33.0222 10.9045 33.0032 10.8712 32.9288 10.8712H14.57C14.4766 10.8712 14.4545 10.8301 14.502 10.7493L16.7725 6.78306C16.7895 6.75603 16.7985 6.72474 16.7985 6.69281C16.7985 6.66087 16.7895 6.62959 16.7725 6.60256L14.6096 2.80889C14.6014 2.79391 14.5892 2.78144 14.5744 2.7728C14.5597 2.76416 14.5428 2.75967 14.5257 2.75981ZM24.4849 15.4581C24.5577 15.4581 24.5767 15.4898 24.5387 15.5531L23.2214 17.8727L19.0841 25.1323C19.0764 25.1464 19.0649 25.1582 19.0509 25.1663C19.037 25.1744 19.0211 25.1785 19.005 25.1782C18.9889 25.1782 18.9731 25.1739 18.9592 25.1658C18.9454 25.1578 18.9338 25.1462 18.9258 25.1323L13.4585 15.5816C13.4269 15.5278 13.4427 15.4993 13.5029 15.4961L13.8449 15.4771L24.488 15.4581H24.4849Z" fill="white"/>
</svg>
