<svg width="38" height="38" viewBox="0 0 38 38" fill="none" xmlns="http://www.w3.org/2000/svg">
<path fill-rule="evenodd" clip-rule="evenodd" d="M26.4654 32.9829C23.073 33.2929 20.2364 29.3178 18.0623 27.3016C16.9628 35.2237 4.9918 34.4727 5 26.4365C5.00394 23.061 5 14.8128 5 11.5435C5 10.3681 5.32261 9.18437 5.92778 8.18059C7.07622 6.23378 9.29543 4.9768 11.5555 5.00108C14.96 5.0054 23.1589 4.99719 26.4654 5.00108C34.5091 5.00108 35.273 16.9678 27.3238 18.0452L31.096 21.8123C35.2404 25.7099 32.1299 33.1542 26.4654 32.9829ZM24.6385 28.2689C26.9761 30.677 30.7079 26.9464 28.3005 24.612L21.7611 18.0821H18.103V21.7386L23.7558 27.3835L24.6385 28.2689ZM8.96031 26.4404C8.90704 29.7873 14.1917 29.7995 14.1388 26.4404V11.5435C14.1835 9.8742 12.4181 8.54787 10.8241 9.06209C10.7547 9.08249 10.6893 9.10289 10.6277 9.12755C9.62662 9.49871 8.93171 10.5233 8.96031 11.5925V26.4404ZM26.4654 14.1269C29.8248 14.1802 29.8209 8.90295 26.4654 8.95589H17.5841C18.2587 10.3763 18.087 12.5885 18.0991 14.1269H26.4654Z" fill="white"/>
</svg>
