<svg width="28" height="45" viewBox="0 0 28 45" fill="none" xmlns="http://www.w3.org/2000/svg">
<g clip-path="url(#clip0_5426_7250)">
<path d="M15.0825 30.7418C14.7017 30.7836 14.596 30.2615 14.9556 30.1571C14.9768 30.1571 14.9768 30.1571 14.9979 30.1362C22.5075 28.0478 28.0075 24.2678 27.2883 21.6989C26.5478 19.1302 19.8633 18.7334 12.3536 20.8218C4.844 22.9102 -0.656011 26.6903 0.0632211 29.259C2.17861 36.673 9.98439 41.0168 17.494 38.9285C23.6075 37.2368 27.6479 31.807 27.796 25.8549C22.3595 30.4703 15.0825 30.7418 15.0825 30.7418Z" fill="#F54547"/>
<path d="M22.5274 11.7974C21.2158 7.18194 16.3504 4.48786 11.6543 5.78269C8.1004 6.78513 5.64655 9.81336 5.28694 13.2593C5.92155 12.8416 8.73502 11.1708 13.0082 10.8993C13.1139 10.8993 13.1774 10.8785 13.1774 10.8785C13.41 10.8367 13.4734 11.1917 13.2619 11.2544H13.2407C8.54464 12.5492 5.11771 14.9091 5.56193 16.5172C6.02732 18.1252 10.1735 18.3551 14.8697 17.0602C19.5658 15.7445 22.9927 13.4055 22.5274 11.7974Z" fill="#F54547"/>
</g>
<defs>
<clipPath id="clip0_5426_7250">
<rect width="27.796" height="44.911" fill="white"/>
</clipPath>
</defs>
</svg>
