<svg width="40" height="40" viewBox="0 0 40 40" fill="none" xmlns="http://www.w3.org/2000/svg">
<g clip-path="url(#clip0_3890_3451)">
<path d="M20 40C31.0457 40 40 31.0457 40 20C40 8.9543 31.0457 0 20 0C8.9543 0 0 8.9543 0 20C0 31.0457 8.9543 40 20 40Z" fill="#F0F0F0"/>
<path d="M26.9598 20.0004C26.9598 21.7396 23.8453 26.0874 20.0034 26.0874C16.1614 26.0874 13.0469 21.7396 13.0469 20.0004C13.0469 16.1584 16.1614 13.0439 20.0034 13.0439C23.8453 13.0439 26.9598 16.1584 26.9598 20.0004Z" fill="#D80027"/>
<path d="M26.9598 20C26.9598 23.842 23.8453 26.9565 20.0034 26.9565C16.1614 26.9565 13.0469 23.842 13.0469 20" fill="#0052B4"/>
<path d="M27.375 26.1494L29.2193 24.3051L30.4489 25.5347L28.6046 27.379L27.375 26.1494Z" fill="black"/>
<path d="M24.2969 29.2227L26.1412 27.3783L27.3708 28.6079L25.5264 30.4522L24.2969 29.2227Z" fill="black"/>
<path d="M31.0625 29.8379L32.9068 27.9936L34.1364 29.2231L32.2921 31.0675L31.0625 29.8379Z" fill="black"/>
<path d="M27.9844 32.9121L29.8287 31.0678L31.0583 32.2974L29.2139 34.1417L27.9844 32.9121Z" fill="black"/>
<path d="M29.2188 27.9932L31.0631 26.1488L32.2927 27.3784L30.4483 29.2227L29.2188 27.9932Z" fill="black"/>
<path d="M26.1406 31.0674L27.985 29.2231L29.2145 30.4526L27.3702 32.297L26.1406 31.0674Z" fill="black"/>
<path d="M31.0703 13.8545L26.1521 8.93626L27.3816 7.70669L32.2999 12.6249L31.0703 13.8545Z" fill="black"/>
<path d="M26.1484 12.625L24.3041 10.7807L25.5336 9.55115L27.378 11.3955L26.1484 12.625Z" fill="black"/>
<path d="M29.2266 15.7002L27.3822 13.8559L28.6117 12.6263L30.4561 14.4707L29.2266 15.7002Z" fill="black"/>
<path d="M29.8359 8.93555L27.9916 7.09122L29.2212 5.86164L31.0655 7.70597L29.8359 8.93555Z" fill="black"/>
<path d="M32.9141 12.0107L31.0697 10.1664L32.2993 8.93684L34.1436 10.7812L32.9141 12.0107Z" fill="black"/>
<path d="M7.09375 27.9902L12.012 32.9085L10.7824 34.138L5.86418 29.2198L7.09375 27.9902Z" fill="black"/>
<path d="M12.0078 29.2188L13.8521 31.0631L12.6226 32.2926L10.7783 30.4483L12.0078 29.2188Z" fill="black"/>
<path d="M8.9375 26.1455L10.7818 27.9898L9.55226 29.2194L7.70793 27.3751L8.9375 26.1455Z" fill="black"/>
<path d="M10.7812 24.3008L15.6995 29.219L14.4699 30.4486L9.55168 25.5304L10.7812 24.3008Z" fill="black"/>
<path d="M12.0078 7.08789L7.08958 12.0061L5.86001 10.7766L10.7782 5.85832L12.0078 7.08789Z" fill="black"/>
<path d="M13.8516 8.93164L8.93333 13.8499L7.70376 12.6203L12.622 7.70207L13.8516 8.93164Z" fill="black"/>
<path d="M15.6953 10.7773L10.7771 15.6956L9.54756 14.4661L14.4658 9.54783L15.6953 10.7773Z" fill="black"/>
</g>
<defs>
<clipPath id="clip0_3890_3451">
<rect width="40" height="40" fill="white"/>
</clipPath>
</defs>
</svg>
