<svg width="32" height="45" viewBox="0 0 32 45" fill="none" xmlns="http://www.w3.org/2000/svg">
<g clip-path="url(#clip0_5426_7287)">
<path d="M20.3664 13.4477C19.7635 12.7369 18.7859 12.7369 18.1834 13.4477L8.35878 25.029C7.15241 26.4499 5.19792 26.4499 3.99242 25.029C2.78568 23.6075 2.78568 21.3033 3.99242 19.8811L13.6279 8.52332C12.4221 7.10155 10.4669 7.10155 9.26115 8.52332L1.80843 17.3082C-0.60281 20.1512 -0.60281 24.7596 1.80843 27.6029C4.2203 30.446 8.12966 30.446 10.5415 27.6029L20.3664 16.0214C20.9689 15.3108 20.9689 14.1584 20.3664 13.4477ZM23.6412 9.58762C21.2294 6.74423 17.32 6.74423 14.9081 9.58762L5.08379 21.1683C4.48129 21.8785 4.48129 23.0317 5.08379 23.7421C5.68667 24.4527 6.66379 24.4527 7.26678 23.7421L17.092 12.1614C18.2977 10.7396 20.2522 10.7396 21.4577 12.1614C22.0612 12.8716 23.0385 12.8716 23.6413 12.1614C24.2442 11.45 24.2442 10.2983 23.6413 9.58762H23.6412ZM26.9163 21.1683C26.3135 20.4584 25.3356 20.4584 24.7327 21.1683L14.9081 32.7495C13.7024 34.1708 11.7473 34.1708 10.5415 32.7495C9.93902 32.0392 8.96165 32.0392 8.35878 32.7495C7.75503 33.4604 7.75503 34.6128 8.35878 35.3228C10.7696 38.1658 14.68 38.1658 17.0919 35.3228L26.9163 23.7421C27.5188 23.0318 27.5188 21.8787 26.9163 21.1683ZM30.1916 17.3084C27.7797 14.4657 23.8697 14.4657 21.4585 17.3084L11.6333 28.8898C11.0304 29.5997 11.0304 30.7529 11.6333 31.4631C12.2365 32.1742 13.2141 32.1742 13.8166 31.4631L23.6412 19.882C24.8466 18.4603 26.8021 18.4603 28.0076 19.882C29.2133 21.3034 29.2133 23.6077 28.0076 25.0291L18.3721 36.3876C19.5779 37.8085 21.5321 37.8085 22.7388 36.3876L30.1916 27.6027C32.6028 24.7593 32.6028 20.151 30.1916 17.3084Z" fill="#1A1A1C"/>
</g>
<defs>
<clipPath id="clip0_5426_7287">
<rect width="32" height="44.911" fill="white"/>
</clipPath>
</defs>
</svg>
