<svg width="40" height="40" viewBox="0 0 40 40" fill="none" xmlns="http://www.w3.org/2000/svg">
<g clip-path="url(#clip0_3890_3442)">
<path d="M20 40C31.0457 40 40 31.0457 40 20C40 8.9543 31.0457 0 20 0C8.9543 0 0 8.9543 0 20C0 31.0457 8.9543 40 20 40Z" fill="#F0F0F0"/>
<path d="M4.13289 7.82422C2.56187 9.8682 1.37727 12.2241 0.6875 14.7834H11.092L4.13289 7.82422Z" fill="#0052B4"/>
<path d="M39.3106 14.7833C38.6209 12.2241 37.4362 9.8682 35.8652 7.82422L28.9062 14.7833H39.3106Z" fill="#0052B4"/>
<path d="M0.6875 25.2178C1.37734 27.777 2.56195 30.1329 4.13289 32.1768L11.0918 25.2178H0.6875Z" fill="#0052B4"/>
<path d="M32.1778 4.13492C30.1338 2.56391 27.778 1.3793 25.2188 0.689453V11.0939L32.1778 4.13492Z" fill="#0052B4"/>
<path d="M7.82031 35.8661C9.8643 37.4371 12.2202 38.6218 14.7794 39.3116V28.9072L7.82031 35.8661Z" fill="#0052B4"/>
<path d="M14.7793 0.689453C12.2201 1.3793 9.86422 2.56391 7.82031 4.13484L14.7793 11.0938V0.689453Z" fill="#0052B4"/>
<path d="M25.2188 39.3116C27.778 38.6218 30.1338 37.4371 32.1777 35.8662L25.2188 28.9072V39.3116Z" fill="#0052B4"/>
<path d="M28.9062 25.2178L35.8652 32.1768C37.4362 30.1329 38.6209 27.777 39.3106 25.2178H28.9062Z" fill="#0052B4"/>
<path d="M39.8307 17.3913H22.6088H22.6087V0.169297C21.7548 0.058125 20.8841 0 20 0C19.1157 0 18.2452 0.058125 17.3913 0.169297V17.3912V17.3913H0.169297C0.058125 18.2452 0 19.1159 0 20C0 20.8843 0.058125 21.7548 0.169297 22.6087H17.3912H17.3913V39.8307C18.2452 39.9419 19.1157 40 20 40C20.8841 40 21.7548 39.942 22.6087 39.8307V22.6088V22.6087H39.8307C39.9419 21.7548 40 20.8843 40 20C40 19.1159 39.9419 18.2452 39.8307 17.3913Z" fill="#D80027"/>
<path d="M25.2188 25.2179L34.1434 34.1425C34.5539 33.7322 34.9455 33.3032 35.3191 32.8586L27.6783 25.2178H25.2188V25.2179Z" fill="#D80027"/>
<path d="M14.7841 25.2178H14.784L5.85938 34.1424C6.26969 34.5529 6.69867 34.9444 7.14336 35.318L14.7841 27.6771V25.2178Z" fill="#D80027"/>
<path d="M14.78 14.7823V14.7822L5.85531 5.85742C5.44484 6.26773 5.05328 6.69672 4.67969 7.14141L12.3205 14.7823H14.78V14.7823Z" fill="#D80027"/>
<path d="M25.2188 14.783L34.1435 5.85816C33.7332 5.4477 33.3042 5.05613 32.8595 4.68262L25.2188 12.3235V14.783Z" fill="#D80027"/>
</g>
<defs>
<clipPath id="clip0_3890_3442">
<rect width="40" height="40" fill="white"/>
</clipPath>
</defs>
</svg>
