<svg width="253" height="233" viewBox="0 0 253 233" fill="none" xmlns="http://www.w3.org/2000/svg">
<path d="M23.9658 183.624C16.9904 162.702 1.77514 132.996 18.7067 113.893C25.0142 106.873 35.6131 105.457 43.8118 109.804C55.1293 115.786 61.6716 126.291 69.2 136.588C78.1571 149.457 85.9407 163.119 93.8322 176.722C103.324 192.098 111.866 211.237 128.793 219.465C145.406 227.353 162.086 214.085 163.392 197.165C161.693 165.386 144.332 111.625 139.921 81.4096C138.987 72.3464 146.115 63.9224 155.854 64.4674C164.581 65.0872 171.989 71.4716 177.301 77.6964C191.44 94.9593 211.382 125.237 227.487 138.843C238.188 148.65 251.577 144.659 260.596 135.068C277.894 115.631 273.92 73.9016 270.887 49.5059C267.955 29.9896 262.651 10.613 256.142 -8.45208C242.838 -44.8388 226.311 -74.1754 201.447 -71.9035C191.427 -71.0178 179.949 -64.167 175.303 -54.4116C165.498 -35.9899 174.983 -16.6333 188.052 -2.28179C199.347 10.7639 212.66 21.4787 228.154 29.0934C276.855 53.4506 315.744 27.9396 297.044 -26.7963" stroke="url(#paint0_linear_4057_9378)" stroke-width="22" stroke-miterlimit="10" stroke-linecap="round"/>
<defs>
<linearGradient id="paint0_linear_4057_9378" x1="251.483" y1="147.282" x2="87.3607" y2="23.0451" gradientUnits="userSpaceOnUse">
<stop stop-color="#BEAB9A"/>
<stop offset="1" stop-color="#F4EFE7"/>
</linearGradient>
</defs>
</svg>
