<?xml version="1.0" encoding="UTF-8"?>
<svg id="Layer_1" data-name="Layer 1" xmlns="http://www.w3.org/2000/svg" width="123.76" height="46.61" xmlns:xlink="http://www.w3.org/1999/xlink" viewBox="0 0 123.76 46.61">
  <defs>
    <linearGradient id="linear-gradient" x1="61.88" y1="47.89" x2="61.88" y2="15.88" gradientTransform="translate(0 47.89) scale(1 -1)" gradientUnits="userSpaceOnUse">
      <stop offset="0" stop-color="#fff" stop-opacity=".05"/>
      <stop offset="1" stop-color="#fff" stop-opacity="0"/>
    </linearGradient>
  </defs>
  <path d="M16,0h91.76c8.84,0,16,7.16,16,16h0c0,8.84-7.16,16-16,16H16C7.16,32,0,24.84,0,16h0C0,7.16,7.16,0,16,0Z" fill="#1a1a1c" stroke-width="0"/>
  <path d="M16,0h91.75c8.84,0,16,7.16,16,16h0c0,8.84-7.16,16-16,16H16C7.16,32.01,0,24.84,0,16h0C0,7.16,7.16,0,16,0Z" fill="url(#linear-gradient)" stroke-width="0"/>
  <g>
    <path d="M13.78,11.2h4.26c1.66,0,2.84,1.06,2.84,2.62,0,.92-.58,1.75-1.32,2.07,1.05.31,1.9,1.29,1.9,2.45,0,1.8-1.45,2.81-3,2.81h-4.67v-9.96ZM17.97,15.52c.89,0,1.59-.7,1.59-1.6s-.7-1.59-1.58-1.59h-2.89v3.19h2.89ZM18.35,20.02c1,0,1.77-.75,1.77-1.77,0-.95-.77-1.73-1.76-1.73h-3.27v3.49h3.26Z" fill="#fff" stroke-width="0"/>
    <path d="M22.62,17.43c0-2.18,1.57-3.94,3.6-3.94,1.35,0,2.46.7,2.97,1.81v-1.6h1.21v7.47h-1.21v-1.59c-.51,1.11-1.63,1.8-2.96,1.8-2.04,0-3.61-1.75-3.61-3.95ZM29.14,17.43c0-1.55-1.18-2.76-2.63-2.76s-2.64,1.15-2.64,2.76,1.2,2.77,2.64,2.77,2.64-1.2,2.64-2.77Z" fill="#fff" stroke-width="0"/>
    <path d="M32.81,13.69h1.21v1.44c.42-.96,1.49-1.66,2.75-1.66,1.98,0,3.02,1.25,3.02,3.63v4.05h-1.26v-4.03c0-1.72-.79-2.48-2.09-2.48s-2.38.98-2.38,2.58v3.93h-1.26v-7.47Z" fill="#fff" stroke-width="0"/>
    <path d="M44.79,17.52l-1.4,1.55v2.1h-1.26v-10.31h1.26v6.82l3.21-3.98h1.54l-2.43,3,2.81,4.48h-1.43l-2.31-3.65Z" fill="#fff" stroke-width="0"/>
    <path d="M55.86,12.37h-3.15v-1.16h7.6v1.16h-3.16v8.8h-1.3v-8.8Z" fill="#fff" stroke-width="0"/>
    <path d="M60.98,13.69h1.21v1.67c.37-1.03,1.19-1.67,2.27-1.67h.72v1.11h-.66c-1.31,0-2.29,1.05-2.29,2.85v3.52h-1.27v-7.47Z" fill="#fff" stroke-width="0"/>
    <path d="M65.68,17.43c0-2.18,1.58-3.94,3.6-3.94,1.35,0,2.46.7,2.97,1.81v-1.6h1.21v7.47h-1.21v-1.59c-.51,1.11-1.63,1.8-2.96,1.8-2.04,0-3.61-1.75-3.61-3.95ZM72.2,17.43c0-1.55-1.18-2.76-2.63-2.76s-2.64,1.15-2.64,2.76,1.2,2.77,2.64,2.77,2.64-1.2,2.64-2.77Z" fill="#fff" stroke-width="0"/>
    <path d="M75.87,13.69h1.21v1.44c.42-.96,1.49-1.66,2.75-1.66,1.99,0,3.02,1.25,3.02,3.63v4.05h-1.26v-4.03c0-1.72-.79-2.48-2.09-2.48s-2.38.98-2.38,2.58v3.93h-1.26v-7.47Z" fill="#fff" stroke-width="0"/>
    <path d="M84.56,18.87h1.22c.01.82.69,1.48,1.92,1.48,1.13,0,1.71-.48,1.71-1.23,0-.83-.71-1.05-1.88-1.25-1.39-.21-2.62-.7-2.62-2.2,0-1.22.89-2.19,2.67-2.19s2.87.94,2.87,2.24h-1.24c-.04-.71-.64-1.19-1.63-1.19s-1.43.51-1.43,1.11c0,.71.4.97,1.79,1.21,1.37.21,2.74.58,2.74,2.2,0,1.53-1.23,2.32-3.01,2.32-2.09,0-3.12-1.23-3.12-2.5Z" fill="#fff" stroke-width="0"/>
    <path d="M92.96,14.79h-1.6v-1.1h1.6v-.53c0-1.22.68-2.37,2.2-2.37h1.25v1.06h-.96c-.77,0-1.22.62-1.22,1.41v.42h2.12v1.1h-2.12v6.37h-1.27v-6.37Z" fill="#fff" stroke-width="0"/>
    <path d="M104.32,17.76h-6.2c.15,1.5,1.27,2.44,2.5,2.44,1,0,1.74-.44,2.07-1.28h1.41c-.42,1.37-1.76,2.45-3.46,2.45-2.16,0-3.8-1.75-3.8-3.94s1.64-3.95,3.8-3.95,3.69,1.76,3.69,3.76c0,.13,0,.24-.02.51ZM103.05,16.65c-.07-1.06-1.15-1.98-2.42-1.98-1.12,0-2.16.69-2.45,1.98h4.87Z" fill="#fff" stroke-width="0"/>
    <path d="M106.01,13.69h1.21v1.67c.37-1.03,1.19-1.67,2.27-1.67h.72v1.11h-.66c-1.31,0-2.29,1.05-2.29,2.85v3.52h-1.27v-7.47Z" fill="#fff" stroke-width="0"/>
  </g>
  <path d="M52.6,23.16c.29-.23.66-.31,1-.24.23.05.42.15.57.27l.13.11h0s11.42,10.86,11.42,10.86c.24.23.6.69.51,1.3-.11.71-.72,1-1.1,1.07h0s0,0,0,0l-6.13,1.13-4.31,7.21c-.09.15-.23.35-.45.51-.23.17-.69.35-1.18.1-.4-.21-.54-.58-.6-.75-.06-.2-.08-.42-.09-.61h0s-.3-19.65-.3-19.65h0c0-.21.02-.43.08-.64.06-.21.19-.48.45-.69Z" fill="#0d1016" stroke="#fff" stroke-width="2"/>
</svg>