<?xml version="1.0" encoding="UTF-8"?>
<svg id="Layer_1" data-name="Layer 1" xmlns="http://www.w3.org/2000/svg" width="130" height="46.61" xmlns:xlink="http://www.w3.org/1999/xlink" viewBox="0 0 130 46.61">
  <defs>
    <linearGradient id="linear-gradient" x1="65" y1="48" x2="65" y2="17" gradientTransform="translate(0 48) scale(1 -1)" gradientUnits="userSpaceOnUse">
      <stop offset="0" stop-color="#fff" stop-opacity=".05"/>
      <stop offset="1" stop-color="#fff" stop-opacity="0"/>
    </linearGradient>
  </defs>
  <path d="M16,0h98c8.84,0,16,7.16,16,16h0c0,8.84-7.16,16-16,16H16C7.16,32,0,24.84,0,16h0C0,7.16,7.16,0,16,0Z" fill="#1a1a1c" stroke-width="0"/>
  <path d="M16.5,0h97c8.56,0,15.5,6.94,15.5,15.5h0c0,8.56-6.94,15.5-15.5,15.5H16.5c-8.56,0-15.5-6.94-15.5-15.5h0C1,6.94,7.94,0,16.5,0Z" fill="url(#linear-gradient)" stroke-width="0"/>
  <g>
    <path d="M16.4,11.51h3.95c1.8,0,3.08,1.17,3.08,2.92,0,1.37-.81,2.37-2.04,2.7l2.24,3.68h-1.39l-2.06-3.5c-.1,0-.2,0-.3,0h-2.27v3.49h-1.21v-9.3ZM20.32,16.29c1.09,0,1.9-.75,1.9-1.85s-.83-1.84-1.92-1.84h-2.69v3.68h2.71Z" fill="#fff" stroke-width="0"/>
    <path d="M31.58,17.63h-5.78c.14,1.4,1.18,2.28,2.33,2.28.94,0,1.63-.41,1.93-1.2h1.32c-.4,1.28-1.64,2.29-3.23,2.29-2.02,0-3.55-1.63-3.55-3.68s1.53-3.68,3.55-3.68,3.45,1.64,3.45,3.51c0,.12,0,.23-.02.48ZM30.39,16.59c-.07-.99-1.07-1.85-2.26-1.85-1.05,0-2.02.64-2.28,1.85h4.55Z" fill="#fff" stroke-width="0"/>
    <path d="M32.57,17.32c0-2.04,1.54-3.68,3.56-3.68,1.66,0,2.93,1.04,3.34,2.48h-1.21c-.36-.9-1.18-1.37-2.13-1.37-1.22,0-2.39.98-2.39,2.58s1.18,2.58,2.39,2.58c.94,0,1.76-.48,2.13-1.44h1.2c-.4,1.5-1.68,2.54-3.34,2.54-2.02,0-3.56-1.65-3.56-3.68Z" fill="#fff" stroke-width="0"/>
    <path d="M47.42,17.63h-5.78c.14,1.4,1.18,2.28,2.33,2.28.94,0,1.63-.41,1.93-1.2h1.32c-.4,1.28-1.64,2.29-3.23,2.29-2.02,0-3.55-1.63-3.55-3.68s1.53-3.68,3.55-3.68,3.45,1.64,3.45,3.51c0,.12,0,.23-.02.48ZM46.24,16.59c-.07-.99-1.07-1.85-2.26-1.85-1.05,0-2.02.64-2.28,1.85h4.55Z" fill="#fff" stroke-width="0"/>
    <path d="M48.79,11.73c0-.41.31-.75.8-.75s.81.33.81.75-.31.75-.81.75-.79-.33-.79-.75ZM49,13.84h1.18v6.97h-1.18v-6.97Z" fill="#fff" stroke-width="0"/>
    <path d="M51.39,13.84h1.25l1.97,4.92.17.62.16-.62,1.97-4.92h1.26l-2.84,6.97h-1.11l-2.83-6.97Z" fill="#fff" stroke-width="0"/>
    <path d="M65.54,17.63h-5.78c.14,1.4,1.18,2.28,2.33,2.28.94,0,1.63-.41,1.93-1.2h1.32c-.4,1.28-1.64,2.29-3.23,2.29-2.02,0-3.55-1.63-3.55-3.68s1.53-3.68,3.55-3.68,3.45,1.64,3.45,3.51c0,.12,0,.23-.02.48ZM64.36,16.59c-.07-.99-1.07-1.85-2.26-1.85-1.05,0-2.02.64-2.28,1.85h4.55Z" fill="#fff" stroke-width="0"/>
    <path d="M76.41,18.71h-4.7l-.88,2.11h-1.29l3.94-9.3h1.16l3.93,9.3h-1.29l-.88-2.11ZM75.97,17.68l-1.87-4.46-.03-.16h-.01l-.04.16-1.87,4.46h3.83Z" fill="#fff" stroke-width="0"/>
    <path d="M79.09,18.67h1.13c.01.77.64,1.38,1.79,1.38,1.05,0,1.6-.44,1.6-1.15,0-.78-.66-.98-1.76-1.16-1.3-.19-2.44-.65-2.44-2.06,0-1.14.83-2.04,2.5-2.04s2.68.88,2.68,2.09h-1.16c-.03-.66-.59-1.11-1.52-1.11s-1.33.47-1.33,1.03c0,.66.38.91,1.67,1.13,1.28.2,2.56.54,2.56,2.06,0,1.43-1.15,2.17-2.81,2.17-1.95,0-2.91-1.15-2.91-2.34Z" fill="#fff" stroke-width="0"/>
    <path d="M85.83,18.67h1.13c.01.77.64,1.38,1.79,1.38,1.05,0,1.6-.44,1.6-1.15,0-.78-.66-.98-1.76-1.16-1.3-.19-2.44-.65-2.44-2.06,0-1.14.83-2.04,2.5-2.04s2.68.88,2.68,2.09h-1.16c-.03-.66-.59-1.11-1.52-1.11s-1.33.47-1.33,1.03c0,.66.38.91,1.67,1.13,1.28.2,2.56.54,2.56,2.06,0,1.43-1.15,2.17-2.81,2.17-1.95,0-2.91-1.15-2.91-2.34Z" fill="#fff" stroke-width="0"/>
    <path d="M99.54,17.63h-5.78c.14,1.4,1.18,2.28,2.33,2.28.94,0,1.63-.41,1.93-1.2h1.32c-.4,1.28-1.64,2.29-3.23,2.29-2.02,0-3.55-1.63-3.55-3.68s1.53-3.68,3.55-3.68,3.45,1.64,3.45,3.51c0,.12,0,.23-.02.48ZM98.36,16.59c-.07-.99-1.07-1.85-2.26-1.85-1.05,0-2.02.64-2.28,1.85h4.55Z" fill="#fff" stroke-width="0"/>
    <path d="M101.42,18.23v-3.36h-1.55v-1.03h1.55v-2.07h1.18s0,2.07,0,2.07h2.3v1.03h-2.3v3.41c0,1.3.63,1.53,1.25,1.53h1.05v1h-1.29c-1.06,0-2.19-.41-2.19-2.58Z" fill="#fff" stroke-width="0"/>
    <path d="M105.83,18.67h1.13c.01.77.64,1.38,1.79,1.38,1.05,0,1.6-.44,1.6-1.15,0-.78-.66-.98-1.76-1.16-1.3-.19-2.44-.65-2.44-2.06,0-1.14.83-2.04,2.5-2.04s2.68.88,2.68,2.09h-1.16c-.03-.66-.59-1.11-1.52-1.11s-1.33.47-1.33,1.03c0,.66.38.91,1.67,1.13,1.28.2,2.56.54,2.56,2.06,0,1.43-1.15,2.17-2.81,2.17-1.95,0-2.91-1.15-2.91-2.34Z" fill="#fff" stroke-width="0"/>
  </g>
  <path d="M63.46,23.06c.6-.33,1.21-.12,1.6.13h0s16.68,10.86,16.68,10.86h0c.18.12.37.27.52.48.15.21.31.57.22,1-.1.43-.4.68-.62.8-.22.12-.46.18-.67.21h-.01s-9.22,1.17-9.22,1.17l-6.39,7.31c-.14.16-.33.33-.57.45-.24.12-.6.2-.98.07-.39-.14-.61-.43-.73-.68-.11-.24-.14-.5-.15-.71l-.44-19.65h0c-.01-.47.14-1.1.75-1.43Z" fill="#0d1016" stroke="#fff" stroke-width="2"/>
</svg>