<svg width="222" height="248" viewBox="0 0 222 248" fill="none" xmlns="http://www.w3.org/2000/svg">
<path d="M199.801 47.9791C205.75 67.1643 219.033 94.5076 203.248 111.577C197.369 117.848 187.691 118.933 180.309 114.817C170.118 109.152 164.363 99.46 157.706 89.9387C149.797 78.0482 142.972 65.4582 136.048 52.9193C127.701 38.7358 120.291 21.1436 105.036 13.3251C90.0603 5.8228 74.6162 17.584 73.1012 32.966C74.0366 61.9364 88.8106 111.225 92.246 138.823C92.9227 147.094 86.2696 154.628 77.4118 153.944C69.4769 153.212 62.8543 147.255 58.1368 141.485C45.5939 125.494 28.0182 97.5389 13.6145 84.8401C4.05876 75.7037 -8.20987 79.0798 -16.6065 87.6403C-32.7325 105.006 -29.9167 143.081 -27.6238 165.354C-25.33 183.182 -20.8726 200.928 -15.3131 218.414C-3.89816 251.803 10.5867 278.835 33.2709 277.244C42.4117 276.631 52.9954 270.613 57.4138 261.82C66.6968 245.234 58.4326 227.425 46.8076 214.105C36.7743 202.009 24.8575 191.996 10.895 184.764C-32.9825 161.647 -68.885 184.129 -52.9111 234.331" stroke="url(#paint0_linear_4057_9379)" stroke-width="22" stroke-miterlimit="10" stroke-linecap="round"/>
<defs>
<linearGradient id="paint0_linear_4057_9379" x1="-8.07374" y1="76.6933" x2="138.984" y2="192.981" gradientUnits="userSpaceOnUse">
<stop stop-color="#BEAB9A"/>
<stop offset="1" stop-color="#F4EFE7"/>
</linearGradient>
</defs>
</svg>
