<?xml version="1.0" encoding="UTF-8"?>
<svg xmlns="http://www.w3.org/2000/svg" width="172" height="172" viewBox="0 0 172 172">
  <g id="Ellipse_1" data-name="Ellipse 1" isolation="isolate" opacity=".06">
    <g id="Ellipse_1-2" data-name="Ellipse 1">
      <circle cx="86" cy="86" r="86" fill="#000" stroke-width="0"/>
    </g>
  </g>
  <g id="Ellipse_1-3" data-name="Ellipse 1" isolation="isolate">
    <g id="Ellipse_1-4" data-name="Ellipse 1">
      <path d="M86.09,20.09c-36.45,0-66,29.55-66,66s29.55,66,66,66,66-29.55,66-66S122.54,20.09,86.09,20.09ZM86.09,139.99c-29.77,0-53.9-24.13-53.9-53.9s24.13-53.9,53.9-53.9,53.9,24.13,53.9,53.9-24.13,53.9-53.9,53.9Z" fill="#fff" fill-rule="evenodd" stroke-width="0"/>
    </g>
  </g>
  <g id="Ellipse_2" data-name="Ellipse 2" isolation="isolate">
    <g id="Ellipse_2-2" data-name="Ellipse 2">
      <path d="M87.18,20.12c-.38-.08-.78-.12-1.18-.12-3.31,0-6,2.69-6,6s2.69,6,6,6v.2s.06,0,.09,0c29.77,0,53.9,24.13,53.9,53.9s-24.13,53.9-53.9,53.9-53.9-24.13-53.9-53.9c0-.03,0-.06,0-.09h-.2c0-3.31-2.69-6-6-6s-6,2.69-6,6c0,.41.04.81.12,1.2.59,35.94,29.89,64.9,65.97,64.9s64.09-27.68,65.91-62.51v-6.97c-1.79-34.47-30.04-61.92-64.82-62.49Z" fill="#7822ff" fill-rule="evenodd" stroke-width="0"/>
    </g>
  </g>
</svg>